<svg xmlns="http://www.w3.org/2000/svg" height="24" width="24"><path d="M10.9 23C10.1 22.9 9.6 22.8 8.9 22.6 7.7 22.2 6.3 21.5 5.4 20.8 3.8 19.6 2.7 18.2 1.9 16.4 1.6 15.7 1.3 14.7 1.2 14 1 13.3 1 11.9 1 11.1 1.3 7.3 3.6 3.9 7 2.2 7.6 1.8 8.3 1.6 8.7 1.5c0.1 0 0.3-0.1 0.3-0.1 0.1-0.1 0.6-0.2 0.8-0.2 0.1 0 0.3 0 0.4-0.1 0.5-0.2 2.7-0.2 3.7 0 1.6 0.3 3.2 0.9 4.5 1.9 0.7 0.5 1.6 1.4 2.2 2 1.1 1.4 1.9 3 2.2 4.7 0.1 0.6 0.2 1.2 0.2 2.3 0 1.1 0 1.6-0.2 2.3-0.4 1.8-1.1 3.3-2.3 4.7-0.3 0.4-1.2 1.2-1.6 1.6-1.4 1.2-3.3 2-5.1 2.2-0.7 0.1-2.1 0.2-2.9 0.1zM10.3 18c0.1 0-0.1-0.1-0.6-0.1-0.4 0-0.6 0-0.6 0 0 0 0.5 0.1 0.8 0.1 0.2 0 0.3 0 0.3 0 0 0 0 0 0.1 0zM12.3 1.8c0-0.1 0-0.1-0.1-0.1-0.1 0-0.1 0.1-0.1 0.2 0 0.1 0.1 0 0.2 0zM9.6 1.8c0.1 0 0.1-0.1 0-0.2-0.1-0.1-0.3 0-0.3 0.1 0 0.1 0.2 0.2 0.3 0.1z" fill="#f0d0a6"/><path d="m11.3 23c-0.1 0-0.3 0-0.5 0C10.3 22.9 9.9 22.9 9.4 22.7 8.5 22.5 8 22.3 6.7 21.7 6.5 21.5 5.9 21.1 5.6 20.9 5.2 20.7 4.5 20 4.1 19.7 3.8 19.4 3.3 18.7 3.1 18.5 2.6 17.8 2.1 16.8 1.8 15.9 1.5 15.4 1.3 14.4 1.2 13.9 1 12.6 1 12.7 1.3 12.6c0.3-0.1 0.5-0.2 0.6-0.3 0-0.1-0.3-0.1-0.6 0-0.1 0-0.1 0-0.2 0-0.1 0 0-1.5 0.1-2.2C1.5 7.9 2.5 5.9 4.1 4.3 4.6 3.9 5.1 3.4 5.5 3.1 6.6 2.4 7.3 2 8.2 1.7 8.6 1.5 8.7 1.5 8.7 1.7c0 0.1 0.1 0.1 0.2 0.1 0.1 0 0.1 0 0-0.1-0.1-0.1 0-0.3 0.3-0.3 0.1 0 0.2 0 0.3-0.1 0.1 0 0.2 0 0.2 0 0.1 0 0 0.1 0 0.1 0 0-0.1 0-0.2 0-0.2 0-0.2 0-0.3 0.1-0.1 0.1-0.1 0.2 0 0.3 0.1 0.1 0.2 0.1 0.5 0L9.9 1.8 9.8 1.6c0-0.2 0-0.2 0-0.2 0.1 0 0.2 0 0.3 0.1 0.1 0.1 0.3 0 0.2-0.2-0.1-0.1 0-0.1 0.2-0.2 0.2 0 0.2 0 0.3 0 0.2 0.1 0.2 0.1 0.4 0 0.1-0.1 0.2-0.1 0.6-0.1 2.7-0.1 5.7 1 7.7 3 1.1 1.1 2 2.3 2.6 3.8 0.6 1.6 0.9 3.3 0.7 5.3-0.2 2-1 4.2-2.4 5.8-0.3 0.4-1.1 1.1-1.6 1.6-1.4 1.2-3.3 2-5.1 2.4-0.6 0.1-2.1 0.2-2.6 0.1zm8.3-3.4c0.1-0.1 0.1-0.2-0.1-0.4-0.1-0.2-0.1-0.2-0.3-0.2-0.2 0-0.4 0.1-0.5 0.2-0.1 0.1 0 0.2 0.2 0.2 0.1 0 0.2 0.1 0.3 0.1 0.2 0.1 0.3 0.1 0.3 0zm-8.6-1.4c0.1-0.1 0-0.1-0.4-0.2-0.4-0.1-0.6-0.1-2.2-0.2-0.3 0-0.4 0-0.4 0 0 0 0.1 0 0.1 0 0.1 0 0.2 0 0.3 0.1 0.1 0 0.3 0.1 0.4 0.1 0.1 0 0.3 0 0.5 0.1 0.2 0 0.6 0.1 0.9 0.1 0.3 0 0.6 0 0.6 0.1 0.1 0 0.1 0 0.2 0zm6.9 0c0 0 0 0-0.1 0 0 0 0 0 0 0 0 0 0 0 0.1 0 0 0 0 0 0 0zm0-0.4c0-0.1 0-0.1-0.1-0.1-0.1 0-0.1 0-0.2 0.1-0.1 0.1-0.1 0.1 0.1 0.1 0.2 0 0.2 0 0.2-0.1zm-7-0.4c0-0.1 0-0.1-0.1-0.1-0.1-0.1-0.2-0.1-0.5-0.1-0.4 0-0.6 0-0.6 0.1 0 0.1 0 0.1 0.2 0.2 0.2 0 0.3 0.1 0.6 0.1 0.4 0 0.4 0 0.4-0.1zm-4.6-0.1c0 0 0-0.1 0-0.1-0.1-0.1-0.5-0.3-0.7-0.3-0.2 0-0.3 0-0.3 0.1 0 0 0.1 0.1 0.2 0.2 0.2 0.2 0.2 0.2 0.4 0.2 0.3 0 0.4 0 0.5 0zm14.5-0.2c0-0.1 0-0.1-0.1-0.1-0.1 0-0.1 0-0.1 0.1 0 0.1-0.2 0.1-0.2 0 0-0.1 0-0.1-0.2-0.1-0.1 0-0.3 0-0.5 0l-0.3 0 0.2 0c0.1 0 0.3 0.1 0.6 0.1 0.7 0 0.6 0 0.6 0zm-3.2-0.2c0.1 0 0.2-0.1 0.4-0.4 0.2-0.2 0.2-0.3 0.1-0.4-0.1-0.2-0.5-0.1-0.6 0.1-0.1 0.1-0.2 0.5-0.2 0.6 0 0.1 0 0.1 0.1 0.1 0 0 0.1 0 0.2 0zm-0.6-0.3c0-0.1 0.1-0.2 0.1-0.4 0-0.3 0-0.3-0.1-0.4-0.1-0.2-0.6-0.4-0.9-0.3-0.2 0.1-0.3 0.2-0.4 0.4-0.1 0.2 0 0.4 0.3 0.5 0.1 0 0.2 0.1 0.3 0.2 0.1 0.1 0.3 0.1 0.3 0.2 0.2 0.1 0.2 0.1 0.3-0.1zM4.6 13.7c0 0 0-0.1-0.2-0.3-0.1-0.2-0.4-0.3-0.8-0.4-0.3-0.1-0.6-0.1-0.7 0 0 0 0 0.1 0.1 0.2 0.1 0.2 0.3 0.3 0.6 0.3 0.1 0 0.3 0.1 0.4 0.1 0.2 0.1 0.2 0.1 0.4 0.1 0.1 0 0.2 0 0.2-0.1zM12.3 2c0 0 0.1-0.1 0.1-0.1 0.1-0.2-0.1-0.4-0.3-0.3-0.3 0.1-0.2 0.5 0.1 0.5 0.1 0 0.1 0 0.2 0zM10.7 1.6c0-0.1 0-0.1 0-0.1-0.1 0-0.1 0.1-0.1 0.2 0 0 0 0.1 0.1 0.1 0.1 0 0.1 0 0.1-0.1z" fill="#e4b38b"/><path d="m11.4 23c0 0-0.3 0-0.5 0C9.6 22.9 8.6 22.6 7.4 22 6.6 21.6 6.6 21.6 6.2 21.3 5.1 20.6 4.2 19.8 3.2 18.6 3 18.4 2.5 17.5 2.2 16.9 1.6 15.7 1.2 14.5 1.2 13.5c0-0.2 0-0.4-0.1-0.5 0-0.1 0-0.3 0-0.3 0-0.1 0-0.1 0.2-0.1 0.1 0 0.3-0.1 0.4-0.1 0.2-0.1 0.2-0.1 0.2-0.2 0-0.2-0.2-0.2-0.6-0.1-0.2 0-0.3 0.1-0.3 0.1 0 0 0-0.9 0-1.4C1.3 8.4 2.3 6.2 4.1 4.3 4.6 3.9 5.1 3.4 5.5 3.1 6.1 2.7 6.4 2.5 6.7 2.3 7.4 2 8.2 1.7 8.6 1.6c0.1 0 0.1 0 0.1 0.1 0 0.1 0.1 0.2 0.3 0.2 0.1 0 0.2 0 0.3 0.1 0.1 0 0.2 0 0.4 0 0.4 0 0.4 0 0.3-0.4 0-0.2 0-0.2 0.1-0.2 0.1 0 0.1 0 0.1 0.1 0 0.1 0.2 0.1 0.3 0 0.1 0 0.1-0.1 0-0.2-0.1-0.2 0-0.2 0.2-0.2 0.1 0 0.2 0 0.2 0.1 0.1 0.1 0.3 0.1 0.4 0 0.1-0.1 0.2-0.1 0.3 0 0.1 0.1 0.2 0 0.2-0.1 0-0.1 0-0.1 0.3-0.1 0.5 0 1.3 0.1 1.7 0.1 0.5 0.1 1.4 0.3 1.9 0.5 0.4 0.2 1.5 0.6 1.9 0.9 1 0.6 2 1.4 2.9 2.4 1 1.2 1.9 2.9 2.3 4.5 0.3 1.1 0.4 2.4 0.3 3.8-0.2 2.1-1 4.2-2.4 5.8-0.2 0.2-0.4 0.5-0.4 0.5-0.1 0.1-0.3 0.2-0.3 0.2 0 0-0.2-0.4-0.2-0.4 0-0.1-0.1-0.2-0.3-0.3l-0.2-0.1-0.2 0.1c-0.2 0.2-0.4 0.4-0.3 0.4 0 0 0.2 0.1 0.3 0.2 0.3 0.1 0.6 0.3 0.6 0.3 0 0.1-0.8 0.8-1.5 1.3-1.8 1.2-3.9 1.8-6.1 1.8-0.3 0-0.6 0-0.6 0zm7-4.2c0 0 0-0.1 0-0.3 0-0.2 0-0.3 0.1-0.5 0.1-0.1 0.1-0.3 0.1-0.3 0-0.1-0.1-0.3-0.2-0.4 0 0-0.2-0.1-0.3-0.2-0.2-0.1-0.2-0.1-0.1-0.2 0-0.1 0.2-0.3 0.3-0.3 0.2 0 0.3-0.5 0.1-0.6-0.2-0.1-0.5-0.2-0.6 0-0.2 0.1-0.4 0.5-0.5 0.9l0 0.3 0.1 0c0.1 0 0.2 0 0.2 0 0.1 0.1 0 0.2-0.2 0.4-0.1 0.1-0.2 0.2-0.3 0.3-0.1 0.1-0.1 0.1 0 0.2 0 0 0.1 0 0.1 0 0 0 0 0.1 0 0.2 0 0.3 0 0.3 0.1 0.4 0.2 0.1 0.3 0.1 0.4 0 0.1-0.1 0.2-0.1 0.4 0.1 0.2 0.2 0.2 0.2 0.2 0.1zm-7.4-0.7c0 0 0-0.1 0-0.1 0 0-0.2-0.1-0.4-0.1-0.3-0.1-0.6-0.1-1.1-0.1-0.4 0-0.9 0-1.1-0.1-0.3 0-0.4 0-0.5 0-0.1 0.1 0.1 0.1 0.2 0.1 0.1 0 0.2 0 0.3 0 0.1 0 0.2 0 0.3 0.1 0.1 0 0.4 0.1 0.6 0.1 0.2 0 0.6 0.1 0.8 0.1 0.3 0 0.5 0 0.6 0 0.1 0.1 0.2 0 0.3 0zM7.1 17.8c0 0 0-0.1 0-0.1 0 0 0-0.1 0-0.1 0.1-0.2 0-0.3-0.7-0.6L5.9 16.8 5.5 16.7c-0.2 0-0.6-0.1-0.7-0.1-0.3-0.1-0.6-0.1-0.6 0 0 0.1 0.1 0.1 0.5 0.3 0.2 0.1 0.3 0.2 0.4 0.2 0 0 0.1 0.1 0.2 0.1 0 0 0.1 0.1 0.1 0.1 0 0.1 0.2 0.2 0.3 0.2 0 0 0.1 0 0.2 0 0.1 0 0.2 0 0.3 0 0.2-0.1 0.3-0.1 0.3 0 0 0.1 0.1 0.1 0.1 0.1 0.1 0 0.2 0.1 0.2 0.1 0 0 0.1 0.1 0.2 0.1 0 0 0.1 0 0.1 0zm12.8-0.1c0 0 0 0-0.1 0 0 0-0.1 0-0.1-0.1-0.1-0.1-0.2-0.1-0.3-0.1-0.1 0-0.1 0.1 0 0.1 0 0 0.1 0.1 0.2 0.1 0.1 0 0.2 0 0.2 0.1 0.1 0.1 0.1 0.1 0.1 0 0 0 0-0.1 0-0.1zm-8.9-0.3c0-0.1 0-0.1-0.2-0.2-0.1-0.1-0.2-0.1-0.6-0.1-0.4 0-0.6 0-0.6 0.1 0 0.1 0.4 0.2 0.9 0.2 0.4 0 0.4 0 0.4-0.1zm0.9 0c0.1-0.1 0.1-0.1 0-0.1-0.1 0-0.2 0-0.2 0.1 0 0.1 0.1 0 0.2 0zm0.3-0.2c0 0 0 0 0 0 0 0-0.1 0-0.1 0 0 0 0 0 0.1 0zm8.7-0.1c0-0.1 0-0.1-0.1-0.1-0.1 0-0.1 0-0.1 0.1 0 0.1-0.2 0.1-0.2 0 0-0.1 0-0.1-0.5-0.1-0.3 0-0.6 0-0.6 0 0 0 0 0 0.1 0 0.1 0 0.2 0 0.3 0 0.1 0 0.3 0 0.5 0.1 0.7 0 0.6 0 0.6-0.1zM17.1 16.9c0.1-0.1 0.1-0.2 0.1-0.5 0-0.3 0-0.4-0.1-0.5-0.1-0.2-0.2-0.3-0.5-0.4-0.4-0.1-0.6-0.1-0.8 0.1-0.1 0.1-0.3 0.5-0.3 0.6 0 0.1 0 0.1 0.2 0.2 0.1 0 0.3 0.1 0.4 0.1 0.3 0.1 0.5 0.2 0.6 0.3 0.2 0.2 0.3 0.2 0.4 0zM4.8 13.9c0-0.1 0-0.1 0-0.2C4.7 13.6 4.3 13.3 4.2 13.2 4 13.1 3.4 12.9 3.2 12.9c-0.4 0-0.6 0.2-0.4 0.4 0.2 0.1 0.6 0.4 0.8 0.4 0.2 0 0.4 0.1 0.4 0.2 0 0.1 0 0.1 0.2 0 0.1 0 0.2 0 0.3 0 0.1 0.1 0.3 0 0.3-0.1zM12.4 2c0.2-0.2 0.1-0.5-0.2-0.5-0.2 0-0.4 0.2-0.3 0.4 0 0.1 0.2 0.2 0.3 0.2 0 0 0.1 0 0.2-0.1zm-1.1-0.1c0.1 0 0.1-0.1 0-0.1 0-0.1 0-0.1 0-0.2 0-0.1 0-0.1 0-0.1 0 0-0.1 0-0.2 0.1-0.2 0.2-0.1 0.5 0.1 0.3zm3.5-0.1c0 0 0-0.1-0.1-0.1-0.1 0-0.1 0-0.1 0.1 0 0.1 0 0.1 0.1 0.1 0.1 0 0.1 0 0.1-0.1zm-4.1-0.1c0.1-0.1 0.2-0.2 0-0.3-0.2-0.1-0.4 0.2-0.2 0.3 0.1 0.1 0.1 0.1 0.2 0zM9 1.6C8.9 1.5 9 1.4 9.1 1.4h0.1l-0.1 0.1c-0.1 0.1-0.1 0.1-0.1 0zM9.4 1.4c0 0 0 0 0.1 0 0 0 0.1 0 0.1 0 0 0 0 0 0 0 0 0 0 0 0 0z" fill="#a4a190"/><path d="M11.3 23C10.8 22.9 10.1 22.8 9.9 22.8 9.2 22.6 8.4 22.4 8.2 22.2 8.2 22.2 8.1 22.2 8.1 22.2 8.1 22.2 7.8 22 7.8 22c0 0 0.1 0 0.2 0 0.1 0 0.2 0 0.2 0.1 0.1 0.1 0.1 0.1 0.1 0 0 0 0-0.2 0-0.3 0-0.3-0.1-0.4-0.4-0.7C7.8 20.9 7.6 20.8 7.6 20.8 7.6 20.7 6.9 20.3 6.6 20.2 6.5 20.2 6.3 20 6.1 19.9 5.9 19.8 5.7 19.7 5.7 19.7c-0.1 0-0.3 0-0.7 0.1-0.1 0-0.2 0-0.3 0.1L4.5 19.9 4.3 19.7C4 19.5 3.5 18.8 3.3 18.5 2.7 17.8 2.1 16.7 1.7 15.6 1.5 15 1.2 13.8 1.2 13.3v-0.1l0.2 0c0.1 0 0.3 0.1 0.4 0.1 0.1 0 0.2 0.1 0.2 0.1 0.1-0.1 0.2-1 0.1-1.1 0-0.1-0.2-0.1-0.4-0.1C1.3 12.3 1.2 12.3 1.1 12.3 1 12.2 1.2 10.8 1.3 10 1.7 7.7 2.9 5.6 4.6 4 5 3.6 5.5 3.2 5.6 3.2 5.6 3.1 5.8 3 5.9 3 6.5 2.5 7.6 2 8.4 1.7c0.3-0.1 0.3-0.1 0.3 0 0 0.1 0.1 0.2 0.3 0.2 0.1 0 0.2 0 0.3 0.1 0.1 0.1 0.2 0.1 0.3 0 0.1 0 0.2 0 0.3 0L10.1 1.9V1.8c0-0.3 0-0.4 0-0.4 0 0 0.1 0 0.1 0.1 0 0.1 0.2 0.1 0.3 0 0.1 0 0.1-0.1 0-0.2-0.1-0.2-0.1-0.2 0.1-0.2 0.2-0.1 0.3 0 0.4 0 0.1 0.1 0.3 0.1 0.4 0 0.1-0.1 0.2-0.1 0.3 0 0.1 0.1 0.2 0 0.2-0.1 0-0.1 0-0.1 0.6 0 1.2 0 2.2 0.2 3.3 0.6 0.5 0.2 1.6 0.6 2.1 1 1.1 0.6 2.2 1.6 2.9 2.6 0.6 0.7 0.8 1.1 1.2 1.9 0.5 1 0.7 1.7 0.9 2.6 0.2 0.9 0.2 1.2 0.2 2.2 0 1 0 1.3-0.2 2.2-0.2 0.9-0.5 1.8-0.9 2.6-0.2 0.5-0.6 1.2-0.9 1.6-0.3 0.5-1 1.3-1.1 1.3 0 0-0.2-0.3-0.2-0.4 0-0.1-0.1-0.2-0.3-0.3l-0.2-0.1-0.2 0.1c-0.2 0.2-0.4 0.4-0.3 0.4 0 0 0.2 0.1 0.3 0.2 0.3 0.1 0.6 0.3 0.6 0.3 0.1 0.1-1 1-1.9 1.5-1.7 1-3.5 1.6-5.5 1.6-0.4 0-0.8 0-0.9 0zM9.1 18.9c0.1 0 0.1-0.1 0.1-0.1 0 0 0-0.1 0-0.1-0.1 0-0.2 0.1-0.2 0.2 0 0 0 0 0.1 0zm9.3 0c0 0 0-0.1 0-0.3 0-0.2 0-0.3 0.1-0.5 0.1-0.1 0.1-0.3 0.1-0.3 0-0.1-0.1-0.3-0.2-0.4 0 0-0.2-0.1-0.3-0.2-0.2-0.1-0.2-0.1-0.1-0.2 0-0.1 0.2-0.3 0.3-0.3 0.2 0 0.3-0.5 0.1-0.6-0.2-0.1-0.5-0.2-0.6 0-0.2 0.1-0.4 0.5-0.5 0.9l0 0.3 0.1 0c0.1 0 0.2 0 0.2 0 0.1 0.1 0 0.2-0.2 0.4-0.1 0.1-0.2 0.2-0.3 0.3-0.1 0.1-0.1 0.1 0 0.2 0 0 0.1 0 0.1 0 0 0 0 0.1 0 0.2 0 0.3 0 0.3 0.1 0.4 0.2 0.1 0.3 0.1 0.4 0 0.1-0.1 0.2-0.1 0.4 0.1 0.2 0.2 0.2 0.2 0.2 0.1zm-7.4-0.6c0.1-0.1 0.1-0.2 0.1-0.4v-0.1l-0.3-0.1c-0.4-0.1-0.4-0.1 0-0.1 0.4 0 0.4 0 0.5-0.1 0.2-0.2 0-0.4-0.5-0.4-0.5-0.1-1.4 0-1.5 0.1-0.1 0.1 0 0.2 0.5 0.3 0.2 0 0.3 0.1 0.3 0.1 0 0-0.1 0-0.3 0-0.4 0-0.6 0.1-0.7 0.1-0.1 0.1-0.1 0.1-0.6 0-0.3 0-0.6 0-0.6 0 0 0.1 0.1 0.1 0.3 0.2 0.3 0 0.4 0.1 0.4 0.2 0 0.1 0 0.1 0.1 0.1 0 0 0.1-0.1 0.1-0.1 0-0.1 0.1-0.1 0.1-0.1 0 0 0.2 0 0.4 0.1 0.2 0 0.3 0 0.4 0.1 0 0 0.1 0.1 0.1 0.1 0 0 0.1 0 0.2 0.1 0.2 0.1 0.3 0.1 0.4 0 0 0 0.1-0.1 0.2-0.1 0.2 0 0.2 0 0.2 0.1 0 0.1 0.1 0.1 0.3 0zM7.2 18c0 0 0-0.1 0-0.1-0.1-0.1-0.2-0.2-0.1-0.3 0.1-0.2-0.1-0.3-0.7-0.6L5.9 16.7 5.5 16.7c-0.2 0-0.6-0.1-0.7-0.1-0.3-0.1-0.6-0.1-0.6 0 0 0.1 0.1 0.1 0.5 0.3 0.2 0.1 0.3 0.2 0.4 0.2 0 0 0.1 0.1 0.2 0.1 0 0 0.1 0.1 0.1 0.1 0 0.1 0.2 0.2 0.3 0.2 0 0 0.1 0 0.2 0 0.1 0 0.2 0 0.3 0 0.2-0.1 0.3-0.1 0.3 0 0 0.1 0.1 0.1 0.1 0.1 0.1 0 0.2 0.1 0.2 0.2 0 0 0.1 0.1 0.2 0.1 0.2 0.1 0.2 0.1 0.2 0zM19.9 17.8c0.1-0.1 0-0.3-0.1-0.2-0.1 0-0.1 0-0.2 0-0.1-0.1-0.2-0.1-0.3-0.1-0.1 0.1 0 0.2 0.2 0.2 0.2 0 0.3 0 0.3 0.2 0 0.1 0.1 0.1 0.1 0zm-8.1-0.5c0.1-0.1 0.1-0.1 0-0.1-0.1 0-0.2 0-0.2 0.1 0 0.1 0.1 0 0.2 0zm9.1-0.1c0.1-0.1 0.1-0.3 0-0.3-0.1 0-1.2-0.1-1.5 0-0.2 0-0.4 0.1-0.4 0.2 0 0.1 0 0.1 0.3 0.1 0.2 0 0.4 0 0.6 0.1 0.2 0 0.4 0.1 0.6 0.1 0.1 0 0.3 0 0.3 0 0 0 0.1 0 0.1-0.1zm-8.8-0.1c0 0 0 0 0 0 0 0-0.1 0-0.1 0 0 0 0 0 0.1 0zm5-0.3c0.1-0.1 0.1-0.2 0.1-0.5 0-0.3 0-0.4-0.1-0.5-0.1-0.2-0.2-0.3-0.5-0.4-0.4-0.1-0.6-0.1-0.8 0.1-0.1 0.1-0.3 0.5-0.3 0.6 0 0.1 0 0.1 0.2 0.2 0.1 0 0.3 0.1 0.4 0.1 0.3 0.1 0.5 0.2 0.6 0.3 0.2 0.2 0.3 0.2 0.4 0zM4.8 13.9c0-0.1 0-0.1 0-0.2C4.7 13.6 4.3 13.3 4.2 13.2 4 13.1 3.4 12.9 3.2 12.9c-0.4 0-0.6 0.2-0.4 0.4 0.2 0.1 0.6 0.4 0.8 0.4 0.2 0 0.4 0.1 0.4 0.2 0 0.1 0 0.1 0.2 0 0.1 0 0.2 0 0.3 0 0.1 0.1 0.3 0 0.3-0.1zM1.8 9.6c0-0.1 0-0.1 0 0-0.1 0.1-0.1 0.2 0 0.1 0 0 0.1-0.1 0.1-0.1zM12.4 2c0.2-0.2 0.1-0.5-0.2-0.5-0.2 0-0.4 0.2-0.3 0.4 0 0.1 0.2 0.2 0.3 0.2 0 0 0.1 0 0.2-0.1zm-1.1-0.1c0.1 0 0.1-0.1 0-0.1 0-0.1 0-0.1 0-0.2 0-0.1 0-0.1 0-0.1 0 0-0.1 0-0.2 0.1-0.2 0.2-0.1 0.5 0.1 0.3zm3.6 0c0 0 0-0.1 0-0.1 0-0.1 0-0.1-0.1-0.1 0 0-0.1 0-0.1 0 0 0 0 0 0 0.1 0 0.1 0.1 0.2 0.2 0.1zM10.7 1.7c0.1-0.1 0.2-0.2 0-0.3-0.2-0.1-0.4 0.2-0.2 0.3 0.1 0.1 0.1 0.1 0.2 0zM6.3 21c0 0 0-0.1 0.1-0.1 0 0 0 0 0 0.1 0 0-0.1 0-0.1 0zM5.7 20.3c0 0 0 0 0 0 0 0 0 0 0 0 0 0 0 0 0 0 0 0 0 0 0 0zM5.6 20c0 0 0 0 0 0 0 0 0 0 0 0 0 0 0 0 0 0 0 0 0 0 0 0zM9 1.6c0-0.1 0-0.1 0-0.1 0 0 0.1 0 0.1 0 0 0 0 0 0 0.1-0.1 0.1-0.1 0.1-0.1 0z" fill="#cf9a6c"/><path d="M11.3 23C10.8 22.9 10.1 22.8 9.9 22.8 9.2 22.6 8.4 22.4 8.2 22.2 8.2 22.2 8.1 22.2 8.1 22.2 8.1 22.2 7.8 22 7.8 22c0 0 0.1 0 0.2 0 0.1 0 0.2 0 0.2 0.1 0.1 0.1 0.1 0.1 0.1 0 0 0 0-0.2 0-0.3 0-0.3-0.1-0.4-0.4-0.7C7.8 20.9 7.6 20.8 7.6 20.8 7.6 20.7 6.9 20.3 6.6 20.2 6.5 20.2 6.3 20 6.1 19.9 5.9 19.8 5.7 19.7 5.7 19.7c-0.1 0-0.3 0-0.7 0.1-0.1 0-0.2 0-0.3 0.1L4.5 19.9 4.3 19.7C3.6 19 3 18.2 2.5 17.3 2 16.5 1.7 15.6 1.5 14.8 1.2 14 1.2 13.5 1.3 13.4c0 0 0-0.1 0-0.1l-0.1-0.1 0.2 0c0.1 0 0.3 0.1 0.4 0.1 0.1 0 0.2 0.1 0.2 0.1 0.1-0.1 0.2-1 0.1-1.1 0-0.1-0.2-0.1-0.4-0.1C1.3 12.3 1.2 12.4 1.1 12.3 1 12.3 1.2 10.9 1.3 10 1.7 7.8 2.9 5.6 4.6 4.1 5 3.7 5.5 3.3 5.6 3.2 5.6 3.2 5.8 3.1 5.9 3 6.4 2.5 7.5 1.9 8.4 1.7c0.2-0.1 0.3-0.1 0.3 0 0 0-0.1 0-0.1 0 0 0-0.1 0-0.1 0 0 0 0 0 0.1 0 0.1 0 0.2 0 0.2 0.1 0.1 0 0.2 0 0.2 0 0.1 0 0.1 0 0.2 0.1 0.1 0.1 0.2 0.1 0.3 0 0.1 0 0.2 0 0.3 0 0.1 0 0.2 0 0.2-0.1 0 0 0-0.1-0.1-0.2-0.1-0.2 0-0.4 0.1-0.1 0.1 0.1 0.1 0.1 0.2 0.1 0.1 0 0.1 0 0.2 0.1 0.1 0.1 0.1 0.1 0.3 0.1C10.9 1.7 11 1.6 10.9 1.5 10.9 1.4 10.8 1.4 10.7 1.4c-0.2 0-0.2 0-0.2-0.1 0-0.1 0-0.2 0.2-0.2 0.1 0 0.2 0 0.3 0.1 0.1 0.1 0.1 0.1 0.3 0.1 0.1 0 0.2 0 0.2 0 0.1 0 0.1 0 0.2 0 0.3 0.1 0.4 0 0.3-0.2l0-0.1 0.6 0c1.1 0 2.1 0.2 3.3 0.6 0.5 0.2 1.6 0.6 2.1 1 1.1 0.6 2.2 1.6 2.9 2.6 0.6 0.7 0.8 1.1 1.2 1.9 0.5 1 0.7 1.7 0.9 2.6 0.2 0.9 0.2 1.2 0.2 2.2 0 1 0 1.3-0.2 2.2-0.3 1.2-0.7 2.4-1.4 3.5-0.3 0.6-0.5 0.7-0.8 1.2-0.3 0.4-0.6 0.6-0.6 0.6-0.1 0-0.2-0.2-0.2-0.3 0-0.2-0.1-0.2-0.4-0.3l-0.3-0.1-0.1 0.1c-0.1 0.1-0.1 0.1-0.2 0.2-0.1 0.1-0.3 0.3-0.3 0.4 0 0.1 0.1 0.1 0.4 0.2 0.3 0.1 0.5 0.3 0.5 0.4 0 0-0.1 0.1-0.6 0.6-1.3 1.1-3.2 2-4.9 2.3-0.8 0.2-2 0.2-2.6 0.2zm7.6-3C18.9 20 18.8 20 18.8 20h-0.1l0.1 0.1c0.1 0.1 0.1 0.1 0.1 0 0 0 0-0.1 0-0.1zm-0.5-0.9c0-0.3 0.1-0.7 0.2-1 0.2-0.5 0.1-0.7-0.2-0.9-0.2-0.1-0.2-0.1-0.2-0.2 0-0.1 0.1-0.2 0.2-0.2 0.1 0 0.3-0.1 0.3-0.2 0.1-0.1 0-0.3-0.1-0.4-0.2-0.2-0.4-0.3-0.6-0.3-0.3 0-0.5 0.1-0.6 0.5-0.1 0.1-0.1 0.2-0.1 0.2 0 0 0-0.2-0.1-0.4 0-0.4-0.1-0.5-0.3-0.6-0.2-0.1-0.5-0.2-0.7-0.2-0.4 0-0.6 0.2-0.7 0.7-0.1 0.2-0.1 0.4-0.1 0.4 0 0.1 0.2 0.1 0.4 0.2 0.5 0 0.7 0.1 0.8 0.4 0 0.1 0.1 0.1 0.2 0.1 0.2 0 0.2 0 0.3-0.2 0-0.1 0.1-0.2 0.1-0.2 0.1-0.1 0.1-0.1 0 0.2 0 0.1 0 0.3 0 0.4 0 0.3-0.1 0.4-0.2 0.4-0.1 0-0.1 0-0.2-0.1-0.1-0.1-0.2-0.2-0.2-0.2-0.1 0-0.3 0.2-0.3 0.3 0 0.1 0.1 0.2 0.2 0.3 0 0 0.1 0.1 0.2 0.2 0.1 0.1 0.2 0.2 0.3 0.3 0.1 0.1 0.7 0.4 0.8 0.4 0.1 0 0.2 0.1 0.3 0.3 0 0 0.1 0.1 0.2 0.1 0.3 0.1 0.3 0.1 0.3-0.1zM14.4 18.9c0.2 0 0.3-0.1 0.2-0.2 0 0-0.1-0.1-0.1-0.1 0 0 0-0.1-0.1-0.2 0-0.1-0.1-0.2 0-0.2 0.1-0.1 0.5-0.1 0.5 0 0.1 0 0.1 0 0.2 0 0.1 0 0.2 0 0.3 0 0.1 0 0.1 0 0.2-0.2 0.1-0.2 0.1-0.2-0.1-0.3-0.1-0.1-0.2-0.1-0.3 0l-0.1 0.1 0.1 0c0 0 0.1 0.1 0.1 0.1 0 0.1-0.3 0.1-0.4 0.1-0.1 0-0.2 0-0.4 0-0.1 0-0.1 0-0.2 0-0.1-0.1-0.4-0.1-0.4 0 0 0 0 0.1 0 0.1 0.1 0 0 0.2-0.1 0.2 0 0-0.3 0.3-0.4 0.4 0 0.1 0 0.1 0.1 0.1 0.1 0 0.1 0 0.1 0.1 0.1 0.1 0.2 0.1 0.3 0.1 0 0 0.2 0 0.3 0zM9.1 18.8c0.1 0 0.1-0.1 0.1-0.1 0 0 0-0.1 0-0.1-0.1 0-0.2 0.1-0.2 0.2 0 0 0 0 0.1 0zm4-0.2c0 0 0.1 0 0.1 0 0.1 0 0.1 0 0.1 0 0 0 0 0-0.1 0-0.1 0-0.1 0-0.2 0 0 0-0.1 0-0.1 0-0.1 0-0.1 0.1-0.1 0.2 0 0 0.2 0 0.2 0zm-3.3-0.3c0 0 0-0.1-0.1-0.1-0.1-0.1 0-0.2 0.2 0 0.2 0.1 0.3 0.1 0.4 0 0 0 0.1-0.1 0.2-0.1 0.2 0 0.2 0 0.2 0.1 0 0.1 0.1 0.1 0.3 0 0.1-0.1 0.1-0.2 0.1-0.4v-0.1l-0.3-0.1c-0.4-0.1-0.4-0.1 0-0.1 0.4 0 0.4 0 0.5-0.1 0.2-0.2 0-0.4-0.5-0.4-0.5-0.1-1.4 0-1.5 0.1-0.1 0.1 0 0.2 0.5 0.3 0.2 0 0.3 0.1 0.3 0.1 0 0-0.1 0-0.3 0-0.4 0-0.6 0.1-0.7 0.2 0 0.1-0.1 0.1-0.6 0-0.6 0-0.6 0-0.6 0.1 0 0.1 0 0.1 0.3 0.1 0.3 0 0.4 0.1 0.4 0.3 0 0.1 0 0.1 0.1 0.1 0 0 0.1-0.1 0.1-0.1 0-0.1 0.1-0.1 0.1-0.1 0 0 0.2 0 0.4 0.1 0.3 0 0.5 0.1 0.3 0.1-0.1 0-0.1 0 0 0.1 0.1 0.1 0.3 0.2 0.3 0.1zM7.2 17.9c0 0 0-0.1 0.1-0.2 0.1-0.1 0.1-0.1 0-0.3C7.1 17.3 6.9 17.2 6.3 16.9L5.9 16.7 5.5 16.6c-0.2 0-0.5 0-0.6-0.1-0.2-0.1-0.8-0.1-1-0.1-0.3 0-0.3 0-0.1 0.1 0.1 0 0.2 0.1 0.3 0.2 0.1 0.1 0.2 0.2 0.3 0.2 0.1 0 0.1 0.1 0.1 0.1 0 0.1 0.5 0.4 0.8 0.5 0.1 0 0.3 0.1 0.5 0.1 0.3 0 0.4 0.1 0.5 0 0.2 0 0.4 0 0.5 0 0.1 0 0.4 0.2 0.5 0.3 0 0 0 0 0-0.1zm12.7-0.1c0.1-0.1 0-0.2-0.2-0.3-0.2-0.1-0.3-0.1-0.5 0-0.2 0.1-0.2 0.2 0.2 0.3 0.1 0 0.2 0.1 0.3 0.1 0.1 0.1 0.2 0.1 0.2 0zm-8.3-0.1c0.3-0.2 0.6-0.4 0.9-0.5l0.3-0.1-0.1 0c-0.1 0-0.2-0.1-0.3-0.1-0.2 0-0.2 0-0.4 0.1-0.3 0.1-0.4 0.2-0.5 0.3-0.1 0.1-0.1 0.4 0 0.4 0 0 0.1-0.1 0.2-0.1zm9.2-0.5c0.1-0.1 0.1-0.3 0-0.3-0.1 0-1.2-0.1-1.5 0-0.2 0-0.4 0.1-0.4 0.2 0 0.1 0 0.1 0.3 0.1 0.2 0 0.4 0 0.6 0.1 0.2 0 0.4 0.1 0.6 0.1 0.1 0 0.3 0 0.3 0 0 0 0.1 0 0.1-0.1zM6.1 15.3c0 0-0.2-0.2-0.2-0.2-0.1 0 0 0.2 0.1 0.3 0.1 0.1 0.1 0 0.2 0zM5.1 14.5c0 0 0.1-0.1 0.1-0.2 0-0.1 0-0.1 0-0.2 0-0.1-0.1-0.1-0.1-0.2C5.1 14 5 13.8 4.9 13.7 4.5 13.3 4.3 13.2 3.9 13.1 3.4 12.9 3.2 12.9 3 12.9c-0.2 0-0.4 0.2-0.4 0.3 0 0.1 0 0.2 0.3 0.3 0.4 0.2 0.5 0.3 0.7 0.3 0.2 0 0.3 0.1 0.3 0.2 0 0.1 0 0.2 0.1 0.1 0.2-0.1 0.3-0.1 0.5 0 0.1 0 0.2 0.1 0.3 0.1 0 0 0.1 0.1 0.1 0.1 0 0 0.1 0 0.1 0.1 0 0.1 0.1 0.1 0.2 0.1zM1.8 9.6c0 0 0-0.1 0-0.1 0 0 0 0 0 0.1 0 0.1 0 0.1 0.1 0.1 0 0 0.1-0.1 0.1-0.1zM12.4 2c0.2-0.2 0.1-0.5-0.2-0.5-0.2 0-0.4 0.2-0.4 0.4 0 0.2 0.4 0.2 0.6 0.1zm-1.1 0c0.1-0.1 0.1-0.1 0.1-0.3 0-0.2 0-0.2-0.1-0.2 0 0-0.1 0-0.2 0.2-0.2 0.2-0.2 0.3-0.1 0.3 0.1 0.1 0.3 0 0.4 0zm3.5 0c0.1-0.1 0-0.2 0-0.2-0.1 0-0.2 0-0.2 0.1 0 0.1 0 0.1 0 0.1 0 0 0.2 0 0.2 0zM6.3 21c0 0 0-0.1 0.1-0.1 0 0 0 0 0 0.1 0 0-0.1 0-0.1 0zM5.7 20.3c0 0 0 0 0 0 0 0 0 0 0 0 0 0 0 0 0 0 0 0 0 0 0 0zM5.6 20c0 0 0 0 0 0 0 0 0 0 0 0 0 0 0 0 0 0 0 0 0 0 0 0zM9 1.5c0 0 0.1-0.1 0.1-0.1 0.1 0 0.1 0 0 0.1-0.1 0.1-0.1 0.1-0.1 0z" fill="#b28f6b"/><path d="m11.4 23c-0.2 0-0.4 0-0.5-0.1-0.1 0-0.3 0-0.5-0.1-0.3 0-0.6-0.1-1.1-0.2-0.6-0.1-1-0.3-1.1-0.4 0 0-0.1-0.1-0.1-0.1-0.1 0-0.4-0.1-0.4-0.2 0 0 0.1 0 0.2 0 0.1 0 0.2 0 0.2 0.1 0.1 0.1 0.1 0.1 0.1 0 0 0 0-0.2 0-0.3 0-0.3-0.1-0.4-0.4-0.7C7.7 20.9 7.6 20.8 7.6 20.8 7.6 20.7 7.5 20.7 7.3 20.6 7.2 20.5 7 20.4 6.9 20.4 6.9 20.4 6.7 20.3 6.6 20.2 6.4 20.2 6.3 20.1 6.1 20 5.7 19.6 5.5 19.6 5.1 19.7 4.6 19.9 4.4 19.9 4.3 19.8 4.3 19.7 4.1 19.5 3.9 19.4 3.8 19.2 3.6 19 3.5 18.9 2.9 18.3 2.2 16.9 1.7 15.7 1.5 15.3 1.3 14.3 1.2 13.9c0-0.2 0-0.2 0.1-0.4 0-0.1 0.1-0.2 0.2-0.2 0.1 0 0.1 0 0.3 0 0.1 0.1 0.2 0.1 0.2 0.1 0 0 0.1-0.8 0.1-1.1 0-0.2 0-0.3-0.1-0.3 0 0 0-0.1 0-0.1 0 0 0 0-0.2 0-0.1 0-0.2 0.1-0.3 0.1-0.1 0-0.5 0.2-0.5 0.2-0.1 0 0-0.8 0.1-1.5C1.5 8 2.7 5.7 4.5 4 4.9 3.6 5.4 3.2 5.6 3.1 5.6 3.1 5.8 2.9 5.9 2.9 6.4 2.5 7.5 2 8 1.8 8.2 1.7 8.2 1.7 8.4 1.7c0.1 0 0.2 0.1 0.3 0.1 0.1 0 0.2 0 0.3 0 0.1 0 0.2 0 0.2 0 0.1 0.1 0.8 0 0.9 0 0.1-0.1 0.1-0.1 0-0.2 0-0.1-0.1-0.1-0.1-0.2 0-0.1 0.1-0.1 0.1 0 0 0.1 0.1 0.1 0.1 0.1 0.1 0 0.1 0 0.2 0.1 0.1 0.1 0.2 0.2 0.3 0.1 0 0 0.1-0.1 0.1-0.1 0.2-0.1 0.2-0.2 0.1-0.3-0.1-0.1-0.1-0.1-0.3-0.1-0.2 0-0.2 0-0.2-0.1 0-0.1 0-0.1 0.2-0.1 0.1 0 0.2 0 0.3 0.1 0.1 0.1 0.2 0.1 0.2 0.1 0.1 0 0.1 0 0.1 0.1 0 0-0.1 0.3-0.2 0.4-0.1 0.1-0.1 0.2 0 0.3 0.1 0.1 0.5 0 0.4-0.2 0-0.1 0-0.1 0-0.2 0-0.1 0-0.1 0-0.1-0.1-0.1-0.1-0.1 0-0.1 0.1-0.1 0.1-0.1 0.2 0 0.2 0.1 0.3 0.1 0.3 0 0 0 0.1 0 0.1 0 0.1 0 0.1-0.1 0-0.1-0.2-0.1-0.1-0.1 0.4-0.1 0.8 0 1.6 0.1 2.3 0.3 1.1 0.3 1.6 0.5 2.8 1.1 1.2 0.6 2.5 1.7 3.3 2.8 0.6 0.7 0.8 1.1 1.2 1.9 0.5 1 0.7 1.7 0.9 2.6 0.2 0.9 0.2 1.2 0.2 2.2 0 1 0 1.3-0.2 2.2-0.3 1.2-0.7 2.4-1.4 3.5-0.3 0.6-0.5 0.7-0.8 1.2-0.4 0.4-0.5 0.6-0.5 0.6 0 0 0-0.1 0-0.2 0-0.2 0-0.4-0.3-0.5-0.1-0.1-0.2-0.1-0.2 0 0 0.2-0.2 0.2-0.4 0.1-0.1-0.1-0.2-0.1-0.3 0 0 0.1-0.1 0.1-0.2 0.2-0.1 0-0.2 0.1-0.2 0.2 0 0.1-0.1 0.1-0.1 0.1-0.1 0-0.1-0.2-0.1-0.4 0-0.1 0.1-0.3 0.1-0.4 0-0.2 0.1-0.4 0.1-0.5 0-0.1 0.1-0.3 0.1-0.5 0-0.1 0.1-0.3 0.1-0.4l0.1-0.1h0.4c0.2 0 0.5 0 0.7 0.1 0.8 0.1 0.9 0.1 0.9 0 0.1-0.1 0.1-0.3 0-0.3 0 0-0.3-0.1-0.8-0.1-0.7 0-1-0.1-1.1-0.1 0 0-0.1-0.1-0.1-0.1-0.1-0.3-0.4-0.6-0.6-0.6-0.4-0.2-0.7 0-1 0.4-0.1 0.1-0.1 0.2-0.1 0.2 0 0 0-0.2-0.1-0.4 0-0.2 0-0.4-0.1-0.4-0.1-0.2-0.6-0.5-0.9-0.5-0.4 0-0.6 0.2-0.8 0.8-0.1 0.4-0.1 0.4 0 0.4 0.1 0 0.2 0.1 0.4 0.1 0.2 0 0.3 0 0.3 0.1 0.1 0.1 0.1 0.1 0 0.3 0 0 0 0.1 0.1 0.2 0.1 0.1 0.1 0.2 0 0.3-0.1 0.1-0.2 0.1-0.1 0.2 0 0.1 0 0.1 0 0.1-0.1 0.1-0.1 0.1 0 0.2 0 0.2 0.1 0.2 0.3 0.2 0.2 0 0.2 0.1 0.3 0.2 0.1 0.1 0.4 0.3 0.6 0.4 0.1 0 0.2 0.1 0.3 0.1 0.1 0.1 0.2 0.1 0.2 0.1 0.1 0 0.1 0.1 0.1 0.1 0 0.1 0.2 0.2 0.2 0.2 0 0 0.2 0.1 0.3 0.1 0.1 0.1 0.3 0.1 0.3 0.1 0 0 0.1 0 0.2 0.1 0.1 0.1 0.2 0.1 0.3 0.1 0.2 0 0.3 0.1 0.3 0.2 0 0 0 0-0.2 0-0.1 0-0.2 0-0.3-0.1-0.1 0-0.2 0-0.3 0-0.1 0-0.1 0-0.1 0.2 0 0.1 0 0.2 0.1 0.2 0 0 0.1 0.1 0.1 0.1 0 0.1 0.1 0.1 0.2 0.1 0.1 0 0.1 0 0 0.1-0.2 0.2-1.1 0.8-1.7 1.1-1.1 0.6-2.3 0.9-3.4 1.1-0.3 0-0.6 0.1-0.6 0.1-0.2 0-1.3 0.1-1.6 0zM9.1 18.9c0.1-0.1 0.3-0.2 0.3-0.3 0.1-0.1 0.1-0.2 0.1-0.2 0 0 0.1 0 0.1 0.1 0.2 0.1 0.2 0 0.2-0.1 0-0.1 0-0.1 0.2-0.1 0.1 0 0.2-0.1 0.2-0.1 0.1-0.1 0.4-0.1 0.4 0 0 0.1 0 0.1 0.1 0.1 0.1 0 0.3-0.2 0.3-0.5 0.1-0.2 0-0.3-0.2-0.3-0.2 0-0.3-0.1-0.1-0.1 0.1 0 0.2 0 0.3 0 0.1 0 0.1 0 0.2 0 0.1-0.1 0.1 0 0.1 0.1 0 0.1 0 0.2 0.1 0.2 0 0 0.1-0.1 0.2-0.1 0.3-0.3 0.7-0.5 0.9-0.5 0.1 0 0.4-0.1 0.4-0.1 0 0-0.1 0-0.1 0-0.1 0-0.2 0-0.3 0-0.3-0.1-0.4 0-0.7 0.1l-0.3 0.1-0.2-0.1c-0.3-0.1-0.6-0.2-1.2-0.2-0.5 0-0.5 0-0.6 0.1-0.3 0.1-0.3 0.2 0.2 0.4l0.3 0.1-0.1 0c-0.1 0-0.2 0-0.3 0-0.1 0-0.2 0-0.3 0-0.2 0.1-0.4 0.1-0.8 0.1-0.4 0-0.4 0-0.5 0.1 0 0.1 0 0.1 0.3 0.2 0.4 0 0.5 0.1 0.4 0.3-0.1 0.1-0.1 0.3-0.1 0.3 0 0 0.1 0.1 0.1 0.2 0 0.1 0.1 0.1 0.1 0.2 0.1 0 0.1 0.1 0.1 0.2 0 0.1 0.1 0.1 0.1 0.1 0 0 0.2-0.1 0.3-0.2zm5.2 0c0.2 0 0.3-0.1 0.2-0.2 0 0-0.1-0.1-0.1-0.2 0-0.1-0.1-0.1-0.1-0.2 0 0 0-0.1 0-0.1 0 0 0.3 0 0.6 0 0.7 0 0.7 0 0.7-0.1 0-0.1 0-0.1 0-0.2 0.1-0.1 0.1-0.1 0-0.2-0.1-0.1-0.3-0.1-0.5-0.1-0.2 0.1-0.2 0.1-0.1 0.2 0.1 0 0.1 0.1-0.1 0.1-0.1 0-0.1 0-0.2 0 0 0-0.1 0-0.1 0-0.1 0-0.1 0-0.2-0.1 0 0-0.1-0.1-0.2-0.1-0.1 0-0.2 0-0.2 0 0 0-0.1 0-0.2 0-0.1 0-0.2 0-0.2 0 0 0 0 0.1 0.1 0.1 0.1 0.1 0.1 0.2 0 0.2-0.1 0-0.4 0.3-0.4 0.4 0 0.1 0 0.1 0.1 0.1 0.1 0 0.1 0 0.1 0.1 0.1 0.1 0.2 0.1 0.3 0.1 0 0 0.2 0 0.3 0zm-1.3-0.3c0 0 0.1 0 0.1 0 0.1 0 0.1 0 0.2-0.1 0.1-0.1 0-0.2 0-0.1-0.1 0.1-0.2 0.1-0.3 0.1 0 0-0.1 0-0.1 0-0.1 0-0.1 0.1-0.1 0.2 0 0 0.2 0 0.2 0zM6.3 18.4c0-0.1 0.1-0.1 0.2-0.1 0.1 0 0.3-0.1 0.4-0.2 0.1-0.1 0.2-0.1 0.4 0.1 0.1 0.1 0.1 0.1 0.1 0.1 0 0 0-0.2 0-0.3-0.1-0.1-0.1-0.2 0-0.3 0.1-0.1 0-0.2-0.2-0.4-0.2-0.2-1.1-0.7-1.4-0.7-0.1 0-0.3 0-0.3 0 0 0-0.2 0-0.4 0-0.5-0.1-1.4-0.2-1.4-0.1 0 0 0.1 0.1 0.2 0.1 0.1 0 0.2 0.1 0.3 0.2 0.1 0.1 0.2 0.2 0.3 0.2 0.1 0 0.2 0.1 0.2 0.1 0.2 0.2 0.3 0.2 0.6 0.4 0.3 0.2 0.8 0.3 1.1 0.2 0.2 0 0.3 0 0.3 0 0 0-0.1 0.1-0.2 0.3-0.2 0.2-0.2 0.2-0.2 0.3 0.1 0.2 0.2 0.3 0.2 0.1zm13.8 0c0-0.1 0-0.2 0-0.3 0-0.2 0-0.3-0.1-0.4-0.1-0.2-0.1-0.2-0.3-0.3-0.3-0.1-0.4-0.1-0.6 0-0.2 0.2-0.2 0.2 0.1 0.4 0.1 0.1 0.3 0.1 0.3 0.1 0 0 0 0 0.1 0.1 0 0 0 0.1 0.1 0.1 0 0 0.1 0.1 0.1 0.2 0 0.1 0.2 0.3 0.3 0.3 0 0 0 0 0.1-0.1zm-5.9-1c0 0-0.1 0-0.1 0 0 0 0 0 0.1 0 0 0 0 0 0-0.1zm0.2-0.9c0.1-0.1 0.1-0.1-0.2-0.1-0.2 0-0.2 0.1-0.1 0.1 0.1 0.1 0.2 0 0.3-0.1zm-1.8-0.1c0 0 0-0.1 0-0.1 0-0.1-0.1-0.1-0.2 0-0.1 0-0.2 0-0.2 0 0 0-0.1 0-0.2 0-0.1 0-0.2 0-0.3 0-0.2 0-0.5 0-0.5 0.1 0 0.1 0.5 0.1 0.8 0.1 0.1 0 0.1 0 0.2 0 0.1 0.1 0.5 0.2 0.5 0.1zm-1.9-0.2c0 0 0 0-0.1 0 0 0-0.1 0-0.1 0 0 0 0 0 0.1 0 0 0 0.1 0 0.1 0zm-0.9-0.1c0 0 0 0-0.1 0 0 0-0.1 0-0.1 0 0 0 0 0 0.1 0 0 0 0.1 0 0.1 0zM9.1 15.9c0 0-0.1-0.1-0.2-0.1-0.1 0-0.1 0.1 0 0.1 0.1 0 0.2 0 0.2 0zm-1-0.1c0.1-0.1-0.1-0.1-0.3-0.1-0.1 0-0.2 0-0.3 0-0.2 0-0.2 0-0.1 0.1 0.1 0.1 0.7 0 0.7 0zm-1-0.1c0 0 0.1 0 0.1 0 0 0-0.3 0-0.3 0 0 0 0 0.1 0.1 0.1 0 0 0.1 0 0.1 0zM6.7 15.6c0 0 0 0-0.1 0-0.1 0-0.1 0-0.1 0 0 0.1 0.2 0.1 0.2 0zM4 15.5c0 0-0.1-0.1-0.1-0.1-0.1 0-0.1 0.1-0.1 0.1 0 0 0 0 0.1 0 0.1 0 0.1 0 0.1 0zm2.1-0.1c0 0 0-0.1 0-0.1-0.1-0.1-0.3-0.2-0.3-0.2 0 0 0 0.3 0.1 0.3 0.1 0 0.2 0 0.2 0zM5.5 14.7c0 0-0.1 0-0.1 0 0 0 0 0 0 0.1 0 0 0.1 0 0.1 0 0 0 0 0 0-0.1zM5.2 14.5 5.3 14.4 5.3 14.3C5.2 14.1 4.4 13.2 4.3 13.2 4.1 13.1 3.5 12.9 3.3 12.9c-0.3 0-0.4 0-0.6 0.1-0.2 0.2-0.3 0.4 0 0.5 0.2 0.1 0.4 0.2 0.4 0.3 0 0.1 0 0.1 0.3 0 0.2 0 0.3 0 0.4 0 0.1 0.1 0.1 0.1 0.1 0.2 0 0.2 0 0.2 0.1 0.1 0 0 0.1-0.1 0.2-0.1 0.1 0 0.1 0 0.3 0 0.1 0 0.2 0.1 0.3 0.1 0 0 0.1 0.1 0.1 0.1 0 0 0.1 0 0.1 0.1 0 0.1 0.1 0.2 0.1 0.2 0 0 0.1-0.1 0.2-0.1zM1.8 9.6c0-0.1 0-0.1 0-0.2 0 0-0.1 0-0.1 0-0.1 0.1-0.2 0.2-0.1 0.3 0.1 0.1 0.2 0 0.2-0.1zM12.4 2c0 0 0.1-0.1 0.1-0.2 0-0.1 0-0.1 0-0.2-0.1-0.2-0.2-0.2-0.3-0.2-0.2 0.1-0.4 0.3-0.3 0.4 0 0.1 0.3 0.2 0.5 0.1zm2.5-0.1c0.1-0.1 0.1-0.2 0-0.3-0.1-0.1-0.3 0-0.3 0-0.1 0.1-0.1 0.1 0 0.2 0.1 0.1 0.2 0.1 0.3 0zM13.3 1.4c0.1-0.1 0-0.2-0.1-0.2-0.1 0-0.1 0-0.1 0.1-0.1 0.1 0.2 0.2 0.2 0.1zM6.4 20.9c0 0 0 0 0 0 0 0 0 0 0 0 0 0 0 0 0 0 0 0 0 0 0 0zM5.6 20c0 0 0 0 0 0 0 0 0 0 0 0 0 0 0 0 0 0 0 0 0 0 0 0zm11.3-2.2c-0.1-0.1-0.1-0.3-0.1-0.4 0 0 0.1-0.1 0.1-0.2 0.1 0 0.1-0.1 0.2-0.2 0.1-0.2 0.2-0.2 0.1 0 0 0.1 0 0.2 0 0.4 0 0.2 0 0.3-0.1 0.4-0.1 0.1-0.2 0.1-0.3 0.1zm1.6-0.6c0 0 0-0.1 0.1-0.1 0.1 0 0.1 0.1 0 0.1-0.1 0-0.1 0-0.1 0zM9.1 1.5c0 0 0 0 0.1 0 0 0 0 0 0 0 0 0 0 0-0.1 0 0 0 0 0 0 0z" fill="#b18656"/><path d="m11.4 23c-0.2 0-0.3 0-0.3 0 0 0-0.3-0.1-0.7-0.1C10.1 22.8 9.9 22.8 9.3 22.7 8.8 22.5 8.3 22.4 8.2 22.3c0 0-0.1-0.1-0.1-0.1-0.1 0-0.4-0.1-0.4-0.2 0 0 0.1 0 0.2 0 0.1 0 0.2 0 0.2 0.1 0.1 0.1 0.1 0.1 0.1 0 0 0 0-0.2 0-0.3 0-0.3-0.1-0.4-0.4-0.7C7.7 21 7.6 20.8 7.6 20.8 7.6 20.8 7.5 20.7 7.3 20.6 7.2 20.6 7 20.5 6.9 20.4 6.8 20.4 6.7 20.3 6.5 20.3 6.4 20.2 6.2 20.1 6.1 20 5.6 19.6 5.5 19.6 4.9 19.8c-0.2 0.1-0.4 0.1-0.5 0.1-0.1 0-0.3-0.2-0.7-0.6C3.6 19.1 3.5 18.9 3.4 18.9 3.1 18.6 2.1 16.8 2.1 16.6c0-0.1 0-0.1 0-0.1-0.1 0-0.5-0.8-0.6-1.3 0-0.2-0.1-0.4-0.1-0.5 0-0.1-0.1-0.4-0.1-0.5 0-0.2 0-0.2 0.1-0.4 0.1-0.1 0.1-0.2 0.2-0.2l0.1-0.1 0.2 0.1c0.1 0 0.2 0.1 0.2 0 0.1-0.1 0.1-0.9 0.1-1.3 0-0.2 0-0.3 0-0.3 0 0-0.4 0.1-0.5 0.1-0.1 0-0.5 0.2-0.5 0.2 0 0 0-1 0.1-1.2 0-0.1 0.1-0.4 0.1-0.6C1.4 9.5 1.6 8.6 2 7.8 2.5 6.6 3 5.7 3.9 4.7 4.3 4.2 5.2 3.3 5.6 3.1 5.6 3.1 5.8 2.9 5.9 2.9 6.4 2.5 7.5 2 8 1.8c0.2-0.1 0.2-0.1 0.3 0 0 0 0.1 0 0.2 0 0.1 0 0.2 0 0.2 0 0.2 0.1 1.3 0.2 1.4 0.1 0 0 0.1-0.1 0.1-0.1 0-0.1 0-0.1 0.1-0.1 0.1 0 0.1 0 0.2 0.1 0.1 0.1 0.2 0.2 0.3 0.1 0 0 0.1-0.1 0.1-0.1 0.1 0 0.1 0 0.1 0 0 0.2 0.2 0.3 0.4 0.2 0.1 0 0.2-0.2 0.2-0.3 0-0.1 0-0.3 0.1-0.3 0 0 0.1 0 0.2 0 0.1 0 0.1 0 0.2 0 0 0 0.1-0.1 0.2-0.1 0.1 0 0.1 0 0.1-0.1 0-0.1 0-0.1 0.1-0.1 0.1 0 0.7 0 0.7 0 0 0 0.1 0 0.2 0 0.3 0 1.1 0.1 1.3 0.2 0 0 0.2 0.1 0.4 0.1 0.9 0.2 1.4 0.4 2.6 1 1.1 0.6 2.5 1.7 3.3 2.8 0.6 0.7 0.8 1.1 1.2 1.9 0.5 1 0.7 1.7 0.9 2.6 0.2 0.9 0.2 1.2 0.2 2.2 0 1 0 1.3-0.2 2.2-0.3 1.2-0.7 2.4-1.4 3.5-0.3 0.6-0.5 0.7-0.8 1.2-0.4 0.4-0.5 0.6-0.5 0.6 0 0 0-0.5 0-0.9 0.1-0.4 0-0.5-0.1-0.7-0.1-0.2-0.2-0.2-0.3-0.3-0.2-0.1-0.4-0.1-0.5 0-0.1 0.1-0.2 0.2-0.2 0.3 0 0 0.1 0 0.2 0.1 0.1 0 0.2 0.1 0.2 0.1 0 0 0.1 0.1 0.2 0.2 0.2 0.2 0.2 0.3 0.1 0.3-0.1 0-0.1 0-0.1 0.1 0 0.1-0.1 0.2-0.2 0.1-0.1 0-0.1 0-0.2 0.1 0 0.1-0.1 0.1-0.1 0.1 0 0-0.1 0.1-0.1 0.1-0.1 0.1-0.2 0.1-0.2 0.2-0.1 0.1-0.2 0.1-0.2 0 0-0.1 0.1-0.8 0.2-1.1 0-0.1 0.1-0.3 0.1-0.4 0-0.2 0.1-0.4 0.1-0.5 0 0 0.5 0 1 0 0.8 0.1 0.9 0.1 0.9 0 0.1-0.1 0.1-0.3 0-0.3 0 0-0.3-0.1-0.7-0.1-0.7 0-1-0.1-1.1-0.1 0 0-0.1-0.1-0.1-0.2-0.2-0.5-0.8-0.7-1.2-0.6-0.2 0.1-0.3 0.3-0.3 0.3 0 0 0 0.1-0.1 0.1-0.1 0.1-0.1 0.1-0.1 0.1 0 0 0-0.2 0-0.3 0-0.4-0.1-0.6-0.6-0.7-0.6-0.2-1 0-1.2 0.7 0 0.1-0.1 0.2-0.1 0.3-0.1 0.1-0.1 0.1-0.1 0 0 0-0.1-0.1-0.2 0-0.1 0-0.2 0-0.3 0-0.1-0.1-0.3 0-0.6 0-0.3 0.1 0 0.2 0.5 0.2 0.3 0 0.4 0 0.5 0.1 0.1 0.1 0.1 0.1 0.1 0.2l0 0.1 0.1-0.1c0.1-0.1 0.1-0.1 0.3-0.1 0.2 0 0.2 0 0.2 0.1 0 0 0 0-0.1 0 0 0-0.1 0-0.2 0.1l-0.1 0.1 0.1 0c0 0 0.2 0 0.2 0 0.1 0 0.2 0 0.2 0.1 0 0 0 0.1 0.1 0.1 0 0.1 0 0.1 0 0.1 0 0-0.1 0.1-0.1 0.2 0 0.1-0.1 0.1-0.2 0.1-0.2 0-0.3-0.1-0.3-0.1 0 0 0 0 0.1 0 0 0 0.1 0 0.1-0.1 0-0.1 0-0.1 0-0.2 0-0.1 0-0.1-0.1-0.1-0.1 0-0.1 0-0.2 0-0.1 0-0.4 0.3-0.4 0.3 0 0-0.1 0-0.1 0-0.1 0-0.2-0.1-0.5-0.2-0.3-0.1-0.4-0.2-0.6-0.2-0.3 0-0.4 0-0.6 0.3-0.1 0.1-0.2 0.2-0.3 0.2-0.1 0.1-0.1 0.1-0.1 0.2 0 0.1 0 0.1 0 0.1 0 0 0 0.1 0 0.1 0.1 0 0.2 0.1 0.1 0.2 0 0.2-0.2 0.3-0.4 0.3-0.2 0.1-0.3 0.2-0.4 0.4 0 0.2 0 0.2 0.2 0.1 0.1 0 0.2 0 0.5 0 0.2 0 0.4 0 0.4 0 0 0 0.1 0 0.2 0 0.1 0 0.2 0 0.2 0 0.1 0 0.2 0 0.2 0.1 0.1 0.1 0.2 0.1 0.4 0.1 0.2 0 0.3 0 0.4 0.1 0.1 0 0.1 0 0.2 0 0.2 0 0.3-0.1 0.3-0.2 0 0 0-0.1 0.1-0.1 0 0 0.1 0 0.1-0.1 0-0.1-0.1-0.2-0.2-0.3-0.1-0.1 0-0.1 0.3-0.1 0.3 0 0.6 0 0.6-0.1 0.1-0.1 0.1-0.1 0.2 0.1 0.1 0.2 0.1 0.3 0.3 0.3 0.1 0 0.1 0 0.1 0-0.1 0-0.1 0.1 0 0.2 0.1 0.1 0.1 0.1 0.1 0 0 0 0.1-0.1 0.1-0.2 0-0.2 0-0.2 0.1-0.2 0.1 0 0.2 0.1 0.4 0.1 0.3 0.2 0.4 0.3 0.4 0.3-0.1 0.1 0 0.2 0.1 0.3 0.1 0.1 0.1 0.1 0.2 0 0 0 0.1-0.1 0.1-0.1 0 0 0 0 0.1 0 0 0 0.1 0.1 0.2 0.1 0.1 0 0.4 0.2 0.4 0.2 0 0-0.1 0.1-0.2 0.2-0.2 0.1-0.2 0.2-0.2 0.2 0 0 0.1 0.1 0.1 0.1 0 0.1 0.1 0.2 0.2 0.2 0.1 0 0.1 0.1 0.1 0.1 0 0 0.1 0.1 0.2 0.1l0.1 0.1-0.2 0.2c-0.1 0.1-0.3 0.2-0.4 0.3-0.1 0.1-0.3 0.2-0.4 0.2-0.2 0.1-0.7 0.4-1.1 0.6-0.9 0.5-2.1 0.8-3.1 0.9-0.3 0-0.6 0.1-0.6 0.1-0.1 0-1.2 0.1-1.6 0zm5.7-2.4c0 0 0-0.1 0.1-0.1 0.1-0.1 0.1-0.1-0.1-0.3-0.2-0.2-0.3-0.2-0.4-0.2-0.1 0-0.1 0.3 0 0.5 0 0.1 0.1 0.1 0.2 0.2 0.1 0 0.1 0 0.2 0.1 0.1 0.1 0.1 0 0.1 0zm-6.8-0.5c0 0 0.5-0.2 0.6-0.2 0.1 0 0.1-0.1 0.1-0.2 0 0-0.1 0-0.2-0.1-0.2-0.1-0.4-0.1-0.5-0.2-0.1-0.1-0.2-0.1-0.3 0-0.2 0.1-0.2 0.2 0 0.3 0.1 0.1 0.1 0.1 0 0.1-0.1 0-0.1 0.1 0 0.2 0 0.1 0.4 0.1 0.4 0zm7.2-0.2c0-0.1-0.1-0.1-0.1-0.1 0 0-0.1 0-0.1 0-0.1 0-0.2 0 0 0.1 0 0 0.1 0.1 0.1 0.1 0 0.1 0 0.1 0.1 0.1h0.1l-0.1-0.1zm-0.1-0.4c0 0 0 0 0 0 0 0 0 0 0 0.1 0 0 0 0 0 0 0 0 0 0 0-0.1zM8.9 19.1c0 0 0.2-0.1 0.3-0.2 0.1-0.1 0.2-0.2 0.2-0.2 0.1-0.1 0.2-0.1 0.2 0 0 0 0.3 0 0.3 0 0 0 0-0.1 0-0.1 0-0.2 0-0.2 0.1-0.3 0.1 0 0.2-0.1 0.2-0.1 0.1-0.1 0.4-0.1 0.4 0 0 0.1 0 0.1 0.1 0.1 0.1 0 0.3-0.2 0.3-0.4 0.1-0.2 0.1-0.2 0.2-0.1 0.1 0 0.2 0.1 0.2 0.1 0 0 0.1-0.1 0.2-0.2 0.2-0.2 0.3-0.3 0.6-0.3 0.1 0 0.2 0 0.2 0 0 0 0.1 0 0.1 0 0 0 0.1-0.1 0.3-0.2 0.2-0.1 0.2-0.2 0.1-0.2-0.1 0-0.2 0-0.4-0.1-0.4-0.1-0.6-0.1-0.9 0.1-0.2 0.1-0.3 0.2-0.3 0.2 0 0-0.1 0-0.2-0.1-0.2-0.1-0.6-0.2-1.2-0.2-0.5 0-0.5 0-0.6 0.1-0.3 0.1-0.3 0.2 0.2 0.4l0.3 0.1-0.1 0c-0.1 0-0.2 0-0.3 0-0.1 0-0.2 0-0.3 0-0.2 0.1-0.4 0.1-0.8 0.1-0.3 0-0.4 0-0.5 0-0.1 0.1-0.1 0.1-0.6-0.4-0.2-0.2-1.1-0.6-1.2-0.6-0.1 0-0.2 0-0.4 0-0.1 0-0.4 0-0.5-0.1-0.2 0-0.5-0.1-0.6-0.1-0.2 0-0.5-0.1-0.6-0.1-0.5-0.1-0.6 0-0.1 0.2 0.1 0 0.2 0.1 0.3 0.2 0.1 0.1 0.2 0.1 0.2 0.1 0.1 0 0.3 0.2 0.4 0.3 0.1 0.1 0.2 0.1 0.3 0.2 0.1 0 0.3 0.1 0.4 0.2 0.1 0.1 0.3 0.1 0.4 0.1 0.3 0 0.4 0.1 0.4 0.1 0 0.1 0 0.1 0.2 0 0.3-0.1 0.3-0.1 0.1 0.2-0.2 0.2-0.2 0.3-0.1 0.4 0.1 0.1 0.1 0.1 0.1 0 0-0.1 0.1-0.1 0.3-0.1 0.2 0 0.2 0 0.3-0.1 0.1-0.1 0.2-0.1 0.2-0.1 0 0 0.1 0.1 0.2 0.2 0.1 0.1 0.1 0.1 0.2 0.1 0 0 0.1-0.2 0-0.4 0-0.1 0-0.1 0.1 0 0.1 0.1 0.3 0.1 0.3 0l0-0.1h0.3c0.2 0 0.3 0 0.4 0.1 0.1 0.1 0.1 0.1 0 0.2-0.1 0.1-0.2 0.4-0.1 0.4 0 0 0.1 0.1 0.1 0.1 0 0.1 0.1 0.1 0.2 0.2 0.1 0 0.1 0.1 0.1 0.1 0 0.1 0.1 0.1 0.2 0zM11 17.7c0 0-0.1 0-0.2-0.1l-0.1 0 0.2 0c0.2 0 0.4 0 0.4 0.1 0 0.1-0.1 0.1-0.2 0zm2.6-1.2c0 0 0 0-0.1 0 0 0-0.1 0-0.1 0 0 0 0 0 0.1 0 0 0 0.1 0 0.1 0zm-0.9-0.1c0 0 0 0 0 0 0 0-0.1 0-0.1-0.1-0.1-0.1-0.1-0.1-0.6-0.1-0.3 0-0.6-0.1-0.6-0.1 0 0-0.2 0-0.5 0-0.4 0-0.4 0-0.5 0.1 0 0.1 0 0.1 0 0.1 0.1 0 0.9 0.1 1.2 0.1 0.2 0 0.3 0 0.3 0 0 0 0.5 0.1 0.6 0 0 0 0.1 0 0.1 0zM9.9 16.1c0 0-0.1-0.1-0.2-0.1 0 0-0.1 0-0.1 0.1 0 0.1 0.2 0.1 0.2 0zm-0.5-0.1 0.1-0.1-0.2 0c-0.3-0.1-0.5-0.1-0.6 0l-0.1 0.1 0.2 0c0.1 0 0.2 0 0.2 0 0.1 0 0.3 0 0.4-0.1zm-0.8 0c0 0 0-0.1 0-0.1 0-0.1-0.1-0.1-0.3-0.1-0.1 0-0.5 0-0.8-0.1-0.4 0-0.6 0-0.7-0.1-0.1-0.1-0.3-0.1-0.3 0-0.1 0.1 0.4 0.2 0.7 0.2 0.1 0 0.2 0 0.3 0 0.1 0 0.2 0 0.3 0 0.2 0 0.2 0 0.3 0 0.1 0 0.2 0.1 0.4 0.1 0.1 0 0.1 0 0.1 0zm-4.5-0.5 0.1 0-0.1-0.1c0 0-0.1-0.1-0.1-0.1-0.1 0-0.1 0.1-0.1 0.2 0 0 0.1 0 0.2 0zm2.1 0c0.1-0.1 0-0.3-0.2-0.4C5.9 15 5.8 14.9 5.8 14.9 5.7 14.8 5.6 14.6 5.5 14.4 5.4 14.2 5.2 14 5.1 14 5.1 13.9 4.9 13.7 4.7 13.6 4.4 13.2 4.3 13.2 3.8 13.1c-0.3-0.1-0.4-0.1-0.6-0.1-0.3 0-0.3 0-0.4 0.1-0.1 0.1-0.2 0.2-0.2 0.3-0.1 0.3-0.2 0.4-0.6 0.7-0.2 0.2-0.3 0.3-0.3 0.4 0 0.1 0.1 0.1 0.1 0 0-0.1 0.1-0.1 0.3-0.1 0.1 0 0.2 0 0.2 0 0 0 0.1 0 0.1 0 0 0 0 0 0-0.1 0 0 0-0.1 0 0 0 0 0.1 0 0.1-0.1 0.1-0.1 0.1-0.1 0.1-0.1 0-0.1 0-0.2 0.1-0.2 0.1 0 0.2 0.3 0.2 0.3 0 0.1 0.1 0.2 0.2 0.2 0.1 0 0.3-0.1 0.3-0.1 0 0 0.1-0.1 0.1-0.1 0.1-0.1 0.2-0.1 0.2 0 0 0 0.1 0.1 0 0.2 0 0.3 0 0.3 0.2 0.1 0.1-0.1 0.2-0.2 0.3-0.2 0.2 0 0.5 0.2 0.7 0.5 0.1 0.1 0.1 0.1 0.2 0 0.1-0.1 0.2 0 0.2 0 0 0.1 0.2 0.3 0.3 0.4 0 0 0.1 0.1 0.1 0.2 0 0.1 0.1 0.1 0.1 0.2 0.1 0.1 0.2 0.1 0.3 0zM1.8 9.7c0 0 0.1-0.1 0.1-0.2 0-0.1 0-0.1-0.1-0.1-0.1 0-0.3 0.3-0.2 0.4 0.1 0.1 0.1 0 0.2 0zM12.4 2c0.1-0.1 0.1-0.1 0.1-0.3 0-0.3-0.3-0.4-0.6-0.1-0.1 0.1-0.1 0.2-0.1 0.3 0 0.1 0.4 0.2 0.6 0.1zm2.5-0.1c0.2-0.2 0.1-0.4-0.1-0.4-0.1 0-0.2 0.1-0.2 0.2 0 0.1 0 0.1 0.1 0.2 0.1 0.1 0.2 0.1 0.3 0zM13.3 1.5c0.1-0.1 0.1-0.1 0-0.2-0.1-0.1-0.4 0-0.3 0.2 0 0.1 0.2 0.2 0.3 0.1zM6.4 20.9c0 0 0 0 0 0 0 0 0 0 0 0 0 0 0 0 0 0 0 0 0 0 0 0zM5.6 20c0 0 0 0 0 0 0 0 0 0 0 0 0 0 0 0 0 0 0 0 0 0 0 0zm7.1-2c0 0 0.1 0 0.1 0 0 0 0 0 0 0 0 0 0 0 0 0zm0.6 0c0.1 0 0.2-0.1 0.2 0 0 0-0.1 0.1-0.2 0.1 0 0 0 0 0 0zm3.7-0.2c0 0-0.1-0.2-0.1-0.2 0 0 0-0.1 0.1-0.2 0-0.1 0.1-0.2 0.2-0.3 0.1-0.1 0.1-0.2 0.1-0.2 0 0 0 0 0 0 0 0-0.1 0.5-0.1 0.6 0 0.1-0.1 0.2-0.2 0.2zM11 1.5c0-0.1 0-0.2 0.1-0.1 0.1 0 0.1 0 0.1 0.1 0 0.1-0.1 0.2-0.1 0.2 0 0 0-0.1 0-0.1zm-0.5-0.2c0-0.1 0-0.1 0.2-0.1 0.1 0 0.1 0 0.2 0.1 0.1 0.1 0.1 0.1-0.1 0.1-0.1 0-0.2 0-0.2-0.1zM11.9 1.1c0 0 0 0 0.1 0 0.1 0 0.1 0 0.1 0 0 0-0.1 0-0.1 0z" fill="#a57549"/><path d="M10.1 22.8C9.4 22.7 8.3 22.4 8.2 22.2 8.2 22.2 8.1 22.2 8.1 22.2 8.1 22.2 7.8 22 7.8 22c0 0 0.1 0 0.2 0 0.1 0 0.2 0 0.2 0.1 0.1 0.1 0.1 0.1 0.1 0 0 0 0-0.2 0-0.3 0-0.3-0.1-0.4-0.4-0.7C7.7 20.9 7.6 20.8 7.6 20.8 7.6 20.7 7.2 20.5 6.4 20.1 6.3 20.1 6.2 20 6.1 19.9 5.8 19.6 5.5 19.5 5.1 19.6c-0.4 0.1-0.6 0.1-0.6 0.1-0.1 0-0.2-0.1-0.3-0.3l-0.1-0.1 0.1 0c0.2 0 0.4-0.1 0.4-0.3 0-0.1 0-0.1 0.1-0.1 0 0 0 0.1 0 0.1 0 0 0 0 0.1 0 0.1 0 0.1 0 0.1-0.2 0-0.1 0-0.2 0.1-0.2 0 0 0-0.1 0-0.1 0-0.1 0.1-0.1 0.2 0 0.1 0.1 0.1 0.1 0.1-0.1 0 0 0-0.1 0-0.1 0 0 0.1 0.1 0.2 0.2 0.1 0.1 0.1 0.1 0.1 0 0-0.1 0-0.1 0.1 0 0.1 0.1 0.1 0.1 0.2 0 0.1-0.1 0.1-0.1 0.2-0.1 0 0 0.1 0.1 0.2 0.2 0.1 0.2 0.3 0.2 0.3 0.1 0-0.1 0.1-0.1 0.2 0 0.1 0 0.1 0 0.2 0 0.1 0 0.2-0.1 0.2-0.1 0.1-0.1 0.2-0.1 0.2 0 0.1 0.1 0.2-0.1 0.2-0.2 0-0.1 0.1-0.1 0.1-0.1 0 0 0.1 0 0.2 0 0.1 0 0.2 0.1 0.3 0l0.1 0 0 0.2c0 0.3 0.3 0.7 0.6 0.7 0.1 0 0.1 0 0.1 0.2 0 0.1 0 0.1 0 0.1 0.2-0.1 0.2-0.1 0.3 0 0 0 0 0.2 0 0.3 0 0.1 0 0.3 0 0.5 0 0.2 0.1 0.4 0.1 0.5 0 0.4 0.2 0.7 0.4 0.9 0.1 0.1 0.1 0.1 0.1 0.2 0 0.1 0.1 0.1 0.2 0.3 0.1 0.1 0.2 0.2 0.2 0.2l0 0c0 0 0.1 0 0.1 0.1 0 0.1 0 0.1 0.1 0.1 0 0 0 0.1 0 0.1 0 0-0.1 0-0.1 0l-0.3-0.1zM6.4 20.9c0 0 0 0 0 0 0 0 0 0 0 0 0 0 0 0 0 0 0 0 0 0 0 0zM5.6 20c0 0 0 0 0 0 0 0 0 0 0 0H5.6c0 0 0 0 0 0zm5.2-0.4c-0.1 0-0.2-0.1-0.3-0.2-0.1-0.1-0.2-0.2-0.1-0.2 0-0.1 0-0.2-0.3-0.6l-0.1-0.2 0.1 0c0.1 0 0.1-0.1 0.2-0.1 0.1-0.1 0.3-0.1 0.3 0 0 0 0 0.1 0 0.1 0 0 0 0.1 0.1 0.1l0.1 0.1c0 0.1 0.1 0 0.2-0.1 0-0.1 0.1-0.2 0.1-0.2 0.1-0.1 0.1-0.1 0.2 0 0.2 0.1 0.3 0.1 0.5 0 0.1-0.1 0.2-0.1 0.2-0.1 0 0 0.1 0.1 0.2 0.3 0 0.1 0 0.2 0 0.3 0 0.1-0.1 0.1-0.1 0.1 0 0-0.1 0.1-0.2 0.2-0.1 0.1-0.2 0.3-0.3 0.4-0.1 0.1-0.2 0.2-0.2 0.3-0.1 0.2-0.2 0.2-0.5 0.1zm9.3-0.4c0.1-0.4 0.1-0.6 0.1-1v-0.4l-0.1-0.2c-0.1-0.2-0.4-0.4-0.6-0.4-0.2 0-0.3 0.1-0.5 0.2-0.2 0.2-0.2 0.1-0.1-0.2l0.1-0.2h0.3c0.2 0 0.5 0 0.6 0 0.8 0.1 0.9 0.1 0.9 0 0.1-0.1 0.1-0.3 0-0.3 0 0-0.2-0.1-0.6-0.1-0.5 0-1-0.1-1.2-0.1-0.1 0-0.1-0.1-0.2-0.2-0.4-0.7-1.3-0.8-1.6-0.2-0.1 0.2-0.1 0.2-0.1-0.2 0-0.4-0.1-0.6-0.6-0.7-0.2-0.1-0.3-0.1-0.5-0.1-0.4 0-0.7 0.3-0.8 0.8 0 0.1-0.1 0.2-0.1 0.2H14.9c-0.2 0-0.5 0-0.6 0-0.2 0-0.3 0-0.4 0-0.1 0-0.2 0-0.4 0-0.2 0-0.4 0-0.4 0-0.2 0-0.6-0.1-1.1-0.1-0.2 0-0.5 0-0.6-0.1-0.1 0-0.4 0-0.5-0.1-0.3 0-0.3 0-0.4 0 0 0-0.1 0-0.1 0-0.1-0.1-0.1-0.1-0.4-0.1-0.2 0-0.3 0-0.4 0-0.1-0.1-0.7-0.1-0.8-0.1-0.1 0-0.2 0-0.2 0-0.1-0.1-0.5-0.1-0.9-0.1-0.2 0-0.5 0-0.6-0.1-0.1 0-0.4 0-0.5 0C6.4 15.4 6.3 15.4 6.3 15.3 6.3 15.2 6.2 15.1 6.1 15 6 14.9 5.9 14.7 5.8 14.6 5.6 14.2 5.4 14 5 13.6 4.9 13.4 4.6 13.2 4.5 13.1 4.5 13.1 4.2 13 4 12.9 3.7 12.8 3.5 12.8 3.4 12.8c-0.4 0-0.5 0.1-0.8 0.6-0.1 0.1-0.2 0.3-0.3 0.3-0.1 0.1-0.2 0.2-0.3 0.3-0.4 0.4-0.3 0.4-0.4 0.3 0 0 0-0.1 0-0.2v-0.2L1.7 13.7c0.2-0.2 0.3-0.2 0.3-0.2 0 0 0.1 0 0.1 0 0.1-0.1 0.2-1.7 0.1-1.8 0 0 0 0-0.1 0-0.1 0.1-0.5 0.2-0.7 0.3l-0.2 0.1 0-0.4c0-0.2 0-0.4 0-0.5 0-0.1 0-0.1 0-0.1 0 0 0-0.1 0.1-0.3C1.6 9 2.2 7.2 3.1 5.8 3.6 5.1 4.1 4.4 4.8 3.9 5.2 3.5 5.6 3.1 5.8 3 5.8 3 6 2.9 6.1 2.9 6.5 2.5 7.5 2 8.1 1.7c0.2-0.1 0.3-0.1 0.4-0.1 0.1 0 0.3 0.1 0.4 0.1 0.1 0 0.3 0 0.4 0.1 0.1 0 0.4 0 0.6 0 0.5 0 0.6 0 0.6-0.1 0-0.1 0.1-0.1 0.2 0 0.1 0.1 0.1 0.1 0.3 0.1 0.1 0 0.2 0 0.3 0.1 0.1 0.1 0.3 0.1 0.4 0 0.1-0.1 0.2-0.1 0.2-0.2 0.1-0.4 0.1-0.4 0.3-0.4 0.1 0 0.2 0 0.2-0.1 0 0 0.1 0 0.2 0 0.1 0 0.1 0 0.1 0 0 0 0.1 0 0.1 0 0 0 0.1 0 0.1-0.1 0.1-0.1 0.1-0.1 0.2 0 0 0 0.2 0 0.2 0h0.1l0 0.2c0 0.1 0 0.2 0.1 0.2 0.1 0.1 0.3 0 0.3 0 0.1-0.1 0.1-0.2 0-0.3l-0.1-0.1h0.1c0.1 0 0.8 0.1 0.9 0.2 0.1 0 0.1 0 0.1 0.1 0 0 0 0.1 0.1 0.1 0 0.1 0.1 0.1 0.1 0.2 0 0.1 0.1 0.2 0.1 0.3 0.1 0.1 0.1 0.1 0.1 0.2 0 0.1 0.1 0.1 0.3 0.1 0.2 0 0.3 0 0.4-0.1 0 0 0-0.1-0.1-0.3-0.1-0.1-0.2-0.2-0.2-0.2 0 0 0-0.1-0.1-0.1l-0.1-0.1 0.1 0c0.3 0.1 0.9 0.3 1.3 0.5 0.2 0.1 0.2 0.1 0.2 0.2 0 0.1 0 0.2 0.3 0.2 0.2 0 0.2 0 0.5 0.1 1.2 0.6 2.5 1.7 3.3 2.8 0.6 0.7 0.8 1.1 1.2 1.9 0.6 1.2 0.9 2.2 1.1 3.5 0.1 0.6 0.1 2 0 2.6-0.2 1.7-0.7 3-1.5 4.4-0.3 0.6-0.5 0.8-0.8 1.2-0.1 0.2-0.3 0.4-0.3 0.4-0.1 0.1-0.2 0.1-0.2 0zM1.5 11c0-0.1 0-0.1-0.1-0.1-0.1 0-0.1 0.1 0 0.2 0 0.1 0.1 0 0.1-0.1zM1.8 9.8C1.9 9.7 1.9 9.5 1.9 9.4 1.9 9.3 1.7 9.4 1.6 9.5 1.5 9.6 1.5 9.7 1.5 9.8 1.6 9.9 1.7 9.9 1.8 9.8ZM12.5 2c0.1-0.1 0.1-0.1 0.1-0.2 0-0.1 0-0.2-0.1-0.2 0 0-0.1-0.1-0.2-0.1-0.1 0-0.1 0-0.3 0-0.2 0.1-0.3 0.2-0.3 0.3 0 0.2 0.2 0.3 0.5 0.3 0.1 0 0.2 0 0.2-0.1zm0.7 0.1c0.1 0 0-0.1-0.1-0.1-0.1 0-0.1 0.1-0.1 0.1 0.1 0 0.1 0 0.2 0zm5.3 17.1c-0.1-0.1 0.2-1.2 0.3-1.3 0 0 0.1 0 0.2 0.1 0.2 0.2 0.2 0.3 0 0.5-0.1 0.1-0.1 0.2-0.2 0.3-0.1 0.1-0.4 0.5-0.4 0.4zM3.4 18.8c-0.1-0.1-0.4-0.6-0.5-0.7 0-0.1 0-0.1 0-0.1 0 0-0.1-0.2-0.2-0.3-0.1-0.1-0.1-0.1 0-0.1 0 0 0.2 0.1 0.3 0.1l0.3 0.1 0.1-0.1c0 0 0.1-0.1 0.2-0.1 0.1 0 0.1 0 0.2-0.1 0.1-0.1 0.1-0.1 0.2 0 0.1 0 0.2 0.1 0.4 0.1 0.3 0 0.4 0 0.9 0.2 0.2 0.1 0.4 0.1 0.4 0.1 0 0-0.2 0.2-0.6 0.4-0.1 0.1-0.2 0.1-0.3 0.2 0 0-0.2 0.1-0.4 0.2-0.9 0.2-0.9 0.2-1 0.1zm4.7-0.7c-0.1-0.1-0.1-0.1 0-0.2 0.3 0 0.6 0.2 0.3 0.2-0.2 0-0.3 0-0.4-0.1zM8 17.7C7.8 17.6 7.5 17.5 7.1 17.2 7 17.2 6.6 17 6.1 16.7 6 16.6 5.8 16.6 5.5 16.6c-0.2 0-0.5 0-0.6-0.1-0.1 0-0.4-0.1-0.6-0.1-0.2 0-0.5-0.1-0.6-0.1-0.2 0-0.3 0-0.4 0-0.2 0-0.3 0-0.3-0.1 0-0.1 0.1-0.4 0.2-0.5 0.2-0.1 0.5-0.5 0.6-0.9 0.2-0.4 0.3-0.6 0.4-0.5 0.1 0.1 0.3 0.2 0.4 0.3 0.1 0.2 0.2 0.2 0.4 0.2 0.1 0 0.1 0 0.2 0.1 0 0.1 0.1 0.2 0.1 0.2 0 0.1 0 0.1 0.1 0.1 0 0 0.1 0.1 0.2 0.2 0.1 0.1 0.3 0.2 0.5 0.2 0 0 0.1 0 0.1 0.1 0.1 0.1 0.2 0.1 0.5 0.1 0.3 0 0.3 0 0.4 0 0.1 0 0.1 0 0.2 0.1 0.1 0.1 0.1 0.1 0.3 0.1 0.2 0 0.2 0 0.3 0 0.2 0.1 1.9 0.2 2.2 0.2 0.1 0 0.1 0 0.2 0 0.1 0.1 0.3 0.1 0.8 0.2 0.4 0 0.6 0.1 1.2 0.1 0.3 0 0.4 0 0.5 0 0.1 0 0.2-0.1 0.3-0.1 0.2 0 0.2 0 0.2 0.1 0 0.1 0.1 0.1 0.2 0.1 0.4 0.1 0.6 0.1 1 0.1 0.3 0 0.5 0.1 0.5 0.1 0.1 0.1-0.2 0.6-0.4 0.7l-0.1 0.1-0.4-0.2c-0.3-0.1-0.4-0.2-0.6-0.2-0.1 0-0.3-0.1-0.4-0.1-0.2-0.1-0.7-0.1-0.9-0.1-0.1 0-0.3 0-0.5 0.2-0.2 0.1-0.4 0.2-0.4 0.2 0 0-0.1 0-0.2-0.1-0.2-0.1-0.6-0.2-1.2-0.2-0.5 0-0.5 0-0.6 0.1-0.3 0.1-0.3 0.2 0.2 0.4l0.3 0.1-0.1 0c-0.1 0-0.2 0-0.3 0-0.1 0-0.2 0-0.3 0-0.3 0.1-0.6 0.1-1 0.1zM4.4 15.5c0 0 0-0.1-0.1-0.1-0.1-0.1-0.1-0.1-0.3-0.1-0.2 0-0.3 0-0.3 0.2 0 0.1 0.1 0.1 0.4 0.1 0.2 0 0.3 0 0.3-0.1zm6.4 2.1-0.1 0 0.2 0c0.2 0 0.3 0 0.3 0 0 0.1-0.2 0.1-0.3 0zm6.1-0.1c0-0.1 0.1-0.3 0.2-0.3 0 0 0 0.1 0 0.2 0 0.2-0.1 0.3-0.1 0.1zM1.7 15.4c-0.1-0.2-0.1-0.2 0.2-0.2 0.1 0 0.2 0 0.2 0.1 0 0 0 0-0.1 0.1 0 0-0.1 0-0.1 0.1 0 0 0 0.1 0 0.1 0 0-0.1 0-0.1 0 0 0-0.1 0-0.1-0.1zm1.5-0.3c0 0 0-0.1 0-0.1h0c0.1 0 0 0.1 0 0.1 0 0 0 0 0 0zM10.5 1.2c0 0 0.1-0.1 0.2-0.1 0 0 0.1 0 0.1 0.1 0 0-0.2 0-0.2 0z" fill="#656862"/><path d="m10 22.8c-0.4-0.1-0.4-0.1-0.5-0.3 0-0.1 0-0.2 0-0.2 0-0.1-0.1-0.1-0.2 0-0.1 0.1-0.1 0.1-0.2 0.1-0.1 0-0.2 0-0.2-0.1 0-0.1 0-0.1 0-0.1 0 0 0.4 0 0.6 0 0.1 0 0.7 0.6 0.7 0.7 0 0 0 0-0.2 0zM9 21.2c0 0-0.2 0-0.3-0.1C8.6 21.1 8.4 21 8.2 21 7.9 21 7.8 20.9 7.7 20.9 7.7 20.8 7.6 20.7 7.3 20.5 7.1 20.4 6.9 20.3 6.9 20.3c0 0-0.1-0.1-0.2-0.1-0.4-0.1-0.4-0.2-0.1-0.4 0.2-0.2 0.3-0.2 0.3 0 0 0.1 0.1 0.1 0.2 0 0.1-0.1 0.1-0.2 0-0.2-0.2 0-0.1-0.1 0.1-0.3 0.1-0.1 0.3-0.3 0.3-0.4 0.1-0.1 0.2-0.2 0.2-0.2 0.1 0 0.5 0.2 0.5 0.3 0.1 0.1 0.1 0.2-0.1 0.2-0.2 0-0.2 0.1-0.2 0.2 0 0.1 0.2 0.1 0.3 0 0 0 0.1 0 0.1 0.2 0.1 0.2 0.1 0.2 0 0.2-0.1 0.1-0.1 0.1-0.1 0.2 0 0.1 0.1 0.1 0.3 0 0.1 0 0.1 0 0.2 0.2 0.1 0.1 0.2 0.3 0.2 0.4 0.2 0.2 0.3 0.4 0.3 0.6 0 0.1 0 0.1-0.1 0.1zm1.8-1.7c-0.1-0.1 0-0.4 0.2-0.5 0.1-0.1 0.2-0.1 0.2-0.3 0 0 0.1-0.1 0.1-0.2 0.1-0.1 0.1-0.1 0.2 0 0.2 0.1 0.2 0.2-0.1 0.5-0.1 0.1-0.2 0.2-0.2 0.3-0.1 0.1-0.1 0.1-0.2 0.1-0.1 0-0.1 0-0.2-0.1zm9.3-0.3c0 0 0 0 0 0 0 0 0 0 0 0 0 0 0 0 0 0 0 0 0 0 0 0zm-9.8-0.5c-0.1-0.1-0.1-0.1 0-0.2 0.1-0.1 0.2-0.1 0.2 0 0 0-0.1 0.3-0.2 0.3 0 0 0 0-0.1-0.1zm-7.1-0.1c0 0-0.1-0.1-0.1-0.1 0 0 0.2-0.1 0.3-0.1 0.1 0 0.2-0.1 0.4-0.1 0.3-0.1 0.4-0.1 0.6 0 0.2 0.1 0.1 0.2-0.4 0.3-0.2 0.1-0.7 0.2-0.8 0.2 0 0-0.1 0-0.1-0.1zm17 0c-0.1 0-0.1-0.1-0.1-0.3 0-0.1 0.1-0.2 0.1-0.3 0-0.2-0.3-0.7-0.5-0.8-0.1 0 0 0 0.4 0 0.3 0 0.5 0 0.5 0.1 0.1 0.1 0.2 0 0.3-0.1 0.1-0.2 0-0.4 0-0.4 0 0-0.3-0.1-0.6-0.1-0.5 0-1.2-0.1-1.3-0.1 0 0-0.1-0.1-0.1-0.2-0.2-0.4-0.6-0.7-1-0.6-0.2 0-0.4 0.1-0.6 0.2-0.1 0.1-0.1 0.1-0.1 0.1 0 0 0-0.1-0.1-0.2-0.1-0.3-0.3-0.5-0.6-0.6-0.1 0-0.1 0-0.1 0 0 0 0.3 0 0.4 0.1 0.1 0 0.3 0 0.8 0 0.4 0 0.8 0 0.8 0 0.1 0 0.3 0 0.4 0 0.2 0 0.2 0 0.1-0.1-0.1 0-0.2-0.1-0.4-0.1-0.4 0-0.8-0.1-0.9-0.1-0.1-0.1 0.3 0 1.6 0.1 0.2 0 0.4 0 0.6 0 0.1 0 0.5 0 0.7 0 0.4 0 0.5 0 0.6 0 0.1 0 0.1-0.1 0.1-0.2 0-0.1 0-0.2 0-0.2 0-0.1 0.1-0.1 0.1-0.2 0 0 0-0.1 0-0.2 0.1-0.1 0.1-0.6 0.1-0.9 0-0.1 0-0.2 0-0.3 0-0.2 0.1-1 0.2-1.7 0-0.3 0.1-1.1 0.1-1.6 0-0.6 0.1-1.1 0.1-1.1 0-0.1 0-0.2 0-0.3 0-0.2 0.1-0.4 0.1-0.6 0-0.1 0-0.2 0-0.2 0.1 0 0.4 0.8 0.5 1.5 0.1 0.5 0.2 1 0.3 1.4 0 0.1 0 0.3 0.1 0.3 0 0.1 0 1.8 0 1.8 0 0 0 0.2-0.1 0.3-0.1 1.1-0.6 2.6-1.1 3.6-0.3 0.6-0.9 1.5-1 1.7-0.1 0.1-0.2 0.2-0.3 0.2-0.1 0-0.2 0-0.2 0zm0.7-3c0.1-0.1-0.1-0.1-0.4-0.1-0.2 0-0.5 0-0.6-0.1-0.1 0-0.3 0-0.4 0-0.4 0-0.2 0.1 0.3 0.1 0.3 0 0.6 0 0.6 0.1 0.3 0 0.3 0 0.4 0zM8.2 17.4c-0.1 0-0.3 0-0.4 0-0.4 0-0.5-0.1-0.7-0.2-0.3-0.2-0.3-0.3 0-0.2 0.1 0 0.3 0 0.3 0 0.2 0 0.4 0 0.4 0.1 0 0 0.2 0.1 0.5 0.1 0.3 0.1 0.4 0.1 0.6 0.2 0.1 0.1 0.2 0.1 0.1 0.1 0 0-0.4 0-0.7 0zm6.1-0.2c-0.2-0.1-0.5-0.1-0.9-0.2-0.6-0.1-1.2-0.2-1.5-0.1-0.2 0.1-0.4 0.1-0.5 0-0.1-0.1-0.1-0.1-0.2-0.1 0 0-0.1 0-0.1 0-0.2-0.1-0.5-0.1-1-0.1-1.1 0-1.5 0-1.7-0.1 0 0-0.2 0-0.3-0.1-0.5 0-0.6 0-0.8-0.1-0.2 0-0.5 0-0.8-0.1-0.3 0-0.6 0-0.7 0-0.1 0-0.3 0-0.5 0-0.2 0-0.3 0-0.4 0 0 0-0.1 0-0.2 0-0.3 0-0.9-0.1-1.1-0.1-0.1 0-0.2 0-0.3 0-0.1 0-0.2 0-0.2 0 0 0 0.3-0.5 0.4-0.6 0 0 0.1 0 0.1 0 0.1 0 0.2 0.1 0.5 0.1 0.5 0 0.5 0 0.5-0.1 0 0-0.1-0.1-0.1-0.2-0.1-0.1-0.1-0.2 0.1-0.2 0.1 0 0.2 0.1 0.2 0.2 0 0.1 0.1 0.3 0.2 0.3 0 0 0.1 0.1 0.2 0.2 0.2 0.3 0.3 0.4 0.4 0.4 0.2 0 0.4-0.1 0.5-0.2 0.1-0.1 0.1-0.1 0.5 0 0.2 0 0.5 0 0.6 0 0.1 0 0.4 0 0.6 0.1 0.6 0.1 1.2 0.1 2.1 0.2 0.2 0 0.4 0 0.5 0 0.1 0 1.5 0.2 2 0.2 0.2 0 0.7 0.1 1 0.1 0.3 0 0.7 0.1 0.8 0.1 0.4 0 0.8 0.1 0.8 0.1 0 0-0.2 0.4-0.3 0.5-0.1 0.1-0.1 0.1-0.3 0zm0.3-1c-0.2 0-0.5 0-0.6-0.1-0.2 0-0.7-0.1-1-0.1-0.4 0-0.8-0.1-1.1-0.1-0.2 0-0.6-0.1-0.7-0.1-0.1 0-0.4 0-0.5 0-0.1 0-0.4 0-0.5 0C10.1 15.8 9.7 15.8 9.4 15.8 9 15.7 8.6 15.7 8.3 15.6c-0.1 0-0.3 0-0.6 0-0.2 0-0.6 0-0.7-0.1-0.1 0-0.3 0-0.4-0.1C6.4 15.5 6.4 15.5 6.3 15.3 6.3 15.2 6.2 15.1 6.2 15.1 6.1 15 6 14.9 5.8 14.5 5.7 14.4 5.6 14.3 5.6 14.2c0 0 0-0.1 0-0.1 0 0-0.1 0-0.1-0.1 0 0 0 0 0.2 0 0.1 0 0.3 0 0.5 0.1 0.2 0 0.5 0.1 0.7 0.1 0.2 0 0.5 0.1 0.6 0.1 0.1 0 0.2 0 0.2 0 0.1 0 0.1 0 0 0.1 0 0-0.2 0-0.4 0-0.4 0-0.6 0-0.6 0 0 0 0.2 0 0.4 0.1 0.4 0 0.9 0.1 1.3 0.2 0.1 0 0.3 0 0.4 0 0.2 0 0.2 0 0.1-0.1 0 0 0-0.1 0-0.1 0.1 0 0.9 0 1.4 0.1 0.4 0.1 0.9 0.1 1.2 0.1 0.1 0 0.2 0 0.2 0.1 0 0 0 0-0.4 0-0.2 0-0.5 0-0.6-0.1-0.3 0-0.6 0-0.4 0.1 0 0 0.2 0 0.4 0.1 0.2 0 0.5 0.1 0.7 0.1 0.4 0.1 1 0.1 1.1 0 0.1 0 0.1 0 0 0 0 0-0.1 0-0.2 0 0 0-0.1 0-0.2-0.1-0.3-0.1-0.2-0.1 0.2-0.1 0.1 0 0.6 0 0.9 0.1 0.4 0 0.9 0.1 1.2 0.1 0.3 0 0.7 0.1 0.9 0.1 0.6 0 0.7 0.1 0.4 0.1-0.2 0-0.3 0-0.5 0-0.2 0-0.2 0-0.3 0-0.1 0.1 0 0.1 0.3 0.1 0.2 0 0.4 0 0.6 0.1 0.2 0 0.3 0 0.4 0.1 0.1 0 0.2 0.1 0.1 0.1-0.1 0-0.4 0.2-0.5 0.3-0.1 0.2-0.2 0.3-0.3 0.5-0.1 0.2-0.1 0.2-0.6 0.2zm5.7-1.1c-0.2-0.1 0-0.1 0.4 0 0.1 0 0.1 0 0 0.1-0.2 0-0.3 0-0.4 0zM3.9 15.2c0-0.1 0.1-0.1 0.2 0 0.1 0 0.1 0 0 0 0 0-0.1 0-0.1 0 0 0-0.1 0-0.1 0zm13 0c-0.1 0-0.3 0-0.4-0.1-0.2 0-0.3 0-0.4 0-0.1 0-0.1 0 0 0 0 0 0.2 0 0.4 0 0.2 0 0.5 0.1 0.6 0.1 0.1 0 0.2 0 0.3 0l0.1 0h-0.1c-0.1 0-0.2 0-0.2 0-0.1 0-0.2 0-0.2 0zm3.2 0c0-0.1 0-0.1 0.1-0.1 0.1 0 0.1 0 0 0.1-0.1 0.1-0.1 0-0.1 0zM16.6 14.8c0 0 0 0 0.1 0 0 0 0 0 0 0-0.1 0-0.1 0 0 0zm-2.6-0.6c0 0 0 0 0 0 0.1 0 0.4 0 0.4 0 0 0-0.3 0-0.4 0zM2.1 13.3c0-0.2 0-0.4 0.1-0.6 0-0.2 0-0.5 0-0.7 0-0.3 0-0.4 0-0.4 0 0-0.2 0-0.3 0.1-0.5 0.2-0.6 0.2-0.4-0.1 0.1-0.1 0.2-0.2 0.2-0.3 0.1-0.1 0.1-0.1 0.1-0.3 0-0.2 0-0.2 0.1-0.3 0 0 0.1-0.1 0.2-0.2 0.1-0.2 0.1-0.2 0.1-0.2 0-0.1-0.1-0.1-0.2-0.2-0.1-0.1-0.1-0.2 0-0.3C1.9 9.8 2 9.7 2 9.6 2.1 9.5 2.1 9.4 2.2 9.4c0.1 0 0.1-0.1 0.1-0.3 0-0.1 0-0.3 0-0.3 0-0.1 0-0.2 0-0.4 0-0.2 0-0.4 0-0.4 0-0.1 0.1-0.4 0.1-0.9 0-0.5 0.1-0.6 0.2-0.9C2.8 5.9 3.4 5.2 3.7 4.8 4.2 4.3 5.2 3.4 5.5 3.2 5.5 3.2 5.7 3.1 5.8 3 6.1 2.8 6.7 2.4 7.3 2.1 7.8 1.9 7.8 1.9 8.4 1.9c0.3 0 0.6 0.1 0.6 0.1 0.1 0 0.4 0 0.7 0 0.3 0 0.7 0 0.8 0 0.2 0 0.4 0 0.6 0 0.2 0 0.4 0 0.6 0 0.1 0 0.4 0 0.6 0 0.3 0 0.5 0 0.5 0 0 0 0.2 0 0.4 0.1 0.2 0 0.4 0.1 0.6 0.1 0.2 0 0.5 0.1 1.2 0.1 0.5 0 1.1 0 1.3 0 0.2 0 0.5 0 0.6 0.1 0.6 0 0.6 0.1 1.3 0.5 0.7 0.5 1.2 0.9 1.7 1.5 0.3 0.3 0.8 0.9 0.8 1 0 0-0.2 0-0.8 0-0.3 0-0.9-0.1-1.3-0.1C18.3 5.4 17.4 5.3 16.7 5.3 16.1 5.2 15.2 5.2 14.9 5.1 14.5 5.1 14.2 5.1 14 5 13.7 5 13.2 4.9 12.8 4.9c-0.2 0-0.4 0-0.5 0-0.1 0-0.4 0-0.6-0.1-0.2 0-0.4-0.1-0.5-0.1 0 0-0.1 0-0.2 0 0 0-0.1 0-0.1 0 0 0-0.2 0-0.3 0-0.1 0.1-1.5 0-2.2-0.1-0.1 0-0.4 0-0.6 0-0.3 0-0.4 0-0.5-0.1C7.2 4.4 7.1 4.4 7 4.4 6.8 4.4 6.7 4.4 6.6 4.4 6.5 4.3 6.4 4.3 6.4 4.3c0 0-0.1 0-0.1 0-0.1 0-0.1 0-0.3 0-0.1 0-0.4 0-0.5 0-0.2 0-0.3 0-0.3 0.3 0 0.2 0.1 0.2 0.2 0.1 0.1-0.1 0.1-0.1 0.2 0.1 0 0.1 0 0.1 0.1 0.2 0.1 0.1 0.2 0.1 1.3 0.1 0.4 0 0.9 0.1 1.1 0.1 0.2 0 0.4 0.1 0.6 0.1 0.2 0 0.4 0 0.6 0 0.2 0 0.6 0.1 0.8 0.1 0.6 0 0.8 0.1 0.8 0.2 0 0 0.1 0.1 0.2 0.1 0.1 0 0.1 0 0.2 0.1 0 0 0.1 0.1 0.1 0.1 0.1 0.1 0 0.1-0.5 0.1-0.6 0-1 0-1-0.1-0.1-0.1-0.1-0.1-0.2 0-0.1 0.1-1 0-1-0.1 0 0-0.1-0.1-0.2-0.1-0.2-0.1-0.3-0.1-0.3 0 0 0 0 0.1-0.1 0.1 0 0-0.1 0-0.1 0-0.3 0.1-0.6 0.1-0.8 0C6.9 5.4 6.5 5.3 6 5.3c-0.5 0-0.6 0-0.5-0.1 0 0 0-0.1 0-0.1-0.2-0.1-0.5-0.1-0.5 0.1 0 0.1 0 0.1-0.2 0.1-0.3 0.1-0.6 0-0.5-0.1 0-0.2 0-0.2 0-0.2-0.1 0-0.1 0.1-0.1 0.2 0.1 0.1 0 0.1-0.1 0.1C4.1 5.4 4.1 5.4 4 5.6 4 5.8 4 5.9 4 6c0 0.1 0 0.1 0 0.2-0.1 0.1-0.1 0.7-0.1 0.8 0 0.1 0.1 0.1 0.2 0.1 0.3 0 0.7 0.2 0.6 0.2 0 0-0.1 0-0.1 0.1 0 0-0.1 0-0.1 0-0.1 0-0.1 0 0 0.1 0.1 0.1 0.1 0.1 0.3 0.1 0.1 0 0.2 0 0.3 0 0.1 0 0.1 0 0 0-0.1 0-0.1 0-0.1 0 0 0-0.2 0-0.5 0-0.4 0-0.4 0-0.5 0.1 0 0-0.1 0.2-0.1 0.6 0 0.3 0 0.6-0.1 0.6 0 0.5-0.1 0.9 0 1 0 0.1 0 0.1 0 0.2 0 0-0.1 0.2-0.1 0.3 0 0.2 0 0.4-0.1 0.5-0.1 0.3-0.1 0.9-0.1 1.2 0 0.1 0 0.3 0 0.4l0 0.1-0.2 0c-0.4 0-0.5 0.1-0.8 0.5-0.3 0.4-0.3 0.4-0.3 0zM16.2 4.9c0-0.1 0-0.1-0.1-0.1-0.1 0-0.1 0-0.1 0 0 0.1 0 0.1 0.1 0.1 0.1 0 0.1 0 0.1-0.1zM13.3 4.7c0 0 0.1-0.1 0-0.1 0 0 0-0.1 0-0.1 0 0 0.1 0 0.2-0.1 0.1-0.1 0.1-0.1 0.1-0.1 0 0 0.3-0.2 0.3-0.2 0 0-0.1 0-0.2 0-0.2 0-0.4 0.1-0.4 0.1 0 0.1-0.1 0.1-0.1 0 0-0.1-0.1-0.2-0.5-0.2-0.2 0-0.3 0-0.4 0 0 0-0.1 0-0.1 0-0.1 0-0.1 0-0.1 0 0 0 0 0 0.1 0 0 0 0.2 0 0.2 0 0.1 0 0.3 0.1 0.4 0.1 0.2 0 0.3 0 0.3 0 0 0 0 0.1 0 0.2 0 0.1-0.1 0.2 0 0.2 0 0.1 0.1 0.1 0.2 0zM7 4.1C7 4.1 6.9 4 6.8 4 6.7 4 6.3 4.1 6.3 4.1c0 0 0 0.1 0.1 0.1 0.1 0.1 0.1 0.1 0.4 0.1l0.3 0v-0.1c0-0.1 0-0.1 0-0.2zm-1.2 0c0.3 0 0.4 0 0.3-0.1-0.1 0-0.7-0.1-0.8 0 0 0.1 0.1 0.2 0.2 0.2 0 0 0.2 0 0.3 0zm7.6-1c0.1-0.1 0.1-0.1 0-0.3C13.4 2.7 13.2 2.6 13.1 2.7c-0.1 0-0.2 0.2-0.2 0.3 0 0.1 0.1 0.2 0.3 0.2 0.1 0 0.1 0 0.2-0.1zm7.4 7.9c0 0 0-0.1 0-0.1 0 0 0.1 0 0.1 0 0 0-0.1 0.1-0.1 0zM6.1 7.9c-0.1 0 0-0.1 0.1-0.1 0 0 0.1 0 0.1 0.1 0 0.1-0.1 0.1-0.2 0.1zM5.2 7.8c0 0 0 0 0.1-0.1 0 0 0 0 0-0.1 0-0.1 0-0.1 0-0.1 0 0 0.1 0 0.1 0 0 0 0 0.1 0 0.1 0 0 0 0.1 0 0.1 0 0 0 0-0.1 0 0 0-0.1 0-0.1 0zM5 7.5c-0.1 0 0-0.1 0-0.1 0.1 0 0.2 0 0.2 0.1 0 0-0.1 0-0.2 0zM20.9 6.6c-0.2 0-0.4 0-0.4-0.1 0 0 0-0.1 0-0.1 0-0.1 0-0.2-0.1-0.2-0.1 0-0.3 0-0.6-0.1-0.3 0-0.8-0.1-1.1-0.1-0.5 0-0.6 0-0.6 0 0 0-0.1 0.1-0.1 0.2v0.1h-0.2c-0.1 0-0.5 0-0.9-0.1C15.8 6.2 15.5 6.1 14.7 6.1 14.3 6.1 13.9 6.1 13.9 6 13.8 6 13.7 5.9 13.7 5.8c0 0-0.1-0.1-0.1-0.1-0.1-0.1-0.1-0.1-0.2-0.1-0.1 0-0.1 0-0.2 0 0 0-0.1 0-0.2 0-0.1 0-0.1 0-0.1 0.1 0 0.1 0 0.1-0.2 0.1-0.1 0-0.2 0-0.3 0-0.1 0-0.1 0 0-0.1 0.1 0 0.1-0.1 0.2-0.1 0 0 0.1 0 0.1-0.1 0 0 0.1-0.1 0.4-0.1 0.9 0 1.2 0 1.6 0 0.4 0.1 0.7 0.1 2.1 0.2 0.4 0 0.8 0.1 0.9 0.1 0.7 0.1 1.2 0.1 2 0.2 1.2 0.1 1.2 0.1 1.2 0 0.1-0.1 0.1 0 0.3 0.2 0.1 0.1 0.1 0.3 0.2 0.3l0.1 0.1h-0.1c-0.1 0-0.3 0-0.5 0zM4.1 6.2c0-0.1 0.1-0.1 0.1 0 0 0 0 0.1-0.1 0.1 0 0-0.1 0-0.1 0zm7.7-0.6-0.1 0h0.1c0.1 0 0.1 0 0.1 0 0 0 0 0 0 0 0 0 0 0-0.1 0z" fill="#31302c"/></svg>