<?xml version="1.0" encoding="UTF-8" standalone="no"?>
<svg
   height="48"
   width="48"
   version="1.1"
   id="svg97"
   sodipodi:docname="atareao.svg"
   inkscape:export-filename="/datos/programacion/javascript/wireguard-indicator@atareao.es/icons/atareao.png"
   inkscape:export-xdpi="96"
   inkscape:export-ydpi="96"
   inkscape:version="1.1 (c68e22c387, 2021-05-23)"
   xmlns:inkscape="http://www.inkscape.org/namespaces/inkscape"
   xmlns:sodipodi="http://sodipodi.sourceforge.net/DTD/sodipodi-0.dtd"
   xmlns="http://www.w3.org/2000/svg"
   xmlns:svg="http://www.w3.org/2000/svg">
  <defs
     id="defs101" />
  <sodipodi:namedview
     id="namedview99"
     pagecolor="#ffffff"
     bordercolor="#666666"
     borderopacity="1.0"
     inkscape:pageshadow="2"
     inkscape:pageopacity="0.0"
     inkscape:pagecheckerboard="0"
     showgrid="false"
     inkscape:zoom="12.28598"
     inkscape:cx="13.959"
     inkscape:cy="23.685534"
     inkscape:window-width="1920"
     inkscape:window-height="1043"
     inkscape:window-x="1920"
     inkscape:window-y="0"
     inkscape:window-maximized="1"
     inkscape:current-layer="svg97" />
  <g
     id="g192"
     transform="matrix(2.0429534,0,0,2.0429534,-0.95833128,-0.54097772)">
    <path
       d="M 10.9,23 C 10.1,22.9 9.6,22.8 8.9,22.6 7.7,22.2 6.3,21.5 5.4,20.8 3.8,19.6 2.7,18.2 1.9,16.4 1.6,15.7 1.3,14.7 1.2,14 1,13.3 1,11.9 1,11.1 1.3,7.3 3.6,3.9 7,2.2 7.6,1.8 8.3,1.6 8.7,1.5 8.8,1.5 9,1.4 9,1.4 9.1,1.3 9.6,1.2 9.8,1.2 c 0.1,0 0.3,0 0.4,-0.1 0.5,-0.2 2.7,-0.2 3.7,0 1.6,0.3 3.2,0.9 4.5,1.9 0.7,0.5 1.6,1.4 2.2,2 1.1,1.4 1.9,3 2.2,4.7 0.1,0.6 0.2,1.2 0.2,2.3 0,1.1 0,1.6 -0.2,2.3 -0.4,1.8 -1.1,3.3 -2.3,4.7 -0.3,0.4 -1.2,1.2 -1.6,1.6 -1.4,1.2 -3.3,2 -5.1,2.2 -0.7,0.1 -2.1,0.2 -2.9,0.1 z m -0.6,-5 c 0.1,0 -0.1,-0.1 -0.6,-0.1 -0.4,0 -0.6,0 -0.6,0 0,0 0.5,0.1 0.8,0.1 0.2,0 0.3,0 0.3,0 0,0 0,0 0.1,0 z m 2,-16.2 c 0,-0.1 0,-0.1 -0.1,-0.1 -0.1,0 -0.1,0.1 -0.1,0.2 0,0.1 0.1,0 0.2,0 z m -2.7,0 c 0.1,0 0.1,-0.1 0,-0.2 -0.1,-0.1 -0.3,0 -0.3,0.1 0,0.1 0.2,0.2 0.3,0.1 z"
       fill="#f0d0a6"
       id="path79" />
    <path
       d="M 11.3,23 C 11.2,23 11,23 10.8,23 10.3,22.9 9.9,22.9 9.4,22.7 8.5,22.5 8,22.3 6.7,21.7 6.5,21.5 5.9,21.1 5.6,20.9 5.2,20.7 4.5,20 4.1,19.7 3.8,19.4 3.3,18.7 3.1,18.5 2.6,17.8 2.1,16.8 1.8,15.9 1.5,15.4 1.3,14.4 1.2,13.9 1,12.6 1,12.7 1.3,12.6 c 0.3,-0.1 0.5,-0.2 0.6,-0.3 0,-0.1 -0.3,-0.1 -0.6,0 -0.1,0 -0.1,0 -0.2,0 -0.1,0 0,-1.5 0.1,-2.2 C 1.5,7.9 2.5,5.9 4.1,4.3 4.6,3.9 5.1,3.4 5.5,3.1 6.6,2.4 7.3,2 8.2,1.7 c 0.4,-0.2 0.5,-0.2 0.5,0 0,0.1 0.1,0.1 0.2,0.1 0.1,0 0.1,0 0,-0.1 -0.1,-0.1 0,-0.3 0.3,-0.3 0.1,0 0.2,0 0.3,-0.1 0.1,0 0.2,0 0.2,0 0.1,0 0,0.1 0,0.1 0,0 -0.1,0 -0.2,0 -0.2,0 -0.2,0 -0.3,0.1 -0.1,0.1 -0.1,0.2 0,0.3 0.1,0.1 0.2,0.1 0.5,0 H 9.9 L 9.8,1.6 c 0,-0.2 0,-0.2 0,-0.2 0.1,0 0.2,0 0.3,0.1 0.1,0.1 0.3,0 0.2,-0.2 -0.1,-0.1 0,-0.1 0.2,-0.2 0.2,0 0.2,0 0.3,0 0.2,0.1 0.2,0.1 0.4,0 C 11.3,1 11.4,1 11.8,1 c 2.7,-0.1 5.7,1 7.7,3 1.1,1.1 2,2.3 2.6,3.8 0.6,1.6 0.9,3.3 0.7,5.3 -0.2,2 -1,4.2 -2.4,5.8 -0.3,0.4 -1.1,1.1 -1.6,1.6 -1.4,1.2 -3.3,2 -5.1,2.4 -0.6,0.1 -2.1,0.2 -2.6,0.1 z m 8.3,-3.4 C 19.7,19.5 19.7,19.4 19.5,19.2 19.4,19 19.4,19 19.2,19 c -0.2,0 -0.4,0.1 -0.5,0.2 -0.1,0.1 0,0.2 0.2,0.2 0.1,0 0.2,0.1 0.3,0.1 0.2,0.1 0.3,0.1 0.3,0 z M 11,18.2 C 11.1,18.1 11,18.1 10.6,18 10.2,17.9 10,17.9 8.4,17.8 c -0.3,0 -0.4,0 -0.4,0 0,0 0.1,0 0.1,0 0.1,0 0.2,0 0.3,0.1 0.1,0 0.3,0.1 0.4,0.1 0.1,0 0.3,0 0.5,0.1 0.2,0 0.6,0.1 0.9,0.1 0.3,0 0.6,0 0.6,0.1 0.1,0 0.1,0 0.2,0 z m 6.9,0 c 0,0 0,0 -0.1,0 0,0 0,0 0,0 0,0 0,0 0.1,0 0,0 0,0 0,0 z m 0,-0.4 c 0,-0.1 0,-0.1 -0.1,-0.1 -0.1,0 -0.1,0 -0.2,0.1 -0.1,0.1 -0.1,0.1 0.1,0.1 0.2,0 0.2,0 0.2,-0.1 z m -7,-0.4 c 0,-0.1 0,-0.1 -0.1,-0.1 -0.1,-0.1 -0.2,-0.1 -0.5,-0.1 -0.4,0 -0.6,0 -0.6,0.1 0,0.1 0,0.1 0.2,0.2 0.2,0 0.3,0.1 0.6,0.1 0.4,0 0.4,0 0.4,-0.1 z M 6.3,17.3 c 0,0 0,-0.1 0,-0.1 -0.1,-0.1 -0.5,-0.3 -0.7,-0.3 -0.2,0 -0.3,0 -0.3,0.1 0,0 0.1,0.1 0.2,0.2 0.2,0.2 0.2,0.2 0.4,0.2 0.3,0 0.4,0 0.5,0 z m 14.5,-0.2 c 0,-0.1 0,-0.1 -0.1,-0.1 -0.1,0 -0.1,0 -0.1,0.1 0,0.1 -0.2,0.1 -0.2,0 0,-0.1 0,-0.1 -0.2,-0.1 -0.1,0 -0.3,0 -0.5,0 h -0.3 0.2 c 0.1,0 0.3,0.1 0.6,0.1 0.7,0 0.6,0 0.6,0 z m -3.2,-0.2 c 0.1,0 0.2,-0.1 0.4,-0.4 0.2,-0.2 0.2,-0.3 0.1,-0.4 -0.1,-0.2 -0.5,-0.1 -0.6,0.1 -0.1,0.1 -0.2,0.5 -0.2,0.6 0,0.1 0,0.1 0.1,0.1 0,0 0.1,0 0.2,0 z M 17,16.6 c 0,-0.1 0.1,-0.2 0.1,-0.4 0,-0.3 0,-0.3 -0.1,-0.4 -0.1,-0.2 -0.6,-0.4 -0.9,-0.3 -0.2,0.1 -0.3,0.2 -0.4,0.4 -0.1,0.2 0,0.4 0.3,0.5 0.1,0 0.2,0.1 0.3,0.2 0.1,0.1 0.3,0.1 0.3,0.2 0.2,0.1 0.2,0.1 0.3,-0.1 z M 4.6,13.7 c 0,0 0,-0.1 -0.2,-0.3 C 4.3,13.2 4,13.1 3.6,13 3.3,12.9 3,12.9 2.9,13 c 0,0 0,0.1 0.1,0.2 0.1,0.2 0.3,0.3 0.6,0.3 0.1,0 0.3,0.1 0.4,0.1 0.2,0.1 0.2,0.1 0.4,0.1 0.1,0 0.2,0 0.2,-0.1 z M 12.3,2 c 0,0 0.1,-0.1 0.1,-0.1 0.1,-0.2 -0.1,-0.4 -0.3,-0.3 -0.3,0.1 -0.2,0.5 0.1,0.5 0.1,0 0.1,0 0.2,0 z M 10.7,1.6 c 0,-0.1 0,-0.1 0,-0.1 -0.1,0 -0.1,0.1 -0.1,0.2 0,0 0,0.1 0.1,0.1 0.1,0 0.1,0 0.1,-0.1 z"
       fill="#e4b38b"
       id="path81" />
    <path
       d="m 11.4,23 c 0,0 -0.3,0 -0.5,0 C 9.6,22.9 8.6,22.6 7.4,22 6.6,21.6 6.6,21.6 6.2,21.3 5.1,20.6 4.2,19.8 3.2,18.6 3,18.4 2.5,17.5 2.2,16.9 c -0.6,-1.2 -1,-2.4 -1,-3.4 0,-0.2 0,-0.4 -0.1,-0.5 0,-0.1 0,-0.3 0,-0.3 0,-0.1 0,-0.1 0.2,-0.1 0.1,0 0.3,-0.1 0.4,-0.1 0.2,-0.1 0.2,-0.1 0.2,-0.2 0,-0.2 -0.2,-0.2 -0.6,-0.1 -0.2,0 -0.3,0.1 -0.3,0.1 0,0 0,-0.9 0,-1.4 C 1.3,8.4 2.3,6.2 4.1,4.3 4.6,3.9 5.1,3.4 5.5,3.1 6.1,2.7 6.4,2.5 6.7,2.3 7.4,2 8.2,1.7 8.6,1.6 c 0.1,0 0.1,0 0.1,0.1 0,0.1 0.1,0.2 0.3,0.2 0.1,0 0.2,0 0.3,0.1 0.1,0 0.2,0 0.4,0 0.4,0 0.4,0 0.3,-0.4 0,-0.2 0,-0.2 0.1,-0.2 0.1,0 0.1,0 0.1,0.1 0,0.1 0.2,0.1 0.3,0 0.1,0 0.1,-0.1 0,-0.2 -0.1,-0.2 0,-0.2 0.2,-0.2 0.1,0 0.2,0 0.2,0.1 0.1,0.1 0.3,0.1 0.4,0 0.1,-0.1 0.2,-0.1 0.3,0 0.1,0.1 0.2,0 0.2,-0.1 0,-0.1 0,-0.1 0.3,-0.1 0.5,0 1.3,0.1 1.7,0.1 0.5,0.1 1.4,0.3 1.9,0.5 0.4,0.2 1.5,0.6 1.9,0.9 1,0.6 2,1.4 2.9,2.4 1,1.2 1.9,2.9 2.3,4.5 0.3,1.1 0.4,2.4 0.3,3.8 -0.2,2.1 -1,4.2 -2.4,5.8 -0.2,0.2 -0.4,0.5 -0.4,0.5 -0.1,0.1 -0.3,0.2 -0.3,0.2 0,0 -0.2,-0.4 -0.2,-0.4 0,-0.1 -0.1,-0.2 -0.3,-0.3 L 19.3,18.9 19.1,19 c -0.2,0.2 -0.4,0.4 -0.3,0.4 0,0 0.2,0.1 0.3,0.2 0.3,0.1 0.6,0.3 0.6,0.3 0,0.1 -0.8,0.8 -1.5,1.3 -1.8,1.2 -3.9,1.8 -6.1,1.8 -0.3,0 -0.6,0 -0.6,0 z m 7,-4.2 c 0,0 0,-0.1 0,-0.3 0,-0.2 0,-0.3 0.1,-0.5 0.1,-0.1 0.1,-0.3 0.1,-0.3 0,-0.1 -0.1,-0.3 -0.2,-0.4 0,0 -0.2,-0.1 -0.3,-0.2 C 17.9,17 17.9,17 18,16.9 c 0,-0.1 0.2,-0.3 0.3,-0.3 0.2,0 0.3,-0.5 0.1,-0.6 -0.2,-0.1 -0.5,-0.2 -0.6,0 -0.2,0.1 -0.4,0.5 -0.5,0.9 v 0.3 h 0.1 c 0.1,0 0.2,0 0.2,0 0.1,0.1 0,0.2 -0.2,0.4 -0.1,0.1 -0.2,0.2 -0.3,0.3 -0.1,0.1 -0.1,0.1 0,0.2 0,0 0.1,0 0.1,0 0,0 0,0.1 0,0.2 0,0.3 0,0.3 0.1,0.4 0.2,0.1 0.3,0.1 0.4,0 0.1,-0.1 0.2,-0.1 0.4,0.1 0.2,0.2 0.2,0.2 0.2,0.1 z M 11,18.1 c 0,0 0,-0.1 0,-0.1 0,0 -0.2,-0.1 -0.4,-0.1 -0.3,-0.1 -0.6,-0.1 -1.1,-0.1 -0.4,0 -0.9,0 -1.1,-0.1 -0.3,0 -0.4,0 -0.5,0 -0.1,0.1 0.1,0.1 0.2,0.1 0.1,0 0.2,0 0.3,0 0.1,0 0.2,0 0.3,0.1 0.1,0 0.4,0.1 0.6,0.1 0.2,0 0.6,0.1 0.8,0.1 0.3,0 0.5,0 0.6,0 0.1,0.1 0.2,0 0.3,0 z M 7.1,17.8 c 0,0 0,-0.1 0,-0.1 0,0 0,-0.1 0,-0.1 0.1,-0.2 0,-0.3 -0.7,-0.6 L 5.9,16.8 5.5,16.7 c -0.2,0 -0.6,-0.1 -0.7,-0.1 -0.3,-0.1 -0.6,-0.1 -0.6,0 0,0.1 0.1,0.1 0.5,0.3 0.2,0.1 0.3,0.2 0.4,0.2 0,0 0.1,0.1 0.2,0.1 0,0 0.1,0.1 0.1,0.1 0,0.1 0.2,0.2 0.3,0.2 0,0 0.1,0 0.2,0 0.1,0 0.2,0 0.3,0 0.2,-0.1 0.3,-0.1 0.3,0 0,0.1 0.1,0.1 0.1,0.1 0.1,0 0.2,0.1 0.2,0.1 0,0 0.1,0.1 0.2,0.1 0,0 0.1,0 0.1,0 z m 12.8,-0.1 c 0,0 0,0 -0.1,0 0,0 -0.1,0 -0.1,-0.1 -0.1,-0.1 -0.2,-0.1 -0.3,-0.1 -0.1,0 -0.1,0.1 0,0.1 0,0 0.1,0.1 0.2,0.1 0.1,0 0.2,0 0.2,0.1 0.1,0.1 0.1,0.1 0.1,0 0,0 0,-0.1 0,-0.1 z M 11,17.4 c 0,-0.1 0,-0.1 -0.2,-0.2 -0.1,-0.1 -0.2,-0.1 -0.6,-0.1 -0.4,0 -0.6,0 -0.6,0.1 0,0.1 0.4,0.2 0.9,0.2 0.4,0 0.4,0 0.4,-0.1 z m 0.9,0 c 0.1,-0.1 0.1,-0.1 0,-0.1 -0.1,0 -0.2,0 -0.2,0.1 0,0.1 0.1,0 0.2,0 z m 0.3,-0.2 c 0,0 0,0 0,0 0,0 -0.1,0 -0.1,0 0,0 0,0 0.1,0 z m 8.7,-0.1 c 0,-0.1 0,-0.1 -0.1,-0.1 -0.1,0 -0.1,0 -0.1,0.1 0,0.1 -0.2,0.1 -0.2,0 0,-0.1 0,-0.1 -0.5,-0.1 -0.3,0 -0.6,0 -0.6,0 0,0 0,0 0.1,0 0.1,0 0.2,0 0.3,0 0.1,0 0.3,0 0.5,0.1 0.7,0 0.6,0 0.6,-0.1 z m -3.8,-0.2 c 0.1,-0.1 0.1,-0.2 0.1,-0.5 0,-0.3 0,-0.4 -0.1,-0.5 -0.1,-0.2 -0.2,-0.3 -0.5,-0.4 -0.4,-0.1 -0.6,-0.1 -0.8,0.1 -0.1,0.1 -0.3,0.5 -0.3,0.6 0,0.1 0,0.1 0.2,0.2 0.1,0 0.3,0.1 0.4,0.1 0.3,0.1 0.5,0.2 0.6,0.3 0.2,0.2 0.3,0.2 0.4,0 z m -12.3,-3 c 0,-0.1 0,-0.1 0,-0.2 C 4.7,13.6 4.3,13.3 4.2,13.2 4,13.1 3.4,12.9 3.2,12.9 c -0.4,0 -0.6,0.2 -0.4,0.4 0.2,0.1 0.6,0.4 0.8,0.4 0.2,0 0.4,0.1 0.4,0.2 0,0.1 0,0.1 0.2,0 0.1,0 0.2,0 0.3,0 0.1,0.1 0.3,0 0.3,-0.1 z M 12.4,2 c 0.2,-0.2 0.1,-0.5 -0.2,-0.5 -0.2,0 -0.4,0.2 -0.3,0.4 0,0.1 0.2,0.2 0.3,0.2 0,0 0.1,0 0.2,-0.1 z M 11.3,1.9 c 0.1,0 0.1,-0.1 0,-0.1 0,-0.1 0,-0.1 0,-0.2 0,-0.1 0,-0.1 0,-0.1 0,0 -0.1,0 -0.2,0.1 -0.2,0.2 -0.1,0.5 0.1,0.3 z m 3.5,-0.1 c 0,0 0,-0.1 -0.1,-0.1 -0.1,0 -0.1,0 -0.1,0.1 0,0.1 0,0.1 0.1,0.1 0.1,0 0.1,0 0.1,-0.1 z M 10.7,1.7 c 0.1,-0.1 0.2,-0.2 0,-0.3 -0.2,-0.1 -0.4,0.2 -0.2,0.3 0.1,0.1 0.1,0.1 0.2,0 z M 9,1.6 C 8.9,1.5 9,1.4 9.1,1.4 H 9.2 L 9.1,1.5 C 9,1.6 9,1.6 9,1.5 Z M 9.4,1.4 c 0,0 0,0 0.1,0 0,0 0.1,0 0.1,0 0,0 0,0 0,0 0,0 0,0 0,0 z"
       fill="#a4a190"
       id="path83" />
    <path
       d="M 11.3,23 C 10.8,22.9 10.1,22.8 9.9,22.8 9.2,22.6 8.4,22.4 8.2,22.2 c 0,0 -0.1,0 -0.1,0 0,0 -0.3,-0.2 -0.3,-0.2 0,0 0.1,0 0.2,0 0.1,0 0.2,0 0.2,0.1 0.1,0.1 0.1,0.1 0.1,0 0,0 0,-0.2 0,-0.3 C 8.3,21.5 8.2,21.4 7.9,21.1 7.8,20.9 7.6,20.8 7.6,20.8 7.6,20.7 6.9,20.3 6.6,20.2 6.5,20.2 6.3,20 6.1,19.9 5.9,19.8 5.7,19.7 5.7,19.7 c -0.1,0 -0.3,0 -0.7,0.1 -0.1,0 -0.2,0 -0.3,0.1 H 4.5 L 4.3,19.7 C 4,19.5 3.5,18.8 3.3,18.5 2.7,17.8 2.1,16.7 1.7,15.6 1.5,15 1.2,13.8 1.2,13.3 v -0.1 h 0.2 c 0.1,0 0.3,0.1 0.4,0.1 0.1,0 0.2,0.1 0.2,0.1 0.1,-0.1 0.2,-1 0.1,-1.1 C 2.1,12.2 1.9,12.2 1.7,12.2 1.3,12.3 1.2,12.3 1.1,12.3 1,12.2 1.2,10.8 1.3,10 1.7,7.7 2.9,5.6 4.6,4 5,3.6 5.5,3.2 5.6,3.2 5.6,3.1 5.8,3 5.9,3 6.5,2.5 7.6,2 8.4,1.7 8.7,1.6 8.7,1.6 8.7,1.7 8.7,1.8 8.8,1.9 9,1.9 9.1,1.9 9.2,1.9 9.3,2 9.4,2.1 9.5,2.1 9.6,2 9.7,2 9.8,2 9.9,2 L 10.1,1.9 V 1.8 c 0,-0.3 0,-0.4 0,-0.4 0,0 0.1,0 0.1,0.1 0,0.1 0.2,0.1 0.3,0 0.1,0 0.1,-0.1 0,-0.2 -0.1,-0.2 -0.1,-0.2 0.1,-0.2 0.2,-0.1 0.3,0 0.4,0 0.1,0.1 0.3,0.1 0.4,0 0.1,-0.1 0.2,-0.1 0.3,0 0.1,0.1 0.2,0 0.2,-0.1 0,-0.1 0,-0.1 0.6,0 1.2,0 2.2,0.2 3.3,0.6 0.5,0.2 1.6,0.6 2.1,1 1.1,0.6 2.2,1.6 2.9,2.6 0.6,0.7 0.8,1.1 1.2,1.9 0.5,1 0.7,1.7 0.9,2.6 0.2,0.9 0.2,1.2 0.2,2.2 0,1 0,1.3 -0.2,2.2 -0.2,0.9 -0.5,1.8 -0.9,2.6 -0.2,0.5 -0.6,1.2 -0.9,1.6 -0.3,0.5 -1,1.3 -1.1,1.3 0,0 -0.2,-0.3 -0.2,-0.4 0,-0.1 -0.1,-0.2 -0.3,-0.3 l -0.2,-0.1 -0.2,0.1 c -0.2,0.2 -0.4,0.4 -0.3,0.4 0,0 0.2,0.1 0.3,0.2 0.3,0.1 0.6,0.3 0.6,0.3 0.1,0.1 -1,1 -1.9,1.5 -1.7,1 -3.5,1.6 -5.5,1.6 -0.4,0 -0.8,0 -0.9,0 z M 9.1,18.9 c 0.1,0 0.1,-0.1 0.1,-0.1 0,0 0,-0.1 0,-0.1 -0.1,0 -0.2,0.1 -0.2,0.2 0,0 0,0 0.1,0 z m 9.3,0 c 0,0 0,-0.1 0,-0.3 0,-0.2 0,-0.3 0.1,-0.5 0.1,-0.1 0.1,-0.3 0.1,-0.3 0,-0.1 -0.1,-0.3 -0.2,-0.4 0,0 -0.2,-0.1 -0.3,-0.2 -0.2,-0.1 -0.2,-0.1 -0.1,-0.2 0,-0.1 0.2,-0.3 0.3,-0.3 0.2,0 0.3,-0.5 0.1,-0.6 -0.2,-0.1 -0.5,-0.2 -0.6,0 -0.2,0.1 -0.4,0.5 -0.5,0.9 v 0.3 h 0.1 c 0.1,0 0.2,0 0.2,0 0.1,0.1 0,0.2 -0.2,0.4 -0.1,0.1 -0.2,0.2 -0.3,0.3 -0.1,0.1 -0.1,0.1 0,0.2 0,0 0.1,0 0.1,0 0,0 0,0.1 0,0.2 0,0.3 0,0.3 0.1,0.4 0.2,0.1 0.3,0.1 0.4,0 0.1,-0.1 0.2,-0.1 0.4,0.1 0.2,0.2 0.2,0.2 0.2,0.1 z M 11,18.3 c 0.1,-0.1 0.1,-0.2 0.1,-0.4 v -0.1 l -0.3,-0.1 c -0.4,-0.1 -0.4,-0.1 0,-0.1 0.4,0 0.4,0 0.5,-0.1 0.2,-0.2 0,-0.4 -0.5,-0.4 -0.5,-0.1 -1.4,0 -1.5,0.1 -0.1,0.1 0,0.2 0.5,0.3 0.2,0 0.3,0.1 0.3,0.1 0,0 -0.1,0 -0.3,0 -0.4,0 -0.6,0.1 -0.7,0.1 -0.1,0.1 -0.1,0.1 -0.6,0 -0.3,0 -0.6,0 -0.6,0 0,0.1 0.1,0.1 0.3,0.2 0.3,0 0.4,0.1 0.4,0.2 0,0.1 0,0.1 0.1,0.1 0,0 0.1,-0.1 0.1,-0.1 0,-0.1 0.1,-0.1 0.1,-0.1 0,0 0.2,0 0.4,0.1 0.2,0 0.3,0 0.4,0.1 0,0 0.1,0.1 0.1,0.1 0,0 0.1,0 0.2,0.1 0.2,0.1 0.3,0.1 0.4,0 0,0 0.1,-0.1 0.2,-0.1 0.2,0 0.2,0 0.2,0.1 0,0.1 0.1,0.1 0.3,0 z M 7.2,18 c 0,0 0,-0.1 0,-0.1 C 7.1,17.8 7,17.7 7.1,17.6 7.2,17.4 7,17.3 6.4,17 L 5.9,16.7 H 5.5 c -0.2,0 -0.6,-0.1 -0.7,-0.1 -0.3,-0.1 -0.6,-0.1 -0.6,0 0,0.1 0.1,0.1 0.5,0.3 0.2,0.1 0.3,0.2 0.4,0.2 0,0 0.1,0.1 0.2,0.1 0,0 0.1,0.1 0.1,0.1 0,0.1 0.2,0.2 0.3,0.2 0,0 0.1,0 0.2,0 0.1,0 0.2,0 0.3,0 0.2,-0.1 0.3,-0.1 0.3,0 0,0.1 0.1,0.1 0.1,0.1 0.1,0 0.2,0.1 0.2,0.2 0,0 0.1,0.1 0.2,0.1 0.2,0.1 0.2,0.1 0.2,0 z m 12.7,-0.2 c 0.1,-0.1 0,-0.3 -0.1,-0.2 -0.1,0 -0.1,0 -0.2,0 -0.1,-0.1 -0.2,-0.1 -0.3,-0.1 -0.1,0.1 0,0.2 0.2,0.2 0.2,0 0.3,0 0.3,0.2 0,0.1 0.1,0.1 0.1,0 z m -8.1,-0.5 c 0.1,-0.1 0.1,-0.1 0,-0.1 -0.1,0 -0.2,0 -0.2,0.1 0,0.1 0.1,0 0.2,0 z m 9.1,-0.1 c 0.1,-0.1 0.1,-0.3 0,-0.3 -0.1,0 -1.2,-0.1 -1.5,0 -0.2,0 -0.4,0.1 -0.4,0.2 0,0.1 0,0.1 0.3,0.1 0.2,0 0.4,0 0.6,0.1 0.2,0 0.4,0.1 0.6,0.1 0.1,0 0.3,0 0.3,0 0,0 0.1,0 0.1,-0.1 z m -8.8,-0.1 c 0,0 0,0 0,0 0,0 -0.1,0 -0.1,0 0,0 0,0 0.1,0 z m 5,-0.3 c 0.1,-0.1 0.1,-0.2 0.1,-0.5 0,-0.3 0,-0.4 -0.1,-0.5 -0.1,-0.2 -0.2,-0.3 -0.5,-0.4 -0.4,-0.1 -0.6,-0.1 -0.8,0.1 -0.1,0.1 -0.3,0.5 -0.3,0.6 0,0.1 0,0.1 0.2,0.2 0.1,0 0.3,0.1 0.4,0.1 0.3,0.1 0.5,0.2 0.6,0.3 0.2,0.2 0.3,0.2 0.4,0 z M 4.8,13.9 c 0,-0.1 0,-0.1 0,-0.2 C 4.7,13.6 4.3,13.3 4.2,13.2 4,13.1 3.4,12.9 3.2,12.9 c -0.4,0 -0.6,0.2 -0.4,0.4 0.2,0.1 0.6,0.4 0.8,0.4 0.2,0 0.4,0.1 0.4,0.2 0,0.1 0,0.1 0.2,0 0.1,0 0.2,0 0.3,0 0.1,0.1 0.3,0 0.3,-0.1 z m -3,-4.3 c 0,-0.1 0,-0.1 0,0 -0.1,0.1 -0.1,0.2 0,0.1 0,0 0.1,-0.1 0.1,-0.1 z M 12.4,2 c 0.2,-0.2 0.1,-0.5 -0.2,-0.5 -0.2,0 -0.4,0.2 -0.3,0.4 0,0.1 0.2,0.2 0.3,0.2 0,0 0.1,0 0.2,-0.1 z M 11.3,1.9 c 0.1,0 0.1,-0.1 0,-0.1 0,-0.1 0,-0.1 0,-0.2 0,-0.1 0,-0.1 0,-0.1 0,0 -0.1,0 -0.2,0.1 -0.2,0.2 -0.1,0.5 0.1,0.3 z m 3.6,0 c 0,0 0,-0.1 0,-0.1 0,-0.1 0,-0.1 -0.1,-0.1 0,0 -0.1,0 -0.1,0 0,0 0,0 0,0.1 0,0.1 0.1,0.2 0.2,0.1 z M 10.7,1.7 c 0.1,-0.1 0.2,-0.2 0,-0.3 -0.2,-0.1 -0.4,0.2 -0.2,0.3 0.1,0.1 0.1,0.1 0.2,0 z M 6.3,21 c 0,0 0,-0.1 0.1,-0.1 0,0 0,0 0,0.1 0,0 -0.1,0 -0.1,0 z M 5.7,20.3 c 0,0 0,0 0,0 0,0 0,0 0,0 0,0 0,0 0,0 0,0 0,0 0,0 z M 5.6,20 c 0,0 0,0 0,0 0,0 0,0 0,0 0,0 0,0 0,0 0,0 0,0 0,0 z M 9,1.6 C 9,1.5 9,1.5 9,1.5 c 0,0 0.1,0 0.1,0 0,0 0,0 0,0.1 C 9,1.7 9,1.7 9,1.6 Z"
       fill="#cf9a6c"
       id="path85" />
    <path
       d="M 11.3,23 C 10.8,22.9 10.1,22.8 9.9,22.8 9.2,22.6 8.4,22.4 8.2,22.2 c 0,0 -0.1,0 -0.1,0 0,0 -0.3,-0.2 -0.3,-0.2 0,0 0.1,0 0.2,0 0.1,0 0.2,0 0.2,0.1 0.1,0.1 0.1,0.1 0.1,0 0,0 0,-0.2 0,-0.3 C 8.3,21.5 8.2,21.4 7.9,21.1 7.8,20.9 7.6,20.8 7.6,20.8 7.6,20.7 6.9,20.3 6.6,20.2 6.5,20.2 6.3,20 6.1,19.9 5.9,19.8 5.7,19.7 5.7,19.7 c -0.1,0 -0.3,0 -0.7,0.1 -0.1,0 -0.2,0 -0.3,0.1 H 4.5 L 4.3,19.7 C 3.6,19 3,18.2 2.5,17.3 2,16.5 1.7,15.6 1.5,14.8 1.2,14 1.2,13.5 1.3,13.4 c 0,0 0,-0.1 0,-0.1 L 1.2,13.2 h 0.2 c 0.1,0 0.3,0.1 0.4,0.1 0.1,0 0.2,0.1 0.2,0.1 0.1,-0.1 0.2,-1 0.1,-1.1 C 2.1,12.2 1.9,12.2 1.7,12.2 1.3,12.3 1.2,12.4 1.1,12.3 1,12.3 1.2,10.9 1.3,10 1.7,7.8 2.9,5.6 4.6,4.1 5,3.7 5.5,3.3 5.6,3.2 5.6,3.2 5.8,3.1 5.9,3 6.4,2.5 7.5,1.9 8.4,1.7 c 0.2,-0.1 0.3,-0.1 0.3,0 0,0 -0.1,0 -0.1,0 0,0 -0.1,0 -0.1,0 0,0 0,0 0.1,0 0.1,0 0.2,0 0.2,0.1 0.1,0 0.2,0 0.2,0 0.1,0 0.1,0 0.2,0.1 0.1,0.1 0.2,0.1 0.3,0 0.1,0 0.2,0 0.3,0 0.1,0 0.2,0 0.2,-0.1 0,0 0,-0.1 -0.1,-0.2 -0.1,-0.2 0,-0.4 0.1,-0.1 0.1,0.1 0.1,0.1 0.2,0.1 0.1,0 0.1,0 0.2,0.1 0.1,0.1 0.1,0.1 0.3,0.1 0.2,-0.1 0.3,-0.2 0.2,-0.3 0,-0.1 -0.1,-0.1 -0.2,-0.1 -0.2,0 -0.2,0 -0.2,-0.1 0,-0.1 0,-0.2 0.2,-0.2 0.1,0 0.2,0 0.3,0.1 0.1,0.1 0.1,0.1 0.3,0.1 0.1,0 0.2,0 0.2,0 0.1,0 0.1,0 0.2,0 0.3,0.1 0.4,0 0.3,-0.2 V 1 h 0.6 c 1.1,0 2.1,0.2 3.3,0.6 0.5,0.2 1.6,0.6 2.1,1 1.1,0.6 2.2,1.6 2.9,2.6 0.6,0.7 0.8,1.1 1.2,1.9 0.5,1 0.7,1.7 0.9,2.6 0.2,0.9 0.2,1.2 0.2,2.2 0,1 0,1.3 -0.2,2.2 -0.3,1.2 -0.7,2.4 -1.4,3.5 -0.3,0.6 -0.5,0.7 -0.8,1.2 -0.3,0.4 -0.6,0.6 -0.6,0.6 -0.1,0 -0.2,-0.2 -0.2,-0.3 0,-0.2 -0.1,-0.2 -0.4,-0.3 l -0.3,-0.1 -0.1,0.1 c -0.1,0.1 -0.1,0.1 -0.2,0.2 -0.1,0.1 -0.3,0.3 -0.3,0.4 0,0.1 0.1,0.1 0.4,0.2 0.3,0.1 0.5,0.3 0.5,0.4 0,0 -0.1,0.1 -0.6,0.6 -1.3,1.1 -3.2,2 -4.9,2.3 -0.8,0.2 -2,0.2 -2.6,0.2 z m 7.6,-3 c 0,0 -0.1,0 -0.1,0 h -0.1 l 0.1,0.1 c 0.1,0.1 0.1,0.1 0.1,0 0,0 0,-0.1 0,-0.1 z m -0.5,-0.9 c 0,-0.3 0.1,-0.7 0.2,-1 0.2,-0.5 0.1,-0.7 -0.2,-0.9 -0.2,-0.1 -0.2,-0.1 -0.2,-0.2 0,-0.1 0.1,-0.2 0.2,-0.2 0.1,0 0.3,-0.1 0.3,-0.2 0.1,-0.1 0,-0.3 -0.1,-0.4 -0.2,-0.2 -0.4,-0.3 -0.6,-0.3 -0.3,0 -0.5,0.1 -0.6,0.5 -0.1,0.1 -0.1,0.2 -0.1,0.2 0,0 0,-0.2 -0.1,-0.4 0,-0.4 -0.1,-0.5 -0.3,-0.6 -0.2,-0.1 -0.5,-0.2 -0.7,-0.2 -0.4,0 -0.6,0.2 -0.7,0.7 -0.1,0.2 -0.1,0.4 -0.1,0.4 0,0.1 0.2,0.1 0.4,0.2 0.5,0 0.7,0.1 0.8,0.4 0,0.1 0.1,0.1 0.2,0.1 0.2,0 0.2,0 0.3,-0.2 0,-0.1 0.1,-0.2 0.1,-0.2 0.1,-0.1 0.1,-0.1 0,0.2 0,0.1 0,0.3 0,0.4 0,0.3 -0.1,0.4 -0.2,0.4 -0.1,0 -0.1,0 -0.2,-0.1 -0.1,-0.1 -0.2,-0.2 -0.2,-0.2 -0.1,0 -0.3,0.2 -0.3,0.3 0,0.1 0.1,0.2 0.2,0.3 0,0 0.1,0.1 0.2,0.2 0.1,0.1 0.2,0.2 0.3,0.3 0.1,0.1 0.7,0.4 0.8,0.4 0.1,0 0.2,0.1 0.3,0.3 0,0 0.1,0.1 0.2,0.1 0.3,0.1 0.3,0.1 0.3,-0.1 z m -4,-0.2 c 0.2,0 0.3,-0.1 0.2,-0.2 0,0 -0.1,-0.1 -0.1,-0.1 0,0 0,-0.1 -0.1,-0.2 0,-0.1 -0.1,-0.2 0,-0.2 0.1,-0.1 0.5,-0.1 0.5,0 0.1,0 0.1,0 0.2,0 0.1,0 0.2,0 0.3,0 0.1,0 0.1,0 0.2,-0.2 0.1,-0.2 0.1,-0.2 -0.1,-0.3 -0.1,-0.1 -0.2,-0.1 -0.3,0 l -0.1,0.1 h 0.1 c 0,0 0.1,0.1 0.1,0.1 0,0.1 -0.3,0.1 -0.4,0.1 -0.1,0 -0.2,0 -0.4,0 -0.1,0 -0.1,0 -0.2,0 -0.1,-0.1 -0.4,-0.1 -0.4,0 0,0 0,0.1 0,0.1 0.1,0 0,0.2 -0.1,0.2 0,0 -0.3,0.3 -0.4,0.4 0,0.1 0,0.1 0.1,0.1 0.1,0 0.1,0 0.1,0.1 0.1,0.1 0.2,0.1 0.3,0.1 0,0 0.2,0 0.3,0 z M 9.1,18.8 c 0.1,0 0.1,-0.1 0.1,-0.1 0,0 0,-0.1 0,-0.1 -0.1,0 -0.2,0.1 -0.2,0.2 0,0 0,0 0.1,0 z m 4,-0.2 c 0,0 0.1,0 0.1,0 0.1,0 0.1,0 0.1,0 0,0 0,0 -0.1,0 -0.1,0 -0.1,0 -0.2,0 0,0 -0.1,0 -0.1,0 -0.1,0 -0.1,0.1 -0.1,0.2 0,0 0.2,0 0.2,0 z M 9.8,18.3 c 0,0 0,-0.1 -0.1,-0.1 -0.1,-0.1 0,-0.2 0.2,0 0.2,0.1 0.3,0.1 0.4,0 0,0 0.1,-0.1 0.2,-0.1 0.2,0 0.2,0 0.2,0.1 0,0.1 0.1,0.1 0.3,0 0.1,-0.1 0.1,-0.2 0.1,-0.4 v -0.1 l -0.3,-0.1 c -0.4,-0.1 -0.4,-0.1 0,-0.1 0.4,0 0.4,0 0.5,-0.1 0.2,-0.2 0,-0.4 -0.5,-0.4 -0.5,-0.1 -1.4,0 -1.5,0.1 -0.1,0.1 0,0.2 0.5,0.3 0.2,0 0.3,0.1 0.3,0.1 0,0 -0.1,0 -0.3,0 -0.4,0 -0.6,0.1 -0.7,0.2 0,0.1 -0.1,0.1 -0.6,0 -0.6,0 -0.6,0 -0.6,0.1 0,0.1 0,0.1 0.3,0.1 0.3,0 0.4,0.1 0.4,0.3 0,0.1 0,0.1 0.1,0.1 0,0 0.1,-0.1 0.1,-0.1 0,-0.1 0.1,-0.1 0.1,-0.1 0,0 0.2,0 0.4,0.1 0.3,0 0.5,0.1 0.3,0.1 -0.1,0 -0.1,0 0,0.1 0.1,0.1 0.3,0.2 0.3,0.1 z M 7.2,17.9 c 0,0 0,-0.1 0.1,-0.2 0.1,-0.1 0.1,-0.1 0,-0.3 -0.2,-0.1 -0.4,-0.2 -1,-0.5 L 5.9,16.7 5.5,16.6 c -0.2,0 -0.5,0 -0.6,-0.1 -0.2,-0.1 -0.8,-0.1 -1,-0.1 -0.3,0 -0.3,0 -0.1,0.1 0.1,0 0.2,0.1 0.3,0.2 0.1,0.1 0.2,0.2 0.3,0.2 0.1,0 0.1,0.1 0.1,0.1 0,0.1 0.5,0.4 0.8,0.5 0.1,0 0.3,0.1 0.5,0.1 0.3,0 0.4,0.1 0.5,0 0.2,0 0.4,0 0.5,0 0.1,0 0.4,0.2 0.5,0.3 0,0 0,0 0,-0.1 z m 12.7,-0.1 c 0.1,-0.1 0,-0.2 -0.2,-0.3 -0.2,-0.1 -0.3,-0.1 -0.5,0 -0.2,0.1 -0.2,0.2 0.2,0.3 0.1,0 0.2,0.1 0.3,0.1 0.1,0.1 0.2,0.1 0.2,0 z m -8.3,-0.1 c 0.3,-0.2 0.6,-0.4 0.9,-0.5 l 0.3,-0.1 h -0.1 c -0.1,0 -0.2,-0.1 -0.3,-0.1 -0.2,0 -0.2,0 -0.4,0.1 -0.3,0.1 -0.4,0.2 -0.5,0.3 -0.1,0.1 -0.1,0.4 0,0.4 0,0 0.1,-0.1 0.2,-0.1 z m 9.2,-0.5 c 0.1,-0.1 0.1,-0.3 0,-0.3 -0.1,0 -1.2,-0.1 -1.5,0 -0.2,0 -0.4,0.1 -0.4,0.2 0,0.1 0,0.1 0.3,0.1 0.2,0 0.4,0 0.6,0.1 0.2,0 0.4,0.1 0.6,0.1 0.1,0 0.3,0 0.3,0 0,0 0.1,0 0.1,-0.1 z M 6.1,15.3 c 0,0 -0.2,-0.2 -0.2,-0.2 -0.1,0 0,0.2 0.1,0.3 0.1,0.1 0.1,0 0.2,0 z m -1,-0.8 c 0,0 0.1,-0.1 0.1,-0.2 0,-0.1 0,-0.1 0,-0.2 C 5.2,14 5.1,14 5.1,13.9 5.1,14 5,13.8 4.9,13.7 4.5,13.3 4.3,13.2 3.9,13.1 3.4,12.9 3.2,12.9 3,12.9 c -0.2,0 -0.4,0.2 -0.4,0.3 0,0.1 0,0.2 0.3,0.3 0.4,0.2 0.5,0.3 0.7,0.3 0.2,0 0.3,0.1 0.3,0.2 0,0.1 0,0.2 0.1,0.1 0.2,-0.1 0.3,-0.1 0.5,0 0.1,0 0.2,0.1 0.3,0.1 0,0 0.1,0.1 0.1,0.1 0,0 0.1,0 0.1,0.1 0,0.1 0.1,0.1 0.2,0.1 z M 1.8,9.6 c 0,0 0,-0.1 0,-0.1 0,0 0,0 0,0.1 0,0.1 0,0.1 0.1,0.1 C 1.9,9.7 2,9.6 2,9.6 Z M 12.4,2 c 0.2,-0.2 0.1,-0.5 -0.2,-0.5 -0.2,0 -0.4,0.2 -0.4,0.4 0,0.2 0.4,0.2 0.6,0.1 z m -1.1,0 c 0.1,-0.1 0.1,-0.1 0.1,-0.3 0,-0.2 0,-0.2 -0.1,-0.2 0,0 -0.1,0 -0.2,0.2 C 10.9,1.9 10.9,2 11,2 c 0.1,0.1 0.3,0 0.4,0 z m 3.5,0 c 0.1,-0.1 0,-0.2 0,-0.2 -0.1,0 -0.2,0 -0.2,0.1 0,0.1 0,0.1 0,0.1 0,0 0.2,0 0.2,0 z M 6.3,21 c 0,0 0,-0.1 0.1,-0.1 0,0 0,0 0,0.1 0,0 -0.1,0 -0.1,0 z M 5.7,20.3 c 0,0 0,0 0,0 0,0 0,0 0,0 0,0 0,0 0,0 0,0 0,0 0,0 z M 5.6,20 c 0,0 0,0 0,0 0,0 0,0 0,0 0,0 0,0 0,0 0,0 0,0 0,0 z M 9,1.5 c 0,0 0.1,-0.1 0.1,-0.1 0.1,0 0.1,0 0,0.1 C 9,1.6 9,1.6 9,1.5 Z"
       fill="#b28f6b"
       id="path87" />
    <path
       d="m 11.4,23 c -0.2,0 -0.4,0 -0.5,-0.1 -0.1,0 -0.3,0 -0.5,-0.1 -0.3,0 -0.6,-0.1 -1.1,-0.2 -0.6,-0.1 -1,-0.3 -1.1,-0.4 0,0 -0.1,-0.1 -0.1,-0.1 -0.1,0 -0.4,-0.1 -0.4,-0.2 0,0 0.1,0 0.2,0 0.1,0 0.2,0 0.2,0.1 0.1,0.1 0.1,0.1 0.1,0 0,0 0,-0.2 0,-0.3 C 8.2,21.4 8.1,21.3 7.8,21 7.7,20.9 7.6,20.8 7.6,20.8 7.6,20.7 7.5,20.7 7.3,20.6 7.2,20.5 7,20.4 6.9,20.4 6.9,20.4 6.7,20.3 6.6,20.2 6.4,20.2 6.3,20.1 6.1,20 5.7,19.6 5.5,19.6 5.1,19.7 4.6,19.9 4.4,19.9 4.3,19.8 4.3,19.7 4.1,19.5 3.9,19.4 3.8,19.2 3.6,19 3.5,18.9 2.9,18.3 2.2,16.9 1.7,15.7 1.5,15.3 1.3,14.3 1.2,13.9 c 0,-0.2 0,-0.2 0.1,-0.4 0,-0.1 0.1,-0.2 0.2,-0.2 0.1,0 0.1,0 0.3,0 0.1,0.1 0.2,0.1 0.2,0.1 0,0 0.1,-0.8 0.1,-1.1 0,-0.2 0,-0.3 -0.1,-0.3 0,0 0,-0.1 0,-0.1 0,0 0,0 -0.2,0 C 1.7,11.9 1.6,12 1.5,12 1.4,12 1,12.2 1,12.2 0.9,12.2 1,11.4 1.1,10.7 1.5,8 2.7,5.7 4.5,4 4.9,3.6 5.4,3.2 5.6,3.1 5.6,3.1 5.8,2.9 5.9,2.9 6.4,2.5 7.5,2 8,1.8 8.2,1.7 8.2,1.7 8.4,1.7 c 0.1,0 0.2,0.1 0.3,0.1 0.1,0 0.2,0 0.3,0 0.1,0 0.2,0 0.2,0 0.1,0.1 0.8,0 0.9,0 0.1,-0.1 0.1,-0.1 0,-0.2 0,-0.1 -0.1,-0.1 -0.1,-0.2 0,-0.1 0.1,-0.1 0.1,0 0,0.1 0.1,0.1 0.1,0.1 0.1,0 0.1,0 0.2,0.1 0.1,0.1 0.2,0.2 0.3,0.1 0,0 0.1,-0.1 0.1,-0.1 C 11,1.5 11,1.4 10.9,1.3 10.8,1.2 10.8,1.2 10.6,1.2 c -0.2,0 -0.2,0 -0.2,-0.1 0,-0.1 0,-0.1 0.2,-0.1 0.1,0 0.2,0 0.3,0.1 0.1,0.1 0.2,0.1 0.2,0.1 0.1,0 0.1,0 0.1,0.1 0,0 -0.1,0.3 -0.2,0.4 -0.1,0.1 -0.1,0.2 0,0.3 0.1,0.1 0.5,0 0.4,-0.2 0,-0.1 0,-0.1 0,-0.2 0,-0.1 0,-0.1 0,-0.1 -0.1,-0.1 -0.1,-0.1 0,-0.1 0.1,-0.1 0.1,-0.1 0.2,0 0.2,0.1 0.3,0.1 0.3,0 0,0 0.1,0 0.1,0 0.1,0 0.1,-0.1 0,-0.1 -0.2,-0.1 -0.1,-0.1 0.4,-0.1 0.8,0 1.6,0.1 2.3,0.3 1.1,0.3 1.6,0.5 2.8,1.1 1.2,0.6 2.5,1.7 3.3,2.8 0.6,0.7 0.8,1.1 1.2,1.9 0.5,1 0.7,1.7 0.9,2.6 0.2,0.9 0.2,1.2 0.2,2.2 0,1 0,1.3 -0.2,2.2 -0.3,1.2 -0.7,2.4 -1.4,3.5 -0.3,0.6 -0.5,0.7 -0.8,1.2 -0.4,0.4 -0.5,0.6 -0.5,0.6 0,0 0,-0.1 0,-0.2 0,-0.2 0,-0.4 -0.3,-0.5 -0.1,-0.1 -0.2,-0.1 -0.2,0 0,0.2 -0.2,0.2 -0.4,0.1 -0.1,-0.1 -0.2,-0.1 -0.3,0 0,0.1 -0.1,0.1 -0.2,0.2 -0.1,0 -0.2,0.1 -0.2,0.2 0,0.1 -0.1,0.1 -0.1,0.1 -0.1,0 -0.1,-0.2 -0.1,-0.4 0,-0.1 0.1,-0.3 0.1,-0.4 0,-0.2 0.1,-0.4 0.1,-0.5 0,-0.1 0.1,-0.3 0.1,-0.5 0,-0.1 0.1,-0.3 0.1,-0.4 l 0.1,-0.1 h 0.4 c 0.2,0 0.5,0 0.7,0.1 0.8,0.1 0.9,0.1 0.9,0 0.1,-0.1 0.1,-0.3 0,-0.3 0,0 -0.3,-0.1 -0.8,-0.1 -0.7,0 -1,-0.1 -1.1,-0.1 0,0 -0.1,-0.1 -0.1,-0.1 -0.1,-0.3 -0.4,-0.6 -0.6,-0.6 -0.4,-0.2 -0.7,0 -1,0.4 -0.1,0.1 -0.1,0.2 -0.1,0.2 0,0 0,-0.2 -0.1,-0.4 0,-0.2 0,-0.4 -0.1,-0.4 -0.1,-0.2 -0.6,-0.5 -0.9,-0.5 -0.4,0 -0.6,0.2 -0.8,0.8 -0.1,0.4 -0.1,0.4 0,0.4 0.1,0 0.2,0.1 0.4,0.1 0.2,0 0.3,0 0.3,0.1 0.1,0.1 0.1,0.1 0,0.3 0,0 0,0.1 0.1,0.2 0.1,0.1 0.1,0.2 0,0.3 -0.1,0.1 -0.2,0.1 -0.1,0.2 0,0.1 0,0.1 0,0.1 -0.1,0.1 -0.1,0.1 0,0.2 0,0.2 0.1,0.2 0.3,0.2 0.2,0 0.2,0.1 0.3,0.2 0.1,0.1 0.4,0.3 0.6,0.4 0.1,0 0.2,0.1 0.3,0.1 0.1,0.1 0.2,0.1 0.2,0.1 0.1,0 0.1,0.1 0.1,0.1 0,0.1 0.2,0.2 0.2,0.2 0,0 0.2,0.1 0.3,0.1 0.1,0.1 0.3,0.1 0.3,0.1 0,0 0.1,0 0.2,0.1 0.1,0.1 0.2,0.1 0.3,0.1 0.2,0 0.3,0.1 0.3,0.2 0,0 0,0 -0.2,0 -0.1,0 -0.2,0 -0.3,-0.1 -0.1,0 -0.2,0 -0.3,0 -0.1,0 -0.1,0 -0.1,0.2 0,0.1 0,0.2 0.1,0.2 0,0 0.1,0.1 0.1,0.1 0,0.1 0.1,0.1 0.2,0.1 0.1,0 0.1,0 0,0.1 -0.2,0.2 -1.1,0.8 -1.7,1.1 -1.1,0.6 -2.3,0.9 -3.4,1.1 -0.3,0 -0.6,0.1 -0.6,0.1 -0.2,0 -1.3,0.1 -1.6,0 z M 9.1,18.9 c 0.1,-0.1 0.3,-0.2 0.3,-0.3 0.1,-0.1 0.1,-0.2 0.1,-0.2 0,0 0.1,0 0.1,0.1 0.2,0.1 0.2,0 0.2,-0.1 0,-0.1 0,-0.1 0.2,-0.1 0.1,0 0.2,-0.1 0.2,-0.1 0.1,-0.1 0.4,-0.1 0.4,0 0,0.1 0,0.1 0.1,0.1 0.1,0 0.3,-0.2 0.3,-0.5 0.1,-0.2 0,-0.3 -0.2,-0.3 -0.2,0 -0.3,-0.1 -0.1,-0.1 0.1,0 0.2,0 0.3,0 0.1,0 0.1,0 0.2,0 0.1,-0.1 0.1,0 0.1,0.1 0,0.1 0,0.2 0.1,0.2 0,0 0.1,-0.1 0.2,-0.1 0.3,-0.3 0.7,-0.5 0.9,-0.5 0.1,0 0.4,-0.1 0.4,-0.1 0,0 -0.1,0 -0.1,0 -0.1,0 -0.2,0 -0.3,0 -0.3,-0.1 -0.4,0 -0.7,0.1 l -0.3,0.1 -0.2,-0.1 C 11,17 10.7,16.9 10.1,16.9 c -0.5,0 -0.5,0 -0.6,0.1 -0.3,0.1 -0.3,0.2 0.2,0.4 L 10,17.5 H 9.9 c -0.1,0 -0.2,0 -0.3,0 -0.1,0 -0.2,0 -0.3,0 -0.2,0.1 -0.4,0.1 -0.8,0.1 -0.4,0 -0.4,0 -0.5,0.1 0,0.1 0,0.1 0.3,0.2 0.4,0 0.5,0.1 0.4,0.3 -0.1,0.1 -0.1,0.3 -0.1,0.3 0,0 0.1,0.1 0.1,0.2 0,0.1 0.1,0.1 0.1,0.2 0.1,0 0.1,0.1 0.1,0.2 0,0.1 0.1,0.1 0.1,0.1 0,0 0.2,-0.1 0.3,-0.2 z m 5.2,0 c 0.2,0 0.3,-0.1 0.2,-0.2 0,0 -0.1,-0.1 -0.1,-0.2 0,-0.1 -0.1,-0.1 -0.1,-0.2 0,0 0,-0.1 0,-0.1 0,0 0.3,0 0.6,0 0.7,0 0.7,0 0.7,-0.1 0,-0.1 0,-0.1 0,-0.2 0.1,-0.1 0.1,-0.1 0,-0.2 -0.1,-0.1 -0.3,-0.1 -0.5,-0.1 -0.2,0.1 -0.2,0.1 -0.1,0.2 0.1,0 0.1,0.1 -0.1,0.1 -0.1,0 -0.1,0 -0.2,0 0,0 -0.1,0 -0.1,0 -0.1,0 -0.1,0 -0.2,-0.1 0,0 -0.1,-0.1 -0.2,-0.1 -0.1,0 -0.2,0 -0.2,0 0,0 -0.1,0 -0.2,0 -0.1,0 -0.2,0 -0.2,0 0,0 0,0.1 0.1,0.1 0.1,0.1 0.1,0.2 0,0.2 -0.1,0 -0.4,0.3 -0.4,0.4 0,0.1 0,0.1 0.1,0.1 0.1,0 0.1,0 0.1,0.1 0.1,0.1 0.2,0.1 0.3,0.1 0,0 0.2,0 0.3,0 z M 13,18.6 c 0,0 0.1,0 0.1,0 0.1,0 0.1,0 0.2,-0.1 0.1,-0.1 0,-0.2 0,-0.1 -0.1,0.1 -0.2,0.1 -0.3,0.1 0,0 -0.1,0 -0.1,0 -0.1,0 -0.1,0.1 -0.1,0.2 0,0 0.2,0 0.2,0 z M 6.3,18.4 c 0,-0.1 0.1,-0.1 0.2,-0.1 0.1,0 0.3,-0.1 0.4,-0.2 C 7,18 7.1,18 7.3,18.2 c 0.1,0.1 0.1,0.1 0.1,0.1 0,0 0,-0.2 0,-0.3 -0.1,-0.1 -0.1,-0.2 0,-0.3 0.1,-0.1 0,-0.2 -0.2,-0.4 C 7,17.1 6.1,16.6 5.8,16.6 c -0.1,0 -0.3,0 -0.3,0 0,0 -0.2,0 -0.4,0 -0.5,-0.1 -1.4,-0.2 -1.4,-0.1 0,0 0.1,0.1 0.2,0.1 0.1,0 0.2,0.1 0.3,0.2 0.1,0.1 0.2,0.2 0.3,0.2 0.1,0 0.2,0.1 0.2,0.1 0.2,0.2 0.3,0.2 0.6,0.4 0.3,0.2 0.8,0.3 1.1,0.2 0.2,0 0.3,0 0.3,0 0,0 -0.1,0.1 -0.2,0.3 -0.2,0.2 -0.2,0.2 -0.2,0.3 0.1,0.2 0.2,0.3 0.2,0.1 z m 13.8,0 c 0,-0.1 0,-0.2 0,-0.3 0,-0.2 0,-0.3 -0.1,-0.4 -0.1,-0.2 -0.1,-0.2 -0.3,-0.3 -0.3,-0.1 -0.4,-0.1 -0.6,0 -0.2,0.2 -0.2,0.2 0.1,0.4 0.1,0.1 0.3,0.1 0.3,0.1 0,0 0,0 0.1,0.1 0,0 0,0.1 0.1,0.1 0,0 0.1,0.1 0.1,0.2 0,0.1 0.2,0.3 0.3,0.3 0,0 0,0 0.1,-0.1 z m -5.9,-1 c 0,0 -0.1,0 -0.1,0 0,0 0,0 0.1,0 0,0 0,0 0,-0.1 z m 0.2,-0.9 c 0.1,-0.1 0.1,-0.1 -0.2,-0.1 -0.2,0 -0.2,0.1 -0.1,0.1 0.1,0.1 0.2,0 0.3,-0.1 z m -1.8,-0.1 c 0,0 0,-0.1 0,-0.1 0,-0.1 -0.1,-0.1 -0.2,0 -0.1,0 -0.2,0 -0.2,0 0,0 -0.1,0 -0.2,0 -0.1,0 -0.2,0 -0.3,0 -0.2,0 -0.5,0 -0.5,0.1 0,0.1 0.5,0.1 0.8,0.1 0.1,0 0.1,0 0.2,0 0.1,0.1 0.5,0.2 0.5,0.1 z m -1.9,-0.2 c 0,0 0,0 -0.1,0 0,0 -0.1,0 -0.1,0 0,0 0,0 0.1,0 0,0 0.1,0 0.1,0 z M 9.8,16.1 c 0,0 0,0 -0.1,0 0,0 -0.1,0 -0.1,0 0,0 0,0 0.1,0 0,0 0.1,0 0.1,0 z M 9.1,15.9 c 0,0 -0.1,-0.1 -0.2,-0.1 -0.1,0 -0.1,0.1 0,0.1 0.1,0 0.2,0 0.2,0 z m -1,-0.1 C 8.2,15.7 8,15.7 7.8,15.7 c -0.1,0 -0.2,0 -0.3,0 -0.2,0 -0.2,0 -0.1,0.1 0.1,0.1 0.7,0 0.7,0 z m -1,-0.1 c 0,0 0.1,0 0.1,0 0,0 -0.3,0 -0.3,0 0,0 0,0.1 0.1,0.1 0,0 0.1,0 0.1,0 z M 6.7,15.6 c 0,0 0,0 -0.1,0 -0.1,0 -0.1,0 -0.1,0 0,0.1 0.2,0.1 0.2,0 z M 4,15.5 c 0,0 -0.1,-0.1 -0.1,-0.1 -0.1,0 -0.1,0.1 -0.1,0.1 0,0 0,0 0.1,0 0.1,0 0.1,0 0.1,0 z m 2.1,-0.1 c 0,0 0,-0.1 0,-0.1 C 6,15.2 5.8,15.1 5.8,15.1 c 0,0 0,0.3 0.1,0.3 0.1,0 0.2,0 0.2,0 z M 5.5,14.7 c 0,0 -0.1,0 -0.1,0 0,0 0,0 0,0.1 0,0 0.1,0 0.1,0 0,0 0,0 0,-0.1 z M 5.2,14.5 5.3,14.4 v -0.1 c -0.1,-0.2 -0.9,-1.1 -1,-1.1 -0.2,-0.1 -0.8,-0.3 -1,-0.3 -0.3,0 -0.4,0 -0.6,0.1 -0.2,0.2 -0.3,0.4 0,0.5 0.2,0.1 0.4,0.2 0.4,0.3 0,0.1 0,0.1 0.3,0 0.2,0 0.3,0 0.4,0 0.1,0.1 0.1,0.1 0.1,0.2 0,0.2 0,0.2 0.1,0.1 0,0 0.1,-0.1 0.2,-0.1 0.1,0 0.1,0 0.3,0 0.1,0 0.2,0.1 0.3,0.1 0,0 0.1,0.1 0.1,0.1 0,0 0.1,0 0.1,0.1 0,0.1 0.1,0.2 0.1,0.2 0,0 0.1,-0.1 0.2,-0.1 z M 1.8,9.6 c 0,-0.1 0,-0.1 0,-0.2 0,0 -0.1,0 -0.1,0 C 1.6,9.5 1.5,9.6 1.6,9.7 1.7,9.8 1.8,9.7 1.8,9.6 Z M 12.4,2 c 0,0 0.1,-0.1 0.1,-0.2 0,-0.1 0,-0.1 0,-0.2 C 12.4,1.4 12.3,1.4 12.2,1.4 12,1.5 11.8,1.7 11.9,1.8 c 0,0.1 0.3,0.2 0.5,0.1 z m 2.5,-0.1 c 0.1,-0.1 0.1,-0.2 0,-0.3 -0.1,-0.1 -0.3,0 -0.3,0 -0.1,0.1 -0.1,0.1 0,0.2 0.1,0.1 0.2,0.1 0.3,0 z M 13.3,1.4 c 0.1,-0.1 0,-0.2 -0.1,-0.2 -0.1,0 -0.1,0 -0.1,0.1 -0.1,0.1 0.2,0.2 0.2,0.1 z M 6.4,20.9 c 0,0 0,0 0,0 0,0 0,0 0,0 0,0 0,0 0,0 0,0 0,0 0,0 z M 5.6,20 c 0,0 0,0 0,0 0,0 0,0 0,0 0,0 0,0 0,0 0,0 0,0 0,0 z m 11.3,-2.2 c -0.1,-0.1 -0.1,-0.3 -0.1,-0.4 0,0 0.1,-0.1 0.1,-0.2 0.1,0 0.1,-0.1 0.2,-0.2 0.1,-0.2 0.2,-0.2 0.1,0 0,0.1 0,0.2 0,0.4 0,0.2 0,0.3 -0.1,0.4 -0.1,0.1 -0.2,0.1 -0.3,0.1 z m 1.6,-0.6 c 0,0 0,-0.1 0.1,-0.1 0.1,0 0.1,0.1 0,0.1 -0.1,0 -0.1,0 -0.1,0 z M 9.1,1.5 c 0,0 0,0 0.1,0 0,0 0,0 0,0 0,0 0,0 -0.1,0 0,0 0,0 0,0 z"
       fill="#b18656"
       id="path89" />
    <path
       d="m 11.4,23 c -0.2,0 -0.3,0 -0.3,0 0,0 -0.3,-0.1 -0.7,-0.1 -0.3,-0.1 -0.5,-0.1 -1.1,-0.2 -0.5,-0.2 -1,-0.3 -1.1,-0.4 0,0 -0.1,-0.1 -0.1,-0.1 -0.1,0 -0.4,-0.1 -0.4,-0.2 0,0 0.1,0 0.2,0 0.1,0 0.2,0 0.2,0.1 0.1,0.1 0.1,0.1 0.1,0 0,0 0,-0.2 0,-0.3 C 8.2,21.5 8.1,21.4 7.8,21.1 7.7,21 7.6,20.8 7.6,20.8 7.6,20.8 7.5,20.7 7.3,20.6 7.2,20.6 7,20.5 6.9,20.4 6.8,20.4 6.7,20.3 6.5,20.3 6.4,20.2 6.2,20.1 6.1,20 5.6,19.6 5.5,19.6 4.9,19.8 4.7,19.9 4.5,19.9 4.4,19.9 4.3,19.9 4.1,19.7 3.7,19.3 3.6,19.1 3.5,18.9 3.4,18.9 3.1,18.6 2.1,16.8 2.1,16.6 c 0,-0.1 0,-0.1 0,-0.1 C 2,16.5 1.6,15.7 1.5,15.2 1.5,15 1.4,14.8 1.4,14.7 1.4,14.6 1.3,14.3 1.3,14.2 1.3,14 1.3,14 1.4,13.8 1.5,13.7 1.5,13.6 1.6,13.6 l 0.1,-0.1 0.2,0.1 c 0.1,0 0.2,0.1 0.2,0 0.1,-0.1 0.1,-0.9 0.1,-1.3 0,-0.2 0,-0.3 0,-0.3 0,0 -0.4,0.1 -0.5,0.1 -0.1,0 -0.5,0.2 -0.5,0.2 0,0 0,-1 0.1,-1.2 C 1.3,11 1.4,10.7 1.4,10.5 1.4,9.5 1.6,8.6 2,7.8 2.5,6.6 3,5.7 3.9,4.7 4.3,4.2 5.2,3.3 5.6,3.1 5.6,3.1 5.8,2.9 5.9,2.9 6.4,2.5 7.5,2 8,1.8 c 0.2,-0.1 0.2,-0.1 0.3,0 0,0 0.1,0 0.2,0 0.1,0 0.2,0 0.2,0 0.2,0.1 1.3,0.2 1.4,0.1 0,0 0.1,-0.1 0.1,-0.1 0,-0.1 0,-0.1 0.1,-0.1 0.1,0 0.1,0 0.2,0.1 0.1,0.1 0.2,0.2 0.3,0.1 0,0 0.1,-0.1 0.1,-0.1 0.1,0 0.1,0 0.1,0 0,0.2 0.2,0.3 0.4,0.2 0.1,0 0.2,-0.2 0.2,-0.3 0,-0.1 0,-0.3 0.1,-0.3 0,0 0.1,0 0.2,0 0.1,0 0.1,0 0.2,0 0,0 0.1,-0.1 0.2,-0.1 0.1,0 0.1,0 0.1,-0.1 0,-0.1 0,-0.1 0.1,-0.1 0.1,0 0.7,0 0.7,0 0,0 0.1,0 0.2,0 0.3,0 1.1,0.1 1.3,0.2 0,0 0.2,0.1 0.4,0.1 0.9,0.2 1.4,0.4 2.6,1 1.1,0.6 2.5,1.7 3.3,2.8 0.6,0.7 0.8,1.1 1.2,1.9 0.5,1 0.7,1.7 0.9,2.6 0.2,0.9 0.2,1.2 0.2,2.2 0,1 0,1.3 -0.2,2.2 -0.3,1.2 -0.7,2.4 -1.4,3.5 -0.3,0.6 -0.5,0.7 -0.8,1.2 -0.4,0.4 -0.5,0.6 -0.5,0.6 0,0 0,-0.5 0,-0.9 0.1,-0.4 0,-0.5 -0.1,-0.7 -0.1,-0.2 -0.2,-0.2 -0.3,-0.3 -0.2,-0.1 -0.4,-0.1 -0.5,0 -0.1,0.1 -0.2,0.2 -0.2,0.3 0,0 0.1,0 0.2,0.1 0.1,0 0.2,0.1 0.2,0.1 0,0 0.1,0.1 0.2,0.2 0.2,0.2 0.2,0.3 0.1,0.3 -0.1,0 -0.1,0 -0.1,0.1 0,0.1 -0.1,0.2 -0.2,0.1 -0.1,0 -0.1,0 -0.2,0.1 0,0.1 -0.1,0.1 -0.1,0.1 0,0 -0.1,0.1 -0.1,0.1 -0.1,0.1 -0.2,0.1 -0.2,0.2 -0.1,0.1 -0.2,0.1 -0.2,0 0,-0.1 0.1,-0.8 0.2,-1.1 0,-0.1 0.1,-0.3 0.1,-0.4 0,-0.2 0.1,-0.4 0.1,-0.5 0,0 0.5,0 1,0 0.8,0.1 0.9,0.1 0.9,0 0.1,-0.1 0.1,-0.3 0,-0.3 0,0 -0.3,-0.1 -0.7,-0.1 -0.7,0 -1,-0.1 -1.1,-0.1 0,0 -0.1,-0.1 -0.1,-0.2 -0.2,-0.5 -0.8,-0.7 -1.2,-0.6 -0.2,0.1 -0.3,0.3 -0.3,0.3 0,0 0,0.1 -0.1,0.1 -0.1,0.1 -0.1,0.1 -0.1,0.1 0,0 0,-0.2 0,-0.3 0,-0.4 -0.1,-0.6 -0.6,-0.7 -0.6,-0.2 -1,0 -1.2,0.7 0,0.1 -0.1,0.2 -0.1,0.3 -0.1,0.1 -0.1,0.1 -0.1,0 0,0 -0.1,-0.1 -0.2,0 -0.1,0 -0.2,0 -0.3,0 -0.1,-0.1 -0.3,0 -0.6,0 -0.3,0.1 0,0.2 0.5,0.2 0.3,0 0.4,0 0.5,0.1 0.1,0.1 0.1,0.1 0.1,0.2 V 17 l 0.1,-0.1 c 0.1,-0.1 0.1,-0.1 0.3,-0.1 0.2,0 0.2,0 0.2,0.1 0,0 0,0 -0.1,0 0,0 -0.1,0 -0.2,0.1 l -0.1,0.1 h 0.1 c 0,0 0.2,0 0.2,0 0.1,0 0.2,0 0.2,0.1 0,0 0,0.1 0.1,0.1 0,0.1 0,0.1 0,0.1 0,0 -0.1,0.1 -0.1,0.2 0,0.1 -0.1,0.1 -0.2,0.1 -0.2,0 -0.3,-0.1 -0.3,-0.1 0,0 0,0 0.1,0 0,0 0.1,0 0.1,-0.1 0,-0.1 0,-0.1 0,-0.2 0,-0.1 0,-0.1 -0.1,-0.1 -0.1,0 -0.1,0 -0.2,0 -0.1,0 -0.4,0.3 -0.4,0.3 0,0 -0.1,0 -0.1,0 -0.1,0 -0.2,-0.1 -0.5,-0.2 -0.3,-0.1 -0.4,-0.2 -0.6,-0.2 -0.3,0 -0.4,0 -0.6,0.3 -0.1,0.1 -0.2,0.2 -0.3,0.2 -0.1,0.1 -0.1,0.1 -0.1,0.2 0,0.1 0,0.1 0,0.1 0,0 0,0.1 0,0.1 0.1,0 0.2,0.1 0.1,0.2 0,0.2 -0.2,0.3 -0.4,0.3 -0.2,0.1 -0.3,0.2 -0.4,0.4 0,0.2 0,0.2 0.2,0.1 0.1,0 0.2,0 0.5,0 0.2,0 0.4,0 0.4,0 0,0 0.1,0 0.2,0 0.1,0 0.2,0 0.2,0 0.1,0 0.2,0 0.2,0.1 0.1,0.1 0.2,0.1 0.4,0.1 0.2,0 0.3,0 0.4,0.1 0.1,0 0.1,0 0.2,0 0.2,0 0.3,-0.1 0.3,-0.2 0,0 0,-0.1 0.1,-0.1 0,0 0.1,0 0.1,-0.1 0,-0.1 -0.1,-0.2 -0.2,-0.3 -0.1,-0.1 0,-0.1 0.3,-0.1 0.3,0 0.6,0 0.6,-0.1 0.1,-0.1 0.1,-0.1 0.2,0.1 0.1,0.2 0.1,0.3 0.3,0.3 0.1,0 0.1,0 0.1,0 -0.1,0 -0.1,0.1 0,0.2 0.1,0.1 0.1,0.1 0.1,0 0,0 0.1,-0.1 0.1,-0.2 0,-0.2 0,-0.2 0.1,-0.2 0.1,0 0.2,0.1 0.4,0.1 0.3,0.2 0.4,0.3 0.4,0.3 -0.1,0.1 0,0.2 0.1,0.3 0.1,0.1 0.1,0.1 0.2,0 0,0 0.1,-0.1 0.1,-0.1 0,0 0,0 0.1,0 0,0 0.1,0.1 0.2,0.1 0.1,0 0.4,0.2 0.4,0.2 0,0 -0.1,0.1 -0.2,0.2 -0.2,0.1 -0.2,0.2 -0.2,0.2 0,0 0.1,0.1 0.1,0.1 0,0.1 0.1,0.2 0.2,0.2 0.1,0 0.1,0.1 0.1,0.1 0,0 0.1,0.1 0.2,0.1 l 0.1,0.1 -0.2,0.2 c -0.1,0.1 -0.3,0.2 -0.4,0.3 -0.1,0.1 -0.3,0.2 -0.4,0.2 -0.2,0.1 -0.7,0.4 -1.1,0.6 -0.9,0.5 -2.1,0.8 -3.1,0.9 -0.3,0 -0.6,0.1 -0.6,0.1 -0.1,0 -1.2,0.1 -1.6,0 z m 5.7,-2.4 c 0,0 0,-0.1 0.1,-0.1 0.1,-0.1 0.1,-0.1 -0.1,-0.3 C 16.9,20 16.8,20 16.7,20 c -0.1,0 -0.1,0.3 0,0.5 0,0.1 0.1,0.1 0.2,0.2 0.1,0 0.1,0 0.2,0.1 0.1,0.1 0.1,0 0.1,0 z m -6.8,-0.5 c 0,0 0.5,-0.2 0.6,-0.2 0.1,0 0.1,-0.1 0.1,-0.2 0,0 -0.1,0 -0.2,-0.1 -0.2,-0.1 -0.4,-0.1 -0.5,-0.2 -0.1,-0.1 -0.2,-0.1 -0.3,0 -0.2,0.1 -0.2,0.2 0,0.3 0.1,0.1 0.1,0.1 0,0.1 -0.1,0 -0.1,0.1 0,0.2 0,0.1 0.4,0.1 0.4,0 z m 7.2,-0.2 c 0,-0.1 -0.1,-0.1 -0.1,-0.1 0,0 -0.1,0 -0.1,0 -0.1,0 -0.2,0 0,0.1 0,0 0.1,0.1 0.1,0.1 0,0.1 0,0.1 0.1,0.1 h 0.1 L 17.5,20 Z m -0.1,-0.4 c 0,0 0,0 0,0 0,0 0,0 0,0.1 0,0 0,0 0,0 0,0 0,0 0,-0.1 z M 8.9,19.1 c 0,0 0.2,-0.1 0.3,-0.2 0.1,-0.1 0.2,-0.2 0.2,-0.2 0.1,-0.1 0.2,-0.1 0.2,0 0,0 0.3,0 0.3,0 0,0 0,-0.1 0,-0.1 0,-0.2 0,-0.2 0.1,-0.3 0.1,0 0.2,-0.1 0.2,-0.1 0.1,-0.1 0.4,-0.1 0.4,0 0,0.1 0,0.1 0.1,0.1 0.1,0 0.3,-0.2 0.3,-0.4 0.1,-0.2 0.1,-0.2 0.2,-0.1 0.1,0 0.2,0.1 0.2,0.1 0,0 0.1,-0.1 0.2,-0.2 0.2,-0.2 0.3,-0.3 0.6,-0.3 0.1,0 0.2,0 0.2,0 0,0 0.1,0 0.1,0 0,0 0.1,-0.1 0.3,-0.2 C 13,17.1 13,17 12.9,17 c -0.1,0 -0.2,0 -0.4,-0.1 -0.4,-0.1 -0.6,-0.1 -0.9,0.1 -0.2,0.1 -0.3,0.2 -0.3,0.2 0,0 -0.1,0 -0.2,-0.1 C 10.9,17 10.5,16.9 9.9,16.9 9.4,16.9 9.4,16.9 9.3,17 9,17.1 9,17.2 9.5,17.4 l 0.3,0.1 H 9.7 c -0.1,0 -0.2,0 -0.3,0 -0.1,0 -0.2,0 -0.3,0 -0.2,0.1 -0.4,0.1 -0.8,0.1 -0.3,0 -0.4,0 -0.5,0 C 7.7,17.7 7.7,17.7 7.2,17.2 7,17 6.1,16.6 6,16.6 c -0.1,0 -0.2,0 -0.4,0 -0.1,0 -0.4,0 -0.5,-0.1 -0.2,0 -0.5,-0.1 -0.6,-0.1 -0.2,0 -0.5,-0.1 -0.6,-0.1 -0.5,-0.1 -0.6,0 -0.1,0.2 0.1,0 0.2,0.1 0.3,0.2 0.1,0.1 0.2,0.1 0.2,0.1 0.1,0 0.3,0.2 0.4,0.3 0.1,0.1 0.2,0.1 0.3,0.2 0.1,0 0.3,0.1 0.4,0.2 0.1,0.1 0.3,0.1 0.4,0.1 0.3,0 0.4,0.1 0.4,0.1 0,0.1 0,0.1 0.2,0 0.3,-0.1 0.3,-0.1 0.1,0.2 -0.2,0.2 -0.2,0.3 -0.1,0.4 0.1,0.1 0.1,0.1 0.1,0 0,-0.1 0.1,-0.1 0.3,-0.1 0.2,0 0.2,0 0.3,-0.1 C 7.2,18 7.3,18 7.3,18 c 0,0 0.1,0.1 0.2,0.2 0.1,0.1 0.1,0.1 0.2,0.1 0,0 0.1,-0.2 0,-0.4 0,-0.1 0,-0.1 0.1,0 0.1,0.1 0.3,0.1 0.3,0 v -0.1 h 0.3 c 0.2,0 0.3,0 0.4,0.1 0.1,0.1 0.1,0.1 0,0.2 -0.1,0.1 -0.2,0.4 -0.1,0.4 0,0 0.1,0.1 0.1,0.1 0,0.1 0.1,0.1 0.2,0.2 0.1,0 0.1,0.1 0.1,0.1 0,0.1 0.1,0.1 0.2,0 z M 11,17.7 c 0,0 -0.1,0 -0.2,-0.1 h -0.1 0.2 c 0.2,0 0.4,0 0.4,0.1 0,0.1 -0.1,0.1 -0.2,0 z m 2.6,-1.2 c 0,0 0,0 -0.1,0 0,0 -0.1,0 -0.1,0 0,0 0,0 0.1,0 0,0 0.1,0 0.1,0 z m -0.9,-0.1 c 0,0 0,0 0,0 0,0 -0.1,0 -0.1,-0.1 -0.1,-0.1 -0.1,-0.1 -0.6,-0.1 -0.3,0 -0.6,-0.1 -0.6,-0.1 0,0 -0.2,0 -0.5,0 -0.4,0 -0.4,0 -0.5,0.1 0,0.1 0,0.1 0,0.1 0.1,0 0.9,0.1 1.2,0.1 0.2,0 0.3,0 0.3,0 0,0 0.5,0.1 0.6,0 0,0 0.1,0 0.1,0 z M 9.9,16.1 c 0,0 -0.1,-0.1 -0.2,-0.1 0,0 -0.1,0 -0.1,0.1 0,0.1 0.2,0.1 0.2,0 z M 9.4,16 9.5,15.9 H 9.3 C 9,15.8 8.8,15.8 8.7,15.9 L 8.6,16 h 0.2 c 0.1,0 0.2,0 0.2,0 0.1,0 0.3,0 0.4,-0.1 z m -0.8,0 c 0,0 0,-0.1 0,-0.1 0,-0.1 -0.1,-0.1 -0.3,-0.1 -0.1,0 -0.5,0 -0.8,-0.1 -0.4,0 -0.6,0 -0.7,-0.1 -0.1,-0.1 -0.3,-0.1 -0.3,0 -0.1,0.1 0.4,0.2 0.7,0.2 0.1,0 0.2,0 0.3,0 0.1,0 0.2,0 0.3,0 0.2,0 0.2,0 0.3,0 0.1,0 0.2,0.1 0.4,0.1 0.1,0 0.1,0 0.1,0 z M 4.1,15.5 H 4.2 L 4.1,15.4 c 0,0 -0.1,-0.1 -0.1,-0.1 -0.1,0 -0.1,0.1 -0.1,0.2 0,0 0.1,0 0.2,0 z m 2.1,0 C 6.3,15.4 6.2,15.2 6,15.1 5.9,15 5.8,14.9 5.8,14.9 5.7,14.8 5.6,14.6 5.5,14.4 5.4,14.2 5.2,14 5.1,14 5.1,13.9 4.9,13.7 4.7,13.6 4.4,13.2 4.3,13.2 3.8,13.1 3.5,13 3.4,13 3.2,13 2.9,13 2.9,13 2.8,13.1 2.7,13.2 2.6,13.3 2.6,13.4 2.5,13.7 2.4,13.8 2,14.1 c -0.2,0.2 -0.3,0.3 -0.3,0.4 0,0.1 0.1,0.1 0.1,0 0,-0.1 0.1,-0.1 0.3,-0.1 0.1,0 0.2,0 0.2,0 0,0 0.1,0 0.1,0 0,0 0,0 0,-0.1 0,0 0,-0.1 0,0 0,0 0.1,0 0.1,-0.1 0.1,-0.1 0.1,-0.1 0.1,-0.1 0,-0.1 0,-0.2 0.1,-0.2 0.1,0 0.2,0.3 0.2,0.3 0,0.1 0.1,0.2 0.2,0.2 0.1,0 0.3,-0.1 0.3,-0.1 0,0 0.1,-0.1 0.1,-0.1 0.1,-0.1 0.2,-0.1 0.2,0 0,0 0.1,0.1 0,0.2 0,0.3 0,0.3 0.2,0.1 0.1,-0.1 0.2,-0.2 0.3,-0.2 0.2,0 0.5,0.2 0.7,0.5 0.1,0.1 0.1,0.1 0.2,0 0.1,-0.1 0.2,0 0.2,0 0,0.1 0.2,0.3 0.3,0.4 0,0 0.1,0.1 0.1,0.2 0,0.1 0.1,0.1 0.1,0.2 0.1,0.1 0.2,0.1 0.3,0 z M 1.8,9.7 c 0,0 0.1,-0.1 0.1,-0.2 0,-0.1 0,-0.1 -0.1,-0.1 -0.1,0 -0.3,0.3 -0.2,0.4 0.1,0.1 0.1,0 0.2,0 z M 12.4,2 c 0.1,-0.1 0.1,-0.1 0.1,-0.3 0,-0.3 -0.3,-0.4 -0.6,-0.1 -0.1,0.1 -0.1,0.2 -0.1,0.3 0,0.1 0.4,0.2 0.6,0.1 z M 14.9,1.9 C 15.1,1.7 15,1.5 14.8,1.5 c -0.1,0 -0.2,0.1 -0.2,0.2 0,0.1 0,0.1 0.1,0.2 0.1,0.1 0.2,0.1 0.3,0 z M 13.3,1.5 c 0.1,-0.1 0.1,-0.1 0,-0.2 -0.1,-0.1 -0.4,0 -0.3,0.2 0,0.1 0.2,0.2 0.3,0.1 z M 6.4,20.9 c 0,0 0,0 0,0 0,0 0,0 0,0 0,0 0,0 0,0 0,0 0,0 0,0 z M 5.6,20 c 0,0 0,0 0,0 0,0 0,0 0,0 0,0 0,0 0,0 0,0 0,0 0,0 z m 7.1,-2 c 0,0 0.1,0 0.1,0 0,0 0,0 0,0 0,0 0,0 0,0 z m 0.6,0 c 0.1,0 0.2,-0.1 0.2,0 0,0 -0.1,0.1 -0.2,0.1 0,0 0,0 0,0 z M 17,17.8 c 0,0 -0.1,-0.2 -0.1,-0.2 0,0 0,-0.1 0.1,-0.2 0,-0.1 0.1,-0.2 0.2,-0.3 0.1,-0.1 0.1,-0.2 0.1,-0.2 0,0 0,0 0,0 0,0 -0.1,0.5 -0.1,0.6 0,0.1 -0.1,0.2 -0.2,0.2 z M 11,1.5 c 0,-0.1 0,-0.2 0.1,-0.1 0.1,0 0.1,0 0.1,0.1 0,0.1 -0.1,0.2 -0.1,0.2 0,0 0,-0.1 0,-0.1 z M 10.5,1.3 c 0,-0.1 0,-0.1 0.2,-0.1 0.1,0 0.1,0 0.2,0.1 0.1,0.1 0.1,0.1 -0.1,0.1 -0.1,0 -0.2,0 -0.2,-0.1 z m 1.4,-0.2 c 0,0 0,0 0.1,0 0.1,0 0.1,0 0.1,0 0,0 -0.1,0 -0.1,0 z"
       fill="#a57549"
       id="path91" />
    <path
       d="M 10.1,22.8 C 9.4,22.7 8.3,22.4 8.2,22.2 c 0,0 -0.1,0 -0.1,0 0,0 -0.3,-0.2 -0.3,-0.2 0,0 0.1,0 0.2,0 0.1,0 0.2,0 0.2,0.1 0.1,0.1 0.1,0.1 0.1,0 0,0 0,-0.2 0,-0.3 C 8.3,21.5 8.2,21.4 7.9,21.1 7.7,20.9 7.6,20.8 7.6,20.8 7.6,20.7 7.2,20.5 6.4,20.1 6.3,20.1 6.2,20 6.1,19.9 5.8,19.6 5.5,19.5 5.1,19.6 4.7,19.7 4.5,19.7 4.5,19.7 4.4,19.7 4.3,19.6 4.2,19.4 L 4.1,19.3 h 0.1 c 0.2,0 0.4,-0.1 0.4,-0.3 0,-0.1 0,-0.1 0.1,-0.1 0,0 0,0.1 0,0.1 0,0 0,0 0.1,0 0.1,0 0.1,0 0.1,-0.2 0,-0.1 0,-0.2 0.1,-0.2 0,0 0,-0.1 0,-0.1 0,-0.1 0.1,-0.1 0.2,0 0.1,0.1 0.1,0.1 0.1,-0.1 0,0 0,-0.1 0,-0.1 0,0 0.1,0.1 0.2,0.2 0.1,0.1 0.1,0.1 0.1,0 0,-0.1 0,-0.1 0.1,0 0.1,0.1 0.1,0.1 0.2,0 0.1,-0.1 0.1,-0.1 0.2,-0.1 0,0 0.1,0.1 0.2,0.2 0.1,0.2 0.3,0.2 0.3,0.1 0,-0.1 0.1,-0.1 0.2,0 0.1,0 0.1,0 0.2,0 0.1,0 0.2,-0.1 0.2,-0.1 0.1,-0.1 0.2,-0.1 0.2,0 0.1,0.1 0.2,-0.1 0.2,-0.2 0,-0.1 0.1,-0.1 0.1,-0.1 0,0 0.1,0 0.2,0 0.1,0 0.2,0.1 0.3,0 h 0.1 v 0.2 c 0,0.3 0.3,0.7 0.6,0.7 0.1,0 0.1,0 0.1,0.2 0,0.1 0,0.1 0,0.1 0.2,-0.1 0.2,-0.1 0.3,0 0,0 0,0.2 0,0.3 0,0.1 0,0.3 0,0.5 0,0.2 0.1,0.4 0.1,0.5 0,0.4 0.2,0.7 0.4,0.9 0.1,0.1 0.1,0.1 0.1,0.2 0,0.1 0.1,0.1 0.2,0.3 0.1,0.1 0.2,0.2 0.2,0.2 v 0 c 0,0 0.1,0 0.1,0.1 0,0.1 0,0.1 0.1,0.1 0,0 0,0.1 0,0.1 0,0 -0.1,0 -0.1,0 L 10.1,22.6 Z M 6.4,20.9 c 0,0 0,0 0,0 0,0 0,0 0,0 0,0 0,0 0,0 0,0 0,0 0,0 z M 5.6,20 c 0,0 0,0 0,0 0,0 0,0 0,0 v 0 c 0,0 0,0 0,0 z m 5.2,-0.4 c -0.1,0 -0.2,-0.1 -0.3,-0.2 -0.1,-0.1 -0.2,-0.2 -0.1,-0.2 0,-0.1 0,-0.2 -0.3,-0.6 L 10,18.4 h 0.1 c 0.1,0 0.1,-0.1 0.2,-0.1 0.1,-0.1 0.3,-0.1 0.3,0 0,0 0,0.1 0,0.1 0,0 0,0.1 0.1,0.1 l 0.1,0.1 c 0,0.1 0.1,0 0.2,-0.1 0,-0.1 0.1,-0.2 0.1,-0.2 0.1,-0.1 0.1,-0.1 0.2,0 0.2,0.1 0.3,0.1 0.5,0 0.1,-0.1 0.2,-0.1 0.2,-0.1 0,0 0.1,0.1 0.2,0.3 0,0.1 0,0.2 0,0.3 0,0.1 -0.1,0.1 -0.1,0.1 0,0 -0.1,0.1 -0.2,0.2 -0.1,0.1 -0.2,0.3 -0.3,0.4 -0.1,0.1 -0.2,0.2 -0.2,0.3 -0.1,0.2 -0.2,0.2 -0.5,0.1 z m 9.3,-0.4 c 0.1,-0.4 0.1,-0.6 0.1,-1 v -0.4 l -0.1,-0.2 c -0.1,-0.2 -0.4,-0.4 -0.6,-0.4 -0.2,0 -0.3,0.1 -0.5,0.2 -0.2,0.2 -0.2,0.1 -0.1,-0.2 L 19,17 h 0.3 c 0.2,0 0.5,0 0.6,0 0.8,0.1 0.9,0.1 0.9,0 0.1,-0.1 0.1,-0.3 0,-0.3 0,0 -0.2,-0.1 -0.6,-0.1 -0.5,0 -1,-0.1 -1.2,-0.1 -0.1,0 -0.1,-0.1 -0.2,-0.2 -0.4,-0.7 -1.3,-0.8 -1.6,-0.2 -0.1,0.2 -0.1,0.2 -0.1,-0.2 0,-0.4 -0.1,-0.6 -0.6,-0.7 -0.2,-0.1 -0.3,-0.1 -0.5,-0.1 -0.4,0 -0.7,0.3 -0.8,0.8 0,0.1 -0.1,0.2 -0.1,0.2 h -0.2 c -0.2,0 -0.5,0 -0.6,0 -0.2,0 -0.3,0 -0.4,0 -0.1,0 -0.2,0 -0.4,0 -0.2,0 -0.4,0 -0.4,0 -0.2,0 -0.6,-0.1 -1.1,-0.1 -0.2,0 -0.5,0 -0.6,-0.1 -0.1,0 -0.4,0 -0.5,-0.1 -0.3,0 -0.3,0 -0.4,0 0,0 -0.1,0 -0.1,0 -0.1,-0.1 -0.1,-0.1 -0.4,-0.1 -0.2,0 -0.3,0 -0.4,0 -0.1,-0.1 -0.7,-0.1 -0.8,-0.1 -0.1,0 -0.2,0 -0.2,0 -0.1,-0.1 -0.5,-0.1 -0.9,-0.1 -0.2,0 -0.5,0 -0.6,-0.1 -0.1,0 -0.4,0 -0.5,0 -0.2,0 -0.3,0 -0.3,-0.1 C 6.3,15.2 6.2,15.1 6.1,15 6,14.9 5.9,14.7 5.8,14.6 5.6,14.2 5.4,14 5,13.6 4.9,13.4 4.6,13.2 4.5,13.1 4.5,13.1 4.2,13 4,12.9 3.7,12.8 3.5,12.8 3.4,12.8 3,12.8 2.9,12.9 2.6,13.4 2.5,13.5 2.4,13.7 2.3,13.7 2.2,13.8 2.1,13.9 2,14 c -0.4,0.4 -0.3,0.4 -0.4,0.3 0,0 0,-0.1 0,-0.2 V 13.9 L 1.7,13.7 C 1.9,13.5 2,13.5 2,13.5 c 0,0 0.1,0 0.1,0 0.1,-0.1 0.2,-1.7 0.1,-1.8 0,0 0,0 -0.1,0 C 2,11.8 1.6,11.9 1.4,12 l -0.2,0.1 v -0.4 c 0,-0.2 0,-0.4 0,-0.5 0,-0.1 0,-0.1 0,-0.1 0,0 0,-0.1 0.1,-0.3 C 1.6,9 2.2,7.2 3.1,5.8 3.6,5.1 4.1,4.4 4.8,3.9 5.2,3.5 5.6,3.1 5.8,3 5.8,3 6,2.9 6.1,2.9 6.5,2.5 7.5,2 8.1,1.7 8.3,1.6 8.4,1.6 8.5,1.6 c 0.1,0 0.3,0.1 0.4,0.1 0.1,0 0.3,0 0.4,0.1 0.1,0 0.4,0 0.6,0 0.5,0 0.6,0 0.6,-0.1 0,-0.1 0.1,-0.1 0.2,0 0.1,0.1 0.1,0.1 0.3,0.1 0.1,0 0.2,0 0.3,0.1 0.1,0.1 0.3,0.1 0.4,0 0.1,-0.1 0.2,-0.1 0.2,-0.2 0.1,-0.4 0.1,-0.4 0.3,-0.4 0.1,0 0.2,0 0.2,-0.1 0,0 0.1,0 0.2,0 0.1,0 0.1,0 0.1,0 0,0 0.1,0 0.1,0 0,0 0.1,0 0.1,-0.1 C 13,1 13,1 13.1,1.1 c 0,0 0.2,0 0.2,0 h 0.1 v 0.2 c 0,0.1 0,0.2 0.1,0.2 0.1,0.1 0.3,0 0.3,0 0.1,-0.1 0.1,-0.2 0,-0.3 L 13.7,1.1 h 0.1 c 0.1,0 0.8,0.1 0.9,0.2 0.1,0 0.1,0 0.1,0.1 0,0 0,0.1 0.1,0.1 0,0.1 0.1,0.1 0.1,0.2 0,0.1 0.1,0.2 0.1,0.3 0.1,0.1 0.1,0.1 0.1,0.2 0,0.1 0.1,0.1 0.3,0.1 0.2,0 0.3,0 0.4,-0.1 0,0 0,-0.1 -0.1,-0.3 -0.1,-0.1 -0.2,-0.2 -0.2,-0.2 0,0 0,-0.1 -0.1,-0.1 L 15.4,1.5 h 0.1 c 0.3,0.1 0.9,0.3 1.3,0.5 0.2,0.1 0.2,0.1 0.2,0.2 0,0.1 0,0.2 0.3,0.2 0.2,0 0.2,0 0.5,0.1 1.2,0.6 2.5,1.7 3.3,2.8 0.6,0.7 0.8,1.1 1.2,1.9 0.6,1.2 0.9,2.2 1.1,3.5 0.1,0.6 0.1,2 0,2.6 -0.2,1.7 -0.7,3 -1.5,4.4 -0.3,0.6 -0.5,0.8 -0.8,1.2 -0.1,0.2 -0.3,0.4 -0.3,0.4 -0.1,0.1 -0.2,0.1 -0.2,0 z M 1.5,11 c 0,-0.1 0,-0.1 -0.1,-0.1 -0.1,0 -0.1,0.1 0,0.2 0,0.1 0.1,0 0.1,-0.1 z M 1.8,9.8 C 1.9,9.7 1.9,9.5 1.9,9.4 1.9,9.3 1.7,9.4 1.6,9.5 1.5,9.6 1.5,9.7 1.5,9.8 1.6,9.9 1.7,9.9 1.8,9.8 Z M 12.5,2 c 0.1,-0.1 0.1,-0.1 0.1,-0.2 0,-0.1 0,-0.2 -0.1,-0.2 0,0 -0.1,-0.1 -0.2,-0.1 -0.1,0 -0.1,0 -0.3,0 -0.2,0.1 -0.3,0.2 -0.3,0.3 0,0.2 0.2,0.3 0.5,0.3 0.1,0 0.2,0 0.2,-0.1 z m 0.7,0.1 C 13.3,2.1 13.2,2 13.1,2 13,2 13,2.1 13,2.1 c 0.1,0 0.1,0 0.2,0 z m 5.3,17.1 c -0.1,-0.1 0.2,-1.2 0.3,-1.3 0,0 0.1,0 0.2,0.1 0.2,0.2 0.2,0.3 0,0.5 -0.1,0.1 -0.1,0.2 -0.2,0.3 -0.1,0.1 -0.4,0.5 -0.4,0.4 z M 3.4,18.8 C 3.3,18.7 3,18.2 2.9,18.1 c 0,-0.1 0,-0.1 0,-0.1 0,0 -0.1,-0.2 -0.2,-0.3 -0.1,-0.1 -0.1,-0.1 0,-0.1 0,0 0.2,0.1 0.3,0.1 l 0.3,0.1 0.1,-0.1 c 0,0 0.1,-0.1 0.2,-0.1 0.1,0 0.1,0 0.2,-0.1 0.1,-0.1 0.1,-0.1 0.2,0 0.1,0 0.2,0.1 0.4,0.1 0.3,0 0.4,0 0.9,0.2 0.2,0.1 0.4,0.1 0.4,0.1 0,0 -0.2,0.2 -0.6,0.4 -0.1,0.1 -0.2,0.1 -0.3,0.2 0,0 -0.2,0.1 -0.4,0.2 -0.9,0.2 -0.9,0.2 -1,0.1 z M 8.1,18.1 C 8,18 8,18 8.1,17.9 c 0.3,0 0.6,0.2 0.3,0.2 -0.2,0 -0.3,0 -0.4,-0.1 z M 8,17.7 C 7.8,17.6 7.5,17.5 7.1,17.2 7,17.2 6.6,17 6.1,16.7 6,16.6 5.8,16.6 5.5,16.6 c -0.2,0 -0.5,0 -0.6,-0.1 -0.1,0 -0.4,-0.1 -0.6,-0.1 -0.2,0 -0.5,-0.1 -0.6,-0.1 -0.2,0 -0.3,0 -0.4,0 -0.2,0 -0.3,0 -0.3,-0.1 0,-0.1 0.1,-0.4 0.2,-0.5 0.2,-0.1 0.5,-0.5 0.6,-0.9 0.2,-0.4 0.3,-0.6 0.4,-0.5 0.1,0.1 0.3,0.2 0.4,0.3 0.1,0.2 0.2,0.2 0.4,0.2 0.1,0 0.1,0 0.2,0.1 0,0.1 0.1,0.2 0.1,0.2 0,0.1 0,0.1 0.1,0.1 0,0 0.1,0.1 0.2,0.2 0.1,0.1 0.3,0.2 0.5,0.2 0,0 0.1,0 0.1,0.1 0.1,0.1 0.2,0.1 0.5,0.1 0.3,0 0.3,0 0.4,0 0.1,0 0.1,0 0.2,0.1 0.1,0.1 0.1,0.1 0.3,0.1 0.2,0 0.2,0 0.3,0 0.2,0.1 1.9,0.2 2.2,0.2 0.1,0 0.1,0 0.2,0 0.1,0.1 0.3,0.1 0.8,0.2 0.4,0 0.6,0.1 1.2,0.1 0.3,0 0.4,0 0.5,0 0.1,0 0.2,-0.1 0.3,-0.1 0.2,0 0.2,0 0.2,0.1 0,0.1 0.1,0.1 0.2,0.1 0.4,0.1 0.6,0.1 1,0.1 0.3,0 0.5,0.1 0.5,0.1 0.1,0.1 -0.2,0.6 -0.4,0.7 l -0.1,0.1 -0.4,-0.2 c -0.3,-0.1 -0.4,-0.2 -0.6,-0.2 -0.1,0 -0.3,-0.1 -0.4,-0.1 C 12.9,17 12.4,17 12.2,17 c -0.1,0 -0.3,0 -0.5,0.2 -0.2,0.1 -0.4,0.2 -0.4,0.2 0,0 -0.1,0 -0.2,-0.1 -0.2,-0.1 -0.6,-0.2 -1.2,-0.2 -0.5,0 -0.5,0 -0.6,0.1 C 9,17.3 9,17.4 9.5,17.6 l 0.3,0.1 H 9.7 c -0.1,0 -0.2,0 -0.3,0 -0.1,0 -0.2,0 -0.3,0 -0.3,0.1 -0.6,0.1 -1,0.1 z M 4.4,15.5 c 0,0 0,-0.1 -0.1,-0.1 C 4.2,15.3 4.2,15.3 4,15.3 c -0.2,0 -0.3,0 -0.3,0.2 0,0.1 0.1,0.1 0.4,0.1 0.2,0 0.3,0 0.3,-0.1 z m 6.4,2.1 h -0.1 0.2 c 0.2,0 0.3,0 0.3,0 0,0.1 -0.2,0.1 -0.3,0 z m 6.1,-0.1 c 0,-0.1 0.1,-0.3 0.2,-0.3 0,0 0,0.1 0,0.2 0,0.2 -0.1,0.3 -0.1,0.1 z M 1.7,15.4 c -0.1,-0.2 -0.1,-0.2 0.2,-0.2 0.1,0 0.2,0 0.2,0.1 0,0 0,0 -0.1,0.1 0,0 -0.1,0 -0.1,0.1 0,0 0,0.1 0,0.1 0,0 -0.1,0 -0.1,0 0,0 -0.1,0 -0.1,-0.1 z m 1.5,-0.3 c 0,0 0,-0.1 0,-0.1 v 0 c 0.1,0 0,0.1 0,0.1 0,0 0,0 0,0 z M 10.5,1.2 c 0,0 0.1,-0.1 0.2,-0.1 0,0 0.1,0 0.1,0.1 0,0 -0.2,0 -0.2,0 z"
       fill="#656862"
       id="path93" />
    <path
       d="M 10,22.8 C 9.6,22.7 9.6,22.7 9.5,22.5 c 0,-0.1 0,-0.2 0,-0.2 0,-0.1 -0.1,-0.1 -0.2,0 -0.1,0.1 -0.1,0.1 -0.2,0.1 -0.1,0 -0.2,0 -0.2,-0.1 0,-0.1 0,-0.1 0,-0.1 0,0 0.4,0 0.6,0 0.1,0 0.7,0.6 0.7,0.7 0,0 0,0 -0.2,0 z M 9,21.2 c 0,0 -0.2,0 -0.3,-0.1 C 8.6,21.1 8.4,21 8.2,21 7.9,21 7.8,20.9 7.7,20.9 7.7,20.8 7.6,20.7 7.3,20.5 7.1,20.4 6.9,20.3 6.9,20.3 6.9,20.3 6.8,20.2 6.7,20.2 6.3,20.1 6.3,20 6.6,19.8 c 0.2,-0.2 0.3,-0.2 0.3,0 0,0.1 0.1,0.1 0.2,0 0.1,-0.1 0.1,-0.2 0,-0.2 -0.2,0 -0.1,-0.1 0.1,-0.3 0.1,-0.1 0.3,-0.3 0.3,-0.4 0.1,-0.1 0.2,-0.2 0.2,-0.2 0.1,0 0.5,0.2 0.5,0.3 0.1,0.1 0.1,0.2 -0.1,0.2 -0.2,0 -0.2,0.1 -0.2,0.2 0,0.1 0.2,0.1 0.3,0 0,0 0.1,0 0.1,0.2 0.1,0.2 0.1,0.2 0,0.2 -0.1,0.1 -0.1,0.1 -0.1,0.2 0,0.1 0.1,0.1 0.3,0 0.1,0 0.1,0 0.2,0.2 0.1,0.1 0.2,0.3 0.2,0.4 0.2,0.2 0.3,0.4 0.3,0.6 0,0.1 0,0.1 -0.1,0.1 z m 1.8,-1.7 c -0.1,-0.1 0,-0.4 0.2,-0.5 0.1,-0.1 0.2,-0.1 0.2,-0.3 0,0 0.1,-0.1 0.1,-0.2 0.1,-0.1 0.1,-0.1 0.2,0 0.2,0.1 0.2,0.2 -0.1,0.5 -0.1,0.1 -0.2,0.2 -0.2,0.3 -0.1,0.1 -0.1,0.1 -0.2,0.1 -0.1,0 -0.1,0 -0.2,-0.1 z m 9.3,-0.3 c 0,0 0,0 0,0 0,0 0,0 0,0 0,0 0,0 0,0 0,0 0,0 0,0 z m -9.8,-0.5 c -0.1,-0.1 -0.1,-0.1 0,-0.2 0.1,-0.1 0.2,-0.1 0.2,0 0,0 -0.1,0.3 -0.2,0.3 0,0 0,0 -0.1,-0.1 z M 3.2,18.6 c 0,0 -0.1,-0.1 -0.1,-0.1 0,0 0.2,-0.1 0.3,-0.1 0.1,0 0.2,-0.1 0.4,-0.1 0.3,-0.1 0.4,-0.1 0.6,0 0.2,0.1 0.1,0.2 -0.4,0.3 -0.2,0.1 -0.7,0.2 -0.8,0.2 0,0 -0.1,0 -0.1,-0.1 z m 17,0 c -0.1,0 -0.1,-0.1 -0.1,-0.3 0,-0.1 0.1,-0.2 0.1,-0.3 0,-0.2 -0.3,-0.7 -0.5,-0.8 -0.1,0 0,0 0.4,0 0.3,0 0.5,0 0.5,0.1 0.1,0.1 0.2,0 0.3,-0.1 0.1,-0.2 0,-0.4 0,-0.4 0,0 -0.3,-0.1 -0.6,-0.1 -0.5,0 -1.2,-0.1 -1.3,-0.1 0,0 -0.1,-0.1 -0.1,-0.2 -0.2,-0.4 -0.6,-0.7 -1,-0.6 -0.2,0 -0.4,0.1 -0.6,0.2 -0.1,0.1 -0.1,0.1 -0.1,0.1 0,0 0,-0.1 -0.1,-0.2 -0.1,-0.3 -0.3,-0.5 -0.6,-0.6 -0.1,0 -0.1,0 -0.1,0 0,0 0.3,0 0.4,0.1 0.1,0 0.3,0 0.8,0 0.4,0 0.8,0 0.8,0 0.1,0 0.3,0 0.4,0 0.2,0 0.2,0 0.1,-0.1 -0.1,0 -0.2,-0.1 -0.4,-0.1 -0.4,0 -0.8,-0.1 -0.9,-0.1 -0.1,-0.1 0.3,0 1.6,0.1 0.2,0 0.4,0 0.6,0 0.1,0 0.5,0 0.7,0 0.4,0 0.5,0 0.6,0 0.1,0 0.1,-0.1 0.1,-0.2 0,-0.1 0,-0.2 0,-0.2 0,-0.1 0.1,-0.1 0.1,-0.2 0,0 0,-0.1 0,-0.2 0.1,-0.1 0.1,-0.6 0.1,-0.9 0,-0.1 0,-0.2 0,-0.3 0,-0.2 0.1,-1 0.2,-1.7 0,-0.3 0.1,-1.1 0.1,-1.6 0,-0.6 0.1,-1.1 0.1,-1.1 0,-0.1 0,-0.2 0,-0.3 0,-0.2 0.1,-0.4 0.1,-0.6 0,-0.1 0,-0.2 0,-0.2 0.1,0 0.4,0.8 0.5,1.5 0.1,0.5 0.2,1 0.3,1.4 0,0.1 0,0.3 0.1,0.3 0,0.1 0,1.8 0,1.8 0,0 0,0.2 -0.1,0.3 -0.1,1.1 -0.6,2.6 -1.1,3.6 -0.3,0.6 -0.9,1.5 -1,1.7 -0.1,0.1 -0.2,0.2 -0.3,0.2 -0.1,0 -0.2,0 -0.2,0 z m 0.7,-3 c 0.1,-0.1 -0.1,-0.1 -0.4,-0.1 -0.2,0 -0.5,0 -0.6,-0.1 -0.1,0 -0.3,0 -0.4,0 -0.4,0 -0.2,0.1 0.3,0.1 0.3,0 0.6,0 0.6,0.1 0.3,0 0.3,0 0.4,0 z M 8.2,17.4 c -0.1,0 -0.3,0 -0.4,0 -0.4,0 -0.5,-0.1 -0.7,-0.2 -0.3,-0.2 -0.3,-0.3 0,-0.2 0.1,0 0.3,0 0.3,0 0.2,0 0.4,0 0.4,0.1 0,0 0.2,0.1 0.5,0.1 0.3,0.1 0.4,0.1 0.6,0.2 0.1,0.1 0.2,0.1 0.1,0.1 0,0 -0.4,0 -0.7,0 z m 6.1,-0.2 c -0.2,-0.1 -0.5,-0.1 -0.9,-0.2 -0.6,-0.1 -1.2,-0.2 -1.5,-0.1 -0.2,0.1 -0.4,0.1 -0.5,0 -0.1,-0.1 -0.1,-0.1 -0.2,-0.1 0,0 -0.1,0 -0.1,0 -0.2,-0.1 -0.5,-0.1 -1,-0.1 -1.1,0 -1.5,0 -1.7,-0.1 0,0 -0.2,0 -0.3,-0.1 -0.5,0 -0.6,0 -0.8,-0.1 -0.2,0 -0.5,0 -0.8,-0.1 -0.3,0 -0.6,0 -0.7,0 -0.1,0 -0.3,0 -0.5,0 -0.2,0 -0.3,0 -0.4,0 0,0 -0.1,0 -0.2,0 -0.3,0 -0.9,-0.1 -1.1,-0.1 -0.1,0 -0.2,0 -0.3,0 -0.1,0 -0.2,0 -0.2,0 0,0 0.3,-0.5 0.4,-0.6 0,0 0.1,0 0.1,0 0.1,0 0.2,0.1 0.5,0.1 0.5,0 0.5,0 0.5,-0.1 0,0 -0.1,-0.1 -0.1,-0.2 -0.1,-0.1 -0.1,-0.2 0.1,-0.2 0.1,0 0.2,0.1 0.2,0.2 0,0.1 0.1,0.3 0.2,0.3 0,0 0.1,0.1 0.2,0.2 0.2,0.3 0.3,0.4 0.4,0.4 0.2,0 0.4,-0.1 0.5,-0.2 0.1,-0.1 0.1,-0.1 0.5,0 0.2,0 0.5,0 0.6,0 0.1,0 0.4,0 0.6,0.1 0.6,0.1 1.2,0.1 2.1,0.2 0.2,0 0.4,0 0.5,0 0.1,0 1.5,0.2 2,0.2 0.2,0 0.7,0.1 1,0.1 0.3,0 0.7,0.1 0.8,0.1 0.4,0 0.8,0.1 0.8,0.1 0,0 -0.2,0.4 -0.3,0.5 -0.1,0.1 -0.1,0.1 -0.3,0 z m 0.3,-1 c -0.2,0 -0.5,0 -0.6,-0.1 -0.2,0 -0.7,-0.1 -1,-0.1 -0.4,0 -0.8,-0.1 -1.1,-0.1 -0.2,0 -0.6,-0.1 -0.7,-0.1 -0.1,0 -0.4,0 -0.5,0 -0.1,0 -0.4,0 -0.5,0 -0.1,0 -0.5,0 -0.8,0 C 9,15.7 8.6,15.7 8.3,15.6 c -0.1,0 -0.3,0 -0.6,0 -0.2,0 -0.6,0 -0.7,-0.1 -0.1,0 -0.3,0 -0.4,-0.1 C 6.4,15.5 6.4,15.5 6.3,15.3 6.3,15.2 6.2,15.1 6.2,15.1 6.1,15 6,14.9 5.8,14.5 5.7,14.4 5.6,14.3 5.6,14.2 c 0,0 0,-0.1 0,-0.1 0,0 -0.1,0 -0.1,-0.1 0,0 0,0 0.2,0 0.1,0 0.3,0 0.5,0.1 0.2,0 0.5,0.1 0.7,0.1 0.2,0 0.5,0.1 0.6,0.1 0.1,0 0.2,0 0.2,0 0.1,0 0.1,0 0,0.1 0,0 -0.2,0 -0.4,0 -0.4,0 -0.6,0 -0.6,0 0,0 0.2,0 0.4,0.1 0.4,0 0.9,0.1 1.3,0.2 0.1,0 0.3,0 0.4,0 0.2,0 0.2,0 0.1,-0.1 0,0 0,-0.1 0,-0.1 0.1,0 0.9,0 1.4,0.1 0.4,0.1 0.9,0.1 1.2,0.1 0.1,0 0.2,0 0.2,0.1 0,0 0,0 -0.4,0 -0.2,0 -0.5,0 -0.6,-0.1 -0.3,0 -0.6,0 -0.4,0.1 0,0 0.2,0 0.4,0.1 0.2,0 0.5,0.1 0.7,0.1 0.4,0.1 1,0.1 1.1,0 0.1,0 0.1,0 0,0 0,0 -0.1,0 -0.2,0 0,0 -0.1,0 -0.2,-0.1 -0.3,-0.1 -0.2,-0.1 0.2,-0.1 0.1,0 0.6,0 0.9,0.1 0.4,0 0.9,0.1 1.2,0.1 0.3,0 0.7,0.1 0.9,0.1 0.6,0 0.7,0.1 0.4,0.1 -0.2,0 -0.3,0 -0.5,0 -0.2,0 -0.2,0 -0.3,0 -0.1,0.1 0,0.1 0.3,0.1 0.2,0 0.4,0 0.6,0.1 0.2,0 0.3,0 0.4,0.1 0.1,0 0.2,0.1 0.1,0.1 -0.1,0 -0.4,0.2 -0.5,0.3 -0.1,0.2 -0.2,0.3 -0.3,0.5 -0.1,0.2 -0.1,0.2 -0.6,0.2 z m 5.7,-1.1 c -0.2,-0.1 0,-0.1 0.4,0 0.1,0 0.1,0 0,0.1 -0.2,0 -0.3,0 -0.4,0 z M 3.9,15.2 c 0,-0.1 0.1,-0.1 0.2,0 0.1,0 0.1,0 0,0 0,0 -0.1,0 -0.1,0 0,0 -0.1,0 -0.1,0 z m 13,0 c -0.1,0 -0.3,0 -0.4,-0.1 -0.2,0 -0.3,0 -0.4,0 -0.1,0 -0.1,0 0,0 0,0 0.2,0 0.4,0 0.2,0 0.5,0.1 0.6,0.1 0.1,0 0.2,0 0.3,0 h 0.1 -0.1 c -0.1,0 -0.2,0 -0.2,0 -0.1,0 -0.2,0 -0.2,0 z m 3.2,0 c 0,-0.1 0,-0.1 0.1,-0.1 0.1,0 0.1,0 0,0.1 -0.1,0.1 -0.1,0 -0.1,0 z m -3.5,-0.4 c 0,0 0,0 0.1,0 0,0 0,0 0,0 -0.1,0 -0.1,0 0,0 z M 14,14.2 c 0,0 0,0 0,0 0.1,0 0.4,0 0.4,0 0,0 -0.3,0 -0.4,0 z M 2.1,13.3 c 0,-0.2 0,-0.4 0.1,-0.6 0,-0.2 0,-0.5 0,-0.7 0,-0.3 0,-0.4 0,-0.4 0,0 -0.2,0 -0.3,0.1 -0.5,0.2 -0.6,0.2 -0.4,-0.1 0.1,-0.1 0.2,-0.2 0.2,-0.3 0.1,-0.1 0.1,-0.1 0.1,-0.3 0,-0.2 0,-0.2 0.1,-0.3 0,0 0.1,-0.1 0.2,-0.2 C 2.2,10.3 2.2,10.3 2.2,10.3 2.2,10.2 2.1,10.2 2,10.1 1.9,10 1.9,9.9 2,9.8 1.9,9.8 2,9.7 2,9.6 2.1,9.5 2.1,9.4 2.2,9.4 2.3,9.4 2.3,9.3 2.3,9.1 2.3,9 2.3,8.8 2.3,8.8 2.3,8.7 2.3,8.6 2.3,8.4 2.3,8.2 2.3,8 2.3,8 2.3,7.9 2.4,7.6 2.4,7.1 2.4,6.6 2.5,6.5 2.6,6.2 2.8,5.9 3.4,5.2 3.7,4.8 4.2,4.3 5.2,3.4 5.5,3.2 5.5,3.2 5.7,3.1 5.8,3 6.1,2.8 6.7,2.4 7.3,2.1 7.8,1.9 7.8,1.9 8.4,1.9 8.7,1.9 9,2 9,2 c 0.1,0 0.4,0 0.7,0 0.3,0 0.7,0 0.8,0 0.2,0 0.4,0 0.6,0 0.2,0 0.4,0 0.6,0 0.1,0 0.4,0 0.6,0 0.3,0 0.5,0 0.5,0 0,0 0.2,0 0.4,0.1 0.2,0 0.4,0.1 0.6,0.1 0.2,0 0.5,0.1 1.2,0.1 0.5,0 1.1,0 1.3,0 0.2,0 0.5,0 0.6,0.1 0.6,0 0.6,0.1 1.3,0.5 0.7,0.5 1.2,0.9 1.7,1.5 0.3,0.3 0.8,0.9 0.8,1 0,0 -0.2,0 -0.8,0 -0.3,0 -0.9,-0.1 -1.3,-0.1 -0.3,0.1 -1.2,0 -1.9,0 C 16.1,5.2 15.2,5.2 14.9,5.1 14.5,5.1 14.2,5.1 14,5 13.7,5 13.2,4.9 12.8,4.9 c -0.2,0 -0.4,0 -0.5,0 -0.1,0 -0.4,0 -0.6,-0.1 -0.2,0 -0.4,-0.1 -0.5,-0.1 0,0 -0.1,0 -0.2,0 0,0 -0.1,0 -0.1,0 0,0 -0.2,0 -0.3,0 C 10.5,4.8 9.1,4.7 8.4,4.6 8.3,4.6 8,4.6 7.8,4.6 7.5,4.6 7.4,4.6 7.3,4.5 7.2,4.4 7.1,4.4 7,4.4 6.8,4.4 6.7,4.4 6.6,4.4 6.5,4.3 6.4,4.3 6.4,4.3 c 0,0 -0.1,0 -0.1,0 -0.1,0 -0.1,0 -0.3,0 -0.1,0 -0.4,0 -0.5,0 -0.2,0 -0.3,0 -0.3,0.3 0,0.2 0.1,0.2 0.2,0.1 0.1,-0.1 0.1,-0.1 0.2,0.1 0,0.1 0,0.1 0.1,0.2 0.1,0.1 0.2,0.1 1.3,0.1 0.4,0 0.9,0.1 1.1,0.1 0.2,0 0.4,0.1 0.6,0.1 0.2,0 0.4,0 0.6,0 0.2,0 0.6,0.1 0.8,0.1 0.6,0 0.8,0.1 0.8,0.2 0,0 0.1,0.1 0.2,0.1 0.1,0 0.1,0 0.2,0.1 0,0 0.1,0.1 0.1,0.1 C 11.5,6 11.4,6 10.9,6 10.3,6 9.9,6 9.9,5.9 9.8,5.8 9.8,5.8 9.7,5.9 9.6,6 8.7,5.9 8.7,5.8 8.7,5.8 8.6,5.7 8.5,5.7 8.3,5.6 8.2,5.6 8.2,5.7 c 0,0 0,0.1 -0.1,0.1 0,0 -0.1,0 -0.1,0 C 7.7,5.9 7.4,5.9 7.2,5.8 6.9,5.4 6.5,5.3 6,5.3 c -0.5,0 -0.6,0 -0.5,-0.1 0,0 0,-0.1 0,-0.1 C 5.3,5 5,5 5,5.2 5,5.3 5,5.3 4.8,5.3 4.5,5.4 4.2,5.3 4.3,5.2 4.3,5 4.3,5 4.3,5 4.2,5 4.2,5.1 4.2,5.2 4.3,5.3 4.2,5.3 4.1,5.3 4.1,5.4 4.1,5.4 4,5.6 4,5.8 4,5.9 4,6 4,6.1 4,6.1 4,6.2 3.9,6.3 3.9,6.9 3.9,7 c 0,0.1 0.1,0.1 0.2,0.1 0.3,0 0.7,0.2 0.6,0.2 0,0 -0.1,0 -0.1,0.1 0,0 -0.1,0 -0.1,0 -0.1,0 -0.1,0 0,0.1 0.1,0.1 0.1,0.1 0.3,0.1 0.1,0 0.2,0 0.3,0 0.1,0 0.1,0 0,0 -0.1,0 -0.1,0 -0.1,0 0,0 -0.2,0 -0.5,0 -0.4,0 -0.4,0 -0.5,0.1 0,0 -0.1,0.2 -0.1,0.6 0,0.3 0,0.6 -0.1,0.6 0,0.5 -0.1,0.9 0,1 0,0.1 0,0.1 0,0.2 0,0 -0.1,0.2 -0.1,0.3 0,0.2 0,0.4 -0.1,0.5 -0.1,0.3 -0.1,0.9 -0.1,1.2 0,0.1 0,0.3 0,0.4 v 0.1 H 3.3 c -0.4,0 -0.5,0.1 -0.8,0.5 -0.3,0.4 -0.3,0.4 -0.3,0 z M 16.2,4.9 c 0,-0.1 0,-0.1 -0.1,-0.1 -0.1,0 -0.1,0 -0.1,0 0,0.1 0,0.1 0.1,0.1 0.1,0 0.1,0 0.1,-0.1 z M 13.3,4.7 c 0,0 0.1,-0.1 0,-0.1 0,0 0,-0.1 0,-0.1 0,0 0.1,0 0.2,-0.1 0.1,-0.1 0.1,-0.1 0.1,-0.1 0,0 0.3,-0.2 0.3,-0.2 0,0 -0.1,0 -0.2,0 -0.2,0 -0.4,0.1 -0.4,0.1 0,0.1 -0.1,0.1 -0.1,0 0,-0.1 -0.1,-0.2 -0.5,-0.2 -0.2,0 -0.3,0 -0.4,0 0,0 -0.1,0 -0.1,0 -0.1,0 -0.1,0 -0.1,0 0,0 0,0 0.1,0 0,0 0.2,0 0.2,0 0.1,0 0.3,0.1 0.4,0.1 0.2,0 0.3,0 0.3,0 0,0 0,0.1 0,0.2 0,0.1 -0.1,0.2 0,0.2 0,0.1 0.1,0.1 0.2,0 z M 7,4.1 C 7,4.1 6.9,4 6.8,4 6.7,4 6.3,4.1 6.3,4.1 c 0,0 0,0.1 0.1,0.1 0.1,0.1 0.1,0.1 0.4,0.1 H 7.1 V 4.2 c 0,-0.1 0,-0.1 0,-0.2 z m -1.2,0 C 6.1,4.1 6.2,4.1 6.1,4 6,4 5.4,3.9 5.3,4 c 0,0.1 0.1,0.2 0.2,0.2 0,0 0.2,0 0.3,0 z m 7.6,-1 C 13.5,3 13.5,3 13.4,2.8 13.4,2.7 13.2,2.6 13.1,2.7 13,2.7 12.9,2.9 12.9,3 c 0,0.1 0.1,0.2 0.3,0.2 0.1,0 0.1,0 0.2,-0.1 z m 7.4,7.9 c 0,0 0,-0.1 0,-0.1 0,0 0.1,0 0.1,0 0,0 -0.1,0.1 -0.1,0 z M 6.1,7.9 c -0.1,0 0,-0.1 0.1,-0.1 0,0 0.1,0 0.1,0.1 C 6.3,8 6.2,8 6.1,8 Z M 5.2,7.8 c 0,0 0,0 0.1,-0.1 0,0 0,0 0,-0.1 0,-0.1 0,-0.1 0,-0.1 0,0 0.1,0 0.1,0 0,0 0,0.1 0,0.1 0,0 0,0.1 0,0.1 0,0 0,0 -0.1,0 0,0 -0.1,0 -0.1,0 z M 5,7.5 c -0.1,0 0,-0.1 0,-0.1 0.1,0 0.2,0 0.2,0.1 0,0 -0.1,0 -0.2,0 z M 20.9,6.6 c -0.2,0 -0.4,0 -0.4,-0.1 0,0 0,-0.1 0,-0.1 0,-0.1 0,-0.2 -0.1,-0.2 -0.1,0 -0.3,0 -0.6,-0.1 C 19.5,6.1 19,6 18.7,6 18.2,6 18.1,6 18.1,6 18.1,6 18,6.1 18,6.2 v 0.1 h -0.2 c -0.1,0 -0.5,0 -0.9,-0.1 -1.1,0 -1.4,-0.1 -2.2,-0.1 -0.4,0 -0.8,0 -0.8,-0.1 -0.1,0 -0.2,-0.1 -0.2,-0.2 0,0 -0.1,-0.1 -0.1,-0.1 -0.1,-0.1 -0.1,-0.1 -0.2,-0.1 -0.1,0 -0.1,0 -0.2,0 0,0 -0.1,0 -0.2,0 -0.1,0 -0.1,0 -0.1,0.1 0,0.1 0,0.1 -0.2,0.1 -0.1,0 -0.2,0 -0.3,0 -0.1,0 -0.1,0 0,-0.1 0.1,0 0.1,-0.1 0.2,-0.1 0,0 0.1,0 0.1,-0.1 0,0 0.1,-0.1 0.4,-0.1 0.9,0 1.2,0 1.6,0 0.4,0.1 0.7,0.1 2.1,0.2 0.4,0 0.8,0.1 0.9,0.1 0.7,0.1 1.2,0.1 2,0.2 1.2,0.1 1.2,0.1 1.2,0 0.1,-0.1 0.1,0 0.3,0.2 0.1,0.1 0.1,0.3 0.2,0.3 l 0.1,0.1 h -0.1 c -0.1,0 -0.3,0 -0.5,0 z M 4.1,6.2 c 0,-0.1 0.1,-0.1 0.1,0 0,0 0,0.1 -0.1,0.1 0,0 -0.1,0 -0.1,0 z m 7.7,-0.6 h -0.1 0.1 c 0.1,0 0.1,0 0.1,0 0,0 0,0 0,0 0,0 0,0 -0.1,0 z"
       fill="#31302c"
       id="path95" />
  </g>
</svg>
