<?xml version="1.0" encoding="UTF-8" standalone="no"?>
<svg
   width="150"
   height="50"
   viewBox="0 0 150 50"
   fill="none"
   version="1.1"
   id="svg247"
   sodipodi:docname="bmc-button.svg"
   inkscape:version="1.1 (c68e22c387, 2021-05-23)"
   xmlns:inkscape="http://www.inkscape.org/namespaces/inkscape"
   xmlns:sodipodi="http://sodipodi.sourceforge.net/DTD/sodipodi-0.dtd"
   xmlns="http://www.w3.org/2000/svg"
   xmlns:svg="http://www.w3.org/2000/svg">
  <defs
     id="defs251" />
  <sodipodi:namedview
     id="namedview249"
     pagecolor="#ffffff"
     bordercolor="#666666"
     borderopacity="1.0"
     inkscape:pageshadow="2"
     inkscape:pageopacity="0.0"
     inkscape:pagecheckerboard="0"
     showgrid="false"
     inkscape:zoom="5.1669724"
     inkscape:cx="77.414774"
     inkscape:cy="50.996982"
     inkscape:window-width="1920"
     inkscape:window-height="1016"
     inkscape:window-x="0"
     inkscape:window-y="27"
     inkscape:window-maximized="1"
     inkscape:current-layer="svg247"
     fit-margin-top="0"
     fit-margin-left="0"
     fit-margin-right="0"
     fit-margin-bottom="0" />
  <g
     id="g67"
     transform="scale(0.27539106,0.32679739)">
    <path
       d="M 0,24.48 C 0,10.9601 10.9601,0 24.48,0 H 520.2 c 13.52,0 24.48,10.9601 24.48,24.48 v 104.04 c 0,13.52 -10.96,24.48 -24.48,24.48 H 24.48 C 10.9601,153 0,142.04 0,128.52 Z"
       fill="#ffdd00"
       id="path207" />
    <path
       d="m 109.522,50.3178 -0.067,-0.0395 -0.156,-0.0475 c 0.063,0.0528 0.141,0.0834 0.223,0.087 z"
       fill="#0d0c22"
       id="path209" />
    <path
       d="m 110.507,57.3134 -0.075,0.021 z"
       fill="#0d0c22"
       id="path211" />
    <path
       d="m 109.549,50.3062 c -0.009,-0.0011 -0.017,-0.0031 -0.025,-0.0059 -0.001,0.0055 -0.001,0.011 0,0.0165 0.009,-0.0012 0.017,-0.0049 0.025,-0.0106 z"
       fill="#0d0c22"
       id="path213" />
    <path
       d="m 109.523,50.3205 h 0.013 v -0.0078 z"
       fill="#0d0c22"
       id="path215" />
    <path
       d="m 110.447,57.3006 0.113,-0.0645 0.042,-0.0238 0.038,-0.0408 c -0.071,0.031 -0.137,0.0747 -0.193,0.1291 z"
       fill="#0d0c22"
       id="path217" />
    <path
       d="m 109.715,50.4713 -0.111,-0.1054 -0.075,-0.0408 c 0.041,0.0712 0.107,0.1237 0.186,0.1462 z"
       fill="#0d0c22"
       id="path219" />
    <path
       d="m 81.8801,118.353 c -0.0885,0.038 -0.1659,0.098 -0.2253,0.174 l 0.0698,-0.045 c 0.0474,-0.043 0.1146,-0.095 0.1555,-0.129 z"
       fill="#0d0c22"
       id="path221" />
    <path
       d="m 98.0456,115.173 c 0,-0.1 -0.0488,-0.082 -0.0369,0.274 0,-0.029 0.0119,-0.058 0.0171,-0.086 0.0066,-0.063 0.0119,-0.125 0.0198,-0.188 z"
       fill="#0d0c22"
       id="path223" />
    <path
       d="m 96.3761,118.353 c -0.0884,0.038 -0.1658,0.098 -0.2252,0.174 l 0.0698,-0.045 c 0.0474,-0.043 0.1146,-0.095 0.1554,-0.129 z"
       fill="#0d0c22"
       id="path225" />
    <path
       d="m 70.4886,119.11 c -0.0671,-0.058 -0.1493,-0.097 -0.2371,-0.111 0.0711,0.035 0.1422,0.069 0.1897,0.095 z"
       fill="#0d0c22"
       id="path227" />
    <path
       d="m 67.9304,116.657 c -0.0104,-0.104 -0.0423,-0.204 -0.0935,-0.295 0.0363,0.094 0.0666,0.191 0.0909,0.29 z"
       fill="#0d0c22"
       id="path229" />
    <path
       d="m 54.9844,57.1021 0.0606,0.0566 0.0395,0.0237 c -0.0304,-0.0302 -0.064,-0.0572 -0.1001,-0.0803 z"
       fill="#0d0c22"
       id="path233" />
    <g
       id="g22973"
       transform="translate(-22,-8.9203403e-5)">
      <path
         d="m 85.1368,72.7737 c -3.5173,1.5057 -7.5088,3.2129 -12.6819,3.2129 -2.1641,-0.0043 -4.3176,-0.3012 -6.4022,-0.8826 l 3.5779,36.734 c 0.1266,1.535 0.8261,2.967 1.9594,4.01 1.1333,1.044 2.6176,1.623 4.1582,1.622 0,0 5.073,0.264 6.7658,0.264 1.8218,0 7.2848,-0.264 7.2848,-0.264 1.5403,0 3.0243,-0.579 4.1574,-1.622 1.133,-1.044 1.8323,-2.475 1.9589,-4.01 l 3.8321,-40.5924 c -1.7125,-0.5849 -3.4408,-0.9735 -5.3892,-0.9735 -3.3697,-0.0013 -6.0847,1.1592 -9.2212,2.5016 z"
         fill="#ffffff"
         id="path231" />
      <path
         d="m 116.299,53.7119 -0.538,-2.7176 c -0.484,-2.4384 -1.581,-4.7424 -4.084,-5.6237 -0.802,-0.2819 -1.713,-0.4031 -2.328,-0.9866 -0.615,-0.5836 -0.797,-1.4899 -0.939,-2.3304 -0.263,-1.5426 -0.511,-3.0865 -0.781,-4.6264 -0.233,-1.3239 -0.418,-2.8112 -1.025,-4.0257 -0.79,-1.6309 -2.43,-2.5846 -4.061,-3.2156 -0.836,-0.312 -1.689,-0.5759 -2.5546,-0.7904 -4.0745,-1.075 -8.3584,-1.4702 -12.5502,-1.6954 -5.0312,-0.2776 -10.0759,-0.194 -15.0952,0.2503 -3.7359,0.3398 -7.6707,0.7509 -11.2209,2.0431 -1.2976,0.473 -2.6346,1.0407 -3.6213,2.0432 -1.2106,1.2317 -1.6058,3.1366 -0.7219,4.6725 0.6284,1.0908 1.6928,1.8614 2.8217,2.3712 1.4705,0.6569 3.0062,1.1567 4.5816,1.4912 4.3867,0.9696 8.9302,1.3503 13.4117,1.5123 4.9671,0.2005 9.9423,0.038 14.8857,-0.4861 1.2225,-0.1343 2.4428,-0.2955 3.6609,-0.4834 1.4345,-0.22 2.3553,-2.0959 1.9325,-3.4027 -0.5059,-1.5623 -1.8653,-2.1683 -3.4027,-1.9325 -0.2265,0.0356 -0.4518,0.0685 -0.6784,0.1015 l -0.1633,0.0237 c -0.5208,0.0658 -1.0416,0.1273 -1.5624,0.1844 -1.0758,0.1159 -2.1542,0.2108 -3.2353,0.2845 -2.4212,0.1686 -4.8491,0.2464 -7.2756,0.2503 -2.3843,0 -4.77,-0.0672 -7.1491,-0.2239 -1.0855,-0.0712 -2.1683,-0.1616 -3.2485,-0.2714 -0.4914,-0.0514 -0.9814,-0.1054 -1.4715,-0.166 L 69.4199,35.903 69.3185,35.8886 68.835,35.8187 c -0.988,-0.1488 -1.976,-0.3201 -2.9534,-0.5269 -0.0986,-0.0219 -0.1869,-0.0767 -0.2501,-0.1555 -0.0632,-0.0788 -0.0977,-0.1769 -0.0977,-0.2779 0,-0.101 0.0345,-0.199 0.0977,-0.2778 0.0632,-0.0788 0.1515,-0.1337 0.2501,-0.1556 H 65.9 c 0.8471,-0.1805 1.7007,-0.3346 2.5569,-0.469 0.2855,-0.0447 0.5718,-0.0887 0.8589,-0.1317 h 0.0079 c 0.5362,-0.0356 1.075,-0.1317 1.6085,-0.195 4.6418,-0.4828 9.3112,-0.6474 13.9755,-0.4926 2.2644,0.0658 4.5276,0.1989 6.7815,0.4281 0.4848,0.0501 0.967,0.1028 1.4491,0.162 0.1844,0.0224 0.3702,0.0488 0.5559,0.0712 l 0.3741,0.054 c 1.0908,0.1624 2.1758,0.3596 3.2551,0.5915 1.5993,0.3477 3.6526,0.461 4.3646,2.2131 0.226,0.5559 0.329,1.1737 0.454,1.7573 l 0.16,0.7442 c 0.004,0.0134 0.007,0.0271 0.009,0.0409 0.377,1.7564 0.754,3.5128 1.131,5.2693 0.028,0.1297 0.029,0.2638 0.002,0.3938 -0.026,0.13 -0.079,0.2532 -0.155,0.3618 -0.076,0.1087 -0.174,0.2005 -0.287,0.2697 -0.113,0.0692 -0.24,0.1143 -0.371,0.1326 h -0.011 l -0.23,0.0316 -0.228,0.0303 c -0.722,0.094 -1.445,0.1818 -2.1684,0.2635 -1.4253,0.1624 -2.8528,0.303 -4.2826,0.4215 -2.841,0.2363 -5.6877,0.3913 -8.5402,0.465 -1.4534,0.0387 -2.9064,0.0567 -4.359,0.054 -5.7817,-0.0045 -11.5584,-0.3405 -17.3017,-1.0064 -0.6218,-0.0738 -1.2435,-0.1528 -1.8653,-0.2332 0.4821,0.062 -0.3504,-0.0474 -0.519,-0.0711 -0.3952,-0.0553 -0.7904,-0.1128 -1.1856,-0.1726 -1.3266,-0.1989 -2.6452,-0.4439 -3.9691,-0.6586 -1.6006,-0.2635 -3.1313,-0.1317 -4.579,0.6586 -1.1884,0.6503 -2.1502,1.6476 -2.7572,2.8586 -0.6244,1.291 -0.8101,2.6966 -1.0894,4.0837 -0.2793,1.3872 -0.714,2.8797 -0.5493,4.3037 0.3543,3.0733 2.5029,5.571 5.5933,6.1295 2.9073,0.5269 5.8305,0.9538 8.7615,1.3173 11.5138,1.4102 23.1458,1.5789 34.6956,0.5033 0.9406,-0.0879 1.8799,-0.1836 2.8174,-0.2872 0.293,-0.0322 0.59,0.0015 0.868,0.0988 0.278,0.0972 0.531,0.2554 0.74,0.463 0.209,0.2077 0.37,0.4595 0.469,0.737 0.099,0.2775 0.135,0.5737 0.105,0.8669 l -0.293,2.8427 c -0.589,5.7444 -1.178,11.4884 -1.767,17.2319 -0.615,6.0316 -1.2339,12.0628 -1.8565,18.093 -0.1757,1.699 -0.3513,3.397 -0.527,5.095 -0.1686,1.671 -0.1923,3.396 -0.5098,5.048 -0.5005,2.597 -2.2592,4.193 -4.8253,4.776 -2.351,0.535 -4.7526,0.816 -7.1636,0.838 -2.6728,0.014 -5.3444,-0.104 -8.0172,-0.09 -2.8533,0.016 -6.3482,-0.247 -8.5508,-2.371 -1.9351,-1.865 -2.2025,-4.786 -2.466,-7.311 -0.3513,-3.343 -0.6995,-6.686 -1.0446,-10.029 L 64.0887,82.0212 62.8359,69.9953 c -0.021,-0.1989 -0.0421,-0.3952 -0.0619,-0.5954 -0.1501,-1.4345 -1.1658,-2.8388 -2.7663,-2.7664 -1.3701,0.0606 -2.9271,1.2251 -2.7664,2.7664 l 0.9287,8.9156 1.9206,18.4426 c 0.5472,5.2389 1.093,10.4779 1.6375,15.7179 0.1054,1.004 0.2042,2.011 0.3148,3.014 0.602,5.486 4.7911,8.442 9.9787,9.274 3.0299,0.488 6.1335,0.588 9.2081,0.638 3.9414,0.063 7.9224,0.215 11.7993,-0.499 5.7448,-1.054 10.055,-4.89 10.67,-10.841 0.176,-1.717 0.352,-3.436 0.527,-5.154 0.584,-5.684 1.167,-11.3683 1.75,-17.053 l 1.904,-18.5743 0.874,-8.5125 c 0.043,-0.4221 0.222,-0.819 0.508,-1.1319 0.287,-0.3129 0.667,-0.5253 1.083,-0.6056 1.643,-0.3202 3.213,-0.8668 4.382,-2.117 1.86,-1.9905 2.23,-4.5856 1.572,-7.2018 z m -61.7938,1.8364 c 0.025,-0.0119 -0.0211,0.2028 -0.0408,0.303 -0.004,-0.1515 0.0039,-0.2859 0.0408,-0.303 z m 0.1594,1.233 c 0.0132,-0.0092 0.0527,0.0435 0.0935,0.1067 -0.0619,-0.058 -0.1014,-0.1014 -0.0948,-0.1067 z m 0.1568,0.2068 c 0.0566,0.0962 0.0869,0.1568 0,0 z m 0.3148,0.2556 h 0.0079 c 0,0.0092 0.0145,0.0184 0.0198,0.0276 -0.0088,-0.0101 -0.0185,-0.0194 -0.029,-0.0276 z m 55.1328,-0.3821 c -0.59,0.5612 -1.48,0.8221 -2.358,0.9525 -9.8538,1.4622 -19.851,2.2025 -29.8126,1.8758 -7.1293,-0.2437 -14.1836,-1.0354 -21.2418,-2.0326 -0.6916,-0.0975 -1.4411,-0.2239 -1.9167,-0.7337 -0.8958,-0.9617 -0.4558,-2.8982 -0.2226,-4.06 0.2134,-1.0644 0.6218,-2.4832 1.8877,-2.6347 1.976,-0.2318 4.2708,0.602 6.2257,0.8984 2.3536,0.3592 4.716,0.6468 7.0872,0.8629 10.1196,0.9221 20.4092,0.7785 30.4841,-0.5704 1.836,-0.2468 3.666,-0.5335 5.489,-0.8602 1.625,-0.2912 3.425,-0.8378 4.407,0.8444 0.673,1.146 0.762,2.6794 0.658,3.9743 -0.032,0.5642 -0.278,1.0949 -0.689,1.4833 z"
         fill="#0d0c22"
         id="path235" />
    </g>
    <path
       d="m 115.71132,103.66805 q -0.448,-0.89617 -1.53599,-1.14058 -1.088,-0.24441 -3.32801,-0.0815 -0.896,0.16294 -1.856,-0.16294 -0.96,-0.32588 -1.536,-0.97764 -0.576,-0.65176 -0.448,-1.30352 0.064,-0.977644 1.792,-2.118227 1.728,-1.140583 4.48,-1.222054 l 2.68801,-0.08147 0.64,-1.629404 q 0.256,-0.896172 0.384,-1.955285 0.19199,-1.059113 0.64,-2.932928 0.256,-1.140583 0.768,-3.177338 0.512,-2.036756 1.088,-4.317921 0.576,-2.362637 1.024,-4.236451 0.448,-1.873815 0.576,-2.607047 0.256,-0.733232 0.704,-2.444106 0.448,-1.792345 0.832,-3.584689 0.448,-1.873815 0.576,-2.688517 1.664,-6.436148 2.176,-8.961724 0.512,-2.607047 0.256,-2.688517 -0.256,0 -1.216,0.08147 -0.96,0.08147 -2.112,0.244411 -1.152,0.08147 -2.048,0.244411 -0.896,0.162941 -1.08801,0.325881 -0.31999,0.570291 -1.08799,-0.16294 -0.768,-0.814702 -0.96,-1.629406 -0.064,-0.733231 0,-1.384992 0.064,-0.651762 0.384,-0.896173 0.448,-0.488821 1.856,-1.059113 1.408,-0.651762 3.136,-1.140583 1.792,-0.488821 3.264,-0.733231 1.088,-0.162941 2.17601,-0.570292 1.08799,-0.488822 1.72799,-1.140583 0.576,-0.24441 1.08801,-0.407352 0.576,-0.16294 1.152,-0.08147 0.512,0.40735 1.728,0.40735 1.28,0 2.688,-0.08147 3.584,-0.407351 4.99201,0.325881 1.472,0.651762 1.92,1.792345 0.31999,1.547934 -0.12801,2.607046 -0.448,0.977643 -1.536,0.896173 -0.576,0.16294 -1.6,0.325881 -1.024,0.08147 -2.688,0.16294 -4.22401,0.488821 -4.544,1.140583 -0.25601,0.325881 -0.448,0.651762 -0.128,0.32588 -0.384,0.733232 0.064,0.325881 -0.32001,1.955285 -0.31999,1.547934 -0.83199,3.340278 -0.25601,1.059113 -0.768,3.014398 -0.512,1.955285 -1.088,4.073511 -0.512,2.036755 -0.96,3.74763 -0.448,1.629404 -0.64001,2.199695 -0.256,0.733232 -0.448,1.629405 -0.128,0.814702 -0.192,1.222052 -0.896,3.992041 -1.536,6.680558 -0.57599,2.688517 -1.024,4.725273 -0.448,1.955285 -0.832,3.8291 -0.384,1.792344 -0.896,4.07351 0,0 1.088,-0.08147 1.08801,-0.16294 2.752,-0.325881 3.008,-0.40735 4.09601,-0.488821 1.088,-0.08147 1.27999,0.244411 0.19201,0.24441 0.384,0.977643 1.28001,2.199696 -0.19199,3.66615 -1.408,1.46647 -4.99201,1.385 -3.328,0.16294 -4.928,0.24441 -1.536,0.16294 -1.984,0.40735 -0.448,0.24441 -0.448,0.8147 0.064,1.30353 -1.28,1.54794 -1.28,0.32588 -2.43201,-1.22206 z"
       style="font-weight:bold;font-size:72.2087px;line-height:1.25;font-family:Caveat;-inkscape-font-specification:'Caveat Bold';fill:#0d0c23;stroke-width:1.12826"
       id="path23055" />
    <path
       d="m 158.01524,98.372485 q -1.408,-0.16294 -2.368,-0.733231 -0.896,-0.651762 -1.472,-2.525577 -0.25601,-1.303523 -0.25601,-2.688517 0.064,-1.466464 0.19201,-2.769987 0.128,-1.384994 0.128,-2.362637 0,-0.16294 0,-0.651761 0,-0.488821 0,-0.896173 -0.128,-1.222052 -0.512,-1.466464 -0.32001,-0.32588 -1.152,0.08147 -1.344,0.814702 -2.94401,2.199695 -1.536,1.303524 -3.26399,3.095869 -1.66401,1.710875 -3.45601,3.666159 -1.408,1.955285 -2.112,3.177339 -0.64,1.222052 -1.344,1.222052 -0.512,0.325881 -1.088,-0.16294 -0.576,-0.488821 -1.21601,-1.140583 -0.448,-0.651762 -1.08799,-1.629404 -0.576,-1.059113 -0.704,-1.384994 0,-1.303523 0.128,-2.362635 0.19199,-1.059113 0.512,-2.199696 0.384,-1.140583 0.896,-2.607048 0.25599,-0.570291 0.448,-1.140583 0.25599,-0.651761 0.576,-1.384992 0.256,-1.140583 0.70399,-2.607048 0.51201,-1.466464 0.96,-2.769987 0.70401,-2.118225 1.08801,-3.666159 0.384,-1.547935 0.64,-3.340279 -0.064,-0.162941 0.064,-0.488821 0.12801,-0.325881 0.384,-0.407351 h 0.064 0.064 q 0.448,-0.407351 1.66399,-0.08147 1.28001,0.24441 1.92,0.896172 1.34401,1.466465 1.28001,3.8291 -0.064,2.362636 -1.92,6.191736 -0.448,1.303524 -0.96,2.444108 -0.448,1.059112 -0.448,1.466463 0,0 0.512,-0.488821 0.512,-0.488821 1.21599,-1.140584 0.70401,-0.733231 1.21601,-1.140583 0.32,-0.40735 1.408,-1.466463 1.088,-1.140583 2.368,-2.362637 1.28,-1.222052 2.048,-1.873814 0.704,-0.651761 1.792,-1.303523 1.088,-0.733232 1.344,-0.733232 0.64,0 1.536,0.570292 0.96,0.57029 1.728,1.384992 0.832,0.733233 0.96,1.384994 0,0.325881 -0.064,0.896172 -0.064,0.488821 -0.064,0.896173 -0.064,1.303523 -0.064,3.177338 0.064,1.792345 0.064,3.66616 0,1.792344 -0.256,3.258808 0,0 0.064,0.16294 0.064,0.08147 0.12799,0.325881 -0.064,0.08147 -0.064,0.325881 0.064,0.16294 0.064,0.16294 0.128,0.570292 0.256,1.140583 0.192,0.570292 0.448,1.303524 0.256,0.651762 0.57601,1.710874 -0.064,1.059113 -0.96,2.118226 -0.83201,0.977643 -1.66401,1.222053 z"
       style="font-weight:bold;font-size:72.2087px;line-height:1.25;font-family:Caveat;-inkscape-font-specification:'Caveat Bold';fill:#0d0c23;stroke-width:1.12826"
       id="path23057" />
    <path
       d="m 173.11923,98.209545 q -0.64001,0.570291 -1.60001,0.651761 -0.89599,0 -1.6,-0.896172 -1.21599,-1.466463 -2.11199,-5.784384 -0.89601,-4.399392 -0.89601,-11.894652 0.256,-3.340279 0.256,-6.191736 0.064,-2.851458 0.064,-3.177339 0.70399,-0.570291 1.79199,-0.325881 1.15201,0.162941 1.856,0.570292 0.64001,0.407352 0.89601,1.222054 0.32,0.814702 0.384,2.932927 0.12799,2.036756 0.12799,6.273206 -0.19199,3.258809 -0.25599,5.214094 -0.064,1.955285 0.128,2.281166 0.25599,0.570292 0.25599,0.651761 0,0 0.96,-1.222052 0.51201,-0.896173 1.08801,-2.362636 0.64,-1.466464 1.088,-2.362637 0.70399,-1.140583 1.28,-2.199696 0.64,-1.059112 0.896,-1.384993 0.256,-0.651761 0.64,-1.222053 0.384,-0.570292 0.64,-1.140583 0.704,-1.547934 1.472,-2.525577 0.768,-1.059113 1.024,-1.059113 0.256,0.244411 0.96,-0.08147 0.704,-0.407351 0.96,-0.407351 0.448,-0.570291 1.216,0 0.256,0.244411 0.44801,0.570292 0.19199,0.24441 0.19199,0.570291 0,0.407351 -0.384,2.036755 -0.31999,1.547935 -0.83199,3.095868 -0.448,1.466465 -0.76801,1.710875 0,0 -0.19199,0.244411 -0.19201,0.24441 -0.44801,0.570291 -0.128,0.570292 -0.896,2.118225 -0.704,1.466465 -1.792,3.421749 -1.024,1.873816 -2.112,3.74763 -1.088,1.792345 -1.92,3.177338 -0.64001,1.140583 -1.472,2.036756 -0.832,0.814702 -1.344,1.140583 z"
       style="font-weight:bold;font-size:72.2087px;line-height:1.25;font-family:Caveat;-inkscape-font-specification:'Caveat Bold';fill:#0d0c23;stroke-width:1.12826"
       id="path23059" />
    <path
       d="m 186.62319,98.942777 q -0.512,-0.651762 -0.768,-1.955285 -0.192,-1.303524 -0.12799,-2.525577 0.064,-1.303523 0.31999,-1.955285 0,-0.651761 0.12801,-0.977643 0.19199,-0.407351 0.128,-0.733231 -0.064,-0.325881 0.12799,-1.140583 0.192,-0.814702 0.38401,-1.547935 0.448,-1.303523 1.02399,-3.340278 0.576,-2.118226 1.152,-4.236451 0.57601,-2.199696 0.96,-3.74763 0.384,-1.629404 0.448,-1.955285 0,-0.977642 1.02401,-1.059113 0.768,-0.325881 1.85599,0.814702 1.08801,1.140584 1.72801,2.444107 0.512,0.651762 0.384,1.710874 -0.128,1.059113 -0.832,3.014398 -0.256,0.651761 -0.64,2.199696 -0.32,1.466463 -0.448,2.444106 -0.256,0.651761 -0.64001,1.873815 -0.31999,1.140583 -0.576,2.199696 -0.12799,0.40735 -0.25599,1.547933 -0.12801,1.059113 -0.32,2.199696 -0.192,1.140583 -0.512,1.792346 -0.576,3.340277 -2.048,3.910569 -1.408,0.570291 -2.49601,-0.977642 z m 8.70401,-34.054549 q -0.57601,-0.407351 -0.768,-1.710874 -0.192,-1.303524 -0.064,-2.607047 0.064,-0.407351 0.832,-1.629404 0.832,-1.303524 1.984,-2.851457 1.216,-1.547935 2.368,-2.769988 1.216,-1.303524 1.984,-1.547934 0.89601,-0.08147 1.664,1.140583 0.768,1.140583 0.832,2.851458 0,0.896171 -0.63999,1.792344 -0.64001,0.896172 -1.60001,1.873815 -0.96,0.896172 -1.984,1.955285 -0.96,0.977643 -1.6,2.036756 -0.64,1.303523 -1.408,1.710873 -0.768,0.407352 -1.6,-0.24441 z"
       style="font-weight:bold;font-size:72.2087px;line-height:1.25;font-family:Caveat;-inkscape-font-specification:'Caveat Bold';fill:#0d0c23;stroke-width:1.12826"
       id="path23061" />
    <path
       d="m 203.13509,100.40924 q -0.70399,-0.16294 -1.536,-1.059113 -0.832,-0.977642 -1.53599,-2.118225 -0.64,-1.222052 -0.83201,-2.036755 0,-0.162941 -0.19199,-0.407351 -0.12801,-0.244411 -0.12801,-0.244411 -0.256,-0.24441 -0.31999,-2.118225 0,-1.955285 0.19199,-4.317922 0.19201,-2.362636 0.448,-3.747629 0.32001,-1.303524 0.96,-3.503219 0.64001,-2.281167 1.088,-4.073511 l 1.72801,-4.725272 -2.56,-0.896173 q -0.448,-0.16294 -0.76801,-0.651761 -0.25599,-0.488821 -0.25599,-0.814702 0,-0.651762 0.576,-1.873815 0.576,-1.222054 0.832,-1.222054 0.31999,0.08147 1.152,0.08147 0.896,0 1.728,-0.08147 0.832,-0.08147 1.024,-0.16294 0.256,-0.162941 0.512,-0.407351 0.256,-0.325881 0.384,-0.896173 0.32,-0.896171 0.576,-1.384992 0.256,-0.488822 0.704,-1.466465 0.448,-1.059112 0.704,-1.792345 0.32,-0.733231 0.96,-2.036755 0.32,-0.570291 0.704,-1.384993 0.384,-0.814702 0.96,-1.384994 0.576,-0.651762 1.856,-0.896173 1.344,-0.325881 2.30401,0.733233 0.51199,0.814702 0.57599,1.547934 0.064,0.733231 -0.512,1.873815 -0.512,1.384993 -1.216,2.525576 -0.64,1.059113 -1.216,2.444107 -1.024,1.792344 -0.384,2.036754 0.64,0.244412 3.58401,-0.32588 1.85599,-0.407351 2.68799,0.488821 0.83201,0.896173 0.96,2.281167 0.19201,1.955284 -0.31999,2.362635 -0.51201,0.407351 -2.94401,0.407351 -1.536,0.325881 -2.624,0.407352 -1.08799,0 -1.59999,0 -0.83201,0.08147 -1.08801,0.08147 -0.256,0 -0.768,0.16294 -0.512,0.16294 -0.768,0.570292 -0.192,0.325881 -0.448,0.977642 -0.256,0.325881 -0.768,1.710875 -0.512,1.384993 -1.28,3.014397 -0.896,3.42175 -1.536,6.599088 -0.57601,3.095868 -1.024,6.191735 -0.192,1.547935 0.064,2.281167 0.31999,0.651762 1.664,0.814702 0.704,0.08147 2.048,0 1.344,-0.16294 2.24,-0.488821 0.70401,-0.407352 1.472,-0.814702 0.768,-0.488821 1.408,-0.977643 0.576,-0.407351 1.15201,-0.814703 0.576,-0.488821 0.576,-0.488821 0.31999,-0.651762 0.896,0.244411 0.64,0.814702 0.896,1.792345 0,0.977642 -0.32,2.362636 -0.32001,1.303523 -2.36801,2.769987 -2.88,2.281167 -5.76,2.769987 -2.88,0.48882 -4.54401,0.0815 z"
       style="font-weight:bold;font-size:72.2087px;line-height:1.25;font-family:Caveat;-inkscape-font-specification:'Caveat Bold';fill:#0d0c23;stroke-width:1.12826"
       id="path23063" />
    <path
       d="m 221.31107,98.616896 q -0.256,-0.651762 -1.152,-1.303523 -0.832,-0.651762 -0.832,-0.977644 0,-0.325879 -0.32,-0.977642 -0.256,-0.733231 -0.512,-1.059112 -0.32,-0.488821 0.192,-2.362637 0.512,-1.955284 1.536,-4.725272 1.02401,-2.769987 2.24,-5.621445 0.512,-0.651761 1.024,-1.710873 0.512,-1.059114 0.768,-1.384994 0,-0.325881 0.192,-0.570292 0.19201,-0.325881 0.448,-0.325881 l 0.512,-1.303523 q 0.12801,-0.325881 0.76801,-1.303524 0.70399,-0.977642 1.66399,-2.118225 0.96,-1.222053 1.92,-2.281167 1.02401,-1.059112 1.66401,-1.547933 1.344,-1.140583 2.752,-1.059113 1.472,0.08147 2.496,1.140583 0.192,0.244411 0.83201,0.977642 0.70399,0.733233 1.53599,1.629405 0.89601,0.896172 1.536,1.629404 l 2.36801,2.688518 -1.088,4.07351 q -0.83201,3.258808 -0.448,5.702915 0.38399,2.444106 1.21599,4.23645 0.32001,0.896173 0.832,1.384994 0.576,0.488821 1.472,0.651762 0.512,0.08147 0.96001,0.488821 0.448,0.407352 0.448,1.303523 0,1.955285 -0.576,2.851458 -0.512,0.814702 -1.15201,0.977642 -2.112,0.325881 -4.032,-0.570291 -1.92,-0.896172 -3.456,-4.643802 -0.256,-0.488822 -0.704,-1.792345 -0.384,-1.384993 -0.448,-1.792345 -0.256,0.407352 -0.704,1.059114 -0.384,0.570291 -0.768,1.059112 -4.544,5.865855 -7.80801,7.6582 -3.2,1.710874 -5.376,-0.08147 z m 3.52,-6.762027 q 0.448,0.08147 1.408,-0.570292 0.96,-0.733232 2.56,-2.362637 2.17601,-2.362636 3.58401,-3.910569 1.408,-1.547935 2.752,-3.992041 l 1.408,-2.932928 q -0.64,-1.873814 -1.152,-2.444106 -0.512,-0.570292 -1.024,-0.570292 -0.832,0 -1.984,1.384994 -1.15201,1.303523 -2.62401,3.910571 -1.408,2.525576 -3.19999,6.354676 -0.83201,1.792345 -1.28001,3.503219 -0.448,1.629405 -0.448,1.629405 z"
       style="font-weight:bold;font-size:72.2087px;line-height:1.25;font-family:Caveat;-inkscape-font-specification:'Caveat Bold';fill:#0d0c23;stroke-width:1.12826"
       id="path23065" />
    <path
       d="m 250.11104,97.313373 q -0.192,-0.325881 -0.832,-0.814702 -0.64001,-0.488821 -0.64001,-0.814703 0,-0.162941 -0.064,-0.407351 0,-0.244411 -0.25599,-0.244411 -0.19201,-0.24441 0.192,-1.792344 0.448,-1.547935 1.152,-3.66616 0.768,-2.118225 1.6,-4.07351 0.832,-2.036756 1.408,-3.258809 0.31999,-0.24441 0.384,-0.651762 0.128,-0.488821 0,-0.488821 0,0 0.32,-0.733231 0.384,-0.814702 0.576,-1.059113 0.512,-1.140583 0.768,-2.281166 0.256,-1.222054 0.128,-2.036756 -0.256,-0.407351 -0.576,-0.244411 -0.32,0.162941 -0.32,0.162941 -0.256,0.08147 -0.768,0.325882 -0.448,0.16294 -0.832,0.488821 -1.472,1.303523 -2.176,1.303523 -0.64,0 -1.28,-1.955286 -0.25601,-0.896172 -0.19201,-1.710874 0.064,-0.814702 0.51201,-1.303523 0.512,-0.570292 1.28,-1.140584 0.768,-0.651761 1.02399,-0.896171 0.70401,-0.570292 1.98401,-1.222054 1.28,-0.651762 1.536,-0.733231 1.664,-0.651762 2.81601,0 1.15199,0.570291 1.72799,2.281165 0.896,1.384994 0.896,2.932928 0,1.547934 -0.896,3.8291 l -0.64,1.222053 q -0.32,0.814702 -0.12799,0.814702 0.25599,0 0.576,-0.570292 0.19199,-0.325881 0.76799,-0.977642 0.57601,-0.651762 0.768,-0.651762 0,0 0.128,-0.08147 0.19201,-0.08147 0.19201,-0.651762 0.19199,-0.24441 0.38399,-0.488821 0.256,-0.24441 0.256,-0.24441 0.25601,0 0.64,-0.325881 0.448,-0.407352 1.472,-1.466464 0.70401,-0.651761 1.28001,-0.651761 1.472,-0.570292 2.368,1.222052 0.96,1.792345 0.96,4.643802 l -1.344,4.399392 2.304,-3.58469 q 0.384,-0.651761 0.768,-1.140583 0.448,-0.488821 0.768,-0.814702 0.128,-0.570292 0.384,-0.651761 0.256,-0.08147 0.256,-0.08147 0,0 0.128,0 0.128,-0.08147 0.128,-0.325881 0.32,-0.325881 0.70401,-0.570291 0.38399,-0.325881 0.51199,-0.651761 1.088,-0.570292 2.624,-0.162941 1.536,0.325881 2.17601,2.036755 0.448,0.977642 0.83199,1.710875 0.384,0.733232 0.384,2.199695 -0.12799,1.222053 -0.25599,1.710874 -0.064,0.488822 -0.12801,1.059113 -0.064,0.488822 -0.192,1.792345 -0.256,0.651761 -0.32,1.384994 0,0.733232 0,1.384994 0,1.059112 0.064,1.466463 0.064,0.325881 0.512,0.325881 0.896,-0.244411 1.472,-0.733232 0.64,-0.570291 1.408,-1.466464 0.96,-1.140583 1.664,-0.325881 0.768,0.733233 0.96,1.710875 0.128,0.325881 -0.256,1.466464 -0.384,1.140583 -0.896,2.199696 -0.512,1.059112 -0.832,1.059112 -0.192,0 -0.76801,0.651761 -0.57599,0.651763 -0.89599,0.896173 -0.448,0.570292 -0.896,1.059113 -0.384,0.488821 -0.896,0.488821 -0.25601,0 -0.64001,0.244411 -0.31999,0.16294 -0.76799,0.16294 -0.64,0.244411 -1.984,-0.24441 -1.28001,-0.488821 -1.66401,-2.281167 -0.25599,-0.896171 -0.76799,-2.281165 -0.448,-1.384993 -0.19201,-3.421749 0.256,-1.466464 0.32,-2.688517 0.064,-1.222054 0.256,-1.710875 0,-0.24441 0,-1.140583 0,-0.977642 -0.192,-0.977642 -0.256,0 -0.96,0.814702 -0.70399,0.814702 -1.66399,2.199696 -0.96001,1.303523 -1.98401,2.851457 -0.96,1.547934 -1.728,3.095868 -0.576,0.896173 -1.024,2.199696 -0.448,1.303523 -0.64001,1.466464 -0.448,0.651761 -1.53599,0.16294 -1.024,-0.488821 -1.536,-1.547934 -0.192,-0.488821 -0.448,-0.570291 -0.25601,-0.162941 -0.44801,-0.488821 -0.12799,-0.407352 0,-1.547935 0.192,-1.140582 0.83201,-3.666159 0.70399,-2.769987 1.21599,-4.969683 0.57601,-2.281166 0.57601,-2.281166 0,-0.325881 -0.96,0.651762 -0.96,0.896173 -2.24,2.281166 -0.576,0.896172 -1.536,2.281165 -0.896,1.384994 -2.11201,3.258809 -1.152,1.873814 -2.624,4.399391 -1.856,3.340279 -2.816,4.073511 -0.896,0.733232 -1.6,-0.407351 z"
       style="font-weight:bold;font-size:72.2087px;line-height:1.25;font-family:Caveat;-inkscape-font-specification:'Caveat Bold';fill:#0d0c23;stroke-width:1.12826"
       id="path23067" />
    <path
       d="m 293.95103,101.79423 q -3.52001,0 -5.44001,-2.607043 -1.856,-2.607047 -1.856,-7.984081 0,-2.932927 0.832,-6.436146 0.896,-3.50322 2.304,-6.843498 1.472,-3.340279 3.20001,-5.784385 1.72799,-2.525577 3.456,-3.503219 0.64,-0.407351 1.344,-0.570291 0.768,-0.244411 1.472,-0.244411 0.768,0 1.664,0.16294 0.96,0.08147 1.792,0.488821 1.472,0.570292 2.56,2.199696 1.15201,1.629404 1.15201,4.725273 0,0.814702 -0.12801,1.792344 -0.128,0.896172 -0.448,1.792345 -0.832,2.688517 -2.56,5.132623 -1.664,2.444106 -3.52,3.42175 -0.512,0.325879 -1.024,0.488821 -0.448,0.08147 -0.96,0.08147 -1.344,0 -2.432,-0.488821 -1.02401,-0.488821 -1.92,-1.303523 l -0.51201,-0.570292 -0.31999,0.814703 q -0.448,1.547933 -0.64001,2.607047 -0.128,1.059113 -0.128,1.547934 0,0.977642 0.064,2.036754 0.064,0.977643 0.384,1.629406 0.25601,0.40735 0.64001,0.651761 0.448,0.24441 1.088,0.24441 0.384,0 0.70399,0 0.38401,-0.08147 0.64001,-0.16294 1.152,-0.325881 1.856,-1.059112 0.768,-0.814703 1.6,-1.384994 l 0.256,-0.162941 -0.064,-0.244411 q 1.08799,-0.733231 1.472,-0.896171 0.384,-0.244412 0.576,-0.407352 0.256,-0.325881 0.576,-0.325881 0.896,-0.16294 1.728,0.651762 0.896,0.733232 0.896,1.873815 0,0.488821 -0.576,1.547934 -0.512,1.059112 -1.344,2.118226 -0.768,0.977642 -1.6,1.547934 -0.192,0.08147 -0.384,0.24441 -0.192,0.08147 -0.384,0.244411 h 0.064 q -0.576,0.977643 -1.152,0.977643 h -0.512 q -0.256,0.570289 -1.66401,1.222049 -1.40799,0.73324 -2.75199,0.73324 z m 3.328,-19.634317 q 0.576,0 1.024,-0.244411 0.512,-0.24441 0.96,-0.570291 1.536,-1.384994 1.984,-3.58469 0.448,-2.199696 -0.32,-3.340279 -0.128,-0.24441 -0.32,-0.32588 -0.192,-0.162941 -0.448,-0.162941 -0.704,0 -1.6,0.570292 -0.83201,0.570291 -1.664,1.629404 -0.832,1.059113 -1.536,2.525577 l -0.832,1.710875 q 0.128,-0.08147 0.19199,-0.08147 0.128,-0.08147 0.19201,-0.08147 0.576,0 0.76799,0.488822 0.19201,0.488821 0.44801,0.977643 0.32,0.488821 1.152,0.488821 z"
       style="font-weight:bold;font-size:72.2087px;line-height:1.25;font-family:Caveat;-inkscape-font-specification:'Caveat Bold';fill:#0d0c23;stroke-width:1.12826"
       id="path23069" />
    <path
       d="m 328.12693,98.861306 q -0.76799,0.244411 -1.72799,-0.570291 -0.96,-0.814702 -1.72801,-2.036755 -0.76799,-1.222054 -0.96,-2.199696 -0.25599,-1.710874 0.128,-4.154981 0.448,-2.525577 1.472,-5.295564 1.02401,-2.851457 2.56001,-5.539973 1.53599,-2.769988 3.456,-4.969684 1.92,-2.199695 4.16,-3.421749 0.96,-0.651761 1.344,-0.814702 0.384,-0.244411 0.768,0 0.384,0.162941 1.344,0.814702 0.896,0.325881 1.79201,0.814702 0.96,0.407352 1.66399,1.629404 0.512,1.222054 0.76801,2.444106 0.25599,1.222054 0.448,2.769988 0.512,2.036756 0.384,2.688517 -0.12801,0.570291 -0.384,0.896172 -0.512,0.814702 -0.25601,0.814702 0,0 -0.064,0.325881 0,0.244411 -0.256,0.814703 -0.448,1.792344 -0.704,3.421748 -0.192,1.547935 0.064,2.769987 0.512,1.792346 1.344,2.118227 0.89601,0.32588 2.30401,-1.466465 0.70399,-0.651762 1.59999,-0.814702 0.89601,-0.24441 0.89601,0.407351 0,0 0.19199,0.244411 0.19201,0.16294 0.448,0.16294 0.32001,0 0.25601,0.814702 -0.064,0.733232 -0.25601,1.710875 -0.19199,0.977642 -0.512,1.629404 -0.96,1.222053 -0.96,1.629405 0,0 -0.25599,0.325881 -0.19201,0.24441 -0.70401,0.814702 -1.15199,0.896171 -2.944,0.896171 -1.728,0 -2.688,-0.896171 -0.96,-0.896173 -1.92,-2.199696 -0.896,-1.303524 -1.152,-2.444106 l -0.32,-0.814702 -1.856,1.547933 q -0.704,0.896173 -1.02401,1.384994 -0.31999,0.40735 -0.57599,0.733231 -0.192,0.325882 -0.448,0.570292 -0.192,0.244411 -0.44801,0.244411 -0.25599,0 -0.448,0 -0.19199,0 -0.19199,0 0,0.325881 -0.896,0.896172 -0.89601,0.488821 -1.984,0.896173 -1.088,0.40735 -1.72801,0.40735 z m 1.344,-6.843498 q 0.38401,0 1.15201,-0.570291 0.83199,-0.651761 1.79199,-1.547934 0.96,-0.896172 1.72801,-1.792345 0.832,-0.896172 1.216,-1.466463 0.256,-0.325881 0.576,-1.059113 0.384,-0.733232 0.832,-1.303524 1.472,-2.118225 1.856,-3.340278 0.384,-1.303524 -0.32,-2.769987 -0.256,-0.896173 -0.64,-0.977643 -0.384,-0.08147 -1.6,0.570291 -0.768,0.570292 -1.664,1.873815 -0.896,1.303524 -1.856,2.932928 -0.896,1.629405 -1.66401,3.340278 -0.76799,1.710875 -1.28,3.095869 -0.44799,1.384993 -0.44799,2.199695 0,0.325881 0.128,0.570292 0.19199,0.24441 0.19199,0.24441 z"
       style="font-weight:bold;font-size:72.2087px;line-height:1.25;font-family:Caveat;-inkscape-font-specification:'Caveat Bold';fill:#0d0c23;stroke-width:1.12826"
       id="path23071" />
    <path
       d="m 381.7588,100.16483 q -0.64,-0.814703 -1.024,-2.199696 -0.384,-1.466463 -0.768,-3.340278 -0.128,-0.651762 -0.128,-1.466464 0.064,-0.814702 0,-1.303523 -0.192,0.570291 -0.64,1.466463 -0.384,0.896172 -0.768,1.303524 -0.256,0.32588 -1.152,1.303523 -0.896,0.896173 -1.792,1.466463 -2.112,1.710875 -3.776,1.629405 -1.60001,-0.162941 -2.816,-2.118226 -1.02401,-1.059113 -1.66401,-2.688517 -0.63999,-1.629404 -0.25599,-3.91057 0.128,-2.851457 0.63999,-5.539974 0.512,-2.769987 2.112,-7.33232 1.344,-3.340278 2.04801,-5.214092 0.704,-1.873816 0.896,-2.199696 0.96,-0.407352 2.36799,0.08147 1.40801,0.407351 1.53601,1.547934 0.384,0.814702 0,3.095868 -0.384,2.199695 -1.53601,5.051153 -0.89599,2.769988 -1.72799,5.377034 -0.76801,2.607047 -0.96,4.399391 -0.128,1.792346 0.76799,2.199696 0.57601,0.407352 1.66401,-0.08147 1.152,-0.488821 2.688,-2.932928 1.536,-2.444106 3.264,-7.73967 0.512,-1.629404 0.768,-2.851457 0.256,-1.303523 0.32001,-2.851458 -0.12801,-0.977642 0.38399,-2.036755 0.57601,-1.059112 1.344,-1.629404 0.25601,-0.407351 0.70401,-0.733232 0.448,-0.407351 0.576,0 l 1.02399,-0.08147 q 0.25601,-0.08147 0.576,0.651761 0.32001,0.733233 0.64001,1.059112 0.704,0.733233 0.64,3.177339 -0.064,2.444107 -1.536,6.843498 -1.21601,3.340278 -1.66401,5.051153 -0.384,1.710875 -0.448,3.340279 0,1.466464 0.19201,2.525577 0.19199,0.977642 1.15199,2.036754 0.70401,0.570292 0.76801,1.955286 0.128,1.303523 0.064,2.281166 -0.128,0.733231 -1.024,0.977641 -0.83201,0.32588 -1.856,0.16294 -0.96001,-0.16294 -1.6,-0.73323 z"
       style="font-weight:bold;font-size:72.2087px;line-height:1.25;font-family:Caveat;-inkscape-font-specification:'Caveat Bold';fill:#0d0c23;stroke-width:1.12826"
       id="path23073" />
    <path
       d="m 393.66273,97.557783 q -0.256,0 -1.216,-0.570291 -0.96,-0.651763 -1.216,-0.977642 -0.448,-0.651763 -0.576,-1.384994 -0.128,-0.814702 -0.128,-3.095869 0,-2.607047 0.832,-5.865855 0.832,-3.340278 2.816,-8.880253 l 2.62401,-6.762027 q 0.32,-0.570292 0.57599,-0.977643 0.25601,-0.488821 0.576,-0.896173 0.12801,0 0.32001,0 0.25599,0 0.384,0.08147 0.576,0.08147 1.792,0.896172 1.28,0.814702 1.536,2.444107 0,1.059112 -0.256,2.525577 -0.256,1.384993 -1.536,3.666158 -0.512,0.814702 -1.024,2.362637 -0.448,1.547934 -0.83201,2.932928 -0.064,0.16294 -0.384,0.814702 -0.25599,0.570291 -0.512,1.222052 -0.25599,0.570292 -0.25599,0.733233 l -0.25601,0.733231 2.75201,-3.421748 q 2.88,-3.66616 4.864,-5.214094 1.984,-1.547934 3.328,-1.303524 1.408,0.244412 2.24001,2.036756 0.448,0.814702 0.63999,1.792344 0.192,0.896173 0.25601,2.118227 0.064,1.222052 -0.064,3.095867 v 4.643802 q 1.216,-0.407351 1.856,-0.651761 0.64,-0.325881 1.28001,-0.570292 0.51199,-0.162941 1.02399,-0.325881 0.576,-0.16294 1.40801,-0.24441 -0.064,1.059112 -0.70401,2.607046 -0.64,1.547935 -1.6,3.095868 -0.896,1.547934 -1.984,2.607048 -1.024,1.059112 -1.92,1.059112 -0.832,0 -1.92,-0.651762 -1.088,-0.733231 -1.856,-2.769987 -0.256,-1.059113 -0.512,-2.444106 -0.256,-1.384994 -0.256,-2.932928 v -3.584689 q 0,-0.488821 -0.064,-0.651762 0,-0.244411 -0.064,-0.244411 -0.256,0 -1.664,1.710875 -1.344,1.710875 -2.752,3.584689 -2.944,3.910571 -4.928,5.784386 -1.92,1.873814 -2.62401,1.873814 z"
       style="font-weight:bold;font-size:72.2087px;line-height:1.25;font-family:Caveat;-inkscape-font-specification:'Caveat Bold';fill:#0d0c23;stroke-width:1.12826"
       id="path23075" />
    <path
       d="m 442.94266,100.65365 q -1.85599,0.40735 -3.71199,-0.40735 -1.792,-0.814702 -3.00801,-2.607046 -1.152,-1.873816 -1.152,-4.480862 -0.19199,-2.444107 0.32001,-5.784386 0.576,-3.421748 1.66399,-6.843497 1.15201,-3.421749 2.62401,-5.784386 1.27999,-1.955285 2.56,-3.584689 1.28,-1.629404 2.304,-2.199696 0.896,-0.488821 2.176,-0.733231 1.344,-0.325881 1.856,-0.325881 1.024,0.325881 2.24,1.059112 1.28001,0.733233 1.28001,1.710875 0,0 0.128,0.24441 0.19199,0.162942 0.19199,0.162942 0.384,0 0.83201,1.222052 0.51199,1.140583 0.768,2.688517 0.25599,1.466464 -0.12801,2.362637 -0.25599,1.547933 -1.024,3.014398 -0.70399,1.466463 -1.21599,1.466463 -0.25601,0 -0.512,0.08147 -0.19201,0 -0.19201,0.407352 0,0.40735 -0.70399,0.40735 -0.64001,0 -1.34401,-0.325881 -0.704,-0.325881 -0.896,-0.977642 0,-0.407351 0.128,-1.059112 0.128,-0.651762 0.384,-2.199696 0.384,-2.281166 0.064,-3.014398 -0.31999,-0.814702 -1.6,-0.162941 -1.59999,1.140583 -2.624,2.688518 -1.024,1.466463 -1.856,4.15498 -0.768,2.688518 -1.728,7.49526 -0.384,1.873815 -0.128,2.932927 0.31999,1.059113 0.512,1.140583 0.896,0.325881 1.92,0.16294 1.088,-0.24441 1.792,-0.733231 1.024,-0.651761 1.792,-1.384994 0.832,-0.814702 1.792,-1.710875 0.32001,-0.24441 0.576,-0.896171 0.25601,-0.733233 0.76801,-1.059113 0.512,-0.977643 1.28,-0.977643 0.83199,-0.08147 1.6,-0.08147 0.512,0.16294 1.08799,0.814702 0.576,0.651761 0.83201,1.303524 0.32,0.570291 -0.064,0.814702 -0.25601,0 -0.32,0.24441 0,0.16294 0,0.16294 0.12799,0.325881 -0.576,1.466464 -0.64001,1.140583 -1.66401,2.444107 -1.024,1.303523 -1.984,2.281166 -0.896,0.896171 -1.28,0.896171 -0.64,0 -0.64,0.488823 0,0.16294 -0.96,0.814702 -0.896,0.651761 -2.112,1.303523 -1.152,0.651761 -2.04801,0.896171 z"
       style="font-weight:bold;font-size:72.2087px;line-height:1.25;font-family:Caveat;-inkscape-font-specification:'Caveat Bold';fill:#0d0c23;stroke-width:1.12826"
       id="path23077" />
    <path
       d="m 464.19057,99.187187 q -0.512,0.16294 -1.344,0.16294 -0.832,-0.08147 -1.472,-0.24441 -0.576,-0.244411 -0.576,-0.488821 0,-0.407351 -0.32,-0.407351 0,0 -0.704,-0.651762 -0.704,-0.733231 -1.28,-1.059112 -0.576,-1.140584 -0.768,-2.607048 -0.12801,-1.547933 0.768,-5.377033 0.064,-2.607048 1.152,-5.458505 1.088,-2.932927 2.752,-5.702914 1.664,-2.769988 3.45601,-4.888213 1.79199,-2.199696 3.19999,-3.258808 0.896,-1.140583 2.368,-1.222054 1.53601,-0.08147 2.68801,0.733232 0.64,0.407351 1.408,1.629404 0.768,1.222054 1.472,2.607047 0.704,1.303523 1.088,2.362636 0.192,0.896173 0.32,1.629404 0.192,0.651762 0.256,1.629404 0.064,0.977644 -0.128,2.932929 -0.32,1.466463 -0.576,3.014398 -0.192,1.466463 -0.192,3.014398 -0.128,1.547933 0.256,2.199694 0.448,0.651762 1.28,0.08147 0.768,-0.488821 1.6,-0.08147 0.832,0.325881 1.152,1.303524 0.384,0.896172 -0.192,2.362636 -0.384,1.059113 -1.21599,2.036756 -0.83201,0.977642 -1.85601,1.629404 -1.024,0.570292 -1.984,0.570292 -0.704,0 -1.408,-0.651762 -0.704,-0.733232 -1.28,-1.955286 -0.576,-1.222052 -0.96,-2.688516 l -0.384,-1.873815 -2.30401,2.688517 q -0.83199,1.140583 -1.66399,2.118225 -0.76801,0.896173 -0.96,1.303523 -0.32001,0.733233 -1.28001,1.303524 -0.896,0.570292 -2.368,1.303523 z m 1.728,-7.82114 q 1.088,-0.814702 1.85601,-1.955285 0.83199,-1.140583 1.59999,-2.525577 0.76801,-1.466464 1.66401,-3.095868 1.088,-1.873815 1.536,-3.014398 0.512,-1.140583 0.76799,-2.444106 -0.25599,-0.896173 -0.70399,-1.873815 -0.448,-1.059112 -0.896,-1.140583 -0.89601,0 -2.17601,1.384994 -1.21599,1.384993 -2.68799,3.992041 -0.25601,0.40735 -0.64001,1.303523 -0.38399,0.896172 -0.768,1.710875 -0.32,0.733231 -0.448,0.977642 -0.192,0.325881 -0.576,1.547933 -0.32,1.140583 -0.576,2.362637 -0.256,1.140582 -0.256,1.629404 0,0.488821 0.064,1.059113 0.128,0.570292 0.64001,0.733231 0.512,0.162942 1.59999,-0.651761 z"
       style="font-weight:bold;font-size:72.2087px;line-height:1.25;font-family:Caveat;-inkscape-font-specification:'Caveat Bold';fill:#0d0c23;stroke-width:1.12826"
       id="path23079" />
    <path
       d="m 487.87058,107.41568 q -0.832,0.0815 -1.664,-1.30352 -0.832,-1.385 -1.40801,-3.66616 -0.512,-2.28117 -0.512,-4.969687 -0.25599,-3.340279 0.44801,-8.147021 0.704,-4.806742 2.112,-11.24289 0.512,-2.199695 1.472,-5.377033 0.96,-3.177339 1.984,-6.273207 1.088,-3.095868 1.92,-5.214093 0.83201,-2.199696 1.024,-2.444106 0.38401,0.16294 0.38401,-0.733233 0,-0.16294 0.51199,-1.222053 0.512,-1.059112 0.96001,-2.281166 0.832,-1.547934 2.11199,-3.258808 1.34401,-1.792345 2.68801,-3.258809 1.408,-1.466464 2.432,-1.955285 0.96,-0.488821 1.92,-0.488821 1.216,0 2.624,1.059113 1.472,0.977643 2.49601,2.525576 1.08799,1.466463 1.08799,3.014398 0,1.303523 -0.448,2.525577 -0.19199,1.222053 -0.768,2.769986 -0.576,1.466465 -1.152,2.769988 -0.512,1.222053 -0.832,1.792345 -1.856,1.792344 -2.88,1.384994 -1.024,-0.407352 -0.704,-0.977644 0,-0.325881 0.192,-1.384993 0.192,-1.140582 0.256,-1.710874 0,-0.162941 0.256,-0.977643 0.32,-0.814702 0.32,-1.629404 0.576,-2.932928 0.512,-3.8291 0,-0.896173 -0.576,-0.896173 -0.32,-0.08147 -0.768,0.162941 -0.448,0.244411 -0.768,0.651761 -0.256,0.325881 -0.256,0.733233 0,0.24441 0,0.325881 0,0 0,0 -0.192,-0.08147 -1.152,1.384994 -0.896,1.384992 -2.04801,3.421748 -1.15199,1.955285 -1.92,3.584689 -0.512,1.384994 -1.15199,3.177338 -0.576,1.710875 -1.66401,5.295564 l -0.512,1.955286 1.024,0.16294 q 0.51201,0.08147 1.28,-0.08147 0.83201,-0.244411 1.85601,-0.488821 2.176,-0.407351 2.944,0.570292 0.832,0.896172 1.28,2.199695 0.704,1.955286 -0.768,2.688517 -1.472,0.651762 -6.33601,0.977643 -1.024,-0.162941 -1.792,-0.08147 -0.704,0 -0.96,0.325881 -0.256,0.16294 -0.704,1.792344 -0.448,1.547935 -0.96,3.74763 -0.448,2.118226 -0.704,4.073511 -0.512,2.525576 -0.64,5.458504 -0.128,2.851457 0,5.377034 0.128,2.444101 0.384,3.747631 0.384,1.95528 -0.64,2.85145 -1.024,0.97765 -1.792,1.385 z"
       style="font-weight:bold;font-size:72.2087px;line-height:1.25;font-family:Caveat;-inkscape-font-specification:'Caveat Bold';fill:#0d0c23;stroke-width:1.12826"
       id="path23081" />
    <path
       d="m 516.03056,98.698366 q -1.92,1.384994 -4.09601,1.629404 -2.112,0.16294 -3.968,-0.733232 -1.856,-0.977642 -3.008,-2.851457 -0.63999,-1.059113 -1.216,-3.340279 -0.576,-2.362636 -0.192,-6.354677 0.384,-3.747629 1.792,-7.576729 1.472,-3.8291 3.584,-6.762027 2.11201,-2.932929 4.60801,-3.992041 0.896,-0.407351 1.792,-0.570292 0.96,-0.24441 2.496,-0.08147 1.472,0.244411 2.624,0.977642 1.152,0.651763 1.664,1.466465 1.024,1.303523 1.344,2.525577 0.32,1.222052 0.256,2.362635 -0.32,2.607047 -1.856,5.621444 -1.472,3.014398 -4.16,4.480862 -1.088,0.570292 -2.56,0.733232 -1.472,0.162941 -4.032,-0.488821 -1.536,-0.407351 -2.04801,0.407352 -0.44799,0.814702 -0.38399,3.177337 0.12799,1.466465 0.512,2.607047 0.448,1.059113 1.59999,1.466464 1.472,0.325881 2.112,0.08147 0.64001,-0.325881 1.60001,-0.896173 0.512,-0.407351 0.96,-0.896173 0.512,-0.488821 0.96,-0.977642 0.512,-0.488821 0.832,-0.733231 0.32,-0.325881 0.64,-0.407352 0.32,-0.08147 0.64,-0.08147 0.704,0.08147 1.344,0.977644 0.64,0.896172 0.832,1.710874 0,0.651761 -0.64,1.873815 -0.64,1.140583 -1.728,2.444106 -1.024,1.222053 -2.304,2.199696 z m -0.83201,-18.167857 q 0.44801,-0.244411 1.28001,-1.140584 0.896,-0.896171 1.6,-1.873814 0.704,-1.059113 0.704,-1.629404 0,-0.896173 -0.96,-1.547934 -0.896,-0.651762 -2.368,-0.244411 -0.512,0.16294 -1.21601,0.896172 -0.70399,0.733233 -1.408,1.710875 -0.70399,0.896172 -1.21599,1.792345 -0.512,0.814702 -0.70401,1.303523 0.25601,0.407351 1.024,0.651761 0.768,0.244412 1.66401,0.244412 0.96,0 1.59999,-0.162941 z m 3.26401,-15.642281 q -0.576,-0.407351 -0.768,-1.710874 -0.192,-1.303524 -0.064,-2.607047 0.064,-0.407351 0.832,-1.629404 0.832,-1.303524 1.984,-2.851457 1.216,-1.547935 2.368,-2.769988 1.21601,-1.303524 1.984,-1.547934 0.896,-0.08147 1.66401,1.140583 0.76799,1.140583 0.832,2.851458 0,0.896171 -0.64001,1.792344 -0.63999,0.896172 -1.6,1.873815 -0.96,0.896172 -1.984,1.955285 -0.96,0.977643 -1.6,2.036756 -0.64,1.303523 -1.408,1.710873 -0.768,0.407352 -1.6,-0.24441 z"
       style="font-weight:bold;font-size:72.2087px;line-height:1.25;font-family:Caveat;-inkscape-font-specification:'Caveat Bold';fill:#0d0c23;stroke-width:1.12826"
       id="path23083" />
  </g>
</svg>
