<?xml version="1.0" encoding="UTF-8" standalone="no"?>
<svg
   width="150"
   height="50"
   viewBox="0 0 150 50"
   fill="none"
   version="1.1"
   id="svg247"
   sodipodi:docname="bmc-button.svg"
   inkscape:version="1.1 (c68e22c387, 2021-05-23)"
   xmlns:inkscape="http://www.inkscape.org/namespaces/inkscape"
   xmlns:sodipodi="http://sodipodi.sourceforge.net/DTD/sodipodi-0.dtd"
   xmlns="http://www.w3.org/2000/svg"
   xmlns:svg="http://www.w3.org/2000/svg">
  <defs
     id="defs251" />
  <sodipodi:namedview
     id="namedview249"
     pagecolor="#ffffff"
     bordercolor="#666666"
     borderopacity="1.0"
     inkscape:pageshadow="2"
     inkscape:pageopacity="0.0"
     inkscape:pagecheckerboard="0"
     showgrid="false"
     inkscape:zoom="3.6536012"
     inkscape:cx="86.216306"
     inkscape:cy="31.06524"
     inkscape:window-width="1920"
     inkscape:window-height="1016"
     inkscape:window-x="0"
     inkscape:window-y="27"
     inkscape:window-maximized="1"
     inkscape:current-layer="svg247"
     fit-margin-top="0"
     fit-margin-left="0"
     fit-margin-right="0"
     fit-margin-bottom="0" />
  <path
     d="M 0,8.0000001 C 0,3.5817321 3.0183136,0 6.7415731,0 H 143.25843 C 146.98172,0 150,3.5817321 150,8.0000001 V 42.000001 c 0,4.4183 -3.01828,8 -6.74157,8 H 6.7415731 C 3.0183136,50.000001 0,46.418301 0,42.000001 Z"
     fill="#ffdd00"
     id="path207"
     style="stroke-width:0.299995" />
  <path
     d="m 19.41193,38.924837 c -0.01848,-0.01895 -0.04112,-0.0317 -0.0653,-0.03627 0.01958,0.01144 0.03916,0.02255 0.05224,0.03104 z"
     fill="#0d0c22"
     id="path227"
     style="stroke-width:0.299995" />
  <path
     d="m 18.707425,38.123203 c -0.0029,-0.03399 -0.01165,-0.06667 -0.02575,-0.0964 0.01,0.03072 0.01834,0.06242 0.02503,0.09477 z"
     fill="#0d0c22"
     id="path229"
     style="stroke-width:0.299995" />
  <path
     d="m 15.142212,18.660817 0.01669,0.0185 0.01088,0.0077 c -0.0084,-0.0099 -0.01763,-0.01869 -0.02757,-0.02624 z"
     fill="#0d0c22"
     id="path233"
     style="stroke-width:0.299995" />
  <g
     id="g22973"
     transform="matrix(0.27539106,0,0,0.32679739,-10.619683,-2.9486439e-5)">
    <path
       d="m 85.1368,72.7737 c -3.5173,1.5057 -7.5088,3.2129 -12.6819,3.2129 -2.1641,-0.0043 -4.3176,-0.3012 -6.4022,-0.8826 l 3.5779,36.734 c 0.1266,1.535 0.8261,2.967 1.9594,4.01 1.1333,1.044 2.6176,1.623 4.1582,1.622 0,0 5.073,0.264 6.7658,0.264 1.8218,0 7.2848,-0.264 7.2848,-0.264 1.5403,0 3.0243,-0.579 4.1574,-1.622 1.133,-1.044 1.8323,-2.475 1.9589,-4.01 l 3.8321,-40.5924 c -1.7125,-0.5849 -3.4408,-0.9735 -5.3892,-0.9735 -3.3697,-0.0013 -6.0847,1.1592 -9.2212,2.5016 z"
       fill="#ffffff"
       id="path231" />
    <path
       d="m 116.299,53.7119 -0.538,-2.7176 c -0.484,-2.4384 -1.581,-4.7424 -4.084,-5.6237 -0.802,-0.2819 -1.713,-0.4031 -2.328,-0.9866 -0.615,-0.5836 -0.797,-1.4899 -0.939,-2.3304 -0.263,-1.5426 -0.511,-3.0865 -0.781,-4.6264 -0.233,-1.3239 -0.418,-2.8112 -1.025,-4.0257 -0.79,-1.6309 -2.43,-2.5846 -4.061,-3.2156 -0.836,-0.312 -1.689,-0.5759 -2.5546,-0.7904 -4.0745,-1.075 -8.3584,-1.4702 -12.5502,-1.6954 -5.0312,-0.2776 -10.0759,-0.194 -15.0952,0.2503 -3.7359,0.3398 -7.6707,0.7509 -11.2209,2.0431 -1.2976,0.473 -2.6346,1.0407 -3.6213,2.0432 -1.2106,1.2317 -1.6058,3.1366 -0.7219,4.6725 0.6284,1.0908 1.6928,1.8614 2.8217,2.3712 1.4705,0.6569 3.0062,1.1567 4.5816,1.4912 4.3867,0.9696 8.9302,1.3503 13.4117,1.5123 4.9671,0.2005 9.9423,0.038 14.8857,-0.4861 1.2225,-0.1343 2.4428,-0.2955 3.6609,-0.4834 1.4345,-0.22 2.3553,-2.0959 1.9325,-3.4027 -0.5059,-1.5623 -1.8653,-2.1683 -3.4027,-1.9325 -0.2265,0.0356 -0.4518,0.0685 -0.6784,0.1015 l -0.1633,0.0237 c -0.5208,0.0658 -1.0416,0.1273 -1.5624,0.1844 -1.0758,0.1159 -2.1542,0.2108 -3.2353,0.2845 -2.4212,0.1686 -4.8491,0.2464 -7.2756,0.2503 -2.3843,0 -4.77,-0.0672 -7.1491,-0.2239 -1.0855,-0.0712 -2.1683,-0.1616 -3.2485,-0.2714 -0.4914,-0.0514 -0.9814,-0.1054 -1.4715,-0.166 L 69.4199,35.903 69.3185,35.8886 68.835,35.8187 c -0.988,-0.1488 -1.976,-0.3201 -2.9534,-0.5269 -0.0986,-0.0219 -0.1869,-0.0767 -0.2501,-0.1555 -0.0632,-0.0788 -0.0977,-0.1769 -0.0977,-0.2779 0,-0.101 0.0345,-0.199 0.0977,-0.2778 0.0632,-0.0788 0.1515,-0.1337 0.2501,-0.1556 H 65.9 c 0.8471,-0.1805 1.7007,-0.3346 2.5569,-0.469 0.2855,-0.0447 0.5718,-0.0887 0.8589,-0.1317 h 0.0079 c 0.5362,-0.0356 1.075,-0.1317 1.6085,-0.195 4.6418,-0.4828 9.3112,-0.6474 13.9755,-0.4926 2.2644,0.0658 4.5276,0.1989 6.7815,0.4281 0.4848,0.0501 0.967,0.1028 1.4491,0.162 0.1844,0.0224 0.3702,0.0488 0.5559,0.0712 l 0.3741,0.054 c 1.0908,0.1624 2.1758,0.3596 3.2551,0.5915 1.5993,0.3477 3.6526,0.461 4.3646,2.2131 0.226,0.5559 0.329,1.1737 0.454,1.7573 l 0.16,0.7442 c 0.004,0.0134 0.007,0.0271 0.009,0.0409 0.377,1.7564 0.754,3.5128 1.131,5.2693 0.028,0.1297 0.029,0.2638 0.002,0.3938 -0.026,0.13 -0.079,0.2532 -0.155,0.3618 -0.076,0.1087 -0.174,0.2005 -0.287,0.2697 -0.113,0.0692 -0.24,0.1143 -0.371,0.1326 h -0.011 l -0.23,0.0316 -0.228,0.0303 c -0.722,0.094 -1.445,0.1818 -2.1684,0.2635 -1.4253,0.1624 -2.8528,0.303 -4.2826,0.4215 -2.841,0.2363 -5.6877,0.3913 -8.5402,0.465 -1.4534,0.0387 -2.9064,0.0567 -4.359,0.054 -5.7817,-0.0045 -11.5584,-0.3405 -17.3017,-1.0064 -0.6218,-0.0738 -1.2435,-0.1528 -1.8653,-0.2332 0.4821,0.062 -0.3504,-0.0474 -0.519,-0.0711 -0.3952,-0.0553 -0.7904,-0.1128 -1.1856,-0.1726 -1.3266,-0.1989 -2.6452,-0.4439 -3.9691,-0.6586 -1.6006,-0.2635 -3.1313,-0.1317 -4.579,0.6586 -1.1884,0.6503 -2.1502,1.6476 -2.7572,2.8586 -0.6244,1.291 -0.8101,2.6966 -1.0894,4.0837 -0.2793,1.3872 -0.714,2.8797 -0.5493,4.3037 0.3543,3.0733 2.5029,5.571 5.5933,6.1295 2.9073,0.5269 5.8305,0.9538 8.7615,1.3173 11.5138,1.4102 23.1458,1.5789 34.6956,0.5033 0.9406,-0.0879 1.8799,-0.1836 2.8174,-0.2872 0.293,-0.0322 0.59,0.0015 0.868,0.0988 0.278,0.0972 0.531,0.2554 0.74,0.463 0.209,0.2077 0.37,0.4595 0.469,0.737 0.099,0.2775 0.135,0.5737 0.105,0.8669 l -0.293,2.8427 c -0.589,5.7444 -1.178,11.4884 -1.767,17.2319 -0.615,6.0316 -1.2339,12.0628 -1.8565,18.093 -0.1757,1.699 -0.3513,3.397 -0.527,5.095 -0.1686,1.671 -0.1923,3.396 -0.5098,5.048 -0.5005,2.597 -2.2592,4.193 -4.8253,4.776 -2.351,0.535 -4.7526,0.816 -7.1636,0.838 -2.6728,0.014 -5.3444,-0.104 -8.0172,-0.09 -2.8533,0.016 -6.3482,-0.247 -8.5508,-2.371 -1.9351,-1.865 -2.2025,-4.786 -2.466,-7.311 -0.3513,-3.343 -0.6995,-6.686 -1.0446,-10.029 L 64.0887,82.0212 62.8359,69.9953 c -0.021,-0.1989 -0.0421,-0.3952 -0.0619,-0.5954 -0.1501,-1.4345 -1.1658,-2.8388 -2.7663,-2.7664 -1.3701,0.0606 -2.9271,1.2251 -2.7664,2.7664 l 0.9287,8.9156 1.9206,18.4426 c 0.5472,5.2389 1.093,10.4779 1.6375,15.7179 0.1054,1.004 0.2042,2.011 0.3148,3.014 0.602,5.486 4.7911,8.442 9.9787,9.274 3.0299,0.488 6.1335,0.588 9.2081,0.638 3.9414,0.063 7.9224,0.215 11.7993,-0.499 5.7448,-1.054 10.055,-4.89 10.67,-10.841 0.176,-1.717 0.352,-3.436 0.527,-5.154 0.584,-5.684 1.167,-11.3683 1.75,-17.053 l 1.904,-18.5743 0.874,-8.5125 c 0.043,-0.4221 0.222,-0.819 0.508,-1.1319 0.287,-0.3129 0.667,-0.5253 1.083,-0.6056 1.643,-0.3202 3.213,-0.8668 4.382,-2.117 1.86,-1.9905 2.23,-4.5856 1.572,-7.2018 z m -61.7938,1.8364 c 0.025,-0.0119 -0.0211,0.2028 -0.0408,0.303 -0.004,-0.1515 0.0039,-0.2859 0.0408,-0.303 z m 0.1594,1.233 c 0.0132,-0.0092 0.0527,0.0435 0.0935,0.1067 -0.0619,-0.058 -0.1014,-0.1014 -0.0948,-0.1067 z m 0.1568,0.2068 c 0.0566,0.0962 0.0869,0.1568 0,0 z m 0.3148,0.2556 h 0.0079 c 0,0.0092 0.0145,0.0184 0.0198,0.0276 -0.0088,-0.0101 -0.0185,-0.0194 -0.029,-0.0276 z m 55.1328,-0.3821 c -0.59,0.5612 -1.48,0.8221 -2.358,0.9525 -9.8538,1.4622 -19.851,2.2025 -29.8126,1.8758 -7.1293,-0.2437 -14.1836,-1.0354 -21.2418,-2.0326 -0.6916,-0.0975 -1.4411,-0.2239 -1.9167,-0.7337 -0.8958,-0.9617 -0.4558,-2.8982 -0.2226,-4.06 0.2134,-1.0644 0.6218,-2.4832 1.8877,-2.6347 1.976,-0.2318 4.2708,0.602 6.2257,0.8984 2.3536,0.3592 4.716,0.6468 7.0872,0.8629 10.1196,0.9221 20.4092,0.7785 30.4841,-0.5704 1.836,-0.2468 3.666,-0.5335 5.489,-0.8602 1.625,-0.2912 3.425,-0.8378 4.407,0.8444 0.673,1.146 0.762,2.6794 0.658,3.9743 -0.032,0.5642 -0.278,1.0949 -0.689,1.4833 z"
       fill="#0d0c22"
       id="path235" />
  </g>
  <g
     id="g24264"
     transform="translate(0,-2.9340276)">
    <path
       d="m 22.549048,38.677451 c -0.02437,0.01242 -0.04569,0.03203 -0.06205,0.05686 l 0.01922,-0.01471 c 0.01305,-0.01405 0.03156,-0.03104 0.04282,-0.04216 z"
       fill="#0d0c22"
       id="path221"
       style="stroke-width:0.299995" />
    <path
       d="m 27.000882,37.638236 c 0,-0.03268 -0.01344,-0.0268 -0.01016,0.08954 0,-0.0095 0.0033,-0.01895 0.0047,-0.0281 0.0018,-0.02059 0.0033,-0.04085 0.0055,-0.06144 z"
       fill="#0d0c22"
       id="path223"
       style="stroke-width:0.299995" />
    <path
       d="m 26.541116,38.677451 c -0.02434,0.01242 -0.04566,0.03203 -0.06202,0.05686 l 0.01922,-0.01471 c 0.01305,-0.01405 0.03156,-0.03104 0.04279,-0.04216 z"
       fill="#0d0c22"
       id="path225"
       style="stroke-width:0.299995" />
    <path
       d="m 27.396168,37.261352 q -1.373214,-0.616302 -1.732124,-1.39144 -0.329929,-0.779676 0.375385,-1.394869 0.155728,-0.143149 0.662005,-0.133358 0.535256,0.0053 0.836921,0.225231 0.661289,0.430879 1.403945,0.433345 0.776174,0.02691 1.803057,-0.430805 1.158169,-0.567344 1.709507,-1.217806 0.575779,-0.683981 1.232925,-1.796373 0.486052,-0.877765 0.599901,-1.667554 0.142829,-0.794326 0.01855,-1.398371 Q 34.2064,27.85179 33.866679,27.57839 32.98334,26.67754 31.85208,26.46871 q -1.135799,-0.237809 -2.801996,0.498163 -0.198323,0.06075 -0.59043,0.211222 -0.392107,0.150474 -0.697274,0.287334 -0.309705,0.107881 -0.338685,0.112419 -0.193785,0.08973 -0.309705,0.10788 -0.115921,0.01815 -0.24442,0.335183 -0.104057,0.283512 -0.286693,1.202835 -0.187175,0.890343 -0.547909,2.757971 -0.331755,1.863089 -0.648464,2.684644 -0.292268,0.788038 -0.620125,0.779997 -0.332396,-0.03702 -0.824343,-0.524108 -0.295376,-0.369417 -0.662326,-0.816697 -0.33797,-0.451819 -0.129855,-1.018843 0.104057,-0.283512 0.15923,-0.499987 0.05063,-0.245455 0.109311,-0.818769 0.07683,-0.457392 0.314637,-1.593191 0.262252,-1.169317 0.614946,-2.709087 0.348156,-1.568749 0.740658,-3.233516 0.392501,-1.664766 0.754272,-3.146575 0.390751,-1.486347 0.646713,-2.506226 0.265038,-0.961918 0.288444,-1.381254 0.02341,-0.419336 -0.126032,-0.425626 -0.02269,-0.1449 -0.127784,-0.247206 -0.109631,-0.131286 -0.0988,-0.251745 -0.01815,-0.115921 0.442742,-0.39593 0.489875,-0.284548 1.042249,-0.549192 0.552373,-0.264644 0.822271,-0.247527 0.1449,-0.02269 0.347761,-0.05446 0.198323,-0.06075 0.18017,-0.176668 0.08694,-0.01361 0.541546,-0.144186 0.454606,-0.13057 1.014305,-0.158835 1.968897,-0.130177 3.364802,0.631026 1.391366,0.732223 1.684596,2.79435 0.04817,0.4972 -0.206043,1.33866 -0.254211,0.841459 -0.711283,1.714686 -0.428092,0.868688 -0.974891,1.54813 -0.326822,0.377778 -0.707066,0.793612 -0.355801,0.382315 -0.638278,0.664076 -0.258034,0.248243 -0.258034,0.248243 0,0 0.245456,0.05063 0.245455,0.05063 0.519891,0.09673 1.410234,0.283906 2.28171,0.919397 0.900456,0.630953 1.427993,1.914119 0.183993,0.416549 0.167912,1.072264 0.0129,0.651177 -0.06114,1.315969 -0.07858,0.635812 -0.213368,1.102281 -0.171093,0.234628 -0.250709,0.484621 -0.08415,0.221014 -0.08415,0.221014 0.0091,0.05796 -0.15923,0.499987 -0.172845,0.413047 -0.419016,0.926649 -0.24617,0.513602 -0.481514,0.906745 -0.253496,0.277222 -0.740584,0.769169 -0.453569,0.516389 -1.027598,1.02195 -0.545048,0.501024 -1.063903,0.79011 -0.756986,0.47483 -1.753137,0.749586 -0.962634,0.299198 -1.87917,0.323961 -0.911998,0.05374 -1.48356,-0.183352 z m 0.20323,-12.353499 q 0,0 0.450067,-0.159551 0.47451,-0.193069 1.035959,-0.399753 0.556912,-0.235664 0.82856,-0.396966 0.131287,-0.109631 0.369417,-0.295375 0.26711,-0.190282 0.51153,-0.525465 0.346725,-0.440276 0.737797,-0.976569 0.386533,-0.565273 0.73501,-1.183967 0.377456,-0.623233 0.596398,-1.310716 0.503169,-1.147662 0.488519,-1.62042 -0.01465,-0.472759 -0.450389,-0.790504 -0.310741,-0.277938 -0.797113,-0.350228 -0.490911,-0.10127 -1.041534,-0.01505 -0.52618,0.05271 -0.996151,0.274756 -0.358589,0.174917 -0.534221,0.380565 -0.18017,0.176668 -0.13025,0.495449 0.04084,0.260821 -0.08766,0.577851 -0.104057,0.283512 -0.226267,0.451104 0.0028,0.207399 -0.139326,0.437489 -0.117672,0.196571 -0.117672,0.196571 0.01815,0.115921 -0.263287,0.783499 -0.256999,0.634061 -0.49027,1.79884 -0.326501,1.327832 -0.414157,1.905683 -0.08766,0.577852 -0.06496,0.722752 z"
       style="font-weight:bold;font-size:29.3333px;line-height:1.25;font-family:Caveat;-inkscape-font-specification:'Caveat Bold';letter-spacing:-1.18px;word-spacing:-4.1px;fill:#000000"
       id="path24198" />
    <path
       d="m 45.07598,34.513247 q -0.335183,-0.244419 -0.586212,-0.709852 -0.255568,-0.494414 -0.533826,-1.133728 -0.09427,-0.222764 -0.139648,-0.512565 -0.0164,-0.29434 -0.07261,-0.463682 -0.05517,0.216475 -0.208115,0.567024 -0.12396,0.34601 -0.27515,0.518139 -0.09777,0.134074 -0.449032,0.545369 -0.355802,0.382316 -0.729756,0.648711 -0.861043,0.758342 -1.619064,0.847355 -0.73358,0.05549 -1.393118,-0.553804 -0.522678,-0.304131 -0.903243,-0.838352 -0.380564,-0.534221 -0.333752,-1.372893 -0.100876,-1.023381 -0.01879,-2.01603 0.07754,-1.02163 0.547909,-2.757971 0.422518,-1.283486 0.636921,-1.999949 0.214404,-0.716463 0.283191,-0.845998 0.412012,-0.212973 1.076803,-0.138932 0.660254,0.04506 0.781748,0.441707 0.219263,0.262572 0.172451,1.101244 -0.05135,0.809693 -0.414157,1.905684 -0.251424,1.048858 -0.482944,2.035218 -0.202541,0.981822 -0.189641,1.633 0.04188,0.646639 0.470292,0.728005 0.283512,0.104057 0.748945,-0.146972 0.494413,-0.255568 1.053791,-1.233888 0.559378,-0.97832 1.04686,-2.984558 0.141078,-0.615908 0.188926,-1.068762 0.04331,-0.481835 -0.01393,-1.036995 -0.112418,-0.338686 0.06043,-0.751733 0.201825,-0.417585 0.51782,-0.674903 0.09323,-0.163054 0.277938,-0.310741 0.18017,-0.176668 0.260821,-0.04084 l 0.459143,-0.101591 q 0.111383,-0.04713 0.297127,0.190998 0.185744,0.23813 0.348797,0.33136 0.359625,0.210901 0.46679,1.084843 0.107165,0.873942 -0.314317,2.543246 -0.364558,1.27441 -0.472117,1.91476 -0.07858,0.635812 -0.0168,1.219952 0.08169,0.521643 0.227624,0.88477 0.141398,0.334147 0.635096,0.642816 0.350548,0.152941 0.456677,0.641065 0.130571,0.454605 0.156049,0.806905 -0.01712,0.269897 -0.409224,0.420372 -0.358589,0.174917 -0.831347,0.189567 -0.443778,0.01011 -0.765347,-0.147367 z"
       style="font-weight:bold;font-size:29.3333px;line-height:1.25;font-family:Caveat;-inkscape-font-specification:'Caveat Bold';letter-spacing:-1.18px;word-spacing:-4.1px;fill:#000000"
       id="path24200" />
    <path
       d="m 48.457254,41.733614 q -1.011517,0.366235 -1.990552,0.371094 -0.974497,0.03384 -1.671056,-0.243063 -0.725539,-0.272364 -0.94305,-0.713355 -0.278259,-0.639314 0.01958,-1.012553 0.297842,-0.373239 0.781427,-0.508348 0.454606,-0.130571 0.626736,0.02062 0.254531,0.108595 0.792575,0.321247 0.567024,0.208115 1.297816,-0.05478 0.643852,-0.249279 1.088346,-0.823628 0.444493,-0.574349 0.76399,-1.188506 0.177383,-0.384066 0.587322,-1.368675 0.409939,-0.984609 0.821629,-2.147637 0.436133,-1.196546 0.696633,-2.187445 0.05063,-0.245455 0.116636,-0.582389 0.066,-0.336934 0.208114,-0.567024 0.119423,-0.37499 0.189962,-0.682944 0.09498,-0.341472 0.105808,-0.461931 0.0063,-0.149439 0.170058,-0.620446 0.163768,-0.471007 0.298556,-0.937476 0.07683,-0.457393 0.235023,-1.343198 0.158194,-0.885805 0.366309,-1.452829 0.243383,-0.721001 0.38271,-1.15849 0.163768,-0.471007 0.410975,-0.598791 v 0 0 q 0.229054,-0.243704 0.460895,-0.28001 0.231841,-0.03631 0.577851,0.08766 0.40222,0.293303 0.659539,0.609298 0.28176,0.282476 0.300949,0.784214 0.04363,0.46822 -0.264003,1.347736 -0.122925,0.731829 -0.321963,1.356813 -0.174596,0.591466 -0.292267,0.788037 -0.09044,0.370452 -0.225231,0.836921 -0.110347,0.432951 -0.200789,0.803403 -0.340116,1.240892 -0.603403,2.024392 -0.263288,0.783499 -0.457787,1.437463 -0.1945,0.653964 -0.386213,1.515327 -0.498631,1.176643 -0.986434,2.232827 -0.454285,1.080625 -1.018201,2.029965 -0.248958,0.306203 -0.736046,0.798149 -0.453569,0.516389 -0.978714,0.954914 -0.491626,0.462967 -0.883733,0.613441 z m 2.59689,-7.116778 q -0.443779,0.01011 -1.047108,-0.429843 -0.574349,-0.444493 -1.012874,-0.969638 -0.409544,-0.529683 -0.387889,-0.7706 -0.02269,-0.1449 -0.03631,-0.231841 -0.01361,-0.08694 -0.01361,-0.08694 -0.173881,0.02723 -0.36695,-0.447281 -0.168628,-0.508027 -0.349118,-1.281414 -0.151511,-0.777925 -0.283118,-1.618349 -0.102626,-0.844962 -0.153582,-1.549561 0.03877,-0.510815 -0.05199,-1.090417 -0.0953,-0.608583 -0.120779,-0.960882 -0.101591,-0.459144 0.05589,-0.780713 0.18646,-0.326106 0.288766,-0.431199 v 0 0 q 0.999653,-0.631594 1.642075,0.247601 0.642422,0.879195 0.824269,2.988455 0.123566,1.168281 0.291478,2.240546 0.163374,1.043284 0.484228,1.765 0.320853,0.721716 0.863435,0.963349 0.221013,0.08415 0.222049,0.469971 0.001,0.385818 -0.133752,0.852287 -0.139327,0.437489 -0.350228,0.797114 -0.186459,0.326106 -0.364878,0.324355 z"
       style="font-weight:bold;font-size:29.3333px;line-height:1.25;font-family:Caveat;-inkscape-font-specification:'Caveat Bold';letter-spacing:-1.18px;word-spacing:-4.1px;fill:#000000"
       id="path24202" />
    <path
       d="m 59.203832,34.442881 q -0.105093,-0.102306 -0.422123,-0.230805 -0.31703,-0.128499 -0.335183,-0.244419 -0.0091,-0.05796 -0.05167,-0.140363 -0.01361,-0.08694 -0.129535,-0.06879 -0.100555,-0.07333 -0.0129,-0.651178 0.116636,-0.582389 0.317425,-1.385792 0.229769,-0.807941 0.497594,-1.56246 0.263288,-0.7835 0.456036,-1.259045 0.131287,-0.109631 0.137576,-0.25907 0.03073,-0.182957 -0.02723,-0.173881 0,0 0.104057,-0.283512 0.128499,-0.31703 0.201825,-0.417585 0.168307,-0.442027 0.220693,-0.865901 0.04785,-0.452855 -0.05549,-0.73358 -0.138611,-0.126747 -0.274436,-0.0461 -0.135824,0.08065 -0.135824,0.08065 -0.111382,0.04713 -0.329609,0.170378 -0.193784,0.08973 -0.349512,0.232877 -0.593933,0.56806 -0.912714,0.61798 -0.289801,0.04538 -0.688518,-0.60476 -0.165841,-0.300629 -0.182242,-0.594968 -0.0164,-0.294339 0.15923,-0.499987 0.200074,-0.239167 0.516068,-0.496485 0.311456,-0.286299 0.413762,-0.391392 0.287015,-0.252781 0.830312,-0.575385 0.543297,-0.322605 0.654679,-0.369737 0.717178,-0.349834 1.275126,-0.19968 0.553409,0.121174 0.909531,0.688913 0.482871,0.429128 0.569096,0.97975 0.08623,0.550623 -0.192428,1.4256 L 62.1457,27.064238 q -0.09952,0.312492 -0.01258,0.298877 0.11592,-0.01815 0.229054,-0.243704 0.06879,-0.129535 0.293303,-0.402219 0.224516,-0.272685 0.311457,-0.286299 0,0 0.05342,-0.03806 0.0824,-0.04259 0.05063,-0.245455 0.07333,-0.100555 0.146651,-0.20111 0.102306,-0.105093 0.102306,-0.105093 0.115921,-0.01815 0.271649,-0.161302 0.18017,-0.176668 0.584856,-0.62602 0.282476,-0.281761 0.543297,-0.322605 0.634776,-0.307238 1.140337,0.26679 0.534541,0.56949 0.693377,1.583795 l -0.363521,1.660228 0.843605,-1.4385 q 0.137575,-0.25907 0.284227,-0.460179 0.175632,-0.205648 0.30238,-0.34426 0.02619,-0.211937 0.137575,-0.259069 0.111382,-0.04713 0.111382,-0.04713 0,0 0.05796,-0.0091 0.05342,-0.03806 0.03981,-0.124996 0.126748,-0.138612 0.287014,-0.252781 0.155729,-0.14315 0.195536,-0.268146 0.460895,-0.28001 1.179109,-0.244025 0.713675,0.007 1.098778,0.570205 0.257319,0.315994 0.472043,0.549586 0.214724,0.233592 0.296411,0.755235 0.01011,0.443778 -0.02062,0.626735 -0.0018,0.178419 0.001,0.385818 -0.0018,0.178419 0.0129,0.651177 -0.07962,0.249994 -0.06775,0.515353 0.04084,0.260821 0.07715,0.492662 0.059,0.376742 0.110667,0.517104 0.04713,0.111382 0.249993,0.07962 0.392108,-0.150474 0.6257,-0.365199 0.258034,-0.248242 0.555875,-0.621481 0.371168,-0.473795 0.735331,-0.233913 0.388605,0.206363 0.530003,0.54051 0.07611,0.106844 -0.03423,0.539795 -0.110347,0.43295 -0.283191,0.845997 -0.172845,0.413047 -0.317746,0.435738 -0.08694,0.01362 -0.311456,0.286299 -0.224516,0.272685 -0.355802,0.382316 -0.171094,0.234628 -0.346725,0.440276 -0.146652,0.201109 -0.378493,0.237415 -0.115921,0.01815 -0.276187,0.132322 -0.135824,0.08065 -0.338685,0.112418 -0.276187,0.132322 -0.911998,0.05374 -0.606832,-0.08312 -0.880552,-0.693451 -0.165841,-0.300629 -0.47483,-0.756986 -0.28001,-0.460895 -0.277544,-1.203551 0.03423,-0.539794 -0.0049,-0.979034 -0.03909,-0.43924 0.02062,-0.626736 -0.01361,-0.08694 -0.06353,-0.405721 -0.05446,-0.347762 -0.141398,-0.334147 -0.115921,0.01815 -0.38932,0.357873 -0.2734,0.339721 -0.630953,0.900456 -0.362091,0.531754 -0.739548,1.154987 -0.348477,0.618695 -0.610013,1.223776 -0.210901,0.359624 -0.341152,0.855074 -0.13025,0.495449 -0.208114,0.567023 -0.166555,0.263609 -0.686446,0.166877 -0.490911,-0.10127 -0.781749,-0.441707 -0.114169,-0.160266 -0.234628,-0.171093 -0.124996,-0.03981 -0.230089,-0.142114 -0.08065,-0.135824 -0.08623,-0.550622 0.02341,-0.419336 0.172525,-1.363102 0.164483,-1.035244 0.273794,-1.854013 0.133752,-0.852287 0.133752,-0.852287 -0.01815,-0.11592 -0.398396,0.299914 -0.384782,0.386854 -0.887236,0.970279 -0.210901,0.359625 -0.568454,0.92036 -0.328573,0.556196 -0.774818,1.308964 -0.417264,0.74823 -0.943124,1.750991 -0.654359,1.319792 -1.048217,1.648686 -0.364878,0.324355 -0.747194,-0.03145 z"
       style="font-weight:bold;font-size:29.3333px;line-height:1.25;font-family:Caveat;-inkscape-font-specification:'Caveat Bold';letter-spacing:-1.18px;word-spacing:-4.1px;fill:#000000"
       id="path24204" />
    <path
       d="m 78.340945,35.705502 q -1.593906,0.249599 -2.608531,-0.54162 -0.985645,-0.795757 -1.285164,-2.708445 -0.163374,-1.043284 0.01823,-2.348426 0.210581,-1.309679 0.662079,-2.597704 0.480478,-1.292563 1.126796,-2.284497 0.64178,-1.020914 1.369786,-1.491206 0.26711,-0.190283 0.576815,-0.298163 0.334147,-0.141398 0.652928,-0.191318 0.347762,-0.05446 0.76256,-0.06003 0.43924,-0.03909 0.838672,0.04681 0.69831,0.09848 1.281736,0.600937 0.612405,0.497915 0.784856,1.59916 0.04538,0.289801 0.04188,0.646639 -0.008,0.327858 -0.103021,0.66933 -0.226982,1.01534 -0.873301,2.007274 -0.617338,0.987396 -1.403304,1.466764 -0.213688,0.152226 -0.436452,0.246492 -0.198323,0.06075 -0.430164,0.09705 -0.608583,0.0953 -1.128474,-0.0014 -0.490911,-0.10127 -0.942014,-0.327537 l -0.263608,-0.166555 -0.09952,0.312492 q -0.116636,0.582389 -0.14458,0.972745 0.001,0.385818 0.02826,0.559699 0.05446,0.347761 0.142434,0.719965 0.08344,0.343223 0.264644,0.552373 0.138611,0.126748 0.326107,0.18646 0.216475,0.05517 0.506276,0.0098 0.173881,-0.02723 0.318782,-0.04992 0.169342,-0.05621 0.280724,-0.103342 0.50349,-0.197607 0.781428,-0.508348 0.30238,-0.344259 0.647354,-0.606116 l 0.106844,-0.07611 -0.04259,-0.0824 q 0.451818,-0.33797 0.616623,-0.42316 0.160266,-0.114169 0.23813,-0.185744 0.09777,-0.134073 0.242668,-0.156764 0.396646,-0.121494 0.818769,0.109311 0.446565,0.197287 0.5101,0.603008 0.02723,0.173881 -0.174596,0.591466 -0.172845,0.413047 -0.490591,0.848785 -0.293303,0.402219 -0.638278,0.664076 -0.0824,0.04259 -0.160266,0.11417 -0.0824,0.04259 -0.160266,0.114169 l 0.02898,-0.0045 q -0.206363,0.388605 -0.467184,0.429448 l -0.231841,0.03631 q -0.08415,0.221013 -0.685411,0.552694 -0.596719,0.360661 -1.205302,0.455962 z m 0.413269,-7.220194 q 0.260821,-0.04084 0.450067,-0.159551 0.218227,-0.123246 0.402935,-0.270934 0.618374,-0.601578 0.698704,-1.415808 0.08033,-0.814231 -0.330965,-1.165494 -0.07157,-0.07786 -0.163053,-0.09323 -0.09602,-0.04435 -0.211937,-0.02619 -0.318782,0.04992 -0.692736,0.316315 -0.344975,0.261857 -0.66272,0.697595 -0.317746,0.435737 -0.55484,1.0073 l -0.28144,0.667578 q 0.05342,-0.03806 0.0824,-0.04259 0.05342,-0.03806 0.0824,-0.0426 0.260821,-0.04084 0.374991,0.119423 0.114169,0.160266 0.257319,0.315994 0.172129,0.15119 0.548871,0.09219 z"
       style="font-weight:bold;font-size:29.3333px;line-height:1.25;font-family:Caveat;-inkscape-font-specification:'Caveat Bold';letter-spacing:-1.18px;word-spacing:-4.1px;fill:#000000"
       id="path24206" />
    <path
       d="m 87.396338,34.852821 q -0.334147,0.141398 -0.81423,-0.08033 -0.480084,-0.221729 -0.895918,-0.601972 -0.415834,-0.380244 -0.557232,-0.714391 -0.211222,-0.59043 -0.173486,-1.487063 0.06218,-0.930151 0.371562,-1.988086 0.304846,-1.086915 0.85061,-2.152175 0.541225,-1.09424 1.288098,-2.012848 0.746873,-0.918608 1.693105,-1.512146 0.398397,-0.299913 0.563201,-0.385103 0.160266,-0.114169 0.347761,-0.05446 0.182958,0.03073 0.653965,0.1945 0.423874,0.05239 0.856825,0.162733 0.457392,0.07683 0.844246,0.46161 0.299914,0.398396 0.483907,0.814945 0.183993,0.41655 0.357158,0.953557 0.345295,0.688198 0.32364,0.929116 -0.02619,0.211937 -0.12396,0.34601 -0.18646,0.326106 -0.07054,0.307954 0,0 -0.01083,0.120458 0.01361,0.08694 -0.07054,0.307954 -0.103021,0.66933 -0.128178,1.267085 -7.15e-4,0.564237 0.183278,0.980786 0.33168,0.601258 0.726575,0.658182 0.423874,0.05239 0.961597,-0.685016 0.282476,-0.281761 0.679122,-0.403256 0.392107,-0.150474 0.428412,0.08137 0,0 0.100555,0.07333 0.09602,0.04434 0.211937,0.02619 0.144901,-0.02269 0.161302,0.271648 0.01186,0.26536 -0.02062,0.626736 -0.03248,0.361375 -0.141077,0.615907 -0.36663,0.502775 -0.343939,0.647675 0,0 -0.09777,0.134073 -0.07333,0.100555 -0.273399,0.339721 -0.471723,0.400469 -1.283166,0.527537 -0.782464,0.122531 -1.267085,-0.128178 -0.484622,-0.250709 -0.991934,-0.646318 -0.478333,-0.400148 -0.657788,-0.787717 l -0.190282,-0.26711 -0.754198,0.682229 q -0.268862,0.368701 -0.386533,0.565273 -0.12221,0.167591 -0.219978,0.301664 -0.06879,0.129535 -0.171094,0.234628 -0.07333,0.100555 -0.189246,0.118708 -0.115921,0.01815 -0.202861,0.03177 -0.08694,0.01361 -0.08694,0.01361 0.01815,0.115921 -0.355802,0.382316 -0.378493,0.237415 -0.848464,0.459464 -0.469971,0.22205 -0.759773,0.267432 z m 0.227377,-2.529632 q 0.173881,-0.02723 0.489875,-0.284548 0.340436,-0.290837 0.725218,-0.677691 0.384782,-0.386854 0.682624,-0.760093 0.326822,-0.377778 0.468935,-0.607868 0.09777,-0.134073 0.201825,-0.417585 0.133038,-0.28805 0.304131,-0.522678 0.548551,-0.857861 0.654359,-1.319792 0.10127,-0.490911 -0.299198,-0.962633 -0.165841,-0.300629 -0.344259,-0.30238 -0.178419,-0.0018 -0.692736,0.316315 -0.315995,0.257319 -0.649106,0.784535 -0.333111,0.527217 -0.677049,1.174892 -0.314959,0.643136 -0.567419,1.306177 -0.25246,0.663041 -0.407152,1.192008 -0.125712,0.524429 -0.08033,0.81423 0.01815,0.115921 0.08973,0.193785 0.100555,0.07333 0.100555,0.07333 z"
       style="font-weight:bold;font-size:29.3333px;line-height:1.25;font-family:Caveat;-inkscape-font-specification:'Caveat Bold';letter-spacing:-1.18px;word-spacing:-4.1px;fill:#000000"
       id="path24208" />
    <path
       d="m 102.94565,34.709745 q -0.34951,0.232877 -0.84671,0.281046 -0.4972,0.04817 -1.38301,-0.110026 -0.058,0.0091 -0.44656,-0.197287 -0.388608,-0.206363 -0.790828,-0.499667 -0.402219,-0.293303 -0.554445,-0.506991 -0.56806,-0.593933 -0.598397,-1.925267 -0.0014,-1.335873 0.437242,-3.275075 0.134789,-0.466469 0.436133,-1.196546 0.330324,-0.734615 0.64982,-1.348772 0.343935,-0.647675 0.504205,-0.761844 0,0 0.30063,-0.16584 0.30063,-0.165841 0.75245,-0.503811 0.13582,-0.08065 0.46997,-0.222049 0.36312,-0.145937 0.73079,-0.262893 0.39211,-0.150475 0.54155,-0.144185 0.58414,-0.06178 1.25625,0.248637 0.69656,0.276902 1.18397,0.735009 0.48287,0.429128 0.39697,0.828561 0.009,0.05796 -0.11489,0.40397 -0.0995,0.312492 -0.22348,0.658503 -0.1285,0.31703 -0.22173,0.480083 -0.11767,0.196572 -0.49895,0.226588 -0.3523,0.02548 -0.67387,-0.132002 -0.32156,-0.157479 -0.405,-0.500702 -0.0943,-0.222765 -0.50278,-0.366629 -0.37953,-0.148403 -0.37953,-0.148403 -0.23184,0.03631 -0.53597,0.558983 -0.30413,0.522678 -0.61909,1.165815 -0.43995,0.603329 -0.57649,1.248217 -0.1121,0.61137 -0.11735,1.146626 0.0192,0.501739 -0.0269,0.776175 -0.0705,0.307953 0.11345,0.724503 0.184,0.416549 0.36695,0.44728 0.26536,-0.01186 0.69099,-0.137896 0.45007,-0.159551 0.92458,-0.35262 0.49895,-0.226588 0.9979,-0.453176 0.49441,-0.255567 0.8729,-0.492982 0.49617,-0.433987 0.9155,-0.410581 0.4148,-0.0056 0.62674,0.02062 0.33693,0.066 0.39593,0.442742 0.059,0.376742 -0.13375,0.852287 -0.19729,0.446565 -0.64911,0.784535 -0.42737,0.304452 -0.75873,0.653249 -0.30692,0.315279 -0.28423,0.46018 -0.11592,0.01815 -0.24721,0.127784 -0.10684,0.07611 -0.19832,0.06075 -0.058,0.0091 -0.45007,0.159551 -0.39211,0.150475 -0.80865,0.334468 -0.38757,0.179455 -0.51886,0.289086 z"
       style="font-weight:bold;font-size:29.3333px;line-height:1.25;font-family:Caveat;-inkscape-font-specification:'Caveat Bold';letter-spacing:-1.18px;word-spacing:-4.1px;fill:#000000"
       id="path24210" />
    <path
       d="m 110.66163,35.130758 q -0.37674,0.059 -0.63127,-0.0496 -0.22555,-0.113133 -0.58518,-0.324034 -0.64138,-0.493378 -1.09352,-1.105463 -0.42316,-0.616623 -0.41337,-1.122899 0.0506,-0.245456 -0.0101,-0.443778 -0.0363,-0.231841 -0.0363,-0.231841 -0.16759,-0.12221 -0.11417,-0.160267 0.0489,-0.06704 0.0887,-0.192033 0.17388,-0.02723 0.066,-0.336934 -0.0943,-0.222765 0.0196,-1.012553 0.13829,-0.823307 0.46407,-1.586902 0.1285,-0.317031 0.40365,-0.835171 0.27062,-0.54712 0.60373,-1.074336 0.35755,-0.560734 0.65993,-0.904994 0.6292,-0.722036 1.17879,-1.19408 0.57856,-0.476581 1.19344,-0.721321 0.61487,-0.24474 1.28141,-0.349118 0.69552,-0.108916 1.20284,0.286693 0.71192,0.185424 1.04989,0.637242 0.36695,0.447281 0.57642,1.21613 0.22309,0.855789 0.16195,2.171758 -0.0657,1.286988 -0.96621,3.120382 -0.56113,1.156739 -1.16589,1.845257 -0.60476,0.688519 -1.36804,1.312787 -0.54505,0.501024 -1.22695,0.69688 -0.68191,0.195856 -1.33938,0.358194 z m 2.40232,-3.998467 q 0.55133,-0.650462 0.70778,-1.357849 0.18542,-0.711924 0.36352,-1.660228 0.0887,-0.192033 0.0541,-0.602293 -0.006,-0.414798 -0.0936,-0.787002 -0.0925,-0.401183 -0.27547,-0.431914 -0.29259,-0.162018 -0.53526,-0.0053 -0.24721,0.127784 -0.60755,0.48112 -0.75595,0.860648 -1.35967,1.934984 -0.57928,1.040818 -0.65579,2.448266 0.0265,0.738117 0.31735,1.078553 0.31528,0.306918 0.84321,0.07579 0.55237,-0.264644 1.24129,-1.174176 z"
       style="font-weight:bold;font-size:29.3333px;line-height:1.25;font-family:Caveat;-inkscape-font-specification:'Caveat Bold';letter-spacing:-1.18px;word-spacing:-4.1px;fill:#000000"
       id="path24212" />
    <path
       d="m 125.79703,37.950018 q -0.15573,0.14315 -0.83867,-0.04681 -0.64943,-0.165519 -1.12776,-0.565667 -0.23917,-0.200074 -0.33797,-0.451819 -0.0988,-0.251744 -0.12532,-0.989862 0.066,-0.336934 0.007,-0.713675 -0.0255,-0.3523 -0.0436,-0.468221 -0.0272,-0.17388 -0.0401,-0.825058 0.0161,-0.655715 0.0231,-1.369391 0.002,-0.742655 0.0304,-1.133011 -0.005,-0.02898 0.006,-0.149439 0.0108,-0.120459 0.0262,-0.211937 0.0171,-0.269898 0.036,-0.718214 0.0478,-0.452855 0.0349,-1.104032 0.0587,-0.573313 0.15365,-0.914785 0.0905,-0.370452 0.0894,-0.75627 -0.34776,0.05446 -0.88931,0.198643 -0.51256,0.139647 -1.04503,0.341793 -0.53701,0.173165 -0.92912,0.32364 -0.36766,0.116957 -0.41655,0.183993 -0.10684,0.07611 -0.19728,0.446565 -0.066,0.336934 -0.12468,0.910247 -0.0632,0.544334 -0.0702,1.258009 -0.139,1.387544 0.0544,2.812108 0.18885,1.395584 0.46711,2.034898 0.28279,0.668294 0.0213,1.273374 -0.22802,0.629522 -0.55309,0.828881 -0.54609,0.115205 -1.25101,-0.783894 -0.70492,-0.899099 -0.92729,-2.319125 -0.30198,-1.170032 -0.2691,-3.0457 0.0283,-1.904647 0.30738,-4.293917 0.10931,-0.818768 0.34712,-1.954567 0.23781,-1.135799 0.50914,-2.247156 0.30031,-1.115895 0.53915,-1.865876 0.23431,-0.778961 0.30764,-0.879516 0.18295,0.03073 0.13303,-0.28805 -0.009,-0.05796 0.16377,-0.471007 0.17285,-0.413047 0.30763,-0.879516 0.29052,-0.609619 0.77936,-1.279984 0.51782,-0.674904 1.05379,-1.233888 0.56042,-0.592502 0.99687,-0.838993 0.40747,-0.241953 0.84217,-0.310026 0.72451,-0.113454 1.46366,0.24585 0.73915,0.359304 1.14695,1.067406 0.4019,-0.656751 1.00037,-1.195831 0.59393,-0.56806 0.92529,-0.916857 0.58764,-0.418621 0.97521,-0.598076 0.38757,-0.179455 0.99615,-0.274756 0.55062,-0.08623 1.09774,0.184387 0.5761,0.266075 1.0073,0.55484 0.4738,0.371168 0.55445,0.506992 0.0806,0.135824 0.14418,0.541546 -0.0126,0.298877 -0.21615,0.894881 -0.20811,0.567024 -0.52307,1.210161 -0.28598,0.638599 -0.56567,1.127759 -0.25525,0.455641 -0.37117,0.473794 -0.63477,0.307238 -0.77546,-0.591145 -0.0318,-0.202861 -0.29083,-0.340437 -0.23463,-0.171093 -0.23463,-0.171093 -0.0136,-0.08694 -0.0209,-0.32332 0.0171,-0.269897 0.10127,-0.490911 0.0995,-0.312492 -0.0328,-0.588679 -0.10335,-0.280725 -0.40851,-0.143864 -0.0779,0.07157 -0.30692,0.315279 -0.20461,0.210186 -0.45811,0.487408 -0.22905,0.243705 -0.39561,0.507313 -0.17109,0.234628 -0.15748,0.321568 0,0 -0.0751,0.278974 -0.0796,0.249994 -0.33941,0.676655 -0.15747,0.321569 -0.28597,0.638599 -0.10406,0.283512 -0.095,0.341472 0.0182,0.11592 0.0119,0.265359 0.0182,0.115921 -0.12675,0.138612 0,0 -0.0461,0.274435 -0.0461,0.274436 -0.2144,0.716463 -0.0705,0.307954 -0.1945,0.653964 -0.1285,0.31703 -0.22627,0.451103 l 0.029,-0.0045 q 0,0 -0.095,0.341472 -0.066,0.336934 -0.15644,0.707387 -0.095,0.341472 -0.0859,0.399432 0.0181,0.115921 0.36591,0.06146 0.37674,-0.059 0.85579,-0.223086 0.50349,-0.197607 0.94902,-0.386138 0.38757,-0.179455 0.53247,-0.202146 0.1449,-0.02269 0.59775,0.02516 0.25453,0.108596 0.46751,0.520607 0.23741,0.378492 0.35891,0.775138 0.14593,0.363127 0.0771,0.492662 -0.0108,0.120458 -0.58765,0.418621 -0.57681,0.298162 -1.16724,0.509384 -0.50349,0.197608 -1.11836,0.442348 -0.61488,0.24474 -1.08938,0.437809 -0.44553,0.188532 -0.43192,0.275472 -0.11592,0.01815 -0.18017,0.176668 -0.0688,0.129535 -0.0552,0.216475 0.0635,0.405722 -0.0206,0.626735 -0.0307,0.182957 -0.10302,0.66933 -0.0723,0.486373 -0.15541,1.093204 -0.0587,0.573314 -0.10199,1.055148 -0.0143,0.477297 0.0129,0.651177 -0.14211,0.23009 -0.12117,0.55341 0.0164,0.294339 0.0527,0.52618 -0.0796,0.249994 -0.0768,0.457393 -0.002,0.178419 0.0164,0.294339 0.005,0.02898 0.0182,0.115921 0.0136,0.08694 -0.002,0.178419 0.0164,0.294339 0.0311,0.767097 0.0482,0.497201 0.12078,0.960883 l 0.0447,0.854038 q 0.03,0.381279 0.0112,0.829596 0.0147,0.472758 -0.10756,0.640349 z m -4.52157,-11.999595 q 0.11592,-0.01815 0.51257,-0.139648 0.42109,-0.155012 1.01152,-0.366234 0.59043,-0.211222 1.24335,-0.402541 l 0.12396,-0.34601 q 0.2441,-1.285238 0.42045,-2.055122 0.17181,-0.798865 0.36631,-1.452829 l 0.0171,-0.269898 q -0.009,-0.05796 0.0615,-0.365914 0.0995,-0.312492 0.0541,-0.602293 0.0486,-1.017092 0.10094,-1.440966 0.0478,-0.452854 -0.0862,-0.550622 -0.13407,-0.09777 -0.65572,-0.01608 -0.14943,-0.0063 -0.45006,0.159551 -0.27165,0.161302 -0.50524,0.376026 -0.20915,0.181206 -0.18646,0.326107 l 0.0182,0.11592 q -0.0915,-0.01536 -0.38024,0.415834 -0.25979,0.426662 -0.60373,1.074337 -0.31496,0.643136 -0.57195,1.277197 -0.1547,0.528967 -0.35095,1.36135 -0.19625,0.832384 -0.48923,2.184658 l -0.12293,0.731828 z"
       style="font-weight:bold;font-size:29.3333px;line-height:1.25;font-family:Caveat;-inkscape-font-specification:'Caveat Bold';letter-spacing:-1.18px;word-spacing:-4.1px;fill:#000000"
       id="path24214" />
    <path
       d="m 133.47667,35.705502 q -1.59391,0.249599 -2.60853,-0.54162 -0.98565,-0.795757 -1.28517,-2.708445 -0.16337,-1.043284 0.0182,-2.348426 0.21058,-1.309679 0.66208,-2.597704 0.48048,-1.292563 1.12679,-2.284497 0.64178,-1.020914 1.36979,-1.491206 0.26711,-0.190283 0.57682,-0.298163 0.33414,-0.141398 0.65292,-0.191318 0.34776,-0.05446 0.76256,-0.06003 0.43924,-0.03909 0.83868,0.04681 0.69831,0.09848 1.28173,0.600937 0.61241,0.497915 0.78486,1.59916 0.0454,0.289801 0.0419,0.646639 -0.008,0.327858 -0.10303,0.66933 -0.22698,1.01534 -0.8733,2.007274 -0.61733,0.987396 -1.4033,1.466764 -0.21369,0.152226 -0.43645,0.246492 -0.19833,0.06075 -0.43017,0.09705 -0.60858,0.0953 -1.12847,-0.0014 -0.49091,-0.10127 -0.94201,-0.327537 l -0.26361,-0.166555 -0.0995,0.312492 q -0.11664,0.582389 -0.14458,0.972745 0.001,0.385818 0.0283,0.559699 0.0545,0.347761 0.14244,0.719965 0.0834,0.343223 0.26464,0.552373 0.13861,0.126748 0.32611,0.18646 0.21647,0.05517 0.50628,0.0098 0.17388,-0.02723 0.31878,-0.04992 0.16934,-0.05621 0.28072,-0.103342 0.50349,-0.197607 0.78143,-0.508348 0.30238,-0.344259 0.64735,-0.606116 l 0.10685,-0.07611 -0.0426,-0.0824 q 0.45182,-0.33797 0.61663,-0.42316 0.16026,-0.114169 0.23813,-0.185744 0.0978,-0.134073 0.24266,-0.156764 0.39665,-0.121494 0.81877,0.109311 0.44657,0.197287 0.5101,0.603008 0.0272,0.173881 -0.17459,0.591466 -0.17285,0.413047 -0.49059,0.848785 -0.29331,0.402219 -0.63828,0.664076 -0.0824,0.04259 -0.16027,0.11417 -0.0824,0.04259 -0.16026,0.114169 l 0.029,-0.0045 q -0.20637,0.388605 -0.46719,0.429448 l -0.23184,0.03631 q -0.0841,0.221013 -0.68541,0.552694 -0.59672,0.360661 -1.2053,0.455962 z m 0.41327,-7.220194 q 0.26082,-0.04084 0.45006,-0.159551 0.21823,-0.123246 0.40294,-0.270934 0.61837,-0.601578 0.6987,-1.415808 0.0803,-0.814231 -0.33096,-1.165494 -0.0716,-0.07786 -0.16306,-0.09323 -0.096,-0.04435 -0.21193,-0.02619 -0.31878,0.04992 -0.69274,0.316315 -0.34497,0.261857 -0.66272,0.697595 -0.31774,0.435737 -0.55484,1.0073 l -0.28144,0.667578 q 0.0534,-0.03806 0.0824,-0.04259 0.0534,-0.03806 0.0824,-0.0426 0.26082,-0.04084 0.37499,0.119423 0.11417,0.160266 0.25732,0.315994 0.17213,0.15119 0.54887,0.09219 z"
       style="font-weight:bold;font-size:29.3333px;line-height:1.25;font-family:Caveat;-inkscape-font-specification:'Caveat Bold';letter-spacing:-1.18px;word-spacing:-4.1px;fill:#000000"
       id="path24216" />
    <path
       d="m 140.98612,35.077336 q -1.20283,-0.286693 -1.80091,-1.261905 -0.59807,-0.975212 -0.6675,-2.745787 -0.0827,-0.90746 -0.24403,-1.179108 -0.16584,-0.300629 -0.53,-0.54051 -0.10509,-0.102306 -0.46472,-0.313208 -0.36416,-0.239881 -0.35787,-0.38932 -0.0607,-0.198322 0.01,-0.506276 0.066,-0.336934 0.1484,-0.379529 0.18925,-0.118708 0.37396,-0.266395 0.21368,-0.152226 0.33868,-0.112418 0.11592,-0.01815 0.37045,0.09044 0.28352,0.104057 0.30167,0.219978 0.14769,0.184708 0.32053,-0.228339 0.20183,-0.417585 0.40086,-1.042569 0.21719,-0.509064 0.58836,-0.982858 0.37117,-0.473794 0.75595,-0.860648 0.40923,-0.420372 0.70078,-0.644173 0.13582,-0.08065 0.52339,-0.260106 0.41655,-0.183993 0.87116,-0.314563 0.45006,-0.159551 0.68644,-0.166877 0.52618,-0.05271 1.16932,0.262252 0.64314,0.314958 1.01638,0.6128 0.41758,0.201825 0.61973,0.734295 0.22658,0.498951 0.28837,1.083092 0.0618,0.58414 -0.0775,1.021629 -0.0416,0.303416 -0.48151,0.906745 -0.43996,0.603329 -1.00037,1.195831 -0.53597,0.558983 -0.94344,0.800937 -0.36313,0.145936 -0.8757,0.285583 -0.5171,0.110667 -0.98532,0.154298 -0.44378,0.01011 -0.63127,-0.0496 -0.22102,-0.08415 -0.33415,0.141398 -0.0887,0.192034 -0.0486,1.017092 0.0209,0.323319 0.0862,0.550622 0.0943,0.222765 0.17038,0.329609 0.25732,0.315994 0.48741,0.458108 0.22555,0.113133 0.7671,-0.03105 0.54154,-0.144186 0.99686,-0.838994 0.47976,-0.728326 0.88445,-1.177678 0.0841,-0.221013 0.45182,-0.33797 0.39211,-0.150474 0.96542,-0.0918 0.35055,0.152941 0.38964,0.592181 0.0681,0.434702 -0.264,1.347736 -0.0552,0.216476 -0.39736,0.685732 -0.31775,0.435737 -0.7179,0.91407 -0.3757,0.444814 -0.63827,0.664076 -0.7968,0.599827 -1.64176,0.702454 -0.84496,0.102626 -1.58133,-0.04928 z m 1.12345,-6.856352 q 0.41654,-0.183993 0.68819,-0.345295 0.30063,-0.16584 0.54959,-0.472043 0.24896,-0.306203 0.54401,-0.886841 0.066,-0.336934 0.0297,-0.568775 -0.007,-0.236379 -0.0744,-0.285263 -0.26815,-0.195536 -0.54434,-0.06321 -0.25174,0.0988 -0.53422,0.380565 -0.18924,0.118708 -0.5206,0.467505 -0.30692,0.315279 -0.60023,0.717498 -0.26886,0.368702 -0.42634,0.69027 -0.13303,0.28805 -0.008,0.327858 -0.0398,0.124997 0.34147,0.09498 0.41026,-0.03455 0.55517,-0.05724 z"
       style="font-weight:bold;font-size:29.3333px;line-height:1.25;font-family:Caveat;-inkscape-font-specification:'Caveat Bold';letter-spacing:-1.18px;word-spacing:-4.1px;fill:#000000"
       id="path24218" />
  </g>
</svg>
