<?xml version="1.0" encoding="UTF-8" standalone="no"?>
<svg
   xmlns:dc="http://purl.org/dc/elements/1.1/"
   xmlns:cc="http://creativecommons.org/ns#"
   xmlns:rdf="http://www.w3.org/1999/02/22-rdf-syntax-ns#"
   xmlns:svg="http://www.w3.org/2000/svg"
   xmlns="http://www.w3.org/2000/svg"
   xmlns:sodipodi="http://sodipodi.sourceforge.net/DTD/sodipodi-0.dtd"
   xmlns:inkscape="http://www.inkscape.org/namespaces/inkscape"
   version="1.1"
   id="Capa_1"
   x="0px"
   y="0px"
   viewBox="0 0 24 24"
   xml:space="preserve"
   sodipodi:docname="bug.svg"
   width="24"
   height="24"
   inkscape:version="1.0 (1.0+r73+1)"><metadata
   id="metadata1852"><rdf:RDF><cc:Work
       rdf:about=""><dc:format>image/svg+xml</dc:format><dc:type
         rdf:resource="http://purl.org/dc/dcmitype/StillImage" /><dc:title /></cc:Work></rdf:RDF></metadata><defs
   id="defs1850">
	
	
	
</defs><sodipodi:namedview
   inkscape:document-rotation="0"
   pagecolor="#ffffff"
   bordercolor="#666666"
   borderopacity="1"
   objecttolerance="10"
   gridtolerance="10"
   guidetolerance="10"
   inkscape:pageopacity="0"
   inkscape:pageshadow="2"
   inkscape:window-width="1920"
   inkscape:window-height="1016"
   id="namedview1848"
   showgrid="false"
   inkscape:zoom="15.592843"
   inkscape:cx="20.265707"
   inkscape:cy="25.3642"
   inkscape:window-x="0"
   inkscape:window-y="27"
   inkscape:window-maximized="1"
   inkscape:current-layer="Capa_1" />
<path
   d="M 12 2 C 10.108176 2 8.3445273 3.0760221 7.0332031 5.0292969 C 6.8733128 5.2674401 6.7234043 5.5147602 6.5820312 5.7714844 C 7.6025718 7.5882715 9.6477353 8.8320312 12 8.8320312 C 14.352366 8.8320312 16.397479 7.5882715 17.417969 5.7714844 C 17.276647 5.5147602 17.126636 5.2674401 16.966797 5.0292969 C 15.655473 3.0760221 13.891823 2 12 2 z M 3.2910156 4.703125 C 3.0957246 4.703125 2.9009311 4.786692 2.7519531 4.953125 C 2.4539461 5.2859914 2.4539461 5.8253367 2.7519531 6.1582031 L 5.375 9.0898438 C 5.743726 7.9683033 6.2865304 8.1017616 6.6464844 8.4199219 C 5.6171824 7.2009885 4.9087111 6.1579765 3.8300781 4.953125 C 3.6810741 4.7866918 3.4863056 4.703125 3.2910156 4.703125 z M 20.708984 4.703125 C 20.513694 4.703125 20.316972 4.7866918 20.167969 4.953125 L 17.353516 8.4199219 C 17.71347 8.1017616 18.256274 7.9683035 18.625 9.0898438 L 21.248047 6.1582031 C 21.546054 5.8253367 21.546054 5.2859914 21.248047 4.953125 C 21.099068 4.7866918 20.904275 4.703125 20.708984 4.703125 z M 1.7636719 11.177734 C 1.3422489 11.177734 1 11.558579 1 12.029297 C 1 12.500015 1.3422489 12.882814 1.7636719 12.882812 L 5.0996094 12.882812 L 5.0996094 11.177734 L 1.7636719 11.177734 z M 18.900391 11.177734 L 18.900391 12.882812 L 22.236328 12.882812 C 22.657751 12.882812 23 12.500015 23 12.029297 C 22.999949 11.558636 22.657751 11.177734 22.236328 11.177734 L 18.900391 11.177734 z M 5.7832031 16.466797 L 2.7519531 19.851562 C 2.4539461 20.184428 2.4539461 20.723775 2.7519531 21.056641 C 3.0499101 21.389508 3.5320711 21.389508 3.8300781 21.056641 L 6.4785156 18.099609 L 5.7832031 16.466797 z M 18.216797 16.466797 L 17.521484 18.099609 L 20.169922 21.056641 C 20.318926 21.223075 20.513687 21.306641 20.708984 21.306641 C 20.904231 21.306641 21.099095 21.223013 21.248047 21.056641 C 21.546055 20.723775 21.546055 20.18443 21.248047 19.851562 L 18.216797 16.466797 z "
   style="fill:#000000;fill-opacity:1;stroke-width:0.0537649"
   id="XMLID_835_" />
<g
   id="g1817">
</g>
<g
   id="g1819">
</g>
<g
   id="g1821">
</g>
<g
   id="g1823">
</g>
<g
   id="g1825">
</g>
<g
   id="g1827">
</g>
<g
   id="g1829">
</g>
<g
   id="g1831">
</g>
<g
   id="g1833">
</g>
<g
   id="g1835">
</g>
<g
   id="g1837">
</g>
<g
   id="g1839">
</g>
<g
   id="g1841">
</g>
<g
   id="g1843">
</g>
<g
   id="g1845">
</g>
<path
   d="M 6.1835938 8.1953125 C 5.9046525 8.1771651 5.6054537 8.3888811 5.375 9.0898438 C 5.233576 9.7644978 5.1407134 10.463645 5.0996094 11.177734 L 5.0996094 12.882812 C 5.1720494 14.141376 5.4053771 15.353416 5.7832031 16.466797 L 6.4785156 18.099609 C 6.6486826 18.423952 6.8344471 18.735205 7.0332031 19.03125 C 8.1663231 20.719164 9.6367131 21.750606 11.236328 22 L 11.236328 10.5 C 9.5065321 10.335045 7.8998144 9.6116042 6.6464844 8.4199219 C 6.5115016 8.3006118 6.3509585 8.206201 6.1835938 8.1953125 z M 17.816406 8.1953125 C 17.649041 8.206201 17.488498 8.3006118 17.353516 8.4199219 C 16.100186 9.6116042 14.493468 10.335045 12.763672 10.5 L 12.763672 22 C 14.363287 21.750606 15.833677 20.719164 16.966797 19.03125 C 17.165553 18.735205 17.351317 18.423952 17.521484 18.099609 L 18.216797 16.466797 C 18.594623 15.353416 18.827951 14.141376 18.900391 12.882812 L 18.900391 11.177734 C 18.859287 10.463645 18.766424 9.7644981 18.625 9.0898438 C 18.394546 8.3888811 18.095347 8.1771651 17.816406 8.1953125 z "
   style="fill:#ff0000;fill-opacity:1;stroke-width:0.0537649"
   id="path851" /></svg>
