<?xml version="1.0" encoding="UTF-8" standalone="no"?>
<svg
   xmlns:dc="http://purl.org/dc/elements/1.1/"
   xmlns:cc="http://creativecommons.org/ns#"
   xmlns:rdf="http://www.w3.org/1999/02/22-rdf-syntax-ns#"
   xmlns:svg="http://www.w3.org/2000/svg"
   xmlns="http://www.w3.org/2000/svg"
   xmlns:sodipodi="http://sodipodi.sourceforge.net/DTD/sodipodi-0.dtd"
   xmlns:inkscape="http://www.inkscape.org/namespaces/inkscape"
   width="24"
   height="24"
   viewBox="0 0 6.3499999 6.3500002"
   version="1.1"
   id="svg8"
   sodipodi:docname="github.svg"
   inkscape:export-filename="/home/lorenzo/Escritorio/iconos-web/google_plus.png"
   inkscape:export-xdpi="96"
   inkscape:export-ydpi="96"
   inkscape:version="1.0 (1.0+r73+1)">
  <defs
     id="defs2" />
  <sodipodi:namedview
     id="base"
     pagecolor="#ffffff"
     bordercolor="#666666"
     borderopacity="1.0"
     inkscape:pageopacity="0.0"
     inkscape:pageshadow="2"
     inkscape:zoom="8"
     inkscape:cx="28.368924"
     inkscape:cy="20.713281"
     inkscape:document-units="mm"
     inkscape:current-layer="layer1"
     showgrid="false"
     units="px"
     inkscape:window-width="1920"
     inkscape:window-height="1016"
     inkscape:window-x="0"
     inkscape:window-y="27"
     inkscape:window-maximized="1"
     inkscape:document-rotation="0" />
  <metadata
     id="metadata5">
    <rdf:RDF>
      <cc:Work
         rdf:about="">
        <dc:format>image/svg+xml</dc:format>
        <dc:type
           rdf:resource="http://purl.org/dc/dcmitype/StillImage" />
        <dc:title />
      </cc:Work>
    </rdf:RDF>
  </metadata>
  <g
     inkscape:label="Capa 1"
     inkscape:groupmode="layer"
     id="layer1"
     transform="translate(0,-290.64998)">
    <path
       id="path3031"
       style="font-style:normal;font-variant:normal;font-weight:normal;font-stretch:normal;font-size:6.79097px;line-height:1.25;font-family:FontAwesome;-inkscape-font-specification:FontAwesome;letter-spacing:0px;word-spacing:0px;fill:#000000;fill-opacity:1;stroke:none;stroke-width:0.0636654"
       d="m 3.174999,290.98568 c -1.606792,0 -2.91041568,1.30362 -2.91041568,2.91042 0,1.28467 0.83371278,2.37608 1.98954198,2.76262 0.1477945,0.0265 0.200849,-0.0644 0.200849,-0.14022 0,-0.072 -0.00379,-0.29938 -0.00379,-0.54191 0,0 -0.8109752,0.17432 -0.9815074,-0.34486 0,0 -0.1326361,-0.33727 -0.3221163,-0.42443 0,0 -0.26527228,-0.1819 0.018948,-0.17811 0,0 0.2880099,0.0227 0.4471732,0.29938 0.2539035,0.44717 0.6783391,0.31832 0.8450817,0.24253 0.026527,-0.18569 0.1023193,-0.31454 0.1856905,-0.39033 -0.6480222,-0.072 -1.3263612,-0.32212 -1.3263612,-1.43626 0,-0.31833 0.1136881,-0.57602 0.2993786,-0.78066 -0.030317,-0.0758 -0.1288465,-0.37138 0.030317,-0.77308 0.2425346,-0.0758 0.7996064,0.29938 0.7996064,0.29938 0.2311658,-0.0644 0.4812796,-0.0985 0.7276039,-0.0985 0.2463242,0 0.4964381,0.0341 0.7276039,0.0985 0,0 0.5570717,-0.37517 0.7996064,-0.29938 0.1591633,0.4017 0.060634,0.69729 0.030317,0.77308 0.1856906,0.20464 0.2993787,0.46233 0.2993787,0.78066 0,1.11793 -0.6821287,1.36426 -1.3301509,1.43626 0.1061089,0.091 0.1970594,0.26527 0.1970594,0.53812 0,0.39033 -0.00379,0.70487 -0.00379,0.79961 0,0.0758 0.053054,0.16674 0.200849,0.14022 1.1558291,-0.38654 1.9895419,-1.47795 1.9895419,-2.76262 0,-1.6068 -1.3036237,-2.91042 -2.9104151,-2.91042 z m -1.807641,4.17993 c -0.00758,0.0152 -0.030317,0.0189 -0.049265,0.008 -0.022738,-0.0114 -0.034107,-0.0303 -0.026527,-0.0455 0.00758,-0.0114 0.026527,-0.0152 0.049265,-0.008 0.022738,0.0114 0.034106,0.0303 0.026527,0.0455 z m 0.1174777,0.12885 c -0.015158,0.0152 -0.041686,0.008 -0.060634,-0.0114 -0.018948,-0.0227 -0.022738,-0.0493 -0.00758,-0.0606 0.015158,-0.0152 0.041686,-0.008 0.060634,0.0114 0.018948,0.0227 0.022738,0.0493 0.00758,0.0606 z m 0.1136881,0.17053 c -0.015158,0.0114 -0.045475,0 -0.064423,-0.0265 -0.018948,-0.0265 -0.018948,-0.0568 0,-0.0682 0.018948,-0.0152 0.049265,-0.004 0.064423,0.0227 0.018948,0.0265 0.018948,0.0568 0,0.072 z m 0.1591634,0.15916 c -0.015158,0.019 -0.049265,0.0152 -0.075792,-0.0114 -0.026527,-0.0227 -0.034106,-0.0568 -0.015158,-0.072 0.015158,-0.0189 0.049265,-0.0152 0.075792,0.0114 0.022738,0.0227 0.030317,0.0568 0.015158,0.072 z m 0.2160074,0.0947 c -0.00758,0.0227 -0.041686,0.0341 -0.072002,0.0227 -0.034106,-0.008 -0.056844,-0.0341 -0.049265,-0.0568 0.00758,-0.0227 0.041686,-0.0341 0.072002,-0.0265 0.034107,0.0114 0.056844,0.0379 0.049265,0.0606 z m 0.238745,0.019 c 0,0.0227 -0.026527,0.0417 -0.060634,0.0417 -0.037896,0.004 -0.064423,-0.0152 -0.064423,-0.0417 0,-0.0227 0.026527,-0.0417 0.060634,-0.0417 0.034106,-0.004 0.064423,0.0152 0.064423,0.0417 z m 0.219797,-0.0379 c 0.00379,0.0227 -0.018948,0.0455 -0.053054,0.053 -0.034106,0.008 -0.064423,-0.008 -0.068213,-0.0303 -0.00379,-0.0265 0.018948,-0.0493 0.053055,-0.0568 0.034106,-0.004 0.064423,0.0114 0.068213,0.0341 z" />
  </g>
</svg>
