<?xml version="1.0" encoding="UTF-8" standalone="no"?>
<svg
   width="48"
   height="48"
   viewBox="0 0 12.7 12.7"
   version="1.1"
   id="svg8"
   sodipodi:docname="github.svg"
   inkscape:export-filename="/home/lorenzo/Escritorio/iconos-web/google_plus.png"
   inkscape:export-xdpi="96"
   inkscape:export-ydpi="96"
   inkscape:version="1.1 (c68e22c387, 2021-05-23)"
   xmlns:inkscape="http://www.inkscape.org/namespaces/inkscape"
   xmlns:sodipodi="http://sodipodi.sourceforge.net/DTD/sodipodi-0.dtd"
   xmlns="http://www.w3.org/2000/svg"
   xmlns:svg="http://www.w3.org/2000/svg"
   xmlns:rdf="http://www.w3.org/1999/02/22-rdf-syntax-ns#"
   xmlns:cc="http://creativecommons.org/ns#"
   xmlns:dc="http://purl.org/dc/elements/1.1/">
  <defs
     id="defs2" />
  <sodipodi:namedview
     id="base"
     pagecolor="#ffffff"
     bordercolor="#666666"
     borderopacity="1.0"
     inkscape:pageopacity="0.0"
     inkscape:pageshadow="2"
     inkscape:zoom="8"
     inkscape:cx="28.3125"
     inkscape:cy="20.75"
     inkscape:document-units="mm"
     inkscape:current-layer="layer1"
     showgrid="false"
     units="px"
     inkscape:window-width="1920"
     inkscape:window-height="1043"
     inkscape:window-x="1920"
     inkscape:window-y="0"
     inkscape:window-maximized="1"
     inkscape:document-rotation="0"
     inkscape:pagecheckerboard="0" />
  <metadata
     id="metadata5">
    <rdf:RDF>
      <cc:Work
         rdf:about="">
        <dc:format>image/svg+xml</dc:format>
        <dc:type
           rdf:resource="http://purl.org/dc/dcmitype/StillImage" />
      </cc:Work>
    </rdf:RDF>
  </metadata>
  <g
     inkscape:label="Capa 1"
     inkscape:groupmode="layer"
     id="layer1"
     transform="translate(0,-290.64998)">
    <path
       id="path3031"
       style="font-style:normal;font-variant:normal;font-weight:normal;font-stretch:normal;font-size:6.79097px;line-height:1.25;font-family:FontAwesome;-inkscape-font-specification:FontAwesome;letter-spacing:0px;word-spacing:0px;fill:#000000;fill-opacity:1;stroke:none;stroke-width:0.133119"
       d="m 6.3499958,291.06416 c -3.3596575,0 -6.0854173,2.72575 -6.0854173,6.08542 0,2.68613 1.7432184,4.96817 4.1599533,5.77639 0.309025,0.0554 0.4199572,-0.13465 0.4199572,-0.29318 0,-0.15055 -0.00792,-0.62598 -0.00792,-1.13309 0,0 -1.6956762,0.36449 -2.0522436,-0.72107 0,0 -0.2773302,-0.7052 -0.6735162,-0.88745 0,0 -0.5546605,-0.38033 0.039619,-0.37241 0,0 0.6022028,0.0475 0.934999,0.62598 0.5308893,0.93499 1.418346,0.66558 1.7669897,0.50711 0.055466,-0.38826 0.2139405,-0.65768 0.3882622,-0.81615 -1.3549561,-0.15054 -2.7733019,-0.67352 -2.7733019,-3.00309 0,-0.6656 0.2377115,-1.2044 0.6259737,-1.63229 -0.06339,-0.15849 -0.2694065,-0.77652 0.06339,-1.61644 0.507118,-0.15849 1.671905,0.62598 1.671905,0.62598 0.4833469,-0.13466 1.0063123,-0.20596 1.5213543,-0.20596 0.5150417,0 1.0380074,0.0713 1.5213543,0.20596 0,0 1.1647868,-0.78445 1.671905,-0.62598 0.3327961,0.83992 0.1267802,1.45797 0.06339,1.61644 0.3882623,0.42789 0.6259735,0.96669 0.6259735,1.63229 0,2.33749 -1.4262693,2.85255 -2.7812254,3.00309 0.2218642,0.19028 0.4120335,0.55466 0.4120335,1.12516 0,0.81615 -0.00792,1.47382 -0.00792,1.67192 0,0.15849 0.1109312,0.34863 0.4199572,0.29318 2.4167347,-0.80822 4.1599527,-3.09026 4.1599527,-5.77639 0,-3.35967 -2.7257595,-6.08542 -6.0854157,-6.08542 z m -3.7796146,8.73985 c -0.015849,0.0318 -0.06339,0.0395 -0.1030087,0.0167 -0.047543,-0.0238 -0.071315,-0.0634 -0.055466,-0.0951 0.015849,-0.0238 0.055466,-0.0318 0.1030087,-0.0167 0.047543,0.0238 0.071313,0.0633 0.055466,0.0951 z m 0.2456353,0.26942 c -0.031694,0.0318 -0.087162,0.0167 -0.1267803,-0.0238 -0.039619,-0.0475 -0.047543,-0.10308 -0.015849,-0.12671 0.031694,-0.0318 0.087162,-0.0167 0.1267803,0.0238 0.039619,0.0475 0.047543,0.10308 0.015849,0.12671 z m 0.2377115,0.35656 c -0.031694,0.0238 -0.095084,0 -0.1347027,-0.0554 -0.039619,-0.0554 -0.039619,-0.11876 0,-0.1426 0.039619,-0.0318 0.1030087,-0.008 0.1347027,0.0475 0.039619,0.0554 0.039619,0.11876 0,0.15054 z m 0.3327964,0.33279 c -0.031694,0.0397 -0.1030087,0.0318 -0.1584743,-0.0238 -0.055465,-0.0475 -0.071312,-0.11876 -0.031694,-0.15054 0.031694,-0.0395 0.1030087,-0.0318 0.1584743,0.0238 0.047543,0.0475 0.06339,0.11877 0.031694,0.15055 z m 0.451652,0.19801 c -0.015849,0.0475 -0.087162,0.0713 -0.1505497,0.0475 -0.071313,-0.0167 -0.1188557,-0.0713 -0.1030087,-0.11876 0.015849,-0.0475 0.087162,-0.0713 0.1505497,-0.0554 0.071315,0.0238 0.1188557,0.0793 0.1030087,0.12671 z m 0.4991943,0.0397 c 0,0.0475 -0.055465,0.0872 -0.1267802,0.0872 -0.079237,0.008 -0.1347027,-0.0318 -0.1347027,-0.0872 0,-0.0475 0.055466,-0.0872 0.1267802,-0.0872 0.071313,-0.008 0.1347027,0.0318 0.1347027,0.0872 z m 0.4595758,-0.0793 c 0.00792,0.0475 -0.039619,0.0951 -0.1109312,0.11082 -0.071312,0.0167 -0.1347027,-0.0167 -0.1426272,-0.0634 -0.00792,-0.0554 0.039619,-0.10308 0.1109332,-0.11876 0.071313,-0.008 0.1347027,0.0238 0.1426273,0.0713 z" />
  </g>
</svg>
