<?xml version="1.0" encoding="UTF-8" standalone="no"?>
<svg
   xmlns:dc="http://purl.org/dc/elements/1.1/"
   xmlns:cc="http://creativecommons.org/ns#"
   xmlns:rdf="http://www.w3.org/1999/02/22-rdf-syntax-ns#"
   xmlns:svg="http://www.w3.org/2000/svg"
   xmlns="http://www.w3.org/2000/svg"
   xmlns:sodipodi="http://sodipodi.sourceforge.net/DTD/sodipodi-0.dtd"
   xmlns:inkscape="http://www.inkscape.org/namespaces/inkscape"
   version="1.1"
   id="Capa_1"
   x="0px"
   y="0px"
   viewBox="0 0 23.999999 23.999999"
   xml:space="preserve"
   sodipodi:docname="help.svg"
   width="24"
   height="24"
   inkscape:version="1.0 (1.0+r73+1)"><metadata
   id="metadata41"><rdf:RDF><cc:Work
       rdf:about=""><dc:format>image/svg+xml</dc:format><dc:type
         rdf:resource="http://purl.org/dc/dcmitype/StillImage" /><dc:title /></cc:Work></rdf:RDF></metadata><defs
   id="defs39">
	
</defs><sodipodi:namedview
   inkscape:document-rotation="0"
   pagecolor="#ffffff"
   bordercolor="#666666"
   borderopacity="1"
   objecttolerance="10"
   gridtolerance="10"
   guidetolerance="10"
   inkscape:pageopacity="0"
   inkscape:pageshadow="2"
   inkscape:window-width="1920"
   inkscape:window-height="1016"
   id="namedview37"
   showgrid="false"
   inkscape:zoom="15.614616"
   inkscape:cx="20.141386"
   inkscape:cy="13.530664"
   inkscape:window-x="0"
   inkscape:window-y="27"
   inkscape:window-maximized="1"
   inkscape:current-layer="Capa_1" />
<path
   id="path2"
   style="fill:#ff8800;stroke-width:0.0694692;fill-opacity:1"
   d="M 12 1 A 11 11 0 0 0 1 12 A 11 11 0 0 0 12 23 A 11 11 0 0 0 23 12 A 11 11 0 0 0 12 1 z M 12.138672 3.1953125 C 13.262983 3.1953125 14.254635 3.4032895 15.115234 3.8183594 C 15.975836 4.2328039 16.642055 4.7980069 17.111328 5.5117188 C 17.580046 6.2248747 17.814453 7.0004568 17.814453 7.8378906 C 17.815553 8.4958198 17.681731 9.0720122 17.414062 9.5683594 C 17.146392 10.064706 16.827733 10.492631 16.458984 10.853516 C 16.091345 11.214333 15.430948 11.821181 14.476562 12.673828 C 14.213408 12.914395 14.000467 13.126799 13.841797 13.308594 C 13.683126 13.491017 13.565673 13.657225 13.488281 13.808594 C 13.410331 13.959896 13.35097 14.110418 13.308594 14.261719 C 13.266204 14.412465 13.201649 14.678606 13.115234 15.058594 C 12.968443 15.864976 12.507783 16.267578 11.732422 16.267578 C 11.329216 16.267578 10.989037 16.136747 10.712891 15.873047 C 10.437857 15.609348 10.300781 15.218699 10.300781 14.699219 C 10.300781 14.048166 10.401911 13.482964 10.603516 13.005859 C 10.804007 12.528687 11.073069 12.110815 11.40625 11.75 C 11.739986 11.389183 12.189465 10.961191 12.755859 10.464844 C 13.252225 10.030602 13.611255 9.7032603 13.832031 9.4824219 C 14.053365 9.2610976 14.237921 9.0152038 14.388672 8.7441406 C 14.540604 8.4725217 14.615234 8.1772595 14.615234 7.859375 C 14.615234 7.2388196 14.385738 6.7153861 13.923828 6.2890625 C 13.462474 5.8627388 12.867694 5.6503906 12.138672 5.6503906 C 11.285434 5.6503906 10.657112 5.8646386 10.253906 6.2949219 C 9.850699 6.7252051 9.5100179 7.3598318 9.2304688 8.1972656 C 8.9662029 9.0736709 8.4663001 9.5117187 7.7304688 9.5117188 C 7.2962087 9.5117188 6.9295825 9.3588094 6.6308594 9.0527344 C 6.332692 8.7466595 6.1835938 8.4154497 6.1835938 8.0585938 C 6.1835938 7.3222354 6.4199009 6.5744463 6.8925781 5.8183594 C 7.3658112 5.0622723 8.0554671 4.4371976 8.9628906 3.9414062 C 9.8697591 3.4450589 10.929677 3.1953125 12.138672 3.1953125 z M 11.859375 17.326172 C 12.347821 17.326172 12.760014 17.493005 13.09375 17.826172 C 13.42693 18.15934 13.59375 18.570096 13.59375 19.058594 C 13.593125 19.601276 13.419264 20.027926 13.070312 20.337891 C 12.721917 20.647926 12.316769 20.804688 11.859375 20.804688 C 11.386141 20.804688 10.973448 20.65038 10.621094 20.34375 C 10.268185 20.037675 10.091797 19.609196 10.091797 19.058594 C 10.091797 18.570167 10.262416 18.15934 10.603516 17.826172 C 10.944616 17.493005 11.363008 17.326172 11.859375 17.326172 z " />
<g
   id="g6">
</g>
<g
   id="g8">
</g>
<g
   id="g10">
</g>
<g
   id="g12">
</g>
<g
   id="g14">
</g>
<g
   id="g16">
</g>
<g
   id="g18">
</g>
<g
   id="g20">
</g>
<g
   id="g22">
</g>
<g
   id="g24">
</g>
<g
   id="g26">
</g>
<g
   id="g28">
</g>
<g
   id="g30">
</g>
<g
   id="g32">
</g>
<g
   id="g34">
</g>
</svg>
