<?xml version="1.0" encoding="UTF-8" standalone="no"?>
<svg
   xmlns:dc="http://purl.org/dc/elements/1.1/"
   xmlns:cc="http://creativecommons.org/ns#"
   xmlns:rdf="http://www.w3.org/1999/02/22-rdf-syntax-ns#"
   xmlns:svg="http://www.w3.org/2000/svg"
   xmlns="http://www.w3.org/2000/svg"
   xmlns:sodipodi="http://sodipodi.sourceforge.net/DTD/sodipodi-0.dtd"
   xmlns:inkscape="http://www.inkscape.org/namespaces/inkscape"
   width="24"
   height="24"
   viewBox="0 0 6.3499999 6.3500002"
   version="1.1"
   id="svg8"
   sodipodi:docname="info.svg"
   inkscape:export-filename="/home/lorenzo/Escritorio/iconos-web/usuario.pn.png"
   inkscape:export-xdpi="96"
   inkscape:export-ydpi="96"
   inkscape:version="1.0 (1.0+r73+1)">
  <defs
     id="defs2" />
  <sodipodi:namedview
     id="base"
     pagecolor="#ffffff"
     bordercolor="#666666"
     borderopacity="1.0"
     inkscape:pageopacity="0.0"
     inkscape:pageshadow="2"
     inkscape:zoom="8.7916667"
     inkscape:cx="27.760885"
     inkscape:cy="37.425444"
     inkscape:document-units="mm"
     inkscape:current-layer="layer1"
     showgrid="false"
     units="px"
     inkscape:window-width="1920"
     inkscape:window-height="1016"
     inkscape:window-x="0"
     inkscape:window-y="27"
     inkscape:window-maximized="1"
     inkscape:document-rotation="0" />
  <metadata
     id="metadata5">
    <rdf:RDF>
      <cc:Work
         rdf:about="">
        <dc:format>image/svg+xml</dc:format>
        <dc:type
           rdf:resource="http://purl.org/dc/dcmitype/StillImage" />
        <dc:title />
      </cc:Work>
    </rdf:RDF>
  </metadata>
  <g
     inkscape:label="Capa 1"
     inkscape:groupmode="layer"
     id="layer1"
     transform="translate(0,-290.64998)">
    <path
       id="path3677"
       style="font-style:normal;font-variant:normal;font-weight:normal;font-stretch:normal;font-size:6.79097px;line-height:1.25;font-family:FontAwesome;-inkscape-font-specification:FontAwesome;letter-spacing:0px;word-spacing:0px;fill:#0099cc;fill-opacity:1;stroke:none;stroke-width:0.0636654"
       d="m 4.1451361,295.64397 c 0,0.0682 -0.053054,0.12127 -0.1212673,0.12127 H 2.3261263 c -0.068213,0 -0.1212673,-0.0531 -0.1212673,-0.12127 v -0.60634 c 0,-0.0682 0.053055,-0.12127 0.1212673,-0.12127 h 0.363802 v -1.21267 h -0.363802 c -0.068213,0 -0.1212673,-0.053 -0.1212673,-0.12127 v -0.60633 c 0,-0.0682 0.053055,-0.12127 0.1212673,-0.12127 h 1.2126732 c 0.068213,0 0.1212673,0.053 0.1212673,0.12127 v 1.94027 h 0.363802 c 0.068213,0 0.1212673,0.0531 0.1212673,0.12127 z m -0.4850693,-3.39549 c 0,0.0682 -0.053054,0.12127 -0.1212673,0.12127 H 2.8111956 c -0.068213,0 -0.1212673,-0.053 -0.1212673,-0.12127 v -0.60633 c 0,-0.0682 0.053054,-0.12127 0.1212673,-0.12127 h 0.7276039 c 0.068213,0 0.1212673,0.0531 0.1212673,0.12127 z m 2.4253464,1.57648 c 0,-1.60679 -1.3036237,-2.91042 -2.9104156,-2.91042 -1.606792,0 -2.91041568,1.30363 -2.91041568,2.91042 0,1.60679 1.30362368,2.91041 2.91041568,2.91041 1.6067919,0 2.9104156,-1.30362 2.9104156,-2.91041 z" />
  </g>
</svg>
