<?xml version="1.0" encoding="UTF-8" standalone="no"?>
<svg
   aria-hidden="true"
   data-prefix="fab"
   data-icon="telegram-plane"
   class="svg-inline--fa fa-telegram-plane fa-w-14"
   role="img"
   viewBox="0 0 48 48"
   version="1.1"
   id="svg4"
   sodipodi:docname="spotify.svg"
   width="48"
   height="48"
   inkscape:export-filename="/home/lorenzo/Escritorio/spotify.png"
   inkscape:export-xdpi="96"
   inkscape:export-ydpi="96"
   inkscape:version="1.1 (c68e22c387, 2021-05-23)"
   xmlns:inkscape="http://www.inkscape.org/namespaces/inkscape"
   xmlns:sodipodi="http://sodipodi.sourceforge.net/DTD/sodipodi-0.dtd"
   xmlns="http://www.w3.org/2000/svg"
   xmlns:svg="http://www.w3.org/2000/svg"
   xmlns:rdf="http://www.w3.org/1999/02/22-rdf-syntax-ns#"
   xmlns:cc="http://creativecommons.org/ns#"
   xmlns:dc="http://purl.org/dc/elements/1.1/">
  <metadata
     id="metadata10">
    <rdf:RDF>
      <cc:Work
         rdf:about="">
        <dc:format>image/svg+xml</dc:format>
        <dc:type
           rdf:resource="http://purl.org/dc/dcmitype/StillImage" />
      </cc:Work>
    </rdf:RDF>
  </metadata>
  <defs
     id="defs8" />
  <sodipodi:namedview
     pagecolor="#ffffff"
     bordercolor="#666666"
     borderopacity="1"
     objecttolerance="10"
     gridtolerance="10"
     guidetolerance="10"
     inkscape:pageopacity="0"
     inkscape:pageshadow="2"
     inkscape:window-width="1920"
     inkscape:window-height="1043"
     id="namedview6"
     showgrid="false"
     inkscape:zoom="7.8755493"
     inkscape:cx="-3.8092581"
     inkscape:cy="-0.76185162"
     inkscape:window-x="1920"
     inkscape:window-y="0"
     inkscape:window-maximized="1"
     inkscape:current-layer="svg4"
     inkscape:document-rotation="0"
     inkscape:pagecheckerboard="0" />
  <path
     inkscape:connector-curvature="0"
     style="fill:#1db954;fill-opacity:1;stroke-width:0.0927419"
     d="M 24,1 C 11.303629,1 1,11.303629 1,24 1,36.696372 11.303629,47 24,47 36.696372,47 47,36.696372 47,24 47,11.303629 36.696372,1 24,1 Z m 9.339114,33.841533 c -0.389518,0 -0.630645,-0.120563 -0.99234,-0.333871 -5.787097,-3.487098 -12.520161,-3.635484 -19.169758,-2.272177 -0.361693,0.09273 -0.834677,0.241127 -1.103629,0.241127 -0.899596,0 -1.465322,-0.714111 -1.465322,-1.465321 0,-0.955243 0.565726,-1.409678 1.26129,-1.558064 7.595565,-1.678629 15.358065,-1.530243 21.979838,2.429837 0.565726,0.361694 0.899597,0.686291 0.899597,1.530242 0,0.843951 -0.658468,1.428227 -1.409676,1.428227 z m 2.494756,-6.083871 c -0.482257,0 -0.806854,-0.213307 -1.140724,-0.389516 -5.796372,-3.431452 -14.43992,-4.813308 -22.128226,-2.726614 -0.445162,0.120562 -0.686291,0.241129 -1.10363,0.241129 -0.992338,0 -1.799193,-0.806854 -1.799193,-1.799193 0,-0.992338 0.482258,-1.650805 1.4375,-1.919759 2.578226,-0.723386 5.212097,-1.261289 9.070162,-1.261289 6.018951,0 11.83387,1.493145 16.415322,4.219758 0.75121,0.445162 1.047983,1.020161 1.047983,1.827015 -0.0092,1.001613 -0.788305,1.808469 -1.799194,1.808469 z m 2.875001,-7.066936 c -0.482259,0 -0.779032,-0.120563 -1.19637,-0.361693 -6.603226,-3.941533 -18.409275,-4.8875 -26.051211,-2.754436 -0.33387,0.09274 -0.751209,0.241129 -1.19637,0.241129 -1.224194,0 -2.1608876,-0.955242 -2.1608876,-2.18871 0,-1.26129 0.7790323,-1.975403 1.6137097,-2.216532 3.2645159,-0.955242 6.9185479,-1.409677 10.8971779,-1.409677 6.77016,0 13.864918,1.409677 19.049194,4.433065 0.723386,0.417338 1.19637,0.992338 1.19637,2.095967 0,1.26129 -1.020162,2.160887 -2.151613,2.160887 z"
     id="path894" />
</svg>
