<?xml version="1.0" encoding="UTF-8" standalone="no"?>
<svg
   inkscape:version="1.1 (c68e22c387, 2021-05-23)"
   inkscape:export-ydpi="96"
   inkscape:export-xdpi="96"
   inkscape:export-filename="/home/lorenzo/Escritorio/iconos-web/engranaje.png"
   sodipodi:docname="twitter.svg"
   id="svg8"
   version="1.1"
   viewBox="0 0 12.7 12.7"
   height="48"
   width="48"
   xmlns:inkscape="http://www.inkscape.org/namespaces/inkscape"
   xmlns:sodipodi="http://sodipodi.sourceforge.net/DTD/sodipodi-0.dtd"
   xmlns="http://www.w3.org/2000/svg"
   xmlns:svg="http://www.w3.org/2000/svg"
   xmlns:rdf="http://www.w3.org/1999/02/22-rdf-syntax-ns#"
   xmlns:cc="http://creativecommons.org/ns#"
   xmlns:dc="http://purl.org/dc/elements/1.1/">
  <defs
     id="defs2" />
  <sodipodi:namedview
     inkscape:document-rotation="0"
     inkscape:window-maximized="0"
     inkscape:window-y="30"
     inkscape:window-x="232"
     inkscape:window-height="773"
     inkscape:window-width="1576"
     units="px"
     showgrid="false"
     inkscape:current-layer="layer1"
     inkscape:document-units="mm"
     inkscape:cy="20.75"
     inkscape:cx="28.3125"
     inkscape:zoom="8"
     inkscape:pageshadow="2"
     inkscape:pageopacity="0.0"
     borderopacity="1.0"
     bordercolor="#666666"
     pagecolor="#ffffff"
     id="base"
     inkscape:pagecheckerboard="0" />
  <metadata
     id="metadata5">
    <rdf:RDF>
      <cc:Work
         rdf:about="">
        <dc:format>image/svg+xml</dc:format>
        <dc:type
           rdf:resource="http://purl.org/dc/dcmitype/StillImage" />
      </cc:Work>
    </rdf:RDF>
  </metadata>
  <g
     transform="translate(0,-290.64998)"
     id="layer1"
     inkscape:groupmode="layer"
     inkscape:label="Capa 1">
    <path
       d="m 12.435412,293.23138 c -0.447911,0.19299 -0.934435,0.33207 -1.436405,0.38612 0.517415,-0.30889 0.911268,-0.79542 1.096611,-1.3746 -0.478802,0.28572 -1.019384,0.49423 -1.583135,0.60235 -0.455633,-0.48652 -1.104332,-0.78771 -1.8225343,-0.78771 -1.3823463,0 -2.4944015,1.11979 -2.4944015,2.49441 0,0.19299 0.023167,0.38613 0.06178,0.57147 -2.0696581,-0.1081 -3.9153609,-1.0966 -5.143255,-2.61023 -0.216233,0.37068 -0.3397947,0.79542 -0.3397947,1.25877 0,0.86495 0.4401885,1.62946 1.1120552,2.07738 -0.4092981,-0.0146 -0.7954284,-0.13131 -1.1275004,-0.31663 0,0.008 0,0.0232 0,0.031 0,1.21243 0.8572092,2.21638 2.0001549,2.44806 -0.2085096,0.0539 -0.432466,0.0849 -0.6564216,0.0849 -0.162175,0 -0.3166268,-0.0146 -0.4710789,-0.0387 0.3166269,0.9885 1.2356168,1.70671 2.3322269,1.72988 -0.8572092,0.67185 -1.9306514,1.06571 -3.0967648,1.06571 -0.2085105,0 -0.4015755,-0.008 -0.6023632,-0.0309 1.1043325,0.71047 2.4171753,1.11976 3.8304121,1.11976 4.5872276,0 7.0970743,-3.79951 7.0970743,-7.09707 0,-0.1081 0,-0.21624 -0.0077,-0.32436 0.486525,-0.35522 0.911268,-0.79542 1.251062,-1.28967 z"
       style="font-style:normal;font-variant:normal;font-weight:normal;font-stretch:normal;font-size:6.61861px;line-height:1.25;font-family:FontAwesome;-inkscape-font-specification:FontAwesome;letter-spacing:0px;word-spacing:0px;fill:#1da1f2;fill-opacity:1;stroke:none;stroke-width:0.12974"
       id="path6793" />
  </g>
</svg>
