<?xml version="1.0" encoding="UTF-8" standalone="no"?>
<svg
   xmlns:dc="http://purl.org/dc/elements/1.1/"
   xmlns:cc="http://creativecommons.org/ns#"
   xmlns:rdf="http://www.w3.org/1999/02/22-rdf-syntax-ns#"
   xmlns:svg="http://www.w3.org/2000/svg"
   xmlns="http://www.w3.org/2000/svg"
   xmlns:sodipodi="http://sodipodi.sourceforge.net/DTD/sodipodi-0.dtd"
   xmlns:inkscape="http://www.inkscape.org/namespaces/inkscape"
   inkscape:version="1.0 (1.0+r73+1)"
   inkscape:export-ydpi="96"
   inkscape:export-xdpi="96"
   inkscape:export-filename="/home/lorenzo/Escritorio/iconos-web/engranaje.png"
   sodipodi:docname="twitter.svg"
   id="svg8"
   version="1.1"
   viewBox="0 0 6.3499999 6.3500002"
   height="24"
   width="24">
  <defs
     id="defs2" />
  <sodipodi:namedview
     inkscape:document-rotation="0"
     inkscape:window-maximized="0"
     inkscape:window-y="30"
     inkscape:window-x="232"
     inkscape:window-height="773"
     inkscape:window-width="1576"
     units="px"
     showgrid="false"
     inkscape:current-layer="layer1"
     inkscape:document-units="mm"
     inkscape:cy="20.713281"
     inkscape:cx="28.368924"
     inkscape:zoom="8"
     inkscape:pageshadow="2"
     inkscape:pageopacity="0.0"
     borderopacity="1.0"
     bordercolor="#666666"
     pagecolor="#ffffff"
     id="base" />
  <metadata
     id="metadata5">
    <rdf:RDF>
      <cc:Work
         rdf:about="">
        <dc:format>image/svg+xml</dc:format>
        <dc:type
           rdf:resource="http://purl.org/dc/dcmitype/StillImage" />
        <dc:title />
      </cc:Work>
    </rdf:RDF>
  </metadata>
  <g
     transform="translate(0,-290.64998)"
     id="layer1"
     inkscape:groupmode="layer"
     inkscape:label="Capa 1">
    <path
       d="m 6.0854144,292.0226 c -0.2142184,0.0923 -0.4469039,0.15882 -0.6869763,0.18467 0.2474592,-0.14773 0.4358237,-0.38042 0.5244658,-0.65742 -0.2289921,0.13665 -0.4875315,0.23637 -0.7571513,0.28808 -0.2179118,-0.23268 -0.5281591,-0.37673 -0.8716472,-0.37673 -0.6611223,0 -1.1929749,0.53555 -1.1929749,1.19298 0,0.0923 0.01108,0.18467 0.029547,0.27331 -0.9898367,-0.0517 -1.8725643,-0.52446 -2.45981815,-1.24837 -0.10341578,0.17728 -0.16251052,0.38042 -0.16251052,0.60202 0,0.41367 0.21052499,0.77931 0.53185257,0.99353 -0.19575128,-0.007 -0.38042232,-0.0628 -0.53923941,-0.15143 0,0.004 0,0.0111 0,0.0148 0,0.57986 0.4099697,1.06001 0.95659601,1.17081 -0.099722,0.0258 -0.2068316,0.0406 -0.3139408,0.0406 -0.077562,0 -0.15143025,-0.007 -0.22529867,-0.0185 0.15143027,0.47276 0.59094727,0.81625 1.11541307,0.82733 -0.4099697,0.32132 -0.9233552,0.50969 -1.48106172,0.50969 -0.0997224,0 -0.19205787,-0.004 -0.28808681,-0.0148 0.52815916,0.33979 1.15604063,0.53554 1.83193663,0.53554 2.1938919,0 3.3942537,-1.81716 3.3942537,-3.39425 0,-0.0517 0,-0.10342 -0.00369,-0.15513 0.2326856,-0.16989 0.4358237,-0.38042 0.5983342,-0.6168 z"
       style="font-style:normal;font-variant:normal;font-weight:normal;font-stretch:normal;font-size:6.61861px;line-height:1.25;font-family:FontAwesome;-inkscape-font-specification:FontAwesome;letter-spacing:0px;word-spacing:0px;fill:#1da1f2;fill-opacity:1;stroke:none;stroke-width:0.0620495"
       id="path6793" />
  </g>
</svg>
