<?xml version="1.0" encoding="UTF-8" standalone="no"?>
<svg
   xmlns:dc="http://purl.org/dc/elements/1.1/"
   xmlns:cc="http://creativecommons.org/ns#"
   xmlns:rdf="http://www.w3.org/1999/02/22-rdf-syntax-ns#"
   xmlns:svg="http://www.w3.org/2000/svg"
   xmlns="http://www.w3.org/2000/svg"
   xmlns:sodipodi="http://sodipodi.sourceforge.net/DTD/sodipodi-0.dtd"
   xmlns:inkscape="http://www.inkscape.org/namespaces/inkscape"
   viewBox="0 0 22 22"
   fill="#ffffff"
   fill-rule="evenodd"
   stroke="#000000"
   stroke-linecap="round"
   stroke-linejoin="round"
   version="1.1"
   id="svg7"
   sodipodi:docname="wireguard-active-light.svg"
   width="22"
   height="22"
   inkscape:version="1.0.1 (1.0.1+r73)">
  <metadata
     id="metadata13">
    <rdf:RDF>
      <cc:Work
         rdf:about="">
        <dc:format>image/svg+xml</dc:format>
        <dc:type
           rdf:resource="http://purl.org/dc/dcmitype/StillImage" />
        <dc:title></dc:title>
      </cc:Work>
    </rdf:RDF>
  </metadata>
  <defs
     id="defs11" />
  <sodipodi:namedview
     pagecolor="#ffffff"
     bordercolor="#666666"
     borderopacity="1"
     objecttolerance="10"
     gridtolerance="10"
     guidetolerance="10"
     inkscape:pageopacity="0"
     inkscape:pageshadow="2"
     inkscape:window-width="1920"
     inkscape:window-height="1016"
     id="namedview9"
     showgrid="false"
     inkscape:zoom="12.814453"
     inkscape:cx="4.1517604"
     inkscape:cy="22.929676"
     inkscape:window-x="0"
     inkscape:window-y="27"
     inkscape:window-maximized="1"
     inkscape:current-layer="svg7" />
  <path
     d="m 20.982773,10.704063 c 0,0 0.462501,-9.704063 -10.202508,-9.704063 -9.4318819,0 -9.7265697,9.30875 -9.7265697,9.30875 0,0 -1.38750102,10.69125 9.9437577,10.69125 10.867821,0 9.98532,-10.295937 9.98532,-10.295937 z M 7.7962005,7.3134375 C 9.7974521,6.0890625 12.354017,6.8375 13.31183,8.6784375 13.49308,9.0275 13.516517,9.564375 13.40152,9.930625 c -0.396875,1.26375 -1.334376,1.9725 -2.620627,2.273437 0.379376,-0.325 0.681251,-0.692812 0.777188,-1.201562 A 1.7593764,1.759375 0 0 0 11.255266,9.6053125 1.7843764,1.784375 0 0 0 9.2012016,8.979375 C 8.4090135,9.28 7.9752632,10.002812 8.0533882,10.891875 c 0.0725,0.825 0.6990631,1.360313 1.8706265,1.563437 l -0.4418754,0.234375 c -0.5368754,0.29375 -1.0037508,0.7 -1.3696885,1.19125 -0.1187501,0.160626 -0.2006252,0.173438 -0.3818753,0.0625 -2.3562518,-1.4375 -2.5071895,-5.0562495 0.0625,-6.6299995 z M 6.0330742,16.21875 c -0.3750003,0.09594 -0.7453131,0.238125 -1.1321884,0.365625 0.1893751,-1.276562 1.6875013,-2.4525 2.9487523,-2.31875 a 3.2593775,3.259375 0 0 0 -0.6162505,1.72625 C 6.8133873,16.069375 6.420887,16.12125 6.0333867,16.21875 Z M 14.08558,3.75 c 0.374063,0.01375 0.748751,0.00813 1.122814,0.016875 a 1.9343765,1.934375 0 0 1 0.277812,0.03875 2.9437523,2.94375 0 0 1 -0.2825,0.3625 c -0.13375,0.125 -0.285,0.25 -0.478125,0.057188 -0.04625,-0.045625 -0.15625,-0.035 -0.236563,-0.03625 -0.375,-0.005 -0.744688,-0.016875 -1.116251,-0.00313 -0.3225,0.010313 -0.64375,0.043125 -0.961563,0.098125 -0.0625,0.010625 -0.14875,0.20875 -0.12125,0.281875 0.06469,0.1725 0.15875,0.3625 0.298438,0.4725 0.515625,0.4071875 1.064688,0.773125 1.583126,1.1775 0.50375,0.393125 0.972501,0.82375 1.258438,1.416875 0.375001,0.7728125 0.383126,1.5828125 0.222501,2.396876 -0.268126,1.358437 -0.955626,2.484375 -2.068752,3.301562 -0.448438,0.329375 -1.004063,0.51625 -1.517814,0.75 -0.451875,0.208125 -0.916875,0.3875 -1.370001,0.59375 -0.8165629,0.37125 -1.2756257,1.2575 -1.1406256,2.179062 0.1237501,0.845625 0.8656256,1.55125 1.7187516,1.696875 1.019375,0.175 2.071251,-0.487501 2.320626,-1.524063 0.280313,-1.165624 -0.3525,-2.205624 -1.537501,-2.520937 l -0.213437,-0.055 c 0.316875,-0.141563 0.59375,-0.242501 0.84375,-0.38125 q 0.661563,-0.364063 1.298751,-0.770938 c 0.125,-0.08 0.1925,-0.08 0.299063,0.0125 0.815001,0.704688 1.301251,1.58125 1.437501,2.65625 0.225625,1.779061 -0.616563,3.413125 -2.204689,4.250624 -2.457189,1.295938 -5.4643793,-0.179063 -6.0068797,-2.90625 -0.4650004,-2.333436 1.1818759,-4.449999 3.1640647,-4.858749 0.852501,-0.175625 1.631876,-0.530626 2.238127,-1.1875 0.390625,-0.42375 0.580625,-0.7875 0.645,-0.950937 A 2.637502,2.6375 0 0 0 13.739643,9.35 2.2593767,2.259375 0 0 0 13.54183,8.5234375 C 13.334955,8.0546875 12.541829,7.3046875 12.345892,7.143125 L 10.479328,5.681875 C 10.416828,5.6278125 10.339327,5.631875 10.178702,5.6425 9.9912022,5.655 9.5005768,5.6825 9.2899517,5.626875 9.4602643,5.498125 9.9243272,5.310625 10.12339,5.1596875 9.5183893,4.7509375 8.8280763,4.89875 8.1940133,4.7765625 8.3408884,4.5034375 9.069014,4.08375 9.4752643,4.0371875 9.4508893,3.806875 9.4133893,3.5778125 9.3627642,3.351875 9.3377642,3.2590625 9.2340141,3.1690625 9.1440141,3.11625 8.9252639,2.99125 8.6927637,2.881875 8.4408885,2.75375 A 1.4625011,1.4625 0 0 1 9.1962016,2.52 C 9.4505768,2.510625 9.704952,2.535 9.9524522,2.59375 10.401828,2.696875 10.760578,2.629375 11.118078,2.32375 10.836828,2.2103125 10.555578,2.106875 10.28214,1.984375 10.014327,1.8625 9.753077,1.7265625 9.4999518,1.576875 10.208077,1.6753125 10.893078,1.940625 11.617141,1.84375 q 0.0094,-0.049375 0.01875,-0.09875 L 9.9483897,1.35625 C 10.94839,1.2646875 11.884329,1.249375 12.768704,1.68 c 0.248751,0.12125 0.509376,0.21875 0.747501,0.359375 0.11625,0.0675 0.194688,0.200625 0.29,0.3040625 0.07563,0.082188 0.136563,0.1921875 0.229688,0.241875 0.353125,0.1875 0.742188,0.1953125 1.138438,0.1859375 l 0.0087,-0.1328125 c 0.39875,0.125 0.847501,0.584375 0.843751,0.9203125 -0.645938,0 -1.291564,-0.0025 -1.937502,0.00313 -0.06875,6.25e-4 -0.1375,0.050937 -0.20625,0.078125 0.0625,0.038125 0.129375,0.10625 0.19625,0.109375 z M 13.252142,2.79375 c -0.02656,0.016563 -0.04375,0.044687 -0.04594,0.075937 a 0.10000008,0.1 0 0 0 0.03344,0.082187 0.15000012,0.15 0 0 0 0.09062,0.070312 c 0.03813,0.010313 0.07938,0.00469 0.11375,-0.015625 L 13.64245,2.902186 13.4862,2.766561 c -0.0875,-0.0725 -0.160625,-0.026875 -0.23125,0.027188 z"
     stroke="none"
     fill="#88171a"
     fill-rule="nonzero"
     id="path838"
     style="stroke-width:0.3125;fill:#dcd8d0;fill-opacity:1" />
  <symbol
     id="A"
     overflow="visible">
    <path
       d="M 63.945,31.053 C 63.945,31.053 65.425,0 31.297,0 1.115,0 0.172,29.788 0.172,29.788 0.172,29.788 -4.268,64 31.992,64 66.769,64 63.945,31.053 63.945,31.053 Z M 21.748,20.203 c 6.404,-3.918 14.585,-1.523 17.65,4.368 0.58,1.117 0.655,2.835 0.287,4.007 -1.27,4.044 -4.27,6.312 -8.386,7.275 1.214,-1.04 2.18,-2.217 2.487,-3.845 a 5.63,5.63 0 0 0 -0.969,-4.471 5.71,5.71 0 0 0 -6.573,-2.003 c -2.535,0.962 -3.923,3.275 -3.673,6.12 0.232,2.64 2.237,4.353 5.986,5.003 l -1.414,0.75 c -1.718,0.94 -3.212,2.24 -4.383,3.812 -0.38,0.514 -0.642,0.555 -1.222,0.2 -7.54,-4.6 -8.023,-16.18 0.2,-21.216 z M 16.106,48.7 c -1.2,0.307 -2.385,0.762 -3.623,1.17 0.606,-4.085 5.4,-7.848 9.436,-7.42 a 10.43,10.43 0 0 0 -1.972,5.524 c -1.344,0.248 -2.6,0.414 -3.84,0.726 z M 41.874,8.8 c 1.197,0.044 2.396,0.026 3.593,0.054 a 6.19,6.19 0 0 1 0.889,0.124 9.42,9.42 0 0 1 -0.904,1.16 c -0.428,0.4 -0.912,0.8 -1.53,0.183 -0.148,-0.146 -0.5,-0.112 -0.757,-0.116 -1.2,-0.016 -2.383,-0.054 -3.572,-0.01 -1.032,0.033 -2.06,0.138 -3.077,0.314 -0.2,0.034 -0.476,0.668 -0.388,0.902 0.207,0.552 0.508,1.16 0.955,1.512 1.65,1.303 3.407,2.474 5.066,3.768 1.612,1.258 3.112,2.636 4.027,4.534 1.2,2.473 1.226,5.065 0.712,7.67 -0.858,4.347 -3.058,7.95 -6.62,10.565 -1.435,1.054 -3.213,1.652 -4.857,2.4 -1.446,0.666 -2.934,1.24 -4.384,1.9 -2.613,1.188 -4.082,4.024 -3.65,6.973 0.396,2.706 2.77,4.964 5.5,5.43 3.262,0.56 6.628,-1.56 7.426,-4.877 0.897,-3.73 -1.128,-7.058 -4.92,-8.067 L 34.7,43.043 c 1.014,-0.453 1.9,-0.776 2.7,-1.22 q 2.117,-1.165 4.156,-2.467 c 0.4,-0.256 0.616,-0.256 0.957,0.04 2.608,2.255 4.164,5.06 4.6,8.5 0.722,5.693 -1.973,10.922 -7.055,13.602 -7.863,4.147 -17.486,-0.573 -19.222,-9.3 -1.488,-7.467 3.782,-14.24 10.125,-15.548 2.728,-0.562 5.222,-1.698 7.162,-3.8 1.25,-1.356 1.858,-2.52 2.064,-3.043 a 8.44,8.44 0 0 0 0.58,-3.087 7.23,7.23 0 0 0 -0.633,-2.645 c -0.662,-1.5 -3.2,-3.9 -3.827,-4.417 l -5.973,-4.676 c -0.2,-0.173 -0.448,-0.16 -0.962,-0.126 -0.6,0.04 -2.17,0.128 -2.844,-0.05 0.545,-0.412 2.03,-1.012 2.667,-1.495 -1.936,-1.308 -4.145,-0.835 -6.174,-1.226 0.47,-0.874 2.8,-2.217 4.1,-2.366 -0.078,-0.737 -0.198,-1.47 -0.36,-2.193 -0.08,-0.297 -0.412,-0.585 -0.7,-0.754 -0.7,-0.4 -1.444,-0.75 -2.25,-1.16 a 4.68,4.68 0 0 1 2.417,-0.748 c 0.814,-0.03 1.628,0.048 2.42,0.236 1.438,0.33 2.586,0.114 3.73,-0.864 C 31.478,3.873 30.578,3.542 29.703,3.15 28.846,2.76 28.01,2.325 27.2,1.846 29.466,2.161 31.658,3.01 33.975,2.7 q 0.03,-0.158 0.06,-0.316 l -5.4,-1.244 c 3.2,-0.293 6.195,-0.342 9.025,1.036 0.796,0.388 1.63,0.7 2.392,1.15 0.372,0.216 0.623,0.642 0.928,0.973 0.242,0.263 0.437,0.615 0.735,0.774 1.13,0.6 2.375,0.625 3.643,0.595 l 0.028,-0.425 c 1.276,0.4 2.712,1.87 2.7,2.945 -2.067,0 -4.133,-0.008 -6.2,0.01 -0.22,0.002 -0.44,0.163 -0.66,0.25 0.2,0.122 0.414,0.34 0.628,0.35 z M 39.207,5.74 c -0.085,0.053 -0.14,0.143 -0.147,0.243 a 0.32,0.32 0 0 0 0.107,0.263 0.48,0.48 0 0 0 0.29,0.225 c 0.122,0.033 0.254,0.015 0.364,-0.05 l 0.635,-0.334 -0.5,-0.434 C 39.676,5.421 39.442,5.567 39.216,5.74 Z"
       stroke="none"
       fill="#88171a"
       fill-rule="nonzero"
       id="path4" />
  </symbol>
</svg>
