<?xml version="1.0" encoding="UTF-8" standalone="no"?>
<svg
   xmlns:dc="http://purl.org/dc/elements/1.1/"
   xmlns:cc="http://creativecommons.org/ns#"
   xmlns:rdf="http://www.w3.org/1999/02/22-rdf-syntax-ns#"
   xmlns:svg="http://www.w3.org/2000/svg"
   xmlns="http://www.w3.org/2000/svg"
   xmlns:sodipodi="http://sodipodi.sourceforge.net/DTD/sodipodi-0.dtd"
   xmlns:inkscape="http://www.inkscape.org/namespaces/inkscape"
   width="24"
   height="24"
   viewBox="0 0 6.3499999 6.3500002"
   version="1.1"
   id="svg8"
   sodipodi:docname="youtube.svg"
   inkscape:export-filename="/home/lorenzo/Escritorio/iconos-web/youtube.png"
   inkscape:export-xdpi="96"
   inkscape:export-ydpi="96"
   inkscape:version="1.0 (1.0+r73+1)">
  <defs
     id="defs2" />
  <sodipodi:namedview
     id="base"
     pagecolor="#ffffff"
     bordercolor="#666666"
     borderopacity="1.0"
     inkscape:pageopacity="0.0"
     inkscape:pageshadow="2"
     inkscape:zoom="8"
     inkscape:cx="28.368924"
     inkscape:cy="20.713281"
     inkscape:document-units="mm"
     inkscape:current-layer="layer1"
     showgrid="false"
     units="px"
     inkscape:window-width="1920"
     inkscape:window-height="1043"
     inkscape:window-x="1920"
     inkscape:window-y="0"
     inkscape:window-maximized="1"
     inkscape:document-rotation="0" />
  <metadata
     id="metadata5">
    <rdf:RDF>
      <cc:Work
         rdf:about="">
        <dc:format>image/svg+xml</dc:format>
        <dc:type
           rdf:resource="http://purl.org/dc/dcmitype/StillImage" />
        <dc:title />
      </cc:Work>
    </rdf:RDF>
  </metadata>
  <g
     inkscape:label="Capa 1"
     inkscape:groupmode="layer"
     id="layer1"
     transform="translate(0,-290.64998)">
    <path
       id="path7413"
       style="font-style:normal;font-variant:normal;font-weight:normal;font-stretch:normal;font-size:5.82083px;line-height:1.25;font-family:FontAwesome;-inkscape-font-specification:FontAwesome;letter-spacing:0px;word-spacing:0px;fill:#ff0000;fill-opacity:1;stroke:none;stroke-width:0.0545703"
       d="m 3.8343893,295.02649 c 0,-0.14292 -0.042227,-0.21763 -0.126681,-0.21763 -0.048724,0 -0.097447,0.0227 -0.1461704,0.0715 v 0.97772 c 0.048724,0.0487 0.097447,0.0715 0.1461704,0.0715 0.084454,0 0.126681,-0.0715 0.126681,-0.21763 z m 1.0979021,0.003 c 0,-0.14617 -0.048724,-0.22088 -0.1461704,-0.22088 -0.097447,0 -0.1461704,0.0747 -0.1461704,0.22088 v 0.14942 h 0.2923408 z m -3.1377911,-0.70811 v 1.84824 H 1.4696772 v -1.84824 H 1.1286129 v -0.30534 H 2.142061 v 0.30534 z m 0.9354905,1.84824 v -0.17541 c -0.1169363,0.13318 -0.2273762,0.19815 -0.3313196,0.19815 -0.094199,0 -0.1624115,-0.039 -0.1883974,-0.12019 -0.016241,-0.0487 -0.025986,-0.12343 -0.025986,-0.23712 v -1.27006 h 0.2890925 v 1.18236 c 0,0.0682 0,0.10394 0.00325,0.11369 0.0065,0.0455 0.029234,0.0682 0.068213,0.0682 0.058468,0 0.1201846,-0.0455 0.1851492,-0.13643 v -1.22783 H 3.019085 v 1.60463 z m 1.393491,-0.48074 c 0,0.14942 -0.0065,0.25661 -0.029234,0.32482 -0.035731,0.11694 -0.1169363,0.17866 -0.2306244,0.17866 -0.1039434,0 -0.2046386,-0.0585 -0.3020855,-0.17866 v 0.15592 H 3.2724453 v -2.15358 h 0.2890926 v 0.70487 c 0.094199,-0.11694 0.1948939,-0.17541 0.3020855,-0.17541 0.1136881,0 0.1948938,0.0617 0.2306244,0.1819 0.022738,0.065 0.029234,0.17216 0.029234,0.32158 z m 1.0979021,-0.0325 c 0,0.0942 0,0.15916 -0.0065,0.1884 -0.0065,0.065 -0.032482,0.12343 -0.068213,0.1754 -0.077958,0.11369 -0.1981421,0.17216 -0.3508089,0.17216 -0.1526669,0 -0.266355,-0.0552 -0.350809,-0.16566 -0.061716,-0.078 -0.094199,-0.20464 -0.094199,-0.3768 v -0.56194 c 0,-0.17216 0.029234,-0.29559 0.09095,-0.3768 0.084454,-0.11044 0.1981421,-0.16566 0.3475607,-0.16566 0.1461704,0 0.2598585,0.0552 0.3443125,0.16566 0.058468,0.0812 0.087702,0.20464 0.087702,0.3768 v 0.33457 H 4.6399506 v 0.28259 c 0,0.14942 0.048723,0.22413 0.1494186,0.22413 0.071461,0 0.1136881,-0.039 0.1299292,-0.11694 0.00325,-0.0162 0.0065,-0.0812 0.0065,-0.19814 h 0.295589 z m -1.9749244,-2.96564 c 0,0.14942 -0.042227,0.22738 -0.1396739,0.22738 -0.094199,0 -0.139674,-0.078 -0.139674,-0.22738 v -0.68212 c 0,-0.14942 0.045475,-0.22413 0.139674,-0.22413 0.097447,0 0.1396739,0.0747 0.1396739,0.22413 z m 2.335478,2.43943 c 0,-0.3768 0,-0.77308 -0.084454,-1.13689 -0.058468,-0.25661 -0.2696031,-0.445 -0.5197169,-0.47424 -0.5976745,-0.065 -1.2018455,-0.065 -1.8027682,-0.065 -0.6009227,0 -1.2050937,0 -1.7995199,0.065 -0.2533621,0.0292 -0.46124883,0.21763 -0.52296522,0.47424 -0.0812058,0.36381 -0.084454,0.76009 -0.084454,1.13689 0,0.37354 0,0.77307 0.084454,1.13688 0.0584682,0.25661 0.26960312,0.445 0.51971692,0.47099 0.5976745,0.0682 1.2018455,0.0682 1.8027682,0.0682 0.6009227,0 1.2050937,0 1.8027682,-0.0682 0.2501138,-0.026 0.4580006,-0.21438 0.5197169,-0.47099 0.081206,-0.36381 0.084454,-0.76334 0.084454,-1.13688 z M 2.3402031,290.98569 2.1193234,291.83998 1.888699,290.98569 H 1.5443865 c 0.068213,0.20139 0.1396739,0.40603 0.211135,0.60742 0.1039434,0.30209 0.168908,0.52946 0.1981421,0.68863 v 0.88027 h 0.3248231 v -0.88027 l 0.3930359,-1.29605 z m 1.2018454,1.08166 c 0,-0.17215 -0.029234,-0.29883 -0.09095,-0.38004 -0.081206,-0.11044 -0.1948938,-0.16566 -0.3443124,-0.16566 -0.1461704,0 -0.2598585,0.0552 -0.3410643,0.16566 -0.061716,0.0812 -0.09095,0.20789 -0.09095,0.38004 v 0.56844 c 0,0.17216 0.029234,0.29884 0.09095,0.3833 0.081206,0.11044 0.1948939,0.16566 0.3410643,0.16566 0.1494186,0 0.2631067,-0.0552 0.3443124,-0.16566 0.061716,-0.0812 0.09095,-0.21114 0.09095,-0.3833 z m 1.0881574,-0.52621 h -0.295589 v 1.23758 c -0.064965,0.0942 -0.126681,0.13967 -0.1851492,0.13967 -0.038979,0 -0.061716,-0.026 -0.068213,-0.0715 -0.00325,-0.006 -0.00325,-0.0455 -0.00325,-0.11369 v -1.1921 h -0.295589 v 1.2798 c 0,0.11694 0.00974,0.1949 0.025986,0.24362 0.029234,0.0812 0.097447,0.12019 0.1916457,0.12019 0.1071916,0 0.2176314,-0.065 0.3345678,-0.2014 v 0.17866 h 0.295589 z" />
  </g>
</svg>
