<?xml version="1.0" encoding="UTF-8" standalone="no"?>
<svg
   width="48"
   height="48"
   viewBox="0 0 12.7 12.7"
   version="1.1"
   id="svg8"
   sodipodi:docname="youtube.svg"
   inkscape:export-filename="/home/lorenzo/Escritorio/iconos-web/youtube.png"
   inkscape:export-xdpi="96"
   inkscape:export-ydpi="96"
   inkscape:version="1.1 (c68e22c387, 2021-05-23)"
   xmlns:inkscape="http://www.inkscape.org/namespaces/inkscape"
   xmlns:sodipodi="http://sodipodi.sourceforge.net/DTD/sodipodi-0.dtd"
   xmlns="http://www.w3.org/2000/svg"
   xmlns:svg="http://www.w3.org/2000/svg"
   xmlns:rdf="http://www.w3.org/1999/02/22-rdf-syntax-ns#"
   xmlns:cc="http://creativecommons.org/ns#"
   xmlns:dc="http://purl.org/dc/elements/1.1/">
  <defs
     id="defs2" />
  <sodipodi:namedview
     id="base"
     pagecolor="#ffffff"
     bordercolor="#666666"
     borderopacity="1.0"
     inkscape:pageopacity="0.0"
     inkscape:pageshadow="2"
     inkscape:zoom="8"
     inkscape:cx="28.3125"
     inkscape:cy="20.75"
     inkscape:document-units="mm"
     inkscape:current-layer="layer1"
     showgrid="false"
     units="px"
     inkscape:window-width="1920"
     inkscape:window-height="1043"
     inkscape:window-x="1920"
     inkscape:window-y="0"
     inkscape:window-maximized="1"
     inkscape:document-rotation="0"
     inkscape:pagecheckerboard="0" />
  <metadata
     id="metadata5">
    <rdf:RDF>
      <cc:Work
         rdf:about="">
        <dc:format>image/svg+xml</dc:format>
        <dc:type
           rdf:resource="http://purl.org/dc/dcmitype/StillImage" />
      </cc:Work>
    </rdf:RDF>
  </metadata>
  <g
     inkscape:label="Capa 1"
     inkscape:groupmode="layer"
     id="layer1"
     transform="translate(0,-290.64998)">
    <path
       id="path7413"
       style="font-style:normal;font-variant:normal;font-weight:normal;font-stretch:normal;font-size:5.82083px;line-height:1.25;font-family:FontAwesome;-inkscape-font-specification:FontAwesome;letter-spacing:0px;word-spacing:0px;fill:#ff0000;fill-opacity:1;stroke:none;stroke-width:0.114106"
       d="m 7.7287849,299.36406 c 0,-0.29885 -0.088297,-0.45506 -0.2648897,-0.45506 -0.1018818,0 -0.2037615,0.0475 -0.305642,0.1495 v 2.04441 c 0.1018818,0.10183 0.2037615,0.14951 0.305642,0.14951 0.1765931,0 0.2648897,-0.14951 0.2648897,-0.45506 z m 2.2957111,0.006 c 0,-0.30564 -0.1018821,-0.46186 -0.3056423,-0.46186 -0.2037615,0 -0.305642,0.1562 -0.305642,0.46186 v 0.31244 h 0.6112843 z m -6.5611144,-1.48065 v 3.86466 H 2.7841773 v -3.86466 H 2.0710126 v -0.63847 h 2.1191177 v 0.63847 z m 1.9561085,3.86466 v -0.36678 c -0.2445135,0.27848 -0.4754431,0.41433 -0.6927885,0.41433 -0.1969699,0 -0.3396021,-0.0815 -0.3939385,-0.25132 -0.03396,-0.10183 -0.054337,-0.25809 -0.054337,-0.49581 v -2.6557 h 0.6044918 v 2.47232 c 0,0.1426 0,0.21734 0.0068,0.23772 0.013591,0.0951 0.061128,0.14261 0.1426332,0.14261 0.1222565,0 0.2513058,-0.0951 0.3871466,-0.28528 v -2.56739 h 0.6044917 v 3.35528 z m 2.9137865,-1.00522 c 0,0.31243 -0.013591,0.53657 -0.061128,0.67919 -0.074713,0.24453 -0.2445135,0.37358 -0.4822351,0.37358 -0.2173454,0 -0.4278988,-0.12232 -0.6316601,-0.37358 v 0.32603 H 6.5537613 v -4.50313 h 0.6044919 v 1.47388 c 0.1969699,-0.24452 0.4075227,-0.36678 0.6316601,-0.36678 0.2377216,0 0.4075225,0.12902 0.4822351,0.38035 0.047545,0.13592 0.061128,0.35999 0.061128,0.67243 z m 2.2957104,-0.068 c 0,0.19697 0,0.3328 -0.01359,0.39394 -0.01359,0.13592 -0.06792,0.25809 -0.142633,0.36676 -0.16301,0.23773 -0.414315,0.35999 -0.7335404,0.35999 -0.3192262,0 -0.5569477,-0.11542 -0.7335408,-0.34639 -0.129048,-0.1631 -0.1969699,-0.42791 -0.1969699,-0.78789 v -1.17502 c 0,-0.35998 0.061128,-0.61808 0.1901762,-0.78789 0.1765931,-0.23093 0.4143147,-0.34639 0.7267486,-0.34639 0.3056423,0 0.5433633,0.11542 0.7199563,0.34639 0.122257,0.16979 0.183385,0.42791 0.183385,0.78789 v 0.69959 H 9.4132117 v 0.59089 c 0,0.31244 0.1018797,0.46866 0.312434,0.46866 0.1494247,0 0.2377215,-0.0815 0.2716816,-0.24452 0.0068,-0.0339 0.013591,-0.16979 0.013591,-0.41431 h 0.618076 z M 6.499425,294.4797 c 0,0.31244 -0.088297,0.47545 -0.2920578,0.47545 -0.1969699,0 -0.292058,-0.16309 -0.292058,-0.47545 v -1.42631 c 0,-0.31244 0.095088,-0.46865 0.292058,-0.46865 0.2037615,0 0.2920578,0.15619 0.2920578,0.46865 z m 4.883479,5.10084 c 0,-0.78788 0,-1.6165 -0.176593,-2.37723 -0.122256,-0.53626 -0.563739,-0.93018 -1.086727,-0.99132 -1.2497358,-0.13592 -2.513056,-0.13592 -3.769584,-0.13592 -1.256528,0 -2.5198482,0 -3.762792,0.13592 -0.5297795,0.0611 -0.9644702,0.45506 -1.0935191,0.99163 -0.1698011,0.76073 -0.1765931,1.58935 -0.1765931,2.37723 0,0.78108 0,1.61649 0.1765931,2.37722 0.1222569,0.53657 0.5637396,0.93049 1.0867269,0.98484 1.249736,0.1426 2.5130562,0.1426 3.7695842,0.1426 1.256528,0 2.5198482,0 3.769584,-0.1426 0.522988,-0.0544 0.957678,-0.44827 1.086727,-0.98484 0.169802,-0.76073 0.176593,-1.59614 0.176593,-2.37722 z m -6.778459,-8.66609 -0.461859,1.78632 -0.4822351,-1.78632 H 2.9403943 c 0.1426332,0.4211 0.2920578,0.849 0.4414828,1.27011 0.2173454,0.63167 0.3531862,1.1071 0.4143146,1.43992 v 1.84065 h 0.6792044 v -1.84065 l 0.8218372,-2.71003 z m 2.5130559,2.26175 c 0,-0.35997 -0.061128,-0.62486 -0.1901762,-0.79467 -0.1698016,-0.23093 -0.4075225,-0.34639 -0.7199565,-0.34639 -0.3056419,0 -0.5433635,0.11542 -0.7131646,0.34639 -0.129048,0.16979 -0.1901763,0.4347 -0.1901763,0.79467 v 1.1886 c 0,0.35999 0.061128,0.62488 0.1901763,0.80148 0.1698015,0.23093 0.4075227,0.3464 0.7131646,0.3464 0.312434,0 0.5501556,-0.11543 0.7199565,-0.3464 0.129048,-0.16979 0.1901762,-0.44149 0.1901762,-0.80148 z m 2.2753347,-1.1 h -0.618076 v 2.58778 c -0.1358416,0.19697 -0.2648896,0.29205 -0.3871465,0.29205 -0.081505,0 -0.129048,-0.0544 -0.1426332,-0.14951 -0.0068,-0.0125 -0.0068,-0.0951 -0.0068,-0.23772 v -2.49268 H 7.6201082 v 2.67606 c 0,0.24452 0.020366,0.40753 0.054337,0.50941 0.061128,0.16978 0.2037614,0.25131 0.4007307,0.25131 0.2241374,0 0.4550667,-0.13591 0.6995805,-0.42112 v 0.37357 h 0.6180759 z" />
  </g>
</svg>
